<?xml version="1.0" encoding="UTF-8"?>
<svg xmlns="http://www.w3.org/2000/svg" viewBox="0 0 1920 1080">
  <defs>
    <style>
      .cls-1, .cls-2, .cls-3 {
        fill: #fff;
      }

      .cls-4, .cls-5, .cls-6 {
        fill: none;
        stroke-miterlimit: 10;
      }

      .cls-4, .cls-6 {
        stroke: #666;
        stroke-width: .5px;
      }

      .cls-5 {
        stroke: #fff;
      }

      .cls-2, .cls-3 {
        font-family: Gilroy-Bold, Gilroy;
        font-size: 12px;
      }

      .cls-3 {
        letter-spacing: 0em;
      }

      .cls-7 {
        letter-spacing: -.01em;
      }

      .cls-8 {
        letter-spacing: -.02em;
      }

      .cls-6 {
        stroke-dasharray: 0 0 8.98 8.98;
      }

      .cls-9 {
        fill: #666;
      }
    </style>
  </defs>
  <g id="Capa_2" data-name="Capa 2">
    <g>
      <g>
        <g>
          <polyline class="cls-4" points="97.97 113.46 97.97 108.96 102.47 108.96"/>
          <line class="cls-6" x1="111.45" y1="108.96" x2="951.07" y2="108.96"/>
          <polyline class="cls-4" points="955.56 108.96 960.06 108.96 960.06 113.46"/>
          <line class="cls-6" x1="960.06" y1="122.44" x2="960.06" y2="962.05"/>
          <polyline class="cls-4" points="960.06 966.54 960.06 971.04 955.56 971.04"/>
          <line class="cls-6" x1="946.58" y1="971.04" x2="106.96" y2="971.04"/>
          <polyline class="cls-4" points="102.47 971.04 97.97 971.04 97.97 966.54"/>
          <line class="cls-6" x1="97.97" y1="957.56" x2="97.97" y2="117.95"/>
        </g>
        <g>
          <line class="cls-4" x1="97.97" y1="827.36" x2="102.47" y2="827.36"/>
          <line class="cls-6" x1="111.45" y1="827.36" x2="951.07" y2="827.36"/>
          <line class="cls-4" x1="955.56" y1="827.36" x2="960.06" y2="827.36"/>
        </g>
        <g>
          <line class="cls-4" x1="97.97" y1="683.68" x2="102.47" y2="683.68"/>
          <line class="cls-6" x1="111.45" y1="683.68" x2="951.07" y2="683.68"/>
          <line class="cls-4" x1="955.56" y1="683.68" x2="960.06" y2="683.68"/>
        </g>
        <g>
          <line class="cls-4" x1="97.97" y1="540" x2="102.47" y2="540"/>
          <line class="cls-6" x1="111.45" y1="540" x2="951.07" y2="540"/>
          <line class="cls-4" x1="955.56" y1="540" x2="960.06" y2="540"/>
        </g>
        <g>
          <line class="cls-4" x1="97.97" y1="396.32" x2="102.47" y2="396.32"/>
          <line class="cls-6" x1="111.45" y1="396.32" x2="951.07" y2="396.32"/>
          <line class="cls-4" x1="955.56" y1="396.32" x2="960.06" y2="396.32"/>
        </g>
        <g>
          <line class="cls-4" x1="97.97" y1="252.64" x2="102.47" y2="252.64"/>
          <line class="cls-6" x1="111.45" y1="252.64" x2="951.07" y2="252.64"/>
          <line class="cls-4" x1="955.56" y1="252.64" x2="960.06" y2="252.64"/>
        </g>
        <g>
          <line class="cls-4" x1="816.38" y1="108.96" x2="816.38" y2="113.46"/>
          <line class="cls-6" x1="816.38" y1="122.44" x2="816.38" y2="962.05"/>
          <line class="cls-4" x1="816.38" y1="966.54" x2="816.38" y2="971.04"/>
        </g>
        <g>
          <line class="cls-4" x1="672.7" y1="108.96" x2="672.7" y2="113.46"/>
          <line class="cls-6" x1="672.7" y1="122.44" x2="672.7" y2="962.05"/>
          <line class="cls-4" x1="672.7" y1="966.54" x2="672.7" y2="971.04"/>
        </g>
        <g>
          <line class="cls-4" x1="529.02" y1="108.96" x2="529.02" y2="113.46"/>
          <line class="cls-6" x1="529.02" y1="122.44" x2="529.02" y2="962.05"/>
          <line class="cls-4" x1="529.02" y1="966.54" x2="529.02" y2="971.04"/>
        </g>
        <g>
          <line class="cls-4" x1="385.33" y1="108.96" x2="385.33" y2="113.46"/>
          <line class="cls-6" x1="385.33" y1="122.44" x2="385.33" y2="962.05"/>
          <line class="cls-4" x1="385.33" y1="966.54" x2="385.33" y2="971.04"/>
        </g>
        <g>
          <line class="cls-4" x1="241.65" y1="108.96" x2="241.65" y2="113.46"/>
          <line class="cls-6" x1="241.65" y1="122.44" x2="241.65" y2="962.05"/>
          <line class="cls-4" x1="241.65" y1="966.54" x2="241.65" y2="971.04"/>
        </g>
      </g>
      <g>
        <g>
          <polyline class="cls-4" points="960.06 113.46 960.06 108.96 964.56 108.96"/>
          <line class="cls-6" x1="973.54" y1="108.96" x2="1813.16" y2="108.96"/>
          <polyline class="cls-4" points="1817.65 108.96 1822.15 108.96 1822.15 113.46"/>
          <line class="cls-6" x1="1822.15" y1="122.44" x2="1822.15" y2="962.05"/>
          <polyline class="cls-4" points="1822.15 966.54 1822.15 971.04 1817.65 971.04"/>
          <line class="cls-6" x1="1808.67" y1="971.04" x2="969.05" y2="971.04"/>
          <polyline class="cls-4" points="964.56 971.04 960.06 971.04 960.06 966.54"/>
          <line class="cls-6" x1="960.06" y1="957.56" x2="960.06" y2="117.95"/>
        </g>
        <g>
          <line class="cls-4" x1="960.06" y1="827.36" x2="964.56" y2="827.36"/>
          <line class="cls-6" x1="973.54" y1="827.36" x2="1813.16" y2="827.36"/>
          <line class="cls-4" x1="1817.65" y1="827.36" x2="1822.15" y2="827.36"/>
        </g>
        <g>
          <line class="cls-4" x1="960.06" y1="683.68" x2="964.56" y2="683.68"/>
          <line class="cls-6" x1="973.54" y1="683.68" x2="1813.16" y2="683.68"/>
          <line class="cls-4" x1="1817.65" y1="683.68" x2="1822.15" y2="683.68"/>
        </g>
        <g>
          <line class="cls-4" x1="960.06" y1="540" x2="964.56" y2="540"/>
          <line class="cls-6" x1="973.54" y1="540" x2="1813.16" y2="540"/>
          <line class="cls-4" x1="1817.65" y1="540" x2="1822.15" y2="540"/>
        </g>
        <g>
          <line class="cls-4" x1="960.06" y1="396.32" x2="964.56" y2="396.32"/>
          <line class="cls-6" x1="973.54" y1="396.32" x2="1813.16" y2="396.32"/>
          <line class="cls-4" x1="1817.65" y1="396.32" x2="1822.15" y2="396.32"/>
        </g>
        <g>
          <line class="cls-4" x1="960.06" y1="252.64" x2="964.56" y2="252.64"/>
          <line class="cls-6" x1="973.54" y1="252.64" x2="1813.16" y2="252.64"/>
          <line class="cls-4" x1="1817.65" y1="252.64" x2="1822.15" y2="252.64"/>
        </g>
        <g>
          <line class="cls-4" x1="1678.47" y1="108.96" x2="1678.47" y2="113.46"/>
          <line class="cls-6" x1="1678.47" y1="122.44" x2="1678.47" y2="962.05"/>
          <line class="cls-4" x1="1678.47" y1="966.54" x2="1678.47" y2="971.04"/>
        </g>
        <g>
          <line class="cls-4" x1="1534.79" y1="108.96" x2="1534.79" y2="113.46"/>
          <line class="cls-6" x1="1534.79" y1="122.44" x2="1534.79" y2="962.05"/>
          <line class="cls-4" x1="1534.79" y1="966.54" x2="1534.79" y2="971.04"/>
        </g>
        <g>
          <line class="cls-4" x1="1391.1" y1="108.96" x2="1391.1" y2="113.46"/>
          <line class="cls-6" x1="1391.1" y1="122.44" x2="1391.1" y2="962.05"/>
          <line class="cls-4" x1="1391.1" y1="966.54" x2="1391.1" y2="971.04"/>
        </g>
        <g>
          <line class="cls-4" x1="1247.42" y1="108.96" x2="1247.42" y2="113.46"/>
          <line class="cls-6" x1="1247.42" y1="122.44" x2="1247.42" y2="962.05"/>
          <line class="cls-4" x1="1247.42" y1="966.54" x2="1247.42" y2="971.04"/>
        </g>
        <g>
          <line class="cls-4" x1="1103.74" y1="108.96" x2="1103.74" y2="113.46"/>
          <line class="cls-6" x1="1103.74" y1="122.44" x2="1103.74" y2="962.05"/>
          <line class="cls-4" x1="1103.74" y1="966.54" x2="1103.74" y2="971.04"/>
        </g>
      </g>
    </g>
    <rect class="cls-9" x="235.31" y="821.02" width="12.68" height="12.68"/>
    <rect class="cls-9" x="235.31" y="246.3" width="12.68" height="12.68"/>
    <rect class="cls-9" x="1672.12" y="533.66" width="12.68" height="12.68"/>
    <g>
      <path class="cls-5" d="M936.46,434.12c18.47,251.69-252.59,364.22-252.59,364.22"/>
      <polygon class="cls-1" points="931.55 435.96 935.86 426.97 941.49 435.2 931.55 435.96"/>
    </g>
    <g>
      <path class="cls-5" d="M621.33,412.05c-29.36,22.89-151.63,140.82,62.54,386.29"/>
      <polygon class="cls-1" points="617.24 408.95 627.15 407.86 623.14 416.99 617.24 408.95"/>
    </g>
    <g>
      <path class="cls-5" d="M683.87,798.34s-231.05-52.44-194.54-223.41"/>
      <polygon class="cls-1" points="493.89 577.48 490.96 567.95 484.17 575.25 493.89 577.48"/>
    </g>
    <g>
      <path class="cls-5" d="M683.87,798.34s636.06-21.73,809.33-304.04"/>
      <polygon class="cls-1" points="1496.6 498.11 1496.89 488.14 1488.11 492.88 1496.6 498.11"/>
    </g>
    <g>
      <path class="cls-5" d="M683.87,798.34s-492.2,80.98-291.67-329.43"/>
      <polygon class="cls-1" points="396.12 472.43 395.38 462.48 387.14 468.09 396.12 472.43"/>
    </g>
    <text class="cls-2" transform="translate(1710.01 957.47)"><tspan x="0" y="0">Origen</tspan><tspan class="cls-8" x="38.15" y="0">S</tspan><tspan x="44.96" y="0">tudi</tspan><tspan class="cls-7" x="66.98" y="0">o</tspan><tspan x="73.98" y="0">s</tspan></text>
    <text class="cls-3" transform="translate(1789.57 953.47) scale(.58)"><tspan x="0" y="0">®</tspan></text>
  </g>
  <g id="Capa_1" data-name="Capa 1">
    <g>
      <path class="cls-5" d="M848.08,531.5c-3.65,0-7.04,.03-10.44,0-3.16-.03-5.86-.9-5.53-4.75,.3-3.56,2.85-5.74,6.13-5.13,4.17,.77,8.06,1.42,11.97-.68,.78-.42,1.8-.39,2.32,.31,1.78,2.4,3.67,3.01,6.36,1.28,2.94-1.89,5.39-4.17,5.44-7.78,.11-7.74,4.48-12.67,10.48-16.47,2.48-1.57,4.36-3.14,3.81-6.27-.54-3.11-3.3-2.12-5.23-2.61-.48-.12-1-.17-1.45-.36-3.16-1.34-7.78-13.46-5.69-16.1,2.84-3.58,2.71-7.31,2.11-11.33-1.22-8.18,3.27-13.11,11.56-12.74,4.99,.22,9.98,.41,14.97,.64,3.74,.17,5.34-1.84,4.72-5.27-.72-4.01-2.21-7.76-6.66-9.11-3.45-1.04-7.37-2.02-6.94-6.47,.41-4.25,4.08-5.68,7.95-6.25,.24-.04,.45-.31,.7-.5-12.03-.71-13.32-1.91-10.02-9.71-3.82-1.19-7.07,.34-10.41,1.65-5.11,2.01-9.4,.77-11.28-3.12-.74-1.53-1.36-3.29-.52-4.81,1.39-2.52,1.48-4.54-.01-7.24-1.39-2.5-.01-5.03,2.93-5.77,3.15-.79,5.38-2.51,6.87-5.3,.77-1.44,2.05-2.12,3.53-2.57,2.28-.69,2.69-1.91,1.61-4.14-4.31-8.85-.31-15.77,9.8-16.35,3.44-.2,6.36-1.74,9.64-2.13,2.9-.34,1.74-2.78,1.98-4.36,1.05-6.9,5.56-9.11,10.89-5.26,.81,.59,2.15,1.55,1.54,2.23-2.61,2.88-2.15,8.21-6.82,9.24-2.62,.58-2.66,2.14-3.24,4.13-.7,2.36,.5,2.96,2.08,3.68,1.5,.68,2.51,1.91,2.45,3.49-.34,7.72,3.47,13.79,7.39,19.96,1.39,2.18,2.83,3.53,5.24,4.07,1.53,.35,2.64,1.31,3.38,2.74,.92,1.77,1.94,1.57,2.9,.02,2.81-4.55,7.28-6.61,12.2-7.68,2.24-.49,2.95-.96,2.58-3.51-1.24-8.64,.61-11.85,8.45-15.93,.84-.44,2.12-.57,1.51-2-.61-1.42-1.62-2.06-3.17-1.19-1.9,1.06-3.83,1.96-6.01,2.36-6.09,1.11-9.63-.49-11.83-6.23-2.42-6.32-3.09-12.94-1.75-19.65,.22-1.1,.6-2.63,1.4-3.08,6.1-3.46,10.68-8.92,17.54-11.65,6.23-2.48,11.06-7.82,13.5-14.55,1.27-3.51,3.4-6.99,.96-10.91-.36-.58-.33-2.07,.08-2.36,3.95-2.84,6.16-8.28,11.05-9.28,5.6-1.15,9.66-4.21,13.67-7.7,1.27-1.1,2.43-2.84,4.11-2.51,6.43,1.26,12.3-1.68,17.79-3.52,6.57-2.2,12.97-3.46,19.45-2.52,6.21,.9,12.77,1.44,17.48,7.46,2.02,2.58,6.74,4.69,10.12,4.99,10.49,.93,18.74,6.97,28.05,10.52,3.74,1.42,2.9,5.34,4.67,7.81,.55,.78,1.18,1.5,2.4,3.06,.25-4.18,.29-7.29-1.42-10.22-1.23-2.11-2.31-4.29,.35-6.13,2.74-1.88,6.42-3.55,8.67-.94,2.52,2.92,5.4,3.36,8.55,4.02,1.87,.39,2.89,1.68,3.4,4.91,.24-1.91,.34-2.24,.31-2.55-.89-8.63,5.68-13.78,13.05-8.9,4.47,2.96,7.59,4.3,12.23,2.24,5.84,4.61,11.5-1.63,17.33-.31,1.65,.37,1.9-.52,1.85-2.36-.16-5.84,3.41-7.94,8.79-5.37,1.57,.75,3.01,1.15,4.76,.99,6.03-.57,11.84-.83,16.67,4.27,2.19,2.32,5.95-.38,4.85-4.43-1.84-6.73,.8-10.54,5.79-14.07,1.42-1.01,2.21-2.87,2.6-4.74,.9-4.4,3.93-7.19,7.43-9.6,1.9-1.31,3.57-1.22,5.43,.29,3.6,2.94,5.98,6.61,7.45,10.96,.37,1.09-.5,3.18,1.67,2.94,1.59-.17,3.35-.84,3.53-2.94,.13-1.5-.09-3.25,1.95-3.49,2.04-.24,3.56,.91,4.41,2.67,1.31,2.69,3.25,3.15,5.75,1.91,3.27-1.62,6.49-2.24,10.06-.72,2.52,1.07,2.83-.29,2.15-2.49-1.89-6.08,1.59-10.8,7.94-11.78,3.99-.62,8.62,.26,10.22-6.18,.8-3.2,6.15-4.92,10.08-6.1,8.55-2.56,17.64-2.72,26.11-5.87,2.41-.9,5.3-1.04,7.9-.79,9.48,.89,16.54-3.76,24.07-8.7,6.05-3.98,13.72-4.44,21.12-2.93,6.14,9.65,17.11,4.5,25.43,8.13,9.3,4.06,11.83,6.64,8.56,16.36-1.44,4.27,1.04,7.82,5.67,7.96,3.16,.1,6.33,.09,9.5,0,3.49-.09,6.28,.61,8.68,3.7,3.04,3.91,10.16,3.37,12.77-.65,2.09-3.24,5.35-3.4,8.4-3.23,4.97,.26,9.92,1.13,14.86,1.85,4.39,.63,6.73,3.29,7.23,7.67,.32,2.81,.73,5.62,1.1,8.42,.21,1.63,.86,2.9,2.72,3.03,1.59,.11,2.46-.83,2.9-2.23,1.35-4.3,3.77-4.42,7.71-2.87,6.52,2.57,13.42,1.56,20.19,.68,.61-.08,1.44-.47,1.69-.96,3.3-6.32,9.08-5.69,14.77-5.4,7.32,.37,14.64,.63,21.95,1.06,5.56,.33,10.54,1.54,14.72,6.06,4.14,4.48,9.2,6.85,16.14,4.55,7.25-2.4,15.02-.63,22.15,1.51,6.17,1.85,13.22,.94,18.55,4.89,7.07,5.24,15.16,2.7,21.3,.81,7.9-2.44,14.2,1.18,21.21,1.09,3.32-.04,6.62,.22,9.93-.64,5.85-1.54,9.12,3.47,13.09,6.01,5.37,3.43,10.96,6.23,16.66,8.98,6.07,2.93,11.07,8.35,18.75,7.39,1.07-.13,2.33,1.16,3.48,1.84,2.62,1.55,5.66,3.43,5.64,6.49-.03,3.35-3.03,5.33-6.24,6.23-1.76,.5-2.03,1.96-2.79,3.22-3.01,4.92-7.37,5.82-12.32,2.91-4.83-2.84-10.57-2.02-15.8-3.51-2.38-.68-4.12,2.19-4.38,5.05-.28,3.14-.45,6.34-1.15,9.4-1.02,4.49-4.44,6.62-8.95,5.42-4.86-1.29-7.25,2.76-10.32,4.7-4.45,2.81-9.21,4.62-13.99,6.46-2.02,.78-3.99,1.39-5.76,2.75-2.13,1.64-4.55,2-6.92,.2-2.66-2.02-4.87-.67-7.72,.15-6.01,1.72-8.17,7.26-12.5,10.51-2.1,1.58-1.57,3.83-1.25,5.99,.54,3.61,.88,7.11-3.79,8.43-1.05,.3-1.26,1.37-1.52,2.39-3.06,11.72-9.89,20.69-20.62,26.18-4.42,2.26-7.43,6.1-11.66,8.4-1.31,.71-2.65,1.84-4.15,.93-1.6-.96-2.11-2.85-1.49-4.42,1.38-3.52,1.05-8.07,5.88-9.68,2.27-.76,1.52-3.03,1.31-4.81-.65-5.6-2.85-10.85-3.03-16.64-.3-9.95,4.25-16.74,12.42-21.53,1.62-.95,3.17-1.81,4.14-3.43,2.46-4.14,7.7-2.89,10.98-5.69,1.24-1.06,2.34,1.35,3.44,2.25,1.06,.86,1.32,2.34,.38,3.09-3.55,2.84-2.52,6.02-1.19,9.4,.83,2.12-.24,4.65,1.61,7.25,2.27-2.25,1.61-4.71,.97-6.86-2.25-7.55,2.03-14.83,9.55-15.97-5.45-3.87-12.06-1.86-17.99-3.44-1.87-.5-3.29-.73-4.37-2.59-2.86-4.93-6.53-5.62-11.49-2.17-4.42,3.07-7.88,7.17-11.11,11.42-3.59,4.73-5.57,5.3-11.01,2.82-1.97-.9-3.92-1.83-5.92-2.66-1.43-.59-3.14-1-4.26,.21-4.69,5.05-10.6,3.14-16,2.6-4.38-.44-9.38-.44-11.99,1.99-5.25,4.92-13.05,5.81-17.25,12.15-1.98,2.98-4.85,5.37-8.17,7.2-3.68,2.04-3.5,4.14-.01,6.72,7.22,5.35,15.16,3.85,22.9,2,4.47-1.07,6.66-.8,7.08,3.81,.63,6.86,2.56,13.29,4.48,19.8,.98,3.32,.23,6.31-3.38,7.89-3.15,1.38-3.7,3.54-1.89,6.41,1.68,2.66,1.37,4.77-1.84,5.84-3.03,1-5.64,.2-6.09-3.13-.74-5.48-1.93-10.81,1.51-16.35,2.85-4.58-.12-10.01-1.06-14.97-.22-1.19-2.46-1.88-3.88-1.63-1.52,.28-.78,1.95-.87,3.01-.46,5.64,.06,11.55-1.5,16.85-1.65,5.59-.35,11.69-4.12,16.99-3.64,5.11-8.07,9.13-12.55,13.34-2.64,2.49-5.1,4.96-8.23,6.9-2.6,1.61-5.1,2.49-7.95,1.58-2.6-.84-4.97,.1-6.48,1.59-3.24,3.19-5.01,7.61-8.65,10.66-1.36,1.14,.2,3.09,1.24,4.41,3.02,3.81,3.46,8.27,2.92,12.82-.46,3.92-2.24,7.03-6.77,7.36-1.77,.13-3.19,.79-4.31,2.19-1.03,1.29-2.33,1.91-3.96,1.21-1.61-.7-1.93-2.2-2.03-3.73-.1-1.49-.19-3-.09-4.49,.27-3.89-.07-7.23-4.56-8.82-2.33-.82-2.49-3.31-2.6-5.54-.05-1-.19-2.12-1.51-2.21-1.14-.08-1.75,.82-2.29,1.67-.85,1.33,.31,1.63,1.1,2.19,3.29,2.37,2.44,4.65-.24,6.83-.26,.21-.55,.37-.83,.56-10.29,7.09-10.43,8-2.93,18.62,5.04,7.13,4.75,16.64-.92,23.01-2.11,2.37-4.17,4.17,.31,6.22,1.88,.87,2.27,3.21,2.75,5.14,.72,2.91-3.84,13.51-6.39,15.04-2.98,1.8-7.01,.18-8.55-4.33-1.48-4.33-3.42-4.36-6.25-1.73-6.39,5.93-15.16,6.44-22.59,10.03-2.16,1.04-2.98,2.09-3.23,4.33-.19,1.77-.81,3.6-1.66,5.17-2,3.71-7.04,5.7-10.71,4.25-4.47-1.76-3.98-5.6-3.55-9.31,.09-.79,.46-1.55,.74-2.43-4.59,1.2-6.02,3.72-3.85,7.24,1.45,2.35,3.06,4.6,5.06,6.69,9.2,9.6,13.32,24.46-2.89,31.19-2.15,.89-3.27,2.74-4.75,4.3-3.92,4.14-7.62,3.98-11.21-.46-2.51-3.11-4.84-6.37-7.52-9.33-1.43-1.58-3.13-4.56-5.61-2.55-1.92,1.55-2.64,4.29-1.66,7.26,1.65,5.01,4.83,8.61,9.07,11.47,7.5,5.07,10.68,15.83,7.05,23.76-1.02,2.21-2.57,2.66-4.29,.94-3.94-3.95-8.83-7.13-10.15-13.19-.49-2.25-2.75-3.19-4.47-4.64-4.09-3.42-8.81-7.01-8.87-13.4-.07-7.49,.54-14.99-.82-22.44-.93-5.11-2.48-6.24-7.57-5.01-4.36,1.05-8.39-1.18-8.65-5.7-.44-7.69-6.04-12.36-9.61-18.22-.39-.64-1.22-1.19-1.95-1.4-2.24-.65-12.28,3.32-13.6,5.38-1.05,1.64-2.44,2.73-4.26,3.26-2.86,.84-5.13,2.3-6.22,5.25-.57,1.55-2.13,1.94-3.41,2.72-7.04,4.32-13.96,8.78-12.56,18.77,.05,.32,.1,.74-.05,.99-5.4,8.58,2.44,14.37,4.82,21.15,1.42,4.04,1.34,6.03-2.48,7.97-9.22,4.69-7.4,2.57-11.75-4.89-1.17-2.01-1.33-3.79-4.48-2.47-3.28,1.37-6.71-1.94-9.17-6.42-4.79-8.74-8.16-18.13-12.76-26.94-1.31-2.51-2.27-5.05-2.66-7.96-.64-4.8-2.07-9.32-7.16-11.66-7.29-3.36-9.5-11.68-15.58-16.39-2.8-2.17-5.48-3.74-8.91-3.81-5.66-.12-11.33-.19-16.99,0-4.62,.16-5.08,1.11-2.57,4.93,1.39,2.11,2.02,4.27,1.16,6.61-2.65,7.24-7.46,12.72-12.9,18.22-6.2,6.28-14.6,7.72-21.65,11.93-5.49,3.27-11.66,6.79-18.36,8.2-2.46,.52-4.84,1.22-7.01,4.55,5.24-.74,9.52-2.26,13.96-2.26,1.48,0,2.96-.47,4.44-.64,6.15-.71,9.32,2.44,7.45,8.46-1.94,6.28-5,12.2-8.58,17.8-2.05,3.2-3.99,6.5-5.64,9.92-3.13,6.53-10.11,8.74-14.84,13.51-5.47,5.53-11.67,10.4-16.02,16.92-3.28,4.92-4.07,10.69-4.05,16.6,.02,7.07,4.09,13.13,4.55,20.16,.54,8.3,1.05,16.23-5.82,22.58-2.59,2.39-6.15,2.45-8.86,4.98-5.19,4.84-9.71,9.04-7.29,17.29,1.67,5.69-1.47,11.01-4.28,15.99-.72,1.27-1.91,1.8-3.25,2.09-1.34,.29-2.79,.63-2.99,2.22-1.37,10.67-9.16,17.89-15.08,25.65-5.73,7.52-14.91,11.71-24.94,12.11-4.53,.18-8.9,.72-13.28,1.96-9.13,2.59-16.17-1.96-17.01-11.42-.53-5.91-2.93-10.72-5.72-15.73-4.45-7.99-7.94-16.47-8.5-25.8-.33-5.42-3.32-9.81-6.07-14.01-6.83-10.43-6.82-21.94-2.18-32.04,3-6.51,3.74-11.41,2.44-18.12-1.49-7.68-4.58-14.12-9.5-19.88-1.83-2.14-3.56-4.31-5.21-6.61-3.41-4.75-3.93-9.47-1.34-14.5,2.49-4.83-.68-8.23-2.75-11.84-.88-1.53-2.66-1.05-4.07-.38-3.55,1.69-6,.45-7.99-2.68-3.62-5.67-8.07-6.96-14.54-4.37-1.54,.62-3.08,1.26-4.56,1.99-11.23,5.56-23.49,2.8-35.22,4.34-3.22,.42-5.86-.89-8.24-3.63-3.14-3.62-8-5.11-12.06-7.63-1.88-1.16-4.27-2.05-4.29-4.45-.06-6.05-4.24-9.1-8.29-12.3-4.21-3.33-6.88-7.59-8.29-12.75-.97-3.54-.72-6.77,.89-10.15,3.24-6.8,3.34-13.8,.28-20.76-1.44-3.27-.77-6.07,.59-9.45,2.91-7.22,7.33-13.42,11.69-20.02Zm105.06-69.83c1.05,5.23,2.44,9.1,.61,13.3-1.95,4.47-5.3,5.21-9.35,4.65-4.02-.56-4.85-3.51-4.61-7.03,.2-2.93-.27-5.88,1.95-8.52,1.59-1.9,.77-4.82-.15-6.53-.84-1.54-2.73,.97-4.31,1.15-.82,.09-1.73,.59-2.44,.37-6.35-1.88-8.4,2.4-10.33,7.17,.58,.26,1.15,.59,1.76,.79,1.93,.63,4.05,1.19,4.31,3.58,.26,2.47-1.6,3.79-3.4,5.1-3.02,2.21-6.25,3.66-10.06,3.91-3.96,.26-6.18,2.9-7.67,6.55,9.43-5.71,20.38-1.8,30.17-5.27,3.11-1.1,6.9-.43,10.37-.35,5.65,.13,8.38,2.33,8.98,7.82,.78,7.09,1.56,13.77,11.11,13.8,1.52,0,3.48,.88,4.46,2.02,2.84,3.31,6.89,3.76,10.54,5.2,2.52,.99,4.52,1.02,5.25-2.28,.52-2.38,2.45-3.24,4.56-4.13,6.27-2.65,12.42-1.49,17.83,1.51,11.55,6.4,23.58,3.18,35.47,2.72,3.46-.13,4.63-3.96,4.53-6.27-.11-2.52-2.93-.33-4.55-.46-3.52-.26-7.41-.02-7.02-5.35,.08-1.16-.27-2.35-1.44-2.05-5.76,1.48-12.25-1-17.42,4.26-4.36,4.43-10.97,4.12-15.29-.36-2.99-3.1-6.26-5.89-9.2-8.99-2.21-2.33-4.92-4.34-6.01-7.8-1.69-5.36-3.88-5.71-7.9-1.6-1.27,1.3-2.43,2.77-3.36,4.33-5.76,9.61-6.9,9.91-16.69,4.78-2.59-1.36-4.31-2.92-4.16-6.1,.14-3.22,2.26-4.16,4.85-4.76,4.08-.93,3.93-4.63,1.77-5.8-4.45-2.4-8.15-5.82-13.16-9.36Zm23.65-72.15c4.32-1.14,8.42-1.21,12.56-1.05,2.78,.11,4.25-1.21,4.57-4.08,.39-3.46,1.07-6.82,2.67-10.05,1.87-3.76,5.69-7.64,9.29-9.71,3.7-2.13,7.54-2.35,11.55-2.28,1.99,.04,4,.15,5.98-.02,1.62-.14,3.07-1.11,2.73-2.88-.35-1.81-2.01-1.28-3.3-1-3.89,.85-7.74,2.04-11.68,2.51-8.23,.99-12.88-3.14-13.26-11.29-.05-1.16-.15-2.34-.46-3.45-.96-3.48-.05-6.17,2.98-8.22,3.36-2.27,5.11-6.03,7.87-8.87,.94-.97,2.15-2.71,.4-3.87-1.65-1.09-3.06,.47-3.54,1.76-2.71,7.15-8.73,10.71-14.74,14.55-5.3,3.39-5.97,9.56-2.23,14.73,2.53,3.51,2.76,7,.07,10.53-.9,1.17-1.91,2.31-1.83,4.44,3.41-.3,6.04,.81,5.63,4.84-.37,3.68-2.49,5.45-6.31,5.65-4.73,.24-6.34,4.56-8.96,7.76Zm95.26,72.84c.9,0,1.4,.03,1.9,0,1.29-.11,2.91,.28,3.54-1.23,.76-1.82-1.19-2-2.08-2.83-1.21-1.13-2.35-2.35-3.48-3.56-4.48-4.8-10-6.19-15.93-3.74-2.86,1.18-5.24,1.25-7.9-.74-2.22-1.66-5.02-2.43-6.52-5.16-1.08-1.97-2.42-.9-3.62,.23-3.44,3.23-4.08,7.88-6.04,11.85-.86,1.75,.86,2.15,2.14,2.58,3.11,1.05,5.84-.17,8.67-1.24,6.7-2.54,13.25-3.89,19.9,.76,2.74,1.91,6.04,3.7,9.41,3.09Zm52.68-22.45c-9.6,.9-15.06,8.02-11.7,14.91,1.64,3.36,3.87,6.77,6.69,9.12,3.75,3.13,3.33,6.1,1.41,9.61-3.01,5.51-1.27,8.82,5.16,9.65,3.64,.47,5.42-1.49,4.19-4.64-1.93-4.97-3.09-10.02-3.89-15.24-.3-1.98-1.5-3.53-2.92-5.06-7.67-8.29-7.54-10.46,1.06-18.34Zm-67.15,95.05c1.9,5.35,3.24,10.88,7.04,15.37,3.59,4.24,5.54,9.16,3.75,14.71-.72,2.22,.19,3.48,1.27,4.92,1.29,1.72,3.3,3.19,3.88,5.11,1.71,5.67,7.14,7.58,10.68,11.36,.82,.87,2.28,1.79,3.54,.61,1.17-1.09,.74-2.6-.06-3.67-4.98-6.65-5.59-16.25-13.99-20.63-1.3-.68-1.97-2.32-2.15-3.82-1.23-9.98-9.52-15.83-13.96-23.96Z"/>
      <path class="cls-5" d="M569.93,544.55c-5.65-4.62-11.73-8.87-12.99-16.92-.34-2.17-2.06-3.27-4.18-3.81-1.93-.49-3.91-.97-5.69-1.82-3.62-1.73-6.46-2.07-8.66,2.26-2.41,4.74-10.44,3.84-17.07,1.21-6.26-2.48-15.88,2.94-16.37,9.78-.12,1.64-.22,3.44-.94,4.85-2.99,5.88-2.42,11.64,.35,17.29,1.6,3.27,2.39,7.47,7.57,7.34,6-.16,12.34,.67,14.62-7.04,.66-2.23,2.22-3.76,4.38-3.15,4.77,1.35,11.18-2.72,14.26,3.01,2.02,3.76,.59,8.48-1.94,12.26-.73,1.09-1.73,1.94-2.2,3.27-1.84,5.29-.89,6.75,4.72,7.29,1.98,.19,3.96,.53,5.89,1.01,5.73,1.43,7.54,4.27,6.81,10.25-.51,4.13-1.62,8.51,.21,12.33,2.58,5.37,7.36,7.35,13.33,6.3,1.22-.21,2.84-.69,3.56,.89,.73,1.58-.66,2.4-1.66,3.23-1.84,1.54-3.15,3.98-7.15,3.14,4.18,3.14,5.96,.07,8.17-1.72,.32,5.22-3.92,7.78-8.6,5.18-8.53-4.74-17.04-9.36-22.98-17.88-3.57-5.11-8.55-9.76-15.83-10.18-3.74-.21-6.92-1.96-9.64-4.74-2.11-2.16-4.93-3.99-8.05-3.3-8.28,1.81-15.43-1.65-22.57-4.63-6.42-2.69-12.77-5.62-18.74-9.32-3.69-2.28-6.38-5.2-6.31-9.52,.13-7.19-4.61-11.35-8.7-16.08-1.64,1.06-.48,2.26-.56,3.29-.16,2.17-.9,3.97-3.03,4.74-2.17,.78-4.58,.71-5.93-1.29-1.75-2.58-3.7-4.55-6.76-5.48-1.53-.46-2.42-1.9-2.4-3.51,.04-4.06-2.39-5.9-5.82-7.1-1.94-.68-4.24-2.03-4.2-3.92,.15-6.91-5.47-11.02-7.55-16.85-2.15-6.05-6.75-10.11-13.15-11.74-1.56-.4-2.56-1.23-3.52-2.51-5.37-7.21-9.07-15.54-15.04-22.35-.32-.37-.64-.84-.71-1.3-.98-6.89-3.3-13.97-2.44-20.64,.77-5.94,.89-11.85,1.37-17.77,.31-3.79-1.15-7.75-3.85-9.3-3.48-1.99-5.57-5.13-8.62-7.33-3.65-2.63-5.78-5.97-4.93-10.66,.32-1.76-.36-3.01-1.89-3.64-2.03-.84-1.79,1.32-2.61,2.13-2.73,2.67-5.75,2.29-8.39,.02-2.34-2.02-3.55-5.13-6.63-6.59-1.63-.77-.73-2.64-.52-4.1,1.07-7.34-.18-10.02-6.79-13.25-6.82-3.33-11.74-8.97-17.23-13.87-2.03-1.81-3.42-4.01-6.56-3.61-1.4,.18-2.76-.44-3.51-1.58-1.86-2.84-5.02-2.62-7.61-3.79-7.91-3.58-14.84,1.31-22.18,1.87-7.02,.54-9.41,5.52-8.39,12.9,.13,.91,.09,2.06-.71,2.12-5.02,.43-9.32,5.43-15.13,1.57-4.2-2.79-7.99,.47-10.2,3.64-4.25,6.11-9.85,8.01-16.9,9.69-6.74,1.61-14.22,3.08-19.99,8.08-2.48,2.15-5.8,2.26-8.32,.12-1.86-1.58-2.14-4.52-.56-6.38,1.65-1.93,3.56-3.84,6.25-4.76,7.66-2.61,14.77-6.24,20.42-12.23,1.23-1.3,2.48-1.38,4.05-.75,1.56,.62,3.29,.11,4.09-1.04,.88-1.26-.99-2.19-1.49-3.35-.64-1.46-1.93-2.3-3.51-2.51-3.62-.47-7.51-.44-8.02-5.53-.04-.42-1.32-.86-2.08-1.04-8.15-1.98-11.44-8.38-13.84-15.44-1.08-3.18,.97-5.22,3.31-7.15,4.68-3.85,4.39-6.18-.75-9.47-2.51-1.61-4.85-3.47-7.29-5.2-2.14-1.52-2.74-3.59-2.52-6.12,.23-2.69,2.09-4,4.27-4.15,4.62-.31,7.05-4.67,11.97-5.35-2.75-2.39-5.95-2.37-8.13-4.72-4.25-4.57-4.39-7.98,.85-11.49,4.93-3.3,9.73-7.2,15.2-9.14,4.65-1.65,9.22-4.43,14.51-4.14,.66,.04,1.45,.17,1.98-.12,13.61-7.45,27.64-1.07,41.46-1.37,8.59-.19,16.4,4.57,25.06,3.68,.61-.06,1.49,.12,1.87,.54,6.41,6.9,14.65,4.68,22.44,4.51,2.87-.06,5.67,.04,8.31,1.26,3.02,1.39,5.38,.42,7.41-1.93,.52-.61,1.17-1.76,1.6-1.69,4.8,.8,9.69-1.03,14.27,.06,2.25,.54,3.56,1.68,5.28-.64,.59-.79,2.31-1.59,3.05-1.28,5.22,2.16,11.04,.8,16.18,2.9,1.59,.65,3.08,1.24,4.78,1.05,3.77-.4,7.24,.4,10.6,2.16,1.27,.66,2.87,.79,4.34,.93,1.31,.13,2.78,.17,3.66-1.07,1.06-1.49-.32-2.41-1.02-3.48-4.6-7.02-4.47-6.83-12.16-1.82-3.17,2.06-6.86,1.04-9.78-1.19-3.01-2.3-5.43-5.23-8.91-7.1-2.77-1.49-2.37-4.29-1.03-7.04,2.15-4.38,5.4-8.38,4.34-13.92-.4-2.1,1.39-3.66,3.55-4.22,3.07-.79,6.19-1.49,9.38-.97,7.16,1.18,14.25,2.87,21.37,4.22,5.71,1.08,10.88,5.17,16.19,8.11,4.24,2.35,15.66,2.05,19.36-1.05,4.5-3.78,9.33-5.53,15.22-4.2,3.93,.89,5.48,3.32,4.46,6.91-1.2,4.24-.93,8.07,.77,12.11,2.35,5.59,6.85,7.95,12.87,6.17,1.34-.4,2.66-.75,3.71,.41,1.13,1.25,.58,2.53-.42,3.55-2.29,2.32-1.57,5.94-4.68,8.59,5.81-1.7,8.62-6.57,13.75-7.61,1.99-.4,1.14-2.46,.95-3.87-.22-1.64-1.25-2.18-2.86-1.92-4.75,.77-8.42-1.39-11.52-4.62-1.79-1.87-4.15-2.74-6.18-4.17-4.6-3.26-4.46-4.9-1.11-9.42,2.49-3.35,5.45-5.66,9.07-7.5,4.98-2.52,9.7-3.32,14.2,.92,.82,.77,1.88,1.89,2.97,.7,.95-1.03,.14-2.2-.68-3.08-2.01-2.17-3.94-3.66-7.36-2.14-4.29,1.91-8.46,1.6-11.33-3-2.03-3.26-5.97-3.45-8.98-5.1-1.72-.95-2.83,.05-2.02,2.18,.71,1.86-.54,2.55-1.94,2.66-1.7,.13-3-.79-2.83-2.67,.25-2.84-.13-5.61-.43-8.42-.33-3.12,1.99-4.05,4.55-3.95,7.09,.26,13.92-2.63,21.2-1.11,4.76,1,8.52-4.16,13.72-3.33-3.57-2.59-8.42-2.18-10.98-6.39-1.58-2.6-2.26-4.92-.36-7.3,2.08-2.61,4.67-2.03,7.12-.35,3.06,2.09,7.09,2.8,8.64,7.02,.69,1.88,3.24,1.21,5,1.54,1.69,.32,3.56,.74,3.39,2.89-.14,1.76-1.97,2.06-3.39,2.45-1.53,.43-3.31-.37-4.88,.88,1.54,.94,3.23,.46,4.71,1.4,5.77,3.66,7.05,3.26,9.76-2.6,.99-2.14,2.6-3.02,4.21-1.21,3.49,3.94,5.03,2.62,6.04-1.7,.21-.92,.84-1.74,1.49-3.02-5.98-.5-11.66,.24-17.4-.68-4.39-.71-6.11-3.26-7.44-6.01-1.28-2.65-2.71-3.19-5.23-3.41-6.38-.56-9.63-7.11-6.32-12.74,3.13-5.34,6.28-10.65,13.88-10.28,3.82,.19,6.6,2.01,9.33,4.24,1.03,.84,1.92,1.86,2.97,2.67,1.14,.87,2.68,2.58,3.81,1.23,1.33-1.58-.91-2.35-1.94-3.29-2.04-1.85-5.45-3.48-4.92-6.3,.66-3.5,4.9-4.64,7.69-4.4,9.34,.8,17.23-6.33,26.85-4.22,2.4,.53,5.65-1.68,8.21-3.16,7.51-4.37,15.91-3.18,23.9-3.59,4.89-.25,9.87,.07,14.85-.31,10.66-.82,21.26,1.27,31.92,1.27,4.75,0,8.12,3.61,12.21,5.36,1.26,.54,2.03,1.77,1.72,3.29-.27,1.34-1.38,1.77-2.53,2.12-5.17,1.54-9.79,4.1-13.76,7.72-3.33,3.04-8.2,2.11-11.71,5.13-3.58,3.07-8.2,4.84-11.21,8.81-2.13,2.81-5.85,2.99-8.75,4.57-1.76,.96-3.86,1.53-4.62,3.56-2.26,6.04-7.02,9.35-12.55,11.9-2.01,.93-4.25,1.99-2.98,4.79,1.61,3.57-.53,5.97-2.71,7.77-2.55,2.1-3.61,4.58-4.28,7.59-1.48,6.56-7.8,10.88-14.31,9.31-3.82-.92-7.6-1.11-11.39-.83-8.92,.67-17.58-1.26-26.33-2.28-2.86-.33-5.54-1.4-6.26-4.82-.36-1.71-1.53-2.42-3.48-2.29,.38,.99,1.17,1.97,.99,2.73-1.57,6.84,3.25,6.97,7.71,7.54,2.82,.36,4.8,1.82,4.81,4.78,0,2.53,.33,5.14-2.92,6.73-9.16,4.48-9.22,5.5-3.52,14.08,3.44,5.18,6.5,10.45,13.86,10.68,1.87,.06,3.25,2.15,4.43,3.82,.78,1.11,1.02,3.29,3.11,2.37,1.62-.71,1.28-2.55,1.44-4,.19-1.74-.51-2.96-2.36-3.18-2.67-.32-5.08-1.05-7.47-2.47-7.15-4.25-9.97-13.69-5.87-21.05,3.73-6.7,8.82-11.73,17.15-10.03,8.48,1.73,16.82-.07,25.21-.07,7.43,0,13.28,2.09,18.98,7.09,4.92,4.32,10.23,8.3,17.61,9.51,9.41,1.55,17.47,6.65,21.64,16.09,.5,1.14,1.31,1.84,2.43,2.36,.7,.32,1.84,1.3,1.77,1.44-3.19,5.92,2.6,5.86,5.21,7.67,3.62,2.53,7.17,5.16,11.65,6.34,3.46,.91,4.21,6.39,1.21,9.11-3.8,3.45-7.78,6.81-12.08,9.57-1.99,1.28-2.65,1.86-1.64,4.07,2.54,5.58,.3,11.12-.54,16.63-.33,2.15-2.21,2.27-3.96,1.89-9.6-2.1-18.76-5.69-28.01-8.87-1.91-.66-3.23-3.21-4.68-5.01-4.13-5.13-9.32-5.1-13.01,.13-1.69,2.4-8.59,3.31-10.44,1.14-2.51-2.96,.61-4.15,2.33-5.64-5.28-4.54-4.76-7.59,1.57-10.11,1.23-.49,2.64-1.31,3.8-1.08,7.24,1.4,10.39-3.66,13.87-8.36,.85-1.15,1.62-2.28,.5-3.54-1-1.13-2.4-1.13-3.68-.5-1.19,.59-2.27,1.4-3.42,2.07-2.75,1.6-5.71,2.42-8.44,.39-2.64-1.96-3.54-4.71-2.04-7.98,.31-.67,.04-1.61,.04-2.94-3.01,1.19-5.74,2.31-8.93,2.25-2.93-.06-3.63,2.41-2.83,5.12,.93,3.14-.39,5.62-2.67,7.52-2.12,1.77-5.93,3.01-5.29,5.91,.76,3.46,3.97,6.17,7.07,8.04,5.7,3.45,6.03,4.58,1.4,9.3-2.78,2.83-5.35,5.91-8.36,8.47-4.08,3.48-8.04,2.53-10.39-2.24-.71-1.43-1.5-2.69-3.04-3.07-4.52-1.11-9.07-2.15-13.63-3.09-.92-.19-2.42-.2-2.86,.34-4.69,5.84-12.79,7.81-16.41,14.95-2.97,5.86-2.99,7.02,2.36,10.41,1.37,.87,2.25,2.08,2.45,3.6,.56,4.18,3.14,5.29,6.99,5.37,4.07,.09,7.56,1.85,11.04,4.12,5.08,3.31,11.05,5.18,16.89,6.32,5.23,1.02,8.79,2.62,9.72,8.17,.24,1.45,.55,3.38,2.56,2.97,1.64-.33,1.18-2.19,1.18-3.44,0-1.98-.02-4.01-.38-5.95-1.19-6.39,1.19-8.94,7.84-8.34,1.36,.12,3.15,1.53,4-.39,.71-1.6-.98-2.65-1.98-3.7-4.23-4.51-4.61-7.03-.97-11.68,3.1-3.97,.68-8.33,1.29-12.48,1.19-8.23,1.01-8.57,8.98-7.13,1.46,.26,3.1,.68,4.45,.29,6.08-1.79,10.25,1.65,14.31,5.11,2.16,1.84,4.3,3.12,7.15,2.84,3.47-.33,6.11,2.94,9.86,2.03,1.25-.3,2.39,1.62,2.64,3.21,.33,2.1-.15,3.92-1.88,5.38-.84,.71-2.41,.23-2.81,2.05,2.92,.35,5.49,1.77,6.72-2.99,.64-2.47,3.81-4.37,6.03-6.31,.86-.75,2.79-.76,3.28,.04,2.61,4.21,8.68,5.66,9.13,11.53,.04,.49,.14,1.02,.37,1.44,2.68,4.97,6.38,9.29,8.2,14.85,1.16,3.55,5.68,3.73,8.67,5.3,2.43,1.28,4.81,2.05,5.77,4.93,.24,.73,.87,1.61,1.54,1.89,6.92,2.85,5.98,8.79,5.75,14.43-.08,1.99-.4,3.97-.46,5.97-.04,1.47,.43,2.39,2.33,2.43,4.06,.08,6.51,2.51,8.03,6.14,.83,1.99,2.03,3.82,2.83,5.81,1.18,2.92,1.37,5.97-.68,8.55-1.94,2.44-4.8,2.25-7.74,2.38-7.69,.36-13.96-4.56-21.35-5.23-2.36-.21-3.74-2.2-3.82-4.63-.08-2.91-.88-6.08,2.62-7.91,2.57-1.35,4.72-3.11,4.06-7.31-4.17,4.04-9.9,4.26-13.66,8.22-1.37,1.45-3.32,2.35-5.48,1.8-3.62-.92-4.22,1.2-4.51,4.06-.34,3.4,1.71,3.96,4.29,3.96,1.49,0,3.11,.1,4.45-.41,5.24-1.98,8.14,1.37,11,4.65,1.89,2.17,1.28,4.55-.75,6.16-4.91,3.89-9.69,8.1-16.31,8.92-.93,.12-1.94,.6-2.64,1.22-3.71,3.26-7.47,2.98-11.45,.53-6.17-3.79-12.05-.75-12.29,6.5-.1,2.94-1.15,4.44-3.96,5.45-9.09,3.26-15.16,9.66-18.38,18.75-.33,.92-.72,2.05-.46,2.9,2.18,7.37-2.87,10.65-8.05,12.93-5.57,2.46-8.77,7.53-13.66,10.67-2.19,1.4-3.28,4.17-.84,6.93,.82,.92,1.11,2.42,1.36,3.71,.98,4.99,3.24,7.94,8.95,6.45,1.61-.42,3.87-.09,4.59,1.33,2.93,5.71,8.28,10.1,9.23,16.86,.24,1.68,.45,3.66-1.5,4.29-1.86,.6-2.29-1.35-3.13-2.56-1.03-1.49-2.32-2.8-3.5-4.21-2.02,3.28-6.67,4.44-10.37,1.97-2.45-1.64-4.87-1.89-7.54-1.92l.06,.04Z"/>
      <path class="cls-5" d="M589.74,877.81c-.1-4.23,.92-7.62,.4-10.45-1.14-6.26-1.11-11.82,3.38-16.73-.79-11.19,4.44-21.76,3.34-33.01-.4-4.11,1.12-7.92,3.07-11.44,3.84-6.92,4.63-14.34,5-22.12,.32-6.7,1.93-13.42,3.71-19.93,3.04-11.17,1.98-22.49,1.95-33.78,0-2.71-1.7-4.92-4.24-5.67-8.09-2.4-13.98-7.96-19.96-13.42-.83-.75-1.68-1.81-1.89-2.85-1.41-6.83-5.82-12.32-8.18-18.72-1.27-3.44-2.96-6.87-5.94-9.12-4.1-3.09-5.56-7.21-4.68-11.87,1.5-7.89-.38-16.16,3.79-23.87,2.11-3.9,4.36-7.09,8.2-8.74,3.88-1.67,5.29-4.36,4.99-8.22-.33-4.16-1-8.19-3.78-11.67-2.89-3.61-.51-9.13,4.13-9.82,1.69-.25,3.41-.23,4.38-1.86,4.69-7.89,13.62-8.43,20.86-11.6,4.93-2.16,10.64,.25,14.44,3.68,4.78,4.32,9.69,3.48,14.95,2.67,1.31-.2,2.59-.79,3.89-.81,2.77-.04,7.42,1.56,7.91-.38,.9-3.58,1.37-7.79,.35-11.71-.58-2.24-1.55-4.41-1.89-6.68-.29-1.92,.5-3.78,2.79-4.01,2.01-.21,2.88,1.24,3.38,3,.78,2.71,1.6,5.41,2.46,8.1,.72,2.28,.33,4.07-1.5,5.84-2.5,2.43-3.99,5.17,.17,7.63,.41,.24,1.01,.74,.98,1.06-.65,6.73,5.51,8.4,9.03,11.9,3.66,3.64,7.84,6.02,13.56,6.34,9.62,.54,16.17,6.04,20.85,14.63,2.61,4.78,2.6,12.32,9.76,13.42,10.84,1.67,20.15,7.83,31.29,9.19,8.28,1.01,15.26,7.76,21.45,13.27,6,5.34,4.51,16.97-1.42,22.67-4.38,4.2-5.81,10.47-10.77,14.17-.7,.52-.87,2.17-.79,3.26,.95,12.92-4.74,23.92-10.37,34.81-1.81,3.5-5.2,6.08-9.77,5.81-6.97-.4-12.15,3.13-16.89,7.67-2.14,2.05-3.42,4.33-3.23,7.47,.24,4.03-2.38,6.92-4.07,10.32-3.64,7.35-10.66,11.94-14.12,19.43-2,4.33-5.71,8.29-11.2,9.02-3.34,.45-4.68,1.79-4.69,5.46-.02,5.52-6.78,11.96-12.36,12.56-1.64,.18-3.13,.54-4.73,1.16-3.98,1.57-5.7,5.27-8.43,7.65-4.57,3.99-4.94,10.43-9.96,13.62-1.24,.79-1.17,2.31-1.33,3.63-.18,1.54-.61,3.2-1.91,3.94-5.21,2.95-5.54,5.69-.82,9.78,2.62,2.27,.79,5.55-1.47,7.4-4.03,3.3-6.11,7.82-8.47,12.18-3.57,6.58,1.19,16.19,8.52,17.44,2.62,.45,5.29,.79,7.82,1.57,3.08,.95,3.45,2.8,1.07,5.11-6.37,6.22-21.15,9.03-29.53,5.59-9.69-3.98-17.9-9.75-22-19.79-1.96-4.81-1.04-10.17-1.48-14.2Z"/>
      <path class="cls-5" d="M832.16,212.52c6.45,.66,6.68,1.41,3.98,6.9-1.22,2.48-3.91,5.14-.18,8.59,1.72,1.59,.01,5.4-.75,8.13-1.31,4.65-2.5,8.91,3.71,11.54,3.19,1.36,2.92,5.34,.52,7.15-4.25,3.2-7.42,7.53-11.54,10.57-2.86,2.11-5.74,3.42-6.45,7.26-.46,2.5-.66,4.92,.13,7.39,2.7,8.51,1.63,11.86-5.94,16.84-11.01,7.24-23.46,10.96-36.17,13.7-4.38,.94-7.18,2.69-9.66,6.67-3.4,5.46-7.25,11.1-15.02,11.48-4.64,.23-8.26,2.33-9.36,7.46-.26,1.22-1.05,2.64-2.03,3.35-6.91,5-9.33,12.21-10.65,20.17-.65,3.92-4.62,6.49-8.77,5.44-6.11-1.55-12.06-3.7-18.05-5.69-1.44-.48-2.67-1.52-3.27-2.95-2.3-5.5-7.07-9.12-10.39-13.85-.38-.54-1.03-.95-1.26-1.53-3.67-9.38-11.68-17.53-11.28-27.84,.29-7.36-1.1-13.2-3.61-19.95-2.37-6.36-6.3-12.74-5.82-20.22,.1-1.59-1.21-3.33-.02-5.11,.24-.36,.3-1.3,.13-1.39-6.06-3.22-3.6-13.24-11.78-14.78-.6-.11-1.37-.6-1.6-1.12-2.87-6.35-8.49-5.18-13.75-5.21-7.12-.03-14.33,2.5-21.34,.06-6.59-2.3-11.66-7.25-17.29-11.22,2.15-4.69-2.28-7.15-3.52-10.69-.72-2.03,1.36-3.1,3-3.15,9.37-.31,17.17-7.3,26.9-6.17,2.53,.29,4.88-1.12,5.03-3.8,.17-3.21-2.79-2.56-4.8-2.9-1.92-.32-4.43-.12-4.48-2.88-.04-2.35,1.61-3.6,3.84-4.62,7.97-3.65,16.01-6.86,23.67-11.55,10.34-6.32,22.74-8.38,35.08-4.57,1.97,.61,3.43,1.01,4.93-.56,.11-.12,.25-.26,.4-.29,8.56-1.62,14.73-8.35,22.83-10.81,5.56-1.69,11.43-2.3,17.26-1.4,3.71,.57,7.17,.21,10.81-.75,15.37-4.07,31.15-4.65,46.54-1.54,9.23,1.86,18.71,4.5,27.19,9.32,2.83,1.61,5.41,2.9,2.54,6.76-1.31,1.77-.04,3.28,1.97,3.5,3.46,.38,6.97,.82,10.25-1,9.05-5.03,17.33-2.25,25.35,2.61,2.23,1.35,2.35,3.2,.39,4.88-1.64,1.4-3.33,2.99-5.29,3.7-6.99,2.54-12.28,7.52-18.05,11.85-1.26,.95-2.84,1.46-4.32,2.19Z"/>
      <path class="cls-5" d="M1558.95,768.23c1.44,7.47-2.8,14.75-3.15,22.57-.03,.74-.52,1.79-1.11,2.12-6.85,3.81-7.62,10.9-9.33,17.37-1.91,7.2-4.42,9.41-11.83,9.37-1.85-.01-4.03-.37-5.13,1.25-2.37,3.49-4.76,3.14-8.01,1.26-1.76-1.02-4.21-1.43-6.28-1.27-9.28,.7-16.76-2.65-22.87-9.46-.32-.35-.83-.87-1.17-.81-10.02,1.69-13.01-8.01-19.44-12.1-6.65-4.23-13.35-7.77-21.44-6.33-4.32,.77-9.69-1.08-12.81,2.83-5,6.24-11.42,7.11-18.61,6.89-1.54-.05-3.24,.81-4.65,1.63-6.33,3.66-12.59,2.05-18.78-.22-3.11-1.14-5.18-3.81-4.37-7.05,2.72-10.93-1.19-20.21-6.34-29.37-4.59-8.16-.3-16.29,.6-24.39,.12-1.1,1.94-2.24,3.2-2.94,7.77-4.36,15.69-8.39,24.75-9.38,2.35-.26,3.88-1.41,4.71-3.8,3.44-9.91,11.6-15.38,19.93-20.54,3.31-2.05,6.66-2.85,10.67-.26,3.73,2.41,4.58-1.88,5.73-4.17,1.27-2.53,.13-6.27,3.77-7.62,4.01-1.48,8.37-2.39,12.17-.33,4.49,2.44,9.34,2.02,13.98,3,3.77,.8,5.45,2.73,5.55,6.41,.05,1.66,.69,3.44,.3,4.96-1.45,5.67,3.03,6.99,6.42,8.86,2.51,1.38,6.29-2.65,5.2-6.38-1.72-5.91,1.93-9.88,4.12-14.31,1.71-3.45,5.25-3.4,6.91,.21,3.56,7.78,9.83,14,12.35,22.38,1.26,4.19,3.58,7.46,8.51,8.88,4.12,1.18,6.16,5.41,7.92,9.22,1.01,2.19,2.04,4.15,4.5,5.01,1.1,.38,2.28,1.04,2.54,2.24,.95,4.53,3.66,6.22,8.22,5.99,2.09-.1,2.26,2.11,2.45,3.77,.53,4.63,1.21,9.26,.87,14.53Z"/>
      <path class="cls-5" d="M1581.24,693.84c-.5-.36-.62-.47-.76-.54-3.54-1.77-5.38-7.47-10.95-4.73-.37,.18-1.7-.69-1.95-1.33-2.34-5.87-9.27-7.41-12.02-12.9-.78-1.56-2.34-1.9-3.78-.6-3.91,3.55-8.35,5.76-13.73,5.85-.82,.01-1.77,.16-1.8,1.25-.01,.38,.46,1.06,.8,1.12,3.82,.61,7.66,1.52,11.49,1.51,2.38,0,5.15-1.96,6.18,1.63,.98,3.41-1.88,4.09-4.46,4.96,3.2-.18,5.17,2.16,7.65,3.43,1.47,.75,2.26,2,1.78,3.71-.47,1.69-1.86,2.38-3.44,2.36-1.29-.01-3.19-.02-3.77-.8-3.25-4.44-7.33-2.77-11.54-2.31-7.67,.84-13.94-2.5-19.27-7.74-2.26-2.22-4.07-3.88-6.57,0-1.79,2.78-5.08,2.82-8.18,2.37-6.26-.92-12.04-3.77-18.38-4.47-2.38-.27-3.73-2.05-3.71-4.61,0-.5,.12-1.04-.03-1.49-.87-2.5,.63-6.35-2.4-7.39-2.98-1.02-3.53,2.85-5.16,4.55-1.82,1.89-3.82,3.59-6.52,2.47-2.25-.94-2.53-3.39-2.73-5.54-.32-3.42,2.45-3.84,5.35-4.64-3.44-.51-6.65-.06-8.78-2.8-.19-.24-.66-.55-.83-.47-7.24,3.45-13.26-4.8-20.41-2.13-.42,.16-.99-.03-1.48-.13-1-.2-2.1-.48-2.04-1.74,.07-1.38,1.32-1.35,2.27-1.3,4.41,.21,8.48-1.67,12.8-2,3.08-.23,4.3-1.66,2.25-4.61-1.33-1.91-1.91-4.09-.36-6.03,1.72-2.16,3.8-.6,5.9-.32,5.31,.69,10.23,2.72,16.02,2.06,6.06-.69,12.68,.5,18.61,2.3,10.26,3.11,20.52,6.6,29.1,13.55,3.58,2.9,10.46,2.62,14.02-.14,1.4-1.09,1.54-2.1,.07-3.15-.53-.38-1.31-.44-1.79-.86-2.13-1.9-4.7-4.18-3.11-7.11,1.71-3.14,4.76-1.34,7.09-.22,4.05,1.94,8.03,4.07,11.02,7.6,1.86,2.2,3.83,4.13,7.05,4.1,1.35-.01,2.52,.8,3.39,1.9,3.91,4.92,8.88,7.71,15.1,9.21,4.33,1.05,9.74,1.99,10.67,8.21,.14,.97,1.35,1.83,2.16,2.66,4.28,4.38,4.16,5.36-1.24,7.69-1.72,.74-2.8,1.38-.81,3.01,1.38,1.12,1.74,2.62,.65,3.95-1.35,1.66-2.27-.16-3.28-.78-2.4-1.48-5.59-.26-7.84-2.68-2.82-3.02-2.73-4.01,1.7-5.85Z"/>
      <path class="cls-5" d="M992.87,226.09c-2.96,4.77-5.38,8.71-7.84,12.62-2.77,4.4-6.34,5.41-10.39,2.22-4.51-3.55-9.51-6.2-12.85-11.71-2.47-4.07-6.61-7.6-9.58-11.8-1.62-2.29-3.42-4.3-2.11-7.12,1.45-3.12,4.24-4.6,7.64-4.79,2.16-.12,4.36-.3,6.48,0,8.59,1.21,15.99-1.81,23.08-6.14,1.11-.68,2.57-1.86,3.51-1.59,5.08,1.48,9.99,.35,15.04,.18,5.04-.18,10.52,.04,15.74,1.95,6.24,2.29,8.28,7.36,3.97,12.37-.66,.76-1.57,1.42-1.01,2.54,.56,1.14,1.71,.71,2.67,.74,3.15,.07,7.78-.18,7.64,3.53-.17,4.22-4.98,2.17-7.81,2.57-1.96,.28-4.01-.05-5.97,.24-2.57,.39-4.04,1.71-3.93,4.73,.24,6.86-8.67,12.24-15.22,9.33q-8.31-3.68-9.03-9.88Z"/>
      <path class="cls-5" d="M1143.49,289.7c-6.76,.73-12.29-3.37-17.58-7.76-2.16-1.79-2.18-4.02-1.65-7.09,1.25-7.32,5.98-11.67,10.96-16.23,2.17-1.98,4.37-4.42,5.35-7.1,1.93-5.28,7.46-6.08,10.76-9.73,5.98-6.62,13.4-11.21,23.22-10.09,2.41,.28,5-1.58,7.58-2.1,6.67-1.34,12.86,1.12,18.94,3.18,3.52,1.19,2.77,5.34,1.61,7.35-1.68,2.92-3.9,5.78-8.04,6.65-7.16,1.5-14.73,2.25-20.63,7.42-.34,.3-1.02,.68-1.3,.54-5.26-2.68-7.59,2.02-10.47,4.46-4.92,4.17-9.3,8.98-14.02,13.41-2,1.88-2.47,3.42,.02,5.18,.52,.36,.81,1.04,1.21,1.57,1.85,2.5,4.45,5.45,3.05,8.28-1.38,2.81-5.26,2.15-9,2.06Z"/>
      <path class="cls-5" d="M1428.33,576.16c-.28,1.46-.43,2.96-.86,4.38-.67,2.24,.09,3.49,2.28,4.11,6.9,1.96,8.58,8.62,9.85,13.84,1.18,4.85,3.53,9.1,4.85,13.79,1.39,4.93-2.04,14.04-6.81,15.71-3.15,1.1-5.38-.46-7.57-2.5-2.91-2.72-9.67-2.78-12.46-.17-.56,.53-.88,.82-1.57,.35-5.3-3.61-11.19-5.91-17.15-8.21-2.46-.95-.81-3.6,.22-5.09,3.19-4.62,6.44-9.23,10.01-13.56,3.2-3.88,4.09-7.57,1.77-12.31-3.24-6.59,.42-12.65,2.62-18.58,1.04-2.81,4.38-3.49,7.32-3.28,2.9,.21,4.89,2.08,5.97,4.68,.89,2.14,1.5,4.42,1.53,6.84Z"/>
      <path class="cls-5" d="M1473.07,505.18c-6.4-4.08-6.49,4.22-10.27,5.94-2.7,1.23-4.19,2.66-6.71,.19-2.74-2.68-5.97-5.79-2.67-9.29,5.19-5.51,11.21-10.28,19.09-11.64,1.3-.23,3.02,.34,3.92-.32,5.41-3.92,10.68-8.16,15.63-12.52,3.49-3.08,3.15-9.22,2.42-14.29-.28-1.97-.81-3.93-.19-5.92,.45-1.43,.94-3.26,2.73-3.1,4.76,.42,5.24-3.08,6.14-6.25,1.5-5.26,3.31-5.92,7.47-2.44,2.61,2.18,5.49,2.97,8.8,2.51,1.49-.21,3.14-.45,4.06,1.07,1.04,1.72,.83,3.71-.35,5.19-3.39,4.22-6.05,9.27-11.69,11.12-1.68,.55-2.83,1.63-1.93,3.31,2.56,4.8,.17,8.77-2.04,12.63-1.71,3-2.59,5.94-2.53,9.42,.09,5.04-2.49,8.26-7.18,8.54-5.72,.34-11.06,1.15-16.13,4.23-2.24,1.36-5.47,1.1-8.59,1.63Z"/>
      <path class="cls-5" d="M1140.19,205.71c-4.44,4.93-9.78,5.45-15.06,1.58-1.94-1.42-4.07-2.31-5.88-.61-5.63,5.3-11.4,2.23-17.16,.64-1.09-.3-2.04-1.14-3.14-1.41-1.8-.45-3.7-.61-4.09-2.94-.37-2.27,.69-3.87,2.48-5.05,4.56-3.01,8.57-7.99,15.05-3.74,1.39,.92,3.27,.19,4.8-.56,2.06-1,4.17-.81,6.35-.58,2.7,.29,5.26,5.36,8.14,.28,6.44,3.72,9.49-2.7,14-4.71,3.36-1.5,6.77-2.94,10.48-3,4.02-.06,5.51,2.28,4.09,5.75-.46,1.12-2.41,2.18-1.02,3.39,1.44,1.26,3.19,0,4.57-.82,.8-.47,1.25-1.51,1.88-2.28,3.02-3.74,8.31-4.63,11.94-1.72,1.6,1.28,3.2,2.15,5.12,2.83,3.56,1.26,8.27,11.97,7.2,15.53-.71,2.36-2.46,2.43-4.36,2.22-2.22-.24-2.51-1.72-2.32-3.62,.17-1.7,1.31-3.89-1.06-4.81-2.05-.8-3.35,.73-4.46,2.33-1.1,1.58-2.95,1.3-4.55,1.61-3.55,.68-7.03,.29-9.57,4.55-1.97,3.31-6.7,2.37-10.05,.45-2.01-1.15-3.97-1.64-6.15-1.51-3.18,.18-5.99-.29-7.26-3.83Z"/>
      <path class="cls-5" d="M1101.4,760.7c-9.27,.09-16.86-13.95-12.08-22.26,2.29-3.97,2.83-7.74,2.33-11.87-.71-5.98,1.56-10.29,6.53-13.41,5.71-3.59,10-8.68,14.26-13.75,3.12-3.71,6.57-3.19,9,1.16,4.26,7.62,4.78,14.94-.13,22.49-1.64,2.51-1.55,5.74-2.39,8.56-2.53,8.5-4.19,17.34-8.4,25.24-1.98,3.71-6.07,3.59-9.13,3.83Z"/>
      <path class="cls-5" d="M406.78,229.45c1.81-.23,3.64-.77,5.43-.64,4.71,.35,10.31-1.38,12.75,5.01,.55,1.43,2.18,1.29,3.51,1.41,1.13,.1,2.71-.05,2.81,1.44,.22,3.36,2.78,2.83,4.76,3.04,3.35,.35,6.3,.68,8.54-3.36,2.02-3.66,6.13-4.91,10.54-3.37,2.8,.97,3.96,3.51,2.72,5.48-2.31,3.65,.41,3.38,2.33,3.89,1.43,.38,3,.34,4.38,.84,1.9,.68,2.75,2.33,2.96,4.28,.2,1.85-1.01,2.65-2.47,3.3-.91,.41-1.74,1.33-2.64,1.37-9.1,.42-17.42,3.64-25.83,6.73-3.1,1.14-6.28,.48-8.55-2.44-1.48-1.89-3.83-2.23-5.88-2.38-7.31-.55-13.75-2.93-19.48-7.56-1.9-1.54-4.53-.62-6.83-.82-1.89-.17-3.7-.55-4.47-2.57-.72-1.87,.41-3.2,1.55-4.44,2.02-2.2,4-4.39,5.65-6.93,1.9-2.91,5.18-2.52,8.21-2.27Z"/>
      <path class="cls-5" d="M1641.57,824.61c1.59,8.64-2.48,15-7.91,20.68-2.61,2.73-4.72,5.56-5.29,9.36-.93,6.31-5.84,9.08-10.86,11.06-5.74,2.25-8.48-3.19-12.03-6.11-2.76-2.26-1.8-5.06-.34-7.69,1.45-2.61,2.96-5.2,4.41-7.82,.88-1.59,2.21-2.78,3.98-2.5,3.79,.6,6.44-1.27,9.38-3.21,3.69-2.44,8.07-3.23,11.48-6.9,2.78-2.99,2.02-5.26,.84-7.31-1.44-2.5-1.24-4.25,.88-5.42,2.66-1.47,2.36-3.22,1.44-5.41-.9-2.16-1.91-4.21-3.35-6.1-1.76-2.31-2.66-5.02-2.23-7.96,.35-2.37,1.08-4.7,3.75-5.38,2.65-.67,3.97,.84,5.53,3,2.39,3.31,5.34,6.01,6.65,10.23,.66,2.13,3.56,3.77,6.35,4.34,8.21,1.66,9.87,5.69,5.14,13.01-.99,1.54-1.81,3.04-2.56,4.69-.77,1.7-2.17,4.58-4.16,.64-.23-.46-.42-1.07-.97-.7-.51,.35-.83,1-1.2,1.55-.89,1.35-1.98,2.27-3.73,1.83-1.62-.41-1.69-1.81-2.01-3.11-.67-2.68-.72-2.67-3.23-4.77Z"/>
      <path class="cls-5" d="M569.87,544.51c7.67,3.78,15.38,7.5,22.99,11.4,1.83,.94,3.24,1.83,4.5-.57,1.98-3.77,4.55-2.14,6.46-.26,2.55,2.51,5,4.35,8.83,4.79,2.39,.28,5.17,1.32,7.06,3.39,2.45,2.69,4.4,5.73,8.96,2.48,2.22-1.58,5.16,.12,6.75,2.67,1.03,1.64,1.65,3.53-.05,5-2.33,2.02-5.42,3.82-8.19,2.07-5.01-3.16-9.56-1.1-14.14,.32-4.67,1.45-16.45-2.03-19.22-6.23-.61-.92-1.16-1.72-2.3-1.41-1.16,.31-1.26,1.41-1.32,2.43-.15,2.67,.02,5.72-3.28,6.56-3.53,.89-5.91-1.7-8.25-3.75-1.29-1.13-2.21-3.03-.93-4.46,2.28-2.54,2.33-4.44-.41-6.61-3.23-2.56-6.79-5.47-10.72-2.87-5.43,3.59-9.98,.06-14.55-1.14-3.31-.87-1.83-4.59-.4-6.81,3.3-5.12,8.7-6.33,14.29-6.94,1.32-.14,2.66-.04,3.99-.05,0,0-.06-.04-.06-.04Z"/>
      <path class="cls-5" d="M827.44,344.64c-2.51,.12-4.89-.27-6.4-2.77-.83-1.37-2.16-2-3.68-2.33-.81-.18-1.85-.23-2.35-.76-3.69-3.9-7.61-7.65-10.73-11.98-1.51-2.1-.78-4.97,1.74-7.05,4.71-3.9,8.59-7.31,15.69-3.21,3.93,2.28,10.12,.93,14.88-1.39,9.04-4.41,18.64,.05,20.88,9.81,1.05,4.59-2.48,7.3-5.15,8.8-5.78,3.25-10.66,8.19-17.46,9.7-2.44,.54-4.8,1.31-7.42,1.18Z"/>
      <path class="cls-5" d="M1404.49,627.96c.9,4.79-.41,9.43,1.98,14.16,2.12,4.21-1.88,8.08-4.23,11.56-1.5,2.22-3.09,4.09-3.39,6.97-.38,3.71-2.54,5.59-6.58,4.74-2.1-.44-4.32-.87-6.42-.66-12.44,1.2-17.91-6.92-21.74-16.63-1.52-3.85,1.88-7.78,5.82-9.37,5.54-2.23,11.59,.11,17.11-3.15,3.98-2.34,6.91-4.68,8.45-9.11,1.44-4.14,4.4-4.79,7.83-2.53,1.77,1.16,2.17,2.41,1.16,4.01Z"/>
      <path class="cls-5" d="M1357.25,660.42c-4.79,2.95-.86,9.22-5.42,12.8-2.33,1.83-3.79,1.31-5.57,.03-3.77-2.69-7.61-5.32-11.15-8.31-3.27-2.77-7.93-3.35-10.53-7.15-1.35-1.97-3.05-3.66-1.47-6.21,1.92-3.1-.42-3.61-2.45-3.52-2.92,.13-4.12-1.2-3.93-3.78,.47-6.21-2.58-10.2-7.49-13.48-2.16-1.45-4.05-3.8-2.69-6.81,1.13-2.5,3.7-3.3,5.9-2.3,2.62,1.2,5.26,2.96,7.1,5.15,4.69,5.58,9.51,10.71,16.49,13.6,3.77,1.56,7.1,3.92,8.24,8.62,.87,3.6,3.08,6.66,7.7,6.21,3.43-.33,3.86,2.42,5.27,5.14Z"/>
      <path class="cls-5" d="M1426.15,696.94c-5.99-2.15-12.83-1.75-18.26-5.81-1.59-1.18-3.35-1.3-5.2-1.38-6.4-.27-12.42-.82-18.75-3.39-5.44-2.21-12.08-3.12-18.35-3.75-2.64-.27-5.31-.57-7.89-1.18-3.18-.75-3.59-3.52-3-5.97,.63-2.63,3.2-2.3,4.97-1.42,9.83,4.88,20.34,3.69,30.73,3.73,.81,0,1.73,.11,2.4,.5,7.11,4.08,15.12,2.42,22.59,3.79,6.47,1.19,11.95-2.15,18.02-1.63,1.32,.11,2.56-.29,3.7-1.19,3.64-2.9,8.74-1.89,11.11,1.99,1.29,2.12-.14,3.37-1.2,4.84-2.73,3.8-7.63,3.87-11.07,6.5-2.84,2.17-5.47,5.16-9.81,4.35Z"/>
      <path class="cls-5" d="M1295.19,197.44c-2.4,.17-4.13,1.55-6.2,1.04-1.58-.39-2.84-1.09-2.99-2.85-.16-1.84,1.07-2.7,2.63-3.11,2.42-.63,4.58-.03,6.52,1.55,2.09,1.7,4.11,1.45,6.4,.1,8.33-4.89,17.14-2.91,22.69,5.02,1.25,1.78,2.49,3.5,4.32,4.76,1.8,1.23,2.35,2.72,1.92,5.1-1.92,10.68-2.94,10.36-13.84,9.98-9.15-.32-16.41-4.08-24.11-7.65-3.17-1.47-3.6-3.74-1.13-6.72q2.93-3.53,3.8-7.22Z"/>
      <path class="cls-5" d="M1536.57,256.64c-4.21-.84-8.46-.58-12.1-3.14-1.89-1.33-4.2-1.29-6.15,0-3.97,2.62-8.47,2.74-12.93,2.99-4.46,.25-8.87-.63-13.39-.22-2.84,.26-5.92-.59-8.09-3.13-1.32-1.54-3.09-2.41-5.27-2.42-1.97-.01-3.03-1.24-3.16-3.15-.12-1.7,.76-3.17,2.35-3.36,4.07-.49,7.12-3.63,10.56-4.51,5.38-1.38,11.55-2.16,17.04-.36,10.57,3.46,20.81,8.03,32.33,7.12,.95-.08,1.98,.24,2.92,.56,2.57,.86,4.43,2.42,4.25,5.4-.17,2.78-2.47,3.29-4.58,3.79-1.28,.3-2.63,.32-3.78,.45Z"/>
      <path class="cls-5" d="M1613.04,698.41c1.43,1.1,1.87,2.62,2.1,4.34,.2,1.46,.31,3.26,1.2,4.25,4.51,4.98,5.1,11.36,6.65,17.4,.34,1.33,.87,2.51,1.91,3.42,1.6,1.39,1.87,3.08,1.1,4.96-.82,1.99-2.43,2.7-4.44,2.34-2.99-.53-2.85,.53-2.08,2.95,1.63,5.08,.57,6.73-4.49,7.59-2.54,.43-4.7,1.47-6.77,2.94-1.88,1.33-4.64,1.47-4.66-1.05-.03-3.31-2.64-3.9-3.98-5.75-.19-.27-.45-.49-.69-.71-2.84-2.55-6.23-5.21-3.83-9.46,1.76-3.11,7.62-2.42,11.44,.81q1.42-3.87,7.52-4.1c-4.12-3.02-4.98-7.64-8.14-10.72-3.04-2.96-2.81-5.92-.52-9.35,2.26-3.38,3.77-7.29,7.41-9.59l.27-.28Z"/>
      <path class="cls-5" d="M1425.09,656.6c3.1-.44,6.29,.46,9.08-1.77,1.38-1.11,3.07-.74,3.79,.87,.77,1.73-1.14,2.1-2.09,2.87-1.72,1.4-3.85,.7-5.77,1.09-2.94,.6-6.38,.87-3.64,5.56,1.08,1.85,.96,4.49-1.3,5.77-2.69,1.53-3.71-1.02-5.08-2.62-.91-1.06-1.23-3.25-3.06-2.78-1.67,.42-1.28,2.49-1.71,3.86-.44,1.39-.37,3.3-2.32,3.37-2.19,.07-2.16-2.04-2.88-3.49-3.95-7.93-1.18-15.56,1.18-23.08,1.06-3.4,4.73-4.2,7.83-4.21,4.47,0,8.89,.91,13.37-.5,2.45-.77,3.04,1.06,2.19,2.91-1.37,2.99-3.73,4.64-7.23,3.95-2.8-.56-5.6-1-8.38,.02-1.23,.45-2.87,.83-2.41,2.58,.42,1.61,1.88,.84,2.97,.7,.82-.11,1.64-.36,2.46-.38,1.62-.03,3.57-.64,4.68,.87,1.42,1.93-1.74,2.47-1.69,4.39Z"/>
      <path class="cls-5" d="M1534.92,835.72c-.07,1.33-.24,2.66-.19,3.98,.21,5.61-1.91,8.54-6.97,9.5-5.47,1.04-9.37-1.26-11.34-6.31-1.81-4.65-4-9.15-5.91-13.76-.89-2.16-1.89-4.8,.26-6.47,2.26-1.77,4.69-.42,6.83,1.11,1.48,1.06,3.15,1.87,4.64,2.93,2.09,1.48,3.75,1.95,5.15-.92,1.02-2.09,3.12-2.42,5.19-1.91,2.22,.54,2.47,2.52,2.55,4.37,.1,2.49,.02,4.99,.02,7.48-.08,0-.16,0-.24,0Z"/>
      <path class="cls-5" d="M480.47,231.22c-1.3-.06-3.68-.18-3.3-1.81,1-4.25-1.57-3.56-4-3.66-3.65-.15-7.12-.7-7.53-5.44-.03-.31-.2-.64-.4-.9-1.43-1.87-5.56-3.63-1.83-6.11,3.12-2.08,7.01-5.34,11.33-1.85,2.07,1.68,4.52,2.14,6.93,2.58,5.08,.92,8.61,4.16,11.95,7.63,2.49,2.6,1.44,6.07-2.19,7.5-3.43,1.35-7.12,1.61-10.95,2.05Z"/>
      <path class="cls-5" d="M439.97,234.34c-6.07-.59-11.04-3.75-15.82-7.01-2.17-1.48-.34-3.18,1.34-3.5,6.04-1.15,10.92-4.56,16.11-7.5,3.52-1.99,7.08-1.24,10.01,1.72,2.96,2.99,1.74,5.66-.03,8.91-2.63,4.82-6.77,6.47-11.61,7.37Z"/>
      <path class="cls-5" d="M1330.89,227.88c-3.12,.17-4.46-1.02-3.41-3.56,1.97-4.74,4.46-9.22,7.95-13.07,2.27-2.51,5.19-2.42,7.79-1.31,4.08,1.74,8.04,3.89,11.14,7.23,2.4,2.58,1.44,7.11-1.89,7.4-7.43,.66-14.84,1.26-21.57,3.3Z"/>
      <path class="cls-5" d="M1531.17,447.92c-3.06,.56-4.95-1.43-5.52-3.84-.7-2.95,2.16-3.91,4.35-4.36,3.9-.8,6.9-4.02,11.17-3.82,1.72,.08,2.3-1.67,2.99-2.99,.73-1.4,1.63-2.58,3.48-2.09,1.96,.53,3.11,1.86,3.37,3.86,.23,1.81-.16,3.43-2.2,3.85-2.01,.41-2.92,1.8-4.04,3.32-4.07,5.55-10.97,6.79-16.39,10.3-.71,.46-2.1,.65-2.49-.65-.37-1.2,.73-1.77,1.6-2.19,1.19-.57,2.46-.95,3.7-1.4Z"/>
      <path class="cls-5" d="M1670.49,719.06c-.12,1.92-1.32,3.13-2.96,3.63-3.2,.98-4.36,3.13-4.56,6.31-.24,3.83-1.53,5.84-6.01,3.72-3.69-1.74-5.01-4.89-5.77-8.15-.7-2.97,1.94-4.58,4.32-6.02,1.68-1.02,3.08-2.49,4.63-3.73,2.46-1.98,4.96-1.38,7.45-.04,1.7,.92,2.94,2.17,2.92,4.28Z"/>
      <path class="cls-5" d="M1609.6,399.66c-1.97,0-4.44,.22-4.55-3.28-.02-.53-.61-1.35-1.11-1.52-4.7-1.58-3.87-5.17-3.03-8.57,.5-2.02-1.72-6.09,4.59-2.91,6.21,3.13,7.98,5.25,8.39,12.1,.29,4.91-1,4.25-4.29,4.17Z"/>
      <path class="cls-5" d="M1441.78,650.73c.11-4.61,1.26-8.41,2.57-12.16,.57-1.65,1.74-2.85,3.67-2.82,1.96,.02,2.73,1.4,3.51,2.98,2.99,6.09-.27,11.21-2.58,16.39-.8,1.81-3.03,2.06-4.85,1.44-3.3-1.12-1.73-4.19-2.32-5.83Z"/>
      <path class="cls-5" d="M660.54,882.64c.98,.15,1.99,.2,2.94,.46,2.26,.62,5.65-.06,6.06,3.09,.36,2.79-2.03,4.79-4.34,6.17-1.53,.91-3.33,1.43-5.07,1.88-3.76,.98-7.28,1.43-8.2-3.91-.8-4.62,.62-6.47,6.16-7.36,.81-.13,1.63-.22,2.46-.33Z"/>
      <path class="cls-5" d="M806.98,572.59c1.92,3.74,6.48,4.12,10.18,6.12,1.26,.68,1.12,2.74-.01,4.01-1.65,1.84-3.41,3.58-5.18,5.32-1.64,1.61-3.62,.68-4.29-.57-2.05-3.86-6.69-6.53-6.04-11.58,.26-2.03,2.23-3.17,5.34-3.3Z"/>
      <path class="cls-5" d="M1667.78,286.82c-.5,0-.99,0-1.49,0-2.72-.04-6.48,1.04-7.06-2.66-.59-3.73,2.99-5.17,6-6.22,2.92-1.02,5.92-.95,8.65,.68,1.77,1.06,3.25,2.62,2.85,4.83-.41,2.27-2.33,3.08-4.47,3.2-1.49,.09-2.98,.02-4.47,.02v.15Z"/>
      <path class="cls-5" d="M1705.95,333.33c2.37-.05,4.65,.42,6.81,1.3,1.81,.73,4.1,1.33,3.41,4.05-.57,2.26-2.09,3.78-4.58,3.92-3.22,.18-6.25-.69-9.22-1.79-1.78-.66-3.42-1.61-3.16-3.89,.28-2.46,2.19-3.12,4.26-3.43,.82-.13,1.65-.1,2.48-.15Z"/>
      <path class="cls-5" d="M1446.42,538.89c-1.85-.08-3.82-.06-4.42-2.36-.57-2.21-.48-4.53,1.47-5.95,2.55-1.86,4.99-3.39,6.07-6.81,.69-2.19,3.48-1.72,5.23-.67,1.83,1.09,1.52,3.27,.27,4.33-2.97,2.52-4.33,5.67-5.1,9.33-.35,1.66-1.84,2.25-3.53,2.12Z"/>
      <path class="cls-5" d="M886.53,347.83c-.69,2.92-1.52,6.26-5.82,6.43-3.61,.14-6-2.9-5.74-7.18,.19-3.22,.98-5.9,5.21-5.68,4.04,.21,6.43,2.28,6.36,6.43Z"/>
      <path class="cls-5" d="M1294.77,597.38c-.03-3.02,.36-5.15,1.74-6.91,1.65-2.09,3.86-2.7,6.14-1.22,2.19,1.42,2.43,3.78,.95,5.64-2.01,2.53-2.57,5.26-2.61,8.3-.02,1.59-.56,3.04-2.46,3.16-2,.12-2.35-1.41-2.63-2.94-.41-2.27-.85-4.54-1.13-6.02Z"/>
      <path class="cls-5" d="M1497.65,263.25c-.86-3.37-.06-5.58,3.53-5.72,2.56-.1,9.68,4.77,9.23,6.37-1.36,4.79-5.97,2.96-9.08,3.73-2.62,.65-5.79-.4-3.68-4.38Z"/>
      <path class="cls-5" d="M1713.26,405.27c-2.96-.98-6.74,2.3-7.85-1.92-1.27-4.82,4.31-3.48,6.11-5.77,1.79-2.26,4.34-2.85,6.47-.57,2.28,2.44,.88,4.99-.74,7.22-1.17,1.61-2.85,1.45-3.99,1.04Z"/>
      <path class="cls-5" d="M1458.84,685.81c-.82-.1-2.16-.15-3.45-.44-1.29-.29-2.79-.68-2.96-2.26-.15-1.36,1.09-1.97,2.18-2.4,1.44-.56,2.65-1.34,3.56-2.61,1.61-2.26,3.75-2.68,6.14-1.42,1.97,1.03,2.8,2.81,2.51,5.01-.39,2.87-2.45,3.73-4.97,3.96-.83,.08-1.66,.09-3,.17Z"/>
      <path class="cls-5" d="M527.25,655.81c-4,.07-6.32-1.91-6.33-5.89,0-2.87,2.26-4.29,4.75-4.91,1.73-.42,7.91,5.62,7.85,7.37-.07,2.17-2.46,3.47-6.27,3.42Z"/>
      <path class="cls-5" d="M988.53,261.29c-3.21-.14-5.32-2.08-5.38-5.83-.05-2.92,1.82-3.98,4.55-3.96,3.99,.03,7.97,2.76,7.8,5.44-.15,2.3-3.16,4.34-6.96,4.36Z"/>
      <path class="cls-5" d="M486.65,207.6c.02-4.03,2.04-5.67,5.26-5.82,2.22-.1,6.26,4.83,5.94,7.09-.41,2.86-2.51,3.89-5.03,3.55-3.08-.42-6.58-.75-6.16-4.83Z"/>
      <path class="cls-5" d="M1612.77,698.69c-2.68,.24-5.29,.07-7.64-1.4-1.73-1.08-3.42-2.35-2.64-4.73,1-3.08,3.37-4.26,6.51-4.22,2.46,.04,3.62,1.43,3.82,3.66,.19,2.13,.15,4.27,.21,6.41,0,0-.26,.27-.26,.27Z"/>
      <path class="cls-5" d="M1642.56,406.5c-.28,1.49-.21,3.32-2.69,3.26-3.49-.09-8.78-4.44-8.52-7.2,.29-3.04,2.73-3.66,5.07-3.73,2.73-.09,6.25,4.49,6.15,7.67Z"/>
    </g>
  </g>
  <g id="Capa_4" data-name="Capa 4">
    <g>
      <path class="cls-1" d="M703.48,800.2c.05-.22,.09-.42,.09-.42-.01,0-.02,0-.03,0-.02,.15-.04,.29-.06,.42Z"/>
      <path class="cls-1" d="M703.76,800.7l.03-.14s-.02,.01-.03,.02v.12Z"/>
      <path class="cls-1" d="M703.54,799.78c-.12,.02-.27,.17-.34-.05,.02-.23,.05-.69,.06-.92-.05-.23-.13,0-.19,0,.02-.23,.03-.45,0-.45-.08-.16-.14,.1-.2,.52,.06,.24,.14,.59,.15,.92,0,.33-.02,.66,0,.88,.02,.44,.11,.44,.51-.89Z"/>
      <path class="cls-1" d="M703.32,801.7c.17-.4,.25-.82,.33-1.24-.04-.15-.08-.33-.17-.22-.07,.65-.1,1.06-.16,1.46Z"/>
      <path class="cls-1" d="M703.42,794.87s.04,.01,.08,.23c-.03-.08-.06-.16-.08-.23-.02,0-.04,.02-.09-.08,.08,.2,.16,.41,.25,.62,.06,.22,.11,.45,.17,.69,.06,.24,.11,.47,.17,.71,.04,.24,.05,.49,.07,.73,.04,.12,.08,.24,.13,.36-.11-2.45-1.14-4.81-2.47-6.3,.37,.6,.77,1.05,1.01,1.59,.14,.26,.28,.52,.42,.78,.13,.27,.22,.58,.34,.89Z"/>
      <path class="cls-1" d="M704.32,798.09c0,.09,.01,.17,.02,.25,.01-.23,0-.25-.02-.25Z"/>
      <path class="cls-1" d="M668.54,789.41c-.5,.54-1.04,1-1.4,1.57l-.57,.8-.46,.84c.65-1.19,1.62-2.21,2.55-3.14,.99-.88,1.99-1.64,2.9-2.22-.55,.28-1.04,.67-1.56,1-.51,.35-.97,.77-1.46,1.15Z"/>
      <path class="cls-1" d="M664.78,798.51c.05-1.67,.35-3.01,.78-4.3-.5,1.27-.84,2.59-.82,3.92,0,.12,0,.26,.04,.37Z"/>
      <path class="cls-1" d="M664.74,796.63c.25-1.54,.75-2.8,1.36-4.01-.75,1.32-1.3,2.72-1.36,4.01Z"/>
      <path class="cls-1" d="M693.02,783.22c1.21,.3,1.91,.58,2.31,.75,.2,.04,.46,.1,.79,.17-.07-.03-.14-.06-.2-.09-.61-.23-1.21-.5-1.83-.7-.63-.19-1.25-.4-1.89-.57-.53-.1-1.04-.19-1.46-.25,.76,.22,1.54,.39,2.28,.68Z"/>
      <path class="cls-1" d="M695.32,783.97c-1.63-.31,1.55,.64,0,0h0Z"/>
      <path class="cls-1" d="M687.37,783.8l-.18-.02-.51-.04c.23,.02,.46,.04,.69,.05Z"/>
      <path class="cls-1" d="M673.05,784.87c.47-.23,.95-.44,1.45-.61,.49-.17,.97-.39,1.47-.53-2.03,.64-3.99,1.56-5.48,2.54,.23-.11,.48-.24,.71-.35,.22-.15,.49-.34,.8-.54,.32-.18,.68-.35,1.04-.51Z"/>
      <path class="cls-1" d="M695.13,785.72c-2.58-1.13-5.3-1.74-7.94-1.94-5.34-.63-10.67,.39-14.66,2.67-1.75,.98-4.05,2.58-5.68,4.72-1.72,2.09-2.44,4.75-2.26,6.57,.05-.39,.04-.77,.15-1.12-.1,.53,0,1.04,0,1.5,.01,1.48,.35,2.94,.96,4.28,.6,1.36,1.57,2.56,2.64,3.64,2.18,2.17,5.09,3.68,8.19,4.63,.94,.25,1.65,.37,2.61,.52,.96,.21,1.93,.26,2.88,.36,0,0,0-.01-.03-.02,2,.11,3.98-.01,5.94-.33,1.96-.34,3.88-.94,5.71-1.78,1.71-.79,3.37-1.72,4.74-2.94,.5-.46,.58-.38,.93-.68,1.36-1.22,2.31-2.29,3.09-4.17,0,0,.06,.02,.09,.03,.09-.3,.21-.56,.26-.78,.11,1.02-.91,3.53,.41,1.03h0c-.04,.15-.08,.29-.11,.42l-.02,.04h0c-.2,.64-.37,1.01-.45,1.43l.59-1.18c0,.09,.02,.16,.08,.13l-.03,.11c-.09,.18-.16,.32-.16,.32,0,.07,0,.12,0,.16-.34,1.14-1.46,2.66-1.14,2.45,.12-.08,.3-.31,.49-.64,.19-.33,.46-.71,.67-1.17,.04-.06,.08-.11,.12-.16-.6,1.16,.22,.12-.17,.81-.56,.91-1.19,1.76-1.92,2.54-1.49,1.57-3.14,2.72-4.86,3.66-1.73,.93-3.55,1.71-5.6,2.24l-.54,.15c-2,.45-3.93,.7-5.93,.7l.4-.08c-1.61,.04-3.22-.09-4.82-.25-1.96-.25-3.92-.65-5.83-1.34-1.9-.71-3.78-1.65-5.51-2.95-1.8-1.36-3.37-3.03-4.5-5.02-1.13-1.98-1.76-4.31-1.67-6.71-.04,1.96,.38,3.91,1.19,5.71,.2,.4,.39,.79,.59,1.18,.21,.38,.47,.73,.7,1.09-.23-.38-.49-.73-.7-1.11-.2-.39-.39-.77-.59-1.16-.67-1.57-1.04-3.29-1.09-4.94,.02-1.64,.22-3.19,.6-4.48,.12-.26,.14-.26,.25-.51,.78-1.82,2.01-3.35,3.07-4.62-.02-.02,.57-.6,.33-.46,.57-.62,1.3-1.15,1.99-1.72,.74-.5,1.46-1.04,2.18-1.43,.31-.18,.61-.37,.91-.56,.3-.17,.61-.34,.94-.52,2.67-1.26,5.53-2.05,8.5-2.41,2.97-.35,6.05-.28,9.22,.33,1.56,.35,3.35,.87,4.84,1.55-2.25-.86-4.64-1.43-7.09-1.72-2.36-.37-4.67-.34-6.53-.08-.43,.08-.86,.15-1.29,.23,2.61-.38,5.24-.45,7.82-.15,.7,.11,1.4,.27,2.1,.4,.7,.16,1.39,.37,2.07,.55l-.08-.02-1.64-.38c-.55-.11-1.11-.18-1.66-.27-2.08-.38-4.12-.5-5.86-.32l-.63,.07c-.43,.04-.86,.09-1.29,.17,1.6-.2,3.21-.24,4.81-.2,.99,.08,1.99,.11,2.96,.28,.61,.13,1.23,.22,1.84,.4l-.2-.03c-.55-.1-2.11,0-1.33,.24,2.03,.36,4.45,1.05,6.25,1.9,.91,.39,1.66,.84,2.21,1.12,.52,.33,.83,.54,.83,.54,.04,.06-.31-.13-.86-.45-.57-.28-1.33-.69-2.11-1.02-1.57-.69-3.22-1.13-3.09-1.09,.37,.14,.74,.29,1.11,.43-.36-.1-.71-.19-1.04-.28-.76-.24-1.8-.5-2.32-.59-1.85-.19-3.94-.55-6.05-.44-.66,.03-1.38,.14-2.12,.22-.75,.1-1.51,.28-2.28,.42,0,.06-.76,.17-.5,.19-1.44,.23-3.08,.69-3.61,1.06l-.1,.04c-.1,.03-.23,.09-.37,.16-2.27,.78-3.74,1.69-5.42,3.03-.58,.46-1.17,.92-1.73,1.45,.34-.37,.99-.78,1.35-1.13,.12-.11,.25-.22,.38-.32,1.53-1.16,3.16-2.03,4.85-2.76,.14-.07,.37-.18,.56-.27l.38-.13,.09-.07c1.67-.61,3.63-1.08,5.14-1.3,2.85-.42,5.96-.25,8.82,.38-1.44-.24-2.87-.37-4.28-.38,.88-.03,1.73,.11,2.57,.16,.83,.12,1.65,.22,2.44,.39,.24,.07,.48,.13,.72,.19,.5,.13,1,.26,1.49,.45-.45-.19-.91-.33-1.37-.45,.95,.19,1.86,.52,2.76,.8,2.45,.91,4.81,2.28,6.76,4.15,1,.91,1.81,2.01,2.54,3.16,.63,1.2,1.21,2.45,1.41,3.8-.06-.1-.12-.21-.19-.33-.55-2.54-2.08-4.76-3.65-6.12,.52,.52,.89,1.02,1.31,1.47,.33,.51,.74,.98,1.06,1.62-.02,0-.03,.03-.1-.07,.21,.4,.47,.82,.68,1.29,.17,.48,.39,.96,.52,1.46-.15-.3-.38-.62-.57-.94-.19-.48-.56-1.15-.93-1.82-.86-1.41-1.93-2.63-3.12-3.71-1.24-1.02-2.55-1.94-4.03-2.64-2.57-1.37-5.42-2.16-8.25-2.51,2.83,.27,5.4,.93,7.76,1.92Zm5.22,20.53c-.17,.18-.35,.38-.52,.57l.1-.07c.17-.17,.32-.35,.42-.51Zm-4.61,3.45c1.53-.75,3.37-2.11,4.74-3.74,0-.02,0-.03,0-.03-1.2,1.31-2.91,2.76-4.74,3.77Zm-6.55,1.67h.04s0-.01,0-.01h-.04Zm-25.2-10.81c.54,1.89,1.66,4.15,3.46,5.88,.53,.52,1.13,.96,1.92,1.55,.48,.39,.93,.61,1.32,.86,.39,.25,.78,.44,1.23,.66l-.62-.41c1.5,.86,2.46,1.15,4.06,1.77,.01-.03,.26,0,.49,.07,1.18,.34,2.37,.7,3.35,.8,.61,.12,1.22,.17,1.81,.22,.29,.03,.57,.05,.85,.07,.27,0,.53,0,.78,0,.25,0,.74-.07,1.23-.08l1.79-.1-.08-.02c-.49,.02-.98,.04-1.47,.08-.74,.04-1.53,.02-2.34,.02-.79-.08-1.6-.09-2.32-.23-3.64-.55-6.97-1.75-9.79-3.7-.59-.43-1.22-.83-1.74-1.35-.85-.71-1.62-1.67-2.25-2.61-.32-.46-.54-.96-.8-1.38-.22-.44-.38-.85-.56-1.18-.14-.22-.21-.71-.33-.93Zm-1.58-2.81c-.12,2.97,1.2,6.07,2.78,8.23,.67,.86,2.11,2.4,3.53,3.29,.69,.47,1.35,.79,1.76,.99,.43,.17,.63,.17,.45-.03-.64-.18-1.89-.86-3.25-1.95-1.32-1.13-2.69-2.72-3.56-4.46-.89-1.72-1.3-3.52-1.37-4.72-.03-.29-.07-.55-.09-.78,0-.22-.01-.39-.03-.52-.04-.25-.1-.29-.21-.05Zm15.15-15.21c-1.1,.33-2.16,.63-3.38,1.09,1.1-.45,2.23-.78,3.38-1.09Zm-9.62,6.04c1.21-1.2,2.69-2.21,4.25-3.06,1.59-.79,3.24-1.47,4.9-1.92,2.55-.75,5.47-.83,7.85-.95v-.09s-.26,.02-.26,.02c-.93-.08-1.68-.05-2.47-.06h.14s-.24,0-.24,0c-.53-.02-1.06,.08-1.69,.16-.28,.05-.57,.1-.86,.14-3.28,.56-6.58,1.77-9.06,3.48-1.52,1.07-2.68,2.17-3.88,3.56,.37-.36,.92-.88,1.32-1.27Z"/>
      <path class="cls-1" d="M690.66,784.05c1.1,.22,2.18,.56,3.27,.94,.82,.33,1.66,.62,2.44,1.03,1.89,.93,3.79,2.29,5.34,4.08,1.55,1.77,2.69,3.98,3.12,6.28,.12,.12,.22,.12,.28-.06-.4-2.57-1.7-4.93-3.42-6.8-1.72-1.89-3.85-3.3-6.08-4.42l-.11-.04c-.54-.2-1.11-.41-1.71-.63-.64-.19-1.31-.45-2.01-.63-1.41-.38-2.91-.67-4.22-.75-2.63-.15-5.26-.07-7.81,.46,.93-.09,1.85-.26,2.77-.26l1.37-.06,1.37,.04c.91,0,1.81,.16,2.72,.24,.89,.18,1.81,.29,2.69,.57Z"/>
      <path class="cls-1" d="M665.56,794.21c.21-.4,.36-.83,.61-1.21,.25-.38,.47-.79,.75-1.16,1.55-2.09,3.44-3.62,5.57-4.85-1.62,.82-3.09,1.9-4.38,3.15-1.25,1.3-2.05,2.62-2.55,4.08Z"/>
      <path class="cls-1" d="M674.28,786.05c-.6,.32-1.22,.58-1.78,.93,2.37-1.26,4.98-2.06,7.64-2.47,4.38-.71,8.97-.4,13.22,1.06,.48,.17,.94,.38,1.41,.57-7.6-3.58-16.95-2.84-22.86,.91-.11,.07-.23,.14-.34,.21,1.42-.86,2.97-1.46,4.53-2.02,1.59-.46,3.2-.88,4.85-1.04-2.31,.31-4.57,.92-6.66,1.85Z"/>
      <path class="cls-1" d="M689.6,783.83c.25,.05,.49,.09,.73,.16,.28,.06,.56,.13,.84,.19l-.5-.14c-.35-.08-.71-.17-1.06-.21Z"/>
      <path class="cls-1" d="M682.2,782.48h-.1c-.84,.05-1.69,.2-2.55,.31-.59,.14-1.18,.27-1.78,.41-.6,.15-1.2,.36-1.8,.53,2.19-.72,4.46-1.02,6.23-1.25Z"/>
      <path class="cls-1" d="M674.71,783.15c-.26,.09-.78,.27-1.04,.37-.15,.07-.3,.15-.45,.24,.23-.11,.48-.19,.73-.27l.76-.33Z"/>
      <path class="cls-1" d="M662.97,793.92c.83-2.37,2.29-4.38,3.98-5.99,1.7-1.62,3.65-2.87,5.69-3.84,.19-.11,.38-.22,.58-.33-2.82,1.14-5.44,2.89-7.29,5.07-.37,.42-.82,1.15-1.18,1.57-1.57,2.15-2.44,4.7-2.49,7.23l.04-.91c.04-.3,.1-.6,.16-.91,.06-.3,.1-.61,.19-.91,.1-.29,.19-.59,.29-.89l.03-.1Z"/>
    </g>
  </g>
</svg>