<?xml version="1.0" encoding="UTF-8"?>
<svg id="Capa_4" data-name="Capa 4" xmlns="http://www.w3.org/2000/svg" viewBox="0 0 1080 1080">
  <defs>
    <style>
      .cls-1 {
        stroke-dasharray: 0 0 11.23 11.23;
      }

      .cls-1, .cls-2, .cls-3, .cls-4, .cls-5, .cls-6, .cls-7, .cls-8 {
        fill: none;
        stroke-miterlimit: 10;
      }

      .cls-1, .cls-3, .cls-4, .cls-5, .cls-7, .cls-8 {
        stroke: #666;
      }

      .cls-2, .cls-6 {
        stroke: #fff;
      }

      .cls-4 {
        stroke-dasharray: 0 0 11.5 11.5;
      }

      .cls-5 {
        stroke-dasharray: 0 0 11.46 11.46;
      }

      .cls-6 {
        stroke-width: .82px;
      }

      .cls-7 {
        stroke-dasharray: 0 0 11.47 11.47;
      }

      .cls-8 {
        stroke-dasharray: 0 0 9.94 9.94;
      }

      .cls-9 {
        fill: #666;
      }
    </style>
  </defs>
  <g>
    <path class="cls-6" d="M269.9,973.55c0,12.59-15.11,36.54-33.75,36.54s-33.75-23.95-33.75-36.54,15.11-22.8,33.75-22.8,33.75,10.21,33.75,22.8Z"/>
    <circle class="cls-2" cx="236.15" cy="911.15" r="33.65"/>
  </g>
  <line class="cls-3 " x1="270.26" y1="810.29" x2="297.97" y2="782.58"/>
  <g>
    <path class="cls-6 bg-red" d="M675,974.56c0,12.59-15.11,36.54-33.75,36.54s-33.75-23.95-33.75-36.54,15.11-22.8,33.75-22.8,33.75,10.21,33.75,22.8Z"/>
    <circle class="cls-2" cx="641.25" cy="912.17" r="33.65"/>
  </g>
  <g>
    <path class="cls-6" d="M1012.5,840.96c0,12.59-15.11,36.54-33.75,36.54s-33.75-23.95-33.75-36.54,15.11-22.8,33.75-22.8,33.75,10.21,33.75,22.8Z"/>
    <circle class="cls-2" cx="978.75" cy="778.56" r="33.65"/>
  </g>
  <g>
    <path class="cls-6" d="M135,774.66c0,12.59-15.11,36.54-33.75,36.54s-33.75-23.95-33.75-36.54,15.11-22.8,33.75-22.8,33.75,10.21,33.75,22.8Z"/>
    <circle class="cls-2" cx="101.25" cy="712.27" r="33.65"/>
  </g>
  <g>
    <path class="cls-2" d="M643.09,630.88c0,38.46-46.15,111.62-103.09,111.62s-103.09-73.16-103.09-111.62,46.15-69.64,103.09-69.64,103.09,31.18,103.09,69.64Z"/>
    <circle class="cls-2" cx="540" cy="440.3" r="102.8"/>
  </g>
  <g>
    <path class="cls-2" d="M388.74,753.32c0,19.12-22.94,55.48-51.24,55.48s-51.24-36.36-51.24-55.48,22.94-34.61,51.24-34.61,51.24,15.5,51.24,34.61Z"/>
    <circle class="cls-2" cx="337.5" cy="658.59" r="51.09"/>
  </g>
  <g>
    <path class="cls-2" d="M861.24,820.82c0,19.12-22.94,55.48-51.24,55.48s-51.24-36.36-51.24-55.48,22.94-34.61,51.24-34.61,51.24,15.5,51.24,34.61Z"/>
    <circle class="cls-2" cx="810" cy="726.09" r="51.09"/>
  </g>
  <path class="cls-2 " d="M783.55,865.68c-33.41,25.18-70.84,45.31-111.16,59.25"/>
  <path class="cls-2" d="M621.62,938.84c-26.36,5.39-53.66,8.23-81.62,8.23-223.68,0-405-181.32-405-405S316.32,137.06,540,137.06s405,181.32,405,405c0,98.33-35.04,188.48-93.32,258.63"/>
  <path class="cls-2" d="M337.49,718.72c-2.68-3.15-5.3-6.36-7.83-9.63"/>
  <g>
    <path class="cls-3" d="M290.46,638.62c-.58-1.56-1.14-3.13-1.69-4.7"/>
    <path class="cls-8 " d="M285.66,624.48c-7.61-24.76-11.71-51.05-11.71-78.31,0-146.93,119.11-266.05,266.05-266.05s266.05,119.11,266.05,266.05-119.11,266.05-266.05,266.05c-53.44,0-103.19-15.75-144.88-42.87"/>
    <path class="cls-3" d="M390.97,766.59c-1.38-.93-2.75-1.88-4.11-2.84"/>
  </g>
  <g>
    <polyline class="cls-3" points="877.5 882.58 877.5 877.5 882.58 877.5"/>
    <line class="cls-7" x1="894.05" y1="877.5" x2="934.19" y2="877.5"/>
    <polyline class="cls-3" points="939.92 877.5 945 877.5 945 882.58"/>
    <line class="cls-1" x1="945" y1="893.81" x2="945" y2="933.1"/>
    <polyline class="cls-3" points="945 938.72 945 943.8 939.92 943.8"/>
    <line class="cls-7" x1="928.45" y1="943.8" x2="888.31" y2="943.8"/>
    <polyline class="cls-3 " points="882.58 943.8 877.5 943.8 877.5 938.72"/>
    <line class="cls-1" x1="877.5" y1="927.49" x2="877.5" y2="888.19"/>
  </g>
  <g>
    <polyline class="cls-3" points="877.5 140 877.5 135 882.5 135"/>
    <line class="cls-4" x1="894" y1="135" x2="934.25" y2="135"/>
    <polyline class="cls-3" points="940 135 945 135 945 140"/>
    <line class="cls-4" x1="945" y1="151.5" x2="945" y2="191.75"/>
    <polyline class="cls-3" points="945 197.5 945 202.5 940 202.5"/>
    <line class="cls-4" x1="928.5" y1="202.5" x2="888.25" y2="202.5"/>
    <polyline class="cls-3" points="882.5 202.5 877.5 202.5 877.5 197.5"/>
    <line class="cls-4" x1="877.5" y1="186" x2="877.5" y2="145.75"/>
  </g>
  <g>
    <polyline class="cls-3" points="134.9 938.61 134.9 943.61 129.9 943.61"/>
    <line class="cls-5" x1="118.44" y1="943.61" x2="78.33" y2="943.61"/>
    <polyline class="cls-3" points="72.6 943.61 67.6 943.61 67.6 938.61"/>
    <line class="cls-5" x1="67.6" y1="927.14" x2="67.6" y2="887.03"/>
    <polyline class="cls-3" points="67.6 881.3 67.6 876.3 72.6 876.3"/>
    <line class="cls-5" x1="84.06" y1="876.3" x2="124.17" y2="876.3"/>
    <polyline class="cls-3" points="129.9 876.3 134.9 876.3 134.9 881.3"/>
    <line class="cls-5" x1="134.9" y1="892.76" x2="134.9" y2="932.88"/>
  </g>
  <g>
    <polyline class="cls-3" points="405 535 405 540 400 540"/>
    <line class="cls-4" x1="388.5" y1="540" x2="348.25" y2="540"/>
    <polyline class="cls-3" points="342.5 540 337.5 540 337.5 535"/>
    <line class="cls-4" x1="337.5" y1="523.5" x2="337.5" y2="483.25"/>
    <polyline class="cls-3" points="337.5 477.5 337.5 472.5 342.5 472.5"/>
    <line class="cls-4" x1="354" y1="472.5" x2="394.25" y2="472.5"/>
    <polyline class="cls-3" points="400 472.5 405 472.5 405 477.5"/>
    <line class="cls-4" x1="405" y1="489" x2="405" y2="529.25"/>
  </g>
  <polyline class="cls-3" points="202.5 135 135 135 135 202.5"/>
  <line class="cls-3" x1="270" y1="270" x2="337.5" y2="337.5"/>
  <line class="cls-3" x1="742.5" y1="337.5" x2="810" y2="270"/>
  <rect class="cls-3" x="845.88" y="528.73" width="63.23" height="22.53"/>
  <g>
    <path class="cls-9" d="M854.9,536.89h.6v7h-.7v-6.23l-1.57,.47-.18-.6,1.85-.64Z"/>
    <path class="cls-9" d="M860.87,540.48l-2.29,3.41h-.79l1.72-2.56c-.18,.04-.37,.06-.56,.06-.69,0-1.25-.21-1.69-.64-.44-.43-.66-.99-.66-1.67s.22-1.23,.66-1.66c.44-.43,1-.65,1.69-.65s1.25,.22,1.69,.65c.44,.43,.66,.98,.66,1.66,0,.53-.14,.99-.43,1.4Zm-3.57-1.4c0,.49,.15,.88,.45,1.18,.31,.3,.71,.45,1.2,.45s.89-.15,1.19-.45c.31-.3,.46-.69,.46-1.18s-.15-.88-.46-1.18c-.3-.3-.7-.45-1.19-.45s-.89,.15-1.2,.45c-.3,.3-.45,.69-.45,1.18Z"/>
    <path class="cls-9" d="M864.75,544.01c-.84,0-1.49-.33-1.96-.98-.46-.66-.69-1.54-.69-2.64s.23-1.98,.69-2.63c.47-.66,1.12-.99,1.96-.99s1.49,.33,1.95,.99c.47,.65,.7,1.53,.7,2.63s-.23,1.98-.7,2.64c-.46,.65-1.11,.98-1.95,.98Zm0-.68c.61,0,1.09-.26,1.43-.77,.35-.51,.52-1.24,.52-2.17s-.17-1.66-.52-2.17c-.34-.51-.82-.77-1.43-.77s-1.09,.26-1.44,.77c-.34,.51-.51,1.24-.51,2.17s.17,1.66,.51,2.17c.35,.51,.83,.77,1.44,.77Z"/>
    <path class="cls-9" d="M869.7,536.89h.6v7h-.7v-6.23l-1.57,.47-.18-.6,1.85-.64Z"/>
    <path class="cls-9" d="M871.5,543.89v-.63l2.52-2.54c.72-.72,1.08-1.34,1.08-1.85,0-.89-.64-1.42-1.41-1.42-.72,0-1.24,.33-1.57,.99l-.59-.35c.44-.87,1.24-1.32,2.16-1.32,.56,0,1.05,.19,1.47,.57,.43,.37,.64,.88,.64,1.53,0,.81-.47,1.52-1.3,2.35l-2,1.99h3.45v.68h-4.45Z"/>
    <path class="cls-9" d="M879.22,539.8c.56,.07,1.02,.29,1.38,.65,.37,.35,.55,.82,.55,1.41,0,.67-.23,1.19-.69,1.58-.45,.38-1.01,.57-1.66,.57-1.04,0-1.92-.5-2.25-1.39l.58-.34c.23,.69,.84,1.05,1.67,1.05,.96,0,1.65-.54,1.65-1.47s-.69-1.47-1.65-1.47h0s0,0,0,0h-.19l-.3-.46,1.74-2.38h-3.29v-.66h4.1v.66l-1.63,2.25Z"/>
    <path class="cls-9" d="M884.7,544.01c-.84,0-1.49-.33-1.96-.98-.46-.66-.69-1.54-.69-2.64s.23-1.98,.69-2.63c.47-.66,1.12-.99,1.96-.99s1.49,.33,1.95,.99c.47,.65,.7,1.53,.7,2.63s-.23,1.98-.7,2.64c-.46,.65-1.11,.98-1.95,.98Zm0-.68c.61,0,1.09-.26,1.43-.77,.35-.51,.52-1.24,.52-2.17s-.17-1.66-.52-2.17c-.34-.51-.82-.77-1.43-.77s-1.09,.26-1.44,.77c-.34,.51-.51,1.24-.51,2.17s.17,1.66,.51,2.17c.35,.51,.83,.77,1.44,.77Z"/>
    <path class="cls-9" d="M893.4,541.83v.66h-.9v1.4h-.7v-1.4h-3.7v-.66l2.6-4.94h.77l-2.6,4.94h2.93v-2.14h.7v2.14h.9Z"/>
    <path class="cls-9" d="M895.45,536.89h.6v7h-.7v-6.23l-1.57,.47-.18-.6,1.85-.64Z"/>
    <path class="cls-9" d="M897.25,543.89v-.63l2.52-2.54c.72-.72,1.08-1.34,1.08-1.85,0-.89-.64-1.42-1.41-1.42-.72,0-1.24,.33-1.57,.99l-.59-.35c.44-.87,1.24-1.32,2.16-1.32,.56,0,1.05,.19,1.47,.57,.43,.37,.64,.88,.64,1.53,0,.81-.47,1.52-1.3,2.35l-2,1.99h3.45v.68h-4.45Z"/>
  </g>
</svg>