<?xml version="1.0" encoding="utf-8"?>
<!-- Generator: Adobe Illustrator 26.4.1, SVG Export Plug-In . SVG Version: 6.00 Build 0)  -->
<svg version="1.1" id="Capa_1" xmlns="http://www.w3.org/2000/svg" xmlns:xlink="http://www.w3.org/1999/xlink" x="0px" y="0px"
	 viewBox="0 0 21 21" style="enable-background:new 0 0 21 21;" xml:space="preserve">
<style type="text/css">
	.st0{fill:none;stroke:#FFFFFF;stroke-linecap:round;stroke-linejoin:round;}
</style>
<path class="st0" d="M15.5,16H5.4c-0.9,0-1.7-0.7-1.7-1.6c0-0.3,0.1-0.6,0.2-0.9c1-1.6,1.5-3.5,1.5-5.4V7c0-2.2,1.8-4,4-4h2
	c2.2,0,4,1.8,4,4v1.1c0,1.9,0.5,3.8,1.5,5.4c0.5,0.8,0.2,1.8-0.6,2.3C16.1,15.9,15.8,16,15.5,16L15.5,16z M17.5,5
	c-0.3-0.9-0.6-1.6-1-2s-1.1-0.7-2-1 M3.5,5c0.2-0.9,0.5-1.6,0.9-2s1.1-0.7,2.1-1 M13,17.5c-0.7,1-1.5,1.5-2.5,1.5S8.6,18.5,8,17.5"
	/>
</svg>
