<?xml version="1.0" encoding="UTF-8"?><svg id="Capa_1" xmlns="http://www.w3.org/2000/svg" viewBox="0 0 21 21"><defs><style>.cls-1{fill:none;stroke:#fff;stroke-linecap:round;stroke-linejoin:round;}</style></defs><path class="cls-1" d="M15.58,15.5H5.42c-.91,0-1.65-.74-1.65-1.65,0-.3,.08-.59,.24-.85,.98-1.64,1.5-3.51,1.5-5.42v-1.08c0-2.21,1.79-4,4-4h2c2.21,0,4,1.79,4,4v1.08c0,1.91,.52,3.78,1.5,5.42,.47,.78,.22,1.8-.57,2.26-.26,.15-.55,.24-.85,.24Zm1.92-11c-.27-.93-.6-1.6-1-2s-1.07-.73-2-1M3.59,4.5c.21-.93,.51-1.6,.91-2s1.1-.73,2.09-1m6.41,15.5c-.67,1-1.5,1.5-2.5,1.5s-1.83-.5-2.5-1.5"/></svg>