<?xml version="1.0" encoding="utf-8"?>
<!-- Generator: Adobe Illustrator 26.4.1, SVG Export Plug-In . SVG Version: 6.00 Build 0)  -->
<svg version="1.1" id="Layer_1" xmlns="http://www.w3.org/2000/svg" xmlns:xlink="http://www.w3.org/1999/xlink" x="0px" y="0px"
	 viewBox="0 0 64 64" style="enable-background:new 0 0 64 64;" xml:space="preserve">
<style type="text/css">
	.st0{display:none;fill:none;stroke:#666666;stroke-width:3;stroke-miterlimit:10;}
	.st1{fill:#FFFFFF;}
	.st2{fill:none;stroke:#FFFFFF;stroke-width:3;stroke-miterlimit:10;}
</style>
<path class="st0" d="M42.6,6.3c14,0,15.1,1.1,15.1,15.1v21.1c0,14-1.1,15.1-15.1,15.1h-2.7V39h6.6l1-7.4h-7.6c0,0,0-4.3,0-5.4
	c0-2.1,1.8-3.2,3.3-3.2c1.5,0,4.7,0,4.7,0v-6.8c0,0-2.7-0.4-5.6-0.4c-2.4,0-5.1,0.6-7.2,2.8c-2.2,2.2-2.5,5.5-2.6,9.5
	c0,1.2,0,3.6,0,3.6h-6.5V39h6.5v18.7H21.4c-14,0-15.1-1.1-15.1-15.1V21.4c0-14,1.1-15.1,15.1-15.1H42.6z"/>
<path class="st1" d="M39.4,57.4V39.9h6.2l1-6.9h-7.1c0,0,0-4.1,0-5.1c0-2,1.7-3,3.1-3c1.4,0,4.4,0,4.4,0v-6.4c0,0-2.5-0.3-5.2-0.4
	c-2.2,0-4.7,0.6-6.7,2.6c-2,2.1-2.4,5.1-2.4,8.8c0,1.1,0,3.3,0,3.3h-6v6.9h6v17.5H39.4z"/>
<path class="st2" d="M32.5,56.1H22.1C9,56.1,8,55,8,41.9V22.2C8,9.1,9,8,22.1,8h19.8C55,8,56,9.1,56,22.2v19.8
	c0,13.1-1,14.1-14.1,14.1h-2.5"/>
</svg>
