<?xml version="1.0" encoding="utf-8"?>
<!-- Generator: Adobe Illustrator 26.4.1, SVG Export Plug-In . SVG Version: 6.00 Build 0)  -->
<svg version="1.1" id="Layer_1" xmlns="http://www.w3.org/2000/svg" xmlns:xlink="http://www.w3.org/1999/xlink" x="0px" y="0px"
	 viewBox="0 0 64 64" style="enable-background:new 0 0 64 64;" xml:space="preserve">
<style type="text/css">
	.st0{fill:none;stroke:#FFFFFF;stroke-width:3;stroke-miterlimit:10;}
	.st1{fill:#FFFFFF;}
</style>
<path class="st0" d="M32,6.3c23.8,0,25.7,1.9,25.7,25.7v0.2c0,23.6-1.8,25.5-25.5,25.5h-0.5c-23.6,0-25.5-1.8-25.5-25.5v-0.5
	C6.3,8.2,8.2,6.3,31.8,6.3H32z"/>
<path class="st1" d="M47.4,19.2c1.4,0,2.6-1.2,2.6-2.6c0-1.4-1.2-2.6-2.6-2.6c-1.4,0-2.6,1.2-2.6,2.6C44.8,18,46,19.2,47.4,19.2z"/>
<path class="st1" d="M32,19.2c-7.1,0-12.8,5.8-12.8,12.9c0,7.1,5.8,12.8,12.9,12.8c7.1,0,12.8-5.8,12.8-12.9
	C44.8,24.9,39.1,19.1,32,19.2z M32,39.7c-4.3,0-7.7-3.4-7.7-7.7c0-4.3,3.4-7.7,7.7-7.7c4.3,0,7.7,3.4,7.7,7.7
	C39.7,36.2,36.3,39.7,32,39.7z"/>
</svg>
