<?xml version="1.0" encoding="utf-8"?>
<!-- Generator: Adobe Illustrator 26.4.1, SVG Export Plug-In . SVG Version: 6.00 Build 0)  -->
<svg version="1.1" id="Layer_1" xmlns="http://www.w3.org/2000/svg" xmlns:xlink="http://www.w3.org/1999/xlink" x="0px" y="0px"
	 viewBox="0 0 64 64" style="enable-background:new 0 0 64 64;" xml:space="preserve">
<style type="text/css">
	.st0{fill:none;stroke:#FFFFFF;stroke-width:3;stroke-miterlimit:10;}
	.st1{fill:#FFFFFF;}
</style>
<path class="st0" d="M42.3,6.9C56,6.9,57.1,8,57.1,21.7v20.6c0,13.7-1.1,14.7-14.7,14.7H21.7C8,57.1,6.9,56,6.9,42.3V21.7
	C6.9,8,8,6.9,21.7,6.9H42.3z"/>
<rect x="16.9" y="25.4" class="st1" width="6.3" height="20.4"/>
<path class="st1" d="M20.1,22.5c2,0,3.7-1.7,3.7-3.7c0-2-1.7-3.7-3.7-3.7c-2,0-3.7,1.7-3.7,3.7S18.1,22.5,20.1,22.5z"/>
<path class="st1" d="M47,45.8V34.6c0-5.5-1.2-9.7-7.6-9.7c-3.1,0-5.1,1.7-6,3.3h-0.1v-2.8h-6.1v20.4h6.3V35.7c0-2.7,0.5-5.2,3.8-5.2
	c3.2,0,3.3,3,3.3,5.4v9.9H47z"/>
</svg>
