<?xml version="1.0" encoding="UTF-8"?><svg id="Capa_1" xmlns="http://www.w3.org/2000/svg" viewBox="0 0 21 21"><defs><style>.cls-1{fill:none;stroke:#fff;stroke-miterlimit:10;}</style></defs><path class="cls-1" d="M2.65024,13.13493c.38638,0,.72621-.41842,.94225-1.05618,.47458-.47458,1.07861-.72959,1.69815-.79047v5.21799h5.21799c-.06088-.61954-.31588-1.22357-.79047-1.69815-.63775-.21596-1.05618-.55579-1.05618-.94217,0-.65361,1.17972-1.18351,2.63484-1.18351,1.45521,0,2.63492,.5299,2.63492,1.18351,0,.38638-.41842,.72621-1.05618,.94217-.47458,.47458-.72959,1.07861-.79047,1.69815h5.21799V5.41854c0-.51076-.41405-.92481-.92481-.92481H5.29065v5.21808c-.61954-.06088-1.22356-.31588-1.69815-.79047-.21604-.63775-.55588-1.05618-.94226-1.05618-.65361,0-1.18343,1.17972-1.18343,2.63484,0,1.45521,.52982,2.63492,1.18343,2.63492Z"/></svg>