<?xml version="1.0" encoding="UTF-8"?><svg id="Capa_1" xmlns="http://www.w3.org/2000/svg" viewBox="0 0 21 21"><defs><style>.cls-1{fill:#fff;}</style></defs><path class="cls-1" d="M15.08261,10.84279c.00607,0,.01206,.00004,.01801,.00011-.0061,.00837-.01211,.01681-.01802,.0253-.0059-.00849-.01191-.01693-.01802-.0253,.00595-.00007,.01196-.00011,.01803-.00011m1.44839,1.24042v2.89674h-2.89678v-.19359c.14207,.08455,.2772,.09996,.3565,.09996,.52044,0,.88393-.55709,.88393-1.35475s-.36349-1.35472-.88393-1.35472c-.0793,0-.21442,.0154-.3565,.09996v-.1936h2.89678m-1.44839-1.74042c-.47206,0-.85475,.17186-.85475,.38389,0,.12534,.13573,.23558,.34262,.30566,.15395,.15395,.23667,.34989,.25642,.55087h-1.69268v1.69267c.20098-.01975,.39692-.10247,.55087-.25642,.07006-.20688,.18029-.34261,.30563-.34261,.21203,0,.38393,.38269,.38393,.85472,0,.47206-.1719,.85475-.38393,.85475-.12533,0-.23557-.13574-.30563-.34262-.15395-.15395-.34989-.23667-.55087-.25642v1.69267h3.59678c.16568,0,.3-.13431,.3-.3v-3.59674h-1.69271c.01975-.20098,.10247-.39692,.25643-.55087,.20688-.07008,.34261-.18032,.34261-.30566,0-.21203-.38269-.38389-.85472-.38389h0Z"/><path class="cls-1" d="M12.63422,8.20676v.19368c-.14209-.08459-.27721-.09999-.3565-.09999-.52044,0-.88392,.55709-.88392,1.35474s.36348,1.35473,.88392,1.35473c.0793,0,.2144-.01539,.3565-.09999v4.07003H4.15046v-6.7732H12.63422m.5-.5H3.95046c-.16569,0-.3,.13432-.3,.3v7.1732c0,.16568,.13431,.3,.3,.3H13.13422v-5.5691c-.20099,.01978-.39691,.10248-.55084,.25641-.07013,.20691-.18036,.34265-.30566,.34265-.21204,0-.38392-.38269-.38392-.85473s.17188-.85474,.38392-.85474c.1253,0,.23553,.13574,.30566,.34259,.15393,.15399,.34985,.2367,.55084,.25641v-1.69269h0Z"/><path class="cls-1" d="M12.42372,6.45754c.12534,0,.23558-.13573,.30566-.34262,.15395-.15395,.34989-.23667,.55087-.25642v1.69268h1.69268c-.01975-.20097-.10247-.39692-.25642-.55087-.20688-.07006-.34262-.18029-.34262-.30563,0-.21203,.38269-.38392,.85472-.38392,.47206,0,.85475,.1719,.85475,.38392,0,.12534-.13573,.23558-.34262,.30563-.15395,.15395-.23667,.34989-.25642,.55087h1.69268V3.9544c0-.16569-.13432-.3-.3-.3h-3.59675v1.6927c-.20097-.01975-.39691-.10247-.55087-.25642-.07008-.20688-.18032-.34262-.30566-.34262-.21203,0-.38389,.38269-.38389,.85472,0,.47206,.17187,.85475,.38389,.85475Z"/><path class="cls-1" d="M13.13722,11.57836h-1.69267c.01975,.20098,.10247,.39692,.25642,.55087,.20688,.07005,.34261,.18029,.34261,.30563,0,.21203-.38269,.38393-.85472,.38393-.47206,0-.85475-.1719-.85475-.38393,0-.12534,.13574-.23557,.34262-.30563,.15395-.15395,.23667-.34989,.25642-.55087h-1.69267v3.89678h3.89674l-.01548-1.63764c.20097,.01975,.39691,.10247,.55086,.25643,.07009,.20688,.18033,.34261,.30566,.34261,.21203,0,.39939-.43776,.39938-.90979,0-.47206-.18735-.87428-.39938-.87428-.12534,0-.23557,.13574-.30566,.34262-.15395,.15395-.34989,.23667-.55086,.25642l.01548-1.67315h0Z"/></svg>