<?xml version="1.0" encoding="UTF-8"?><svg id="Capa_1" xmlns="http://www.w3.org/2000/svg" viewBox="0 0 21 21"><defs><style>.cls-1{fill:none;stroke:#fff;stroke-linecap:round;stroke-linejoin:round;}</style></defs><path class="cls-1" d="M18.5,10.5V4.5c0-1.1-.9-2-2-2h-6c-1.1,0-2,.9-2,2v6c0,1.1,.9,2,2,2h6c1.1,0,2-.9,2-2Z"/><path class="cls-1" d="M6.5,8.5h-2c-1.1,0-2,.9-2,2v6c0,1.1,.9,2,2,2h6c1.1-.01,2-.91,2-2.01v-1.99"/><g><path class="cls-1" d="M7.5,12.5h-3"/><path class="cls-1" d="M9,14c-.33,.33-.67,.67-1,1s-1.17,.83-2.5,1.5"/><path class="cls-1" d="M5.5,12.5c.33,1.17,.83,2,1.5,2.5s1.5,1,2.5,1.5"/></g><g><path class="cls-1" d="M13.5,4.5l-3,6"/><path class="cls-1" d="M13.5,4.5l3,6"/><path class="cls-1" d="M15.5,8.5h-4"/></g></svg>