<?xml version="1.0" encoding="utf-8"?>
<!-- Generator: Adobe Illustrator 26.4.1, SVG Export Plug-In . SVG Version: 6.00 Build 0)  -->
<svg version="1.1" id="Layer_1" xmlns="http://www.w3.org/2000/svg" xmlns:xlink="http://www.w3.org/1999/xlink" x="0px" y="0px"
	 viewBox="0 0 64 64" style="enable-background:new 0 0 64 64;" xml:space="preserve">
<style type="text/css">
	.st0{fill:#FFFFFF;}
	.st1{fill:none;stroke:#FFFFFF;stroke-width:3;stroke-miterlimit:10;}
</style>
<g>
	<path class="st0" d="M48.1,22.5c-0.8,1.2-1.9,2.4-3.1,3.2c0,0.3,0,0.5,0,0.8c0,8.2-6.2,17.7-17.7,17.7c-3.5,0-8.1-1.2-9.5-2.8
		c0.5,0.1,1,0.1,1.5,0.1c2.9,0,5.6-1,7.7-2.6c-2.7-0.1-5-1.8-5.8-4.3c1.2,0.2,2.8-0.1,2.8-0.1s-4.9-0.8-5-6.2
		c1.4,0.8,2.8,0.8,2.8,0.8s-2.8-1.7-2.8-5.2c0-2.1,0.8-3.1,0.8-3.1c5.3,6.5,12.8,6.5,12.8,6.5s-0.2-0.9-0.2-1.4
		c0-3.4,2.8-6.2,6.2-6.2c1.8,0,3.4,0.8,4.5,1.9c1.4-0.3,2.8-0.8,3.9-1.5c-0.5,2.2-2.7,3.4-2.7,3.4S46.4,23.3,48.1,22.5z"/>
</g>
<g>
	<path class="st1" d="M51.6,55.6c-12.7,1.3-25.5,1.3-38.2,0c-2.5-0.3-4.9-2.6-5.1-5.1C7,37.8,7,25.1,8.3,12.3
		c0.3-2.5,2.6-4.9,5.1-5.1c12.7-1.3,25.5-1.3,38.2,0c2.5,0.3,4.9,2.6,5.1,5.1c1.3,12.7,1.3,25.5,0,38.2C56.5,53,54.2,55.4,51.6,55.6
		z"/>
</g>
</svg>
