<?xml version="1.0" encoding="utf-8"?>
<!-- Generator: Adobe Illustrator 26.4.1, SVG Export Plug-In . SVG Version: 6.00 Build 0)  -->
<svg version="1.1" id="Layer_1" xmlns="http://www.w3.org/2000/svg" xmlns:xlink="http://www.w3.org/1999/xlink" x="0px" y="0px"
	 viewBox="0 0 64 64" style="enable-background:new 0 0 64 64;" xml:space="preserve">
<style type="text/css">
	.st0{fill:none;stroke:#FFFFFF;stroke-width:3;stroke-miterlimit:10;}
	.st1{fill:#FFFFFF;}
</style>
<g>
	<path class="st0" d="M50.2,6.4H13.8c-3.7,0-6.7,3-6.7,6.7v37.7c0,3.7,3,6.7,6.7,6.7h36.3c3.7,0,6.7-3,6.7-6.7V13.1
		C56.9,9.4,53.9,6.4,50.2,6.4z"/>
	<path class="st1" d="M33.3,35.2c-0.1-0.7-0.3-1.5-0.7-2.1c-0.5-0.9-1.2-1.5-2.3-1.7c-0.2,0-0.4-0.1-0.6-0.1c0,0,0-0.1,0.1-0.1
		c0.1,0,0.2-0.1,0.4-0.1c1.1-0.4,1.9-1.2,2.2-2.3c0.3-1.2,0.2-2.3-0.1-3.4c-0.3-1.1-1-1.9-1.9-2.5c-1-0.7-2.1-1-3.3-1
		c-3.6,0-7.1,0-10.7,0c-0.2,0-0.3,0-0.5,0v0.7c0,6.4,0,12.9,0,19.3c0,0.1,0,0.3,0,0.4c0,0.2,0.1,0.3,0.3,0.3c0.1,0,0.2,0,0.3,0
		c3.4,0,6.8,0,10.3,0c1.1,0,2.1-0.2,3.1-0.6c1.5-0.6,2.6-1.7,3.1-3.3l0,0C33.4,37.5,33.4,36.4,33.3,35.2z M20.6,25.7
		c0-0.4,0.1-0.4,0.5-0.4c0.9,0,1.8,0,2.8,0c0.8,0,1.6,0,2.4,0c1.3,0,1.9,0.5,2.1,1.7c0.1,0.7,0,1.4-0.2,2.1c-0.2,0.6-0.6,0.9-1.2,1
		c-0.2,0-0.5,0.1-0.7,0.1c-1.6,0-3.2,0-4.8,0c-0.1,0-0.2,0-0.3,0c-0.3,0-0.4-0.1-0.4-0.4C20.6,28.4,20.6,27.1,20.6,25.7z M28.9,37.3
		c-0.3,1-1.1,1.7-2.1,1.7c-1.9,0-3.9,0-5.8,0c-0.1,0-0.2,0-0.4-0.1v-5.6c0.2,0,0.4,0,0.6,0c1.8,0,3.5,0,5.2,0l0,0
		c1.4,0,2.2,0.8,2.5,2C29.1,35.9,29.1,36.6,28.9,37.3z"/>
	<path class="st1" d="M38,23.1c0.4-0.1,7.8-0.2,8.4,0v2.3H38C38,25.3,38,23.1,38,23.1z"/>
	<path class="st1" d="M39.4,36c0.3,0,0.5,0,0.8,0c2.9,0,5.9,0,8.8,0l0,0c0.6,0,0.6,0,0.7-0.6c0-1.6-0.1-3.1-0.8-4.6
		c-0.8-1.7-2-2.8-3.8-3.3c-1.7-0.5-3.3-0.5-5-0.1c-2.1,0.5-3.7,1.8-4.7,3.7c-1,2-1.3,4.1-0.8,6.2c0.6,2.8,2.2,4.6,5,5.4
		c1.3,0.3,2.6,0.3,3.9,0.3c1.1,0,2.2-0.3,3.1-0.8c1.4-0.7,2.3-1.7,2.7-3.3c0.1-0.4,0.3-0.8,0.1-1.3c-0.1,0-0.2,0-0.2,0
		c-0.9,0-1.9,0-2.8,0c-0.3,0-0.4,0.2-0.5,0.4c-0.2,0.7-0.7,1.2-1.4,1.5c-1.1,0.4-2.3,0.5-3.5,0.1c-1.3-0.4-2.4-1.7-2.2-3.5
		C39,36,39.2,36,39.4,36z M38.7,33.7c-0.1-0.4,0.1-0.7,0.3-1.1c0.9-2,2.9-2.5,4.6-2.1h0c0.9,0.3,1.5,0.9,1.9,1.8
		c0.2,0.5,0.2,0.9,0.2,1.3C45.2,33.9,39.2,33.9,38.7,33.7z"/>
</g>
</svg>
