<?xml version="1.0" encoding="UTF-8"?><svg id="Capa_1" xmlns="http://www.w3.org/2000/svg" viewBox="0 0 21 21"><defs><style>.cls-1{fill:none;stroke:#fff;stroke-linecap:round;stroke-linejoin:round;stroke-width:1.08px;}.cls-2{fill:#fff;}</style></defs><path class="cls-1" d="M5.57,3.81H15.43c.91,0,1.64,.74,1.64,1.64V15.31c0,.91-.74,1.64-1.64,1.64H5.57c-.91,0-1.64-.74-1.64-1.64V5.45c0-.91,.74-1.64,1.64-1.64Z"/><path class="cls-1" d="M3.93,7.09h13.14"/><path class="cls-2" d="M10.5,11.2c.45,0,.82-.37,.82-.82s-.37-.82-.82-.82-.82,.37-.82,.82,.37,.82,.82,.82h0Z"/><path class="cls-2" d="M7.22,11.2c.45,0,.82-.37,.82-.82s-.37-.82-.82-.82-.82,.37-.82,.82,.37,.82,.82,.82Z"/><path class="cls-2" d="M13.78,11.2c.45,0,.82-.37,.82-.82s-.37-.82-.82-.82-.82,.37-.82,.82,.37,.82,.82,.82h0Z"/><path class="cls-2" d="M10.5,14.49c.45,0,.82-.37,.82-.82s-.37-.82-.82-.82-.82,.37-.82,.82,.37,.82,.82,.82h0Z"/><path class="cls-2" d="M7.22,14.49c.45,.01,.83-.34,.85-.8,.01-.45-.34-.83-.8-.85-.02,0-.03,0-.05,0-.45,.01-.81,.39-.8,.85,.01,.43,.36,.78,.8,.8Z"/><path class="cls-2" d="M13.78,14.49c.45,0,.82-.37,.82-.82s-.37-.82-.82-.82-.82,.37-.82,.82,.37,.82,.82,.82h0Z"/></svg>