<?xml version="1.0" encoding="UTF-8"?><svg id="Capa_2" xmlns="http://www.w3.org/2000/svg" viewBox="0 0 885.12 225.95"><defs><style>.cls-1{fill:#fff;}</style></defs><g id="Capa_2-2"><g><g><path class="cls-1 path" d="M178.12,126.06h.28c1.76,4.03,3.4,7.85,4.91,11.46,1.51,3.62,3.21,6.79,5.09,9.53,1.89,2.74,4.12,4.89,6.7,6.46,2.58,1.57,5.79,2.33,9.62,2.26,1.38,0,2.74-.19,4.06-.57,1.32-.38,2.51-.97,3.58-1.79,1.07-.82,1.93-1.89,2.59-3.21,.66-1.32,.99-2.92,.99-4.81,0-2.39-.54-4.45-1.6-6.18-1.07-1.73-2.49-3.27-4.25-4.62-1.76-1.35-3.77-2.59-6.04-3.73-2.26-1.13-4.56-2.25-6.89-3.35-2.33-1.1-4.62-2.26-6.89-3.49-2.26-1.23-4.28-2.63-6.04-4.2-1.76-1.57-3.19-3.4-4.29-5.47-1.1-2.08-1.65-4.53-1.65-7.36,0-2.45,.38-4.78,1.13-6.98,.75-2.2,2.09-4.13,4.01-5.8,1.92-1.67,4.51-2.99,7.78-3.96,3.27-.97,7.45-1.46,12.55-1.46,3.14,0,5.68,.24,7.59,.71,1.92,.47,3.63,.99,5.14,1.56,1.51,.57,3,1.08,4.48,1.56,1.48,.47,3.35,.71,5.61,.71v25.19h-.28c-1.45-3.4-2.75-6.79-3.92-10.19-1.16-3.4-2.58-6.46-4.25-9.2-1.67-2.74-3.76-4.97-6.27-6.7-2.52-1.73-5.88-2.63-10.09-2.69-1.32,0-2.69,.19-4.1,.57s-2.72,1.01-3.92,1.89c-1.2,.88-2.17,2.01-2.92,3.4-.75,1.38-1.13,3.08-1.13,5.09,0,2.39,.57,4.47,1.7,6.23,1.13,1.76,2.61,3.32,4.43,4.67,1.82,1.35,3.93,2.59,6.32,3.73,2.39,1.13,4.81,2.25,7.26,3.35,2.45,1.1,4.87,2.26,7.26,3.49,2.39,1.23,4.51,2.64,6.37,4.25,1.85,1.6,3.35,3.46,4.48,5.57,1.13,2.11,1.7,4.61,1.7,7.5,0,2.39-.35,4.64-1.04,6.75-.69,2.11-1.93,3.93-3.73,5.47-1.79,1.54-4.28,2.77-7.45,3.68-3.18,.91-7.28,1.37-12.31,1.37-2.14,0-4.17-.05-6.08-.14-1.92-.09-3.9-.3-5.94-.61-2.04-.31-4.25-.77-6.6-1.37-2.36-.6-5.02-1.4-7.97-2.41v-26.13Z"/><path class="cls-1 path" d="M241.71,145.4c-.75,2.01-.8,3.63-.14,4.86,.66,1.23,1.65,2.2,2.97,2.92,1.32,.72,2.8,1.23,4.43,1.51,1.63,.28,3.05,.49,4.25,.61v.47h-23.02v-.47c1.51-.31,2.8-.71,3.87-1.18,1.07-.47,2-1.08,2.78-1.84,.79-.75,1.48-1.7,2.08-2.83,.6-1.13,1.21-2.51,1.84-4.15l20.94-55.57h2.36l19.06,49.06c.94,2.33,1.96,4.51,3.07,6.56,1.1,2.04,2.22,3.79,3.35,5.24,1.13,1.45,2.25,2.59,3.35,3.44,1.1,.85,2.09,1.27,2.97,1.27v.47h-35.38v-.47c2.33,0,4.35-.19,6.08-.57,1.73-.38,3.08-1.02,4.06-1.93,.97-.91,1.52-2.15,1.65-3.73,.12-1.57-.25-3.52-1.13-5.85l-5-13.3h-18.58l-5.85,15.47Zm6.13-16.42h17.92l-8.87-23.87-9.06,23.87Z"/><path class="cls-1 path" d="M326.61,89.73c9.37,0,16.09,1.37,20.14,4.1,4.06,2.74,6.08,6.53,6.08,11.37,0,1.57-.36,3.15-1.08,4.72-.72,1.57-1.84,3.02-3.35,4.34-1.51,1.32-3.44,2.47-5.8,3.44-2.36,.98-5.21,1.71-8.54,2.22,3.84,.44,7.14,1.18,9.91,2.22,2.77,1.04,5.05,2.33,6.84,3.87,1.79,1.54,3.11,3.27,3.96,5.19,.85,1.92,1.3,3.98,1.37,6.18,.06,2.52-.38,4.89-1.32,7.12-.94,2.23-2.5,4.18-4.67,5.85-2.17,1.67-4.95,2.99-8.35,3.96-3.4,.98-7.52,1.46-12.36,1.46h-31.7v-.47l4.53-.47c1.13-.12,2.03-.3,2.69-.52,.66-.22,1.16-.55,1.51-.99,.35-.44,.55-.97,.61-1.6,.06-.63,.09-1.38,.09-2.26v-53.4c0-.88-.03-1.63-.09-2.26-.06-.63-.27-1.16-.61-1.6-.35-.44-.85-.77-1.51-.99-.66-.22-1.56-.39-2.69-.52l-4.53-.47v-.47h28.87Zm-6.7,29.81h6.42c2.77,0,5.08-.41,6.93-1.23,1.85-.82,3.35-1.9,4.48-3.25,1.13-1.35,1.92-2.89,2.36-4.62,.44-1.73,.6-3.47,.47-5.24-.06-1.82-.41-3.6-1.04-5.33-.63-1.73-1.6-3.29-2.92-4.67-1.32-1.38-3.05-2.48-5.19-3.3-2.14-.82-4.78-1.23-7.92-1.23h-3.58v28.87Zm0,32.64c1.13,1.01,2.28,1.7,3.44,2.08,1.16,.38,2.47,.57,3.92,.57,3.71,0,6.78-.85,9.2-2.55,2.42-1.7,4.21-3.82,5.38-6.37,1.16-2.55,1.68-5.3,1.56-8.26-.13-2.96-.9-5.71-2.31-8.25-1.42-2.55-3.52-4.67-6.32-6.37-2.8-1.7-6.24-2.55-10.33-2.55h-4.53v31.7Z"/><path class="cls-1 path" d="M357.18,155.77v-.47l4.53-.47c1.13-.12,2.03-.3,2.69-.52,.66-.22,1.16-.55,1.51-.99,.35-.44,.55-.97,.61-1.6,.06-.63,.09-1.38,.09-2.26v-53.4c0-.88-.03-1.63-.09-2.26-.06-.63-.27-1.16-.61-1.6-.35-.44-.85-.77-1.51-.99-.66-.22-1.56-.39-2.69-.52l-4.53-.47v-.47h53.21v20h-.19c-1.07-6.1-3.15-10.8-6.23-14.1-3.08-3.3-7.14-4.95-12.17-4.95h-12.45v31.32h6.7c2.51,0,4.68-.33,6.51-.99,1.82-.66,3.38-1.68,4.67-3.07,1.29-1.38,2.36-3.16,3.21-5.33,.85-2.17,1.56-4.76,2.12-7.78h.19v35.28h-.19c-.57-3.02-1.27-5.61-2.12-7.78-.85-2.17-1.92-3.95-3.21-5.33-1.29-1.38-2.85-2.41-4.67-3.07-1.83-.66-4-.99-6.51-.99h-6.7v31.89h13.4c5.03,0,9.09-1.65,12.17-4.95,3.08-3.3,5.16-8,6.23-14.1h.19v20h-54.15Z"/><path class="cls-1 path" d="M444.92,89.73c9.37,0,16.09,1.37,20.14,4.1,4.06,2.74,6.08,6.53,6.08,11.37,0,1.7-.39,3.35-1.18,4.95-.79,1.6-2.01,3.08-3.68,4.43-1.67,1.35-3.81,2.52-6.42,3.49-2.61,.98-5.71,1.65-9.29,2.03,2.52,.32,4.59,1.29,6.23,2.92,1.63,1.64,3.27,4.03,4.91,7.17l11.51,22.17c.69,1.2,1.35,1.92,1.98,2.17,.63,.25,1.6,.5,2.92,.75v.47h-17.83c-1.76-3.84-3.62-7.83-5.57-11.98-1.95-4.15-3.87-7.96-5.75-11.42-1.89-3.46-3.74-6.3-5.57-8.54-1.82-2.23-3.55-3.35-5.19-3.35v28.02c0,.88,.03,1.7,.09,2.45,.06,.75,.27,1.4,.61,1.93,.35,.54,.85,.96,1.51,1.27,.66,.32,1.56,.54,2.69,.66l6.42,.47v.47h-33.49v-.47l4.53-.47c1.13-.12,2.03-.3,2.69-.52,.66-.22,1.16-.55,1.51-.99,.35-.44,.55-.97,.61-1.6,.06-.63,.09-1.38,.09-2.26v-53.4c0-.88-.03-1.63-.09-2.26-.06-.63-.27-1.16-.61-1.6-.35-.44-.85-.77-1.51-.99-.66-.22-1.56-.39-2.69-.52l-4.53-.47v-.47h28.87Zm-6.7,29.81h6.42c2.77,0,5.08-.41,6.93-1.23,1.85-.82,3.35-1.9,4.48-3.25,1.13-1.35,1.92-2.89,2.36-4.62,.44-1.73,.6-3.47,.47-5.24-.06-1.82-.41-3.6-1.04-5.33-.63-1.73-1.6-3.29-2.92-4.67-1.32-1.38-3.05-2.48-5.19-3.3-2.14-.82-4.78-1.23-7.92-1.23h-3.58v28.87Z"/><path class="cls-1 path" d="M540.96,155.77l-24.81-47.83v31.13c0,2.52,.33,4.67,.99,6.46,.66,1.79,1.68,3.32,3.07,4.58,1.38,1.26,3.16,2.3,5.33,3.11s4.76,1.51,7.78,2.08v.47h-29.62v-.47c2.08-.57,3.85-1.26,5.33-2.08,1.48-.82,2.67-1.85,3.58-3.11,.91-1.26,1.57-2.78,1.98-4.58,.41-1.79,.61-3.95,.61-6.46v-32.36c-.5-2.45-1.2-4.68-2.08-6.7-.88-2.01-1.84-3.74-2.88-5.19-1.04-1.45-2.11-2.58-3.21-3.4-1.1-.82-2.09-1.23-2.97-1.23v-.47h16.98l26.32,50.85,21.7-50.85h18.3v.47l-4.53,.47c-1.13,.13-2.03,.3-2.69,.52-.66,.22-1.16,.55-1.51,.99-.35,.44-.55,.98-.61,1.6-.06,.63-.09,1.38-.09,2.26v53.4c0,.88,.03,1.64,.09,2.26,.06,.63,.27,1.16,.61,1.6,.34,.44,.85,.77,1.51,.99,.66,.22,1.56,.39,2.69,.52l4.53,.47v.47h-33.49v-.47l6.42-.47c1.13-.12,2.03-.34,2.69-.66,.66-.31,1.16-.74,1.51-1.27,.34-.53,.55-1.18,.61-1.93,.06-.75,.09-1.57,.09-2.45v-47.17l-23.11,54.44h-1.13Z"/><path class="cls-1 path" d="M600.77,145.4c-.75,2.01-.8,3.63-.14,4.86,.66,1.23,1.65,2.2,2.97,2.92,1.32,.72,2.8,1.23,4.43,1.51,1.63,.28,3.05,.49,4.25,.61v.47h-23.02v-.47c1.51-.31,2.8-.71,3.87-1.18,1.07-.47,2-1.08,2.78-1.84,.79-.75,1.48-1.7,2.08-2.83,.6-1.13,1.21-2.51,1.84-4.15l20.94-55.57h2.36l19.06,49.06c.94,2.33,1.96,4.51,3.07,6.56,1.1,2.04,2.22,3.79,3.35,5.24,1.13,1.45,2.25,2.59,3.35,3.44,1.1,.85,2.09,1.27,2.97,1.27v.47h-35.38v-.47c2.33,0,4.35-.19,6.08-.57,1.73-.38,3.08-1.02,4.06-1.93,.97-.91,1.52-2.15,1.65-3.73,.12-1.57-.25-3.52-1.13-5.85l-5-13.3h-18.58l-5.85,15.47Zm6.13-16.42h17.92l-8.87-23.87-9.06,23.87Zm24.91-58.4l-18.96,14.15h-.47l7.64-14.15h11.79Z"/><path class="cls-1 path" d="M655.87,126.06h.28c1.76,4.03,3.4,7.85,4.91,11.46,1.51,3.62,3.21,6.79,5.09,9.53,1.89,2.74,4.12,4.89,6.7,6.46,2.58,1.57,5.79,2.33,9.62,2.26,1.38,0,2.74-.19,4.06-.57,1.32-.38,2.51-.97,3.58-1.79,1.07-.82,1.93-1.89,2.59-3.21,.66-1.32,.99-2.92,.99-4.81,0-2.39-.54-4.45-1.6-6.18-1.07-1.73-2.49-3.27-4.25-4.62-1.76-1.35-3.77-2.59-6.04-3.73-2.26-1.13-4.56-2.25-6.89-3.35-2.33-1.1-4.62-2.26-6.89-3.49-2.26-1.23-4.28-2.63-6.04-4.2-1.76-1.57-3.19-3.4-4.29-5.47-1.1-2.08-1.65-4.53-1.65-7.36,0-2.45,.38-4.78,1.13-6.98,.75-2.2,2.09-4.13,4.01-5.8,1.92-1.67,4.51-2.99,7.78-3.96,3.27-.97,7.45-1.46,12.55-1.46,3.14,0,5.68,.24,7.59,.71,1.92,.47,3.63,.99,5.14,1.56,1.51,.57,3,1.08,4.48,1.56,1.48,.47,3.35,.71,5.61,.71v25.19h-.28c-1.45-3.4-2.75-6.79-3.92-10.19-1.16-3.4-2.58-6.46-4.25-9.2-1.67-2.74-3.76-4.97-6.27-6.7-2.52-1.73-5.88-2.63-10.09-2.69-1.32,0-2.69,.19-4.1,.57s-2.72,1.01-3.92,1.89c-1.2,.88-2.17,2.01-2.92,3.4-.75,1.38-1.13,3.08-1.13,5.09,0,2.39,.57,4.47,1.7,6.23,1.13,1.76,2.61,3.32,4.43,4.67,1.82,1.35,3.93,2.59,6.32,3.73,2.39,1.13,4.81,2.25,7.26,3.35,2.45,1.1,4.87,2.26,7.26,3.49,2.39,1.23,4.51,2.64,6.37,4.25,1.85,1.6,3.35,3.46,4.48,5.57,1.13,2.11,1.7,4.61,1.7,7.5,0,2.39-.35,4.64-1.04,6.75-.69,2.11-1.93,3.93-3.73,5.47-1.79,1.54-4.28,2.77-7.45,3.68-3.18,.91-7.28,1.37-12.31,1.37-2.14,0-4.17-.05-6.08-.14-1.92-.09-3.9-.3-5.94-.61-2.04-.31-4.25-.77-6.6-1.37-2.36-.6-5.02-1.4-7.97-2.41v-26.13Z"/></g><polygon class="cls-1" points="740.47 195.07 34.99 195.07 34.99 53.26 113.16 53.26 113.16 54.26 35.99 54.26 35.99 194.07 740.47 194.07 740.47 195.07"/><polygon class="cls-1" points="850.14 195.07 769.22 195.07 769.22 194.07 849.14 194.07 849.14 136.61 850.14 136.61 850.14 195.07"/><polygon class="cls-1" points="850.14 111.3 849.14 111.3 849.14 54.26 182.6 54.26 182.6 53.26 850.14 53.26 850.14 111.3"/><g><g><rect class="cls-1" x="770.2" y="117.23" width="14.16" height="1" transform="translate(345.96 774.98) rotate(-65.34)"/><path class="cls-1 path" d="M774.58,124.59l-.53-.85c41.98-26.09,72.37-47.46,90.31-63.51,15.61-13.95,22.03-24,19.08-29.87-4.61-9.18-32.08-8.72-79.44,1.36-36.99,7.87-74.97,19.34-83.04,22.51l-.37-.93c8.09-3.17,46.15-14.67,83.19-22.55,48.54-10.33,75.63-10.6,80.54-.83,6.71,13.38-30.22,45.23-109.76,94.68Z"/><rect class="cls-1" x="779.73" y="120.26" width="1" height="12.85" transform="translate(357.37 794.51) rotate(-66.88)"/></g><g><rect class="cls-1" x="100.77" y="130.5" width="14.16" height="1" transform="translate(-56.24 174.21) rotate(-65.29)"/><path class="cls-1 path" d="M23.58,225.95c-12.79,0-20.42-2.38-22.81-7.13-6.71-13.38,30.22-45.23,109.76-94.68l.53,.85c-41.98,26.09-72.37,47.46-90.31,63.51-15.61,13.95-22.03,24-19.08,29.87,4.61,9.19,32.08,8.71,79.44-1.36,36.99-7.87,74.97-19.34,83.04-22.51l.37,.93c-8.09,3.17-46.15,14.67-83.19,22.55-24.94,5.3-44.21,7.96-57.73,7.96Z"/><rect class="cls-1" x="104.39" y="115.62" width="1" height="12.85" transform="translate(-48.54 170.6) rotate(-66.88)"/></g></g><g><path class="cls-1 path" d="M400,175.51c-.68-.88-.91-1.93-.7-3.14,.22-1.21,.79-2.21,1.74-3.01,.95-.8,2.02-1.21,3.2-1.21,1.63,0,2.85,.79,3.44,2.09l-.74,.4c-.5-1.12-1.4-1.67-2.71-1.67-1.02,0-1.92,.34-2.7,1.02s-1.25,1.51-1.42,2.51c-.17,1.01,.02,1.85,.56,2.52,.54,.67,1.32,1.01,2.33,1.01,1.3,0,2.48-.65,3.2-1.71l.71,.44c-.44,.64-1.03,1.15-1.74,1.52-.71,.37-1.46,.56-2.27,.56-1.26,0-2.23-.44-2.91-1.32Z"/><path class="cls-1 path" d="M408.66,175.96c-.54-.59-.73-1.36-.56-2.33,.17-.97,.61-1.73,1.34-2.27s1.52-.82,2.38-.82,1.5,.3,2.03,.89c.54,.59,.72,1.35,.55,2.3-.11,.67-.36,1.25-.76,1.73-.78,.96-1.79,1.37-2.88,1.37-.85,0-1.55-.29-2.1-.88Zm3.95-.53c.54-.42,.88-1.02,1.01-1.77,.13-.73-.01-1.3-.41-1.72-.4-.42-.9-.62-1.54-.62-.64,.01-1.24,.22-1.77,.64-.54,.42-.88,1-1.01,1.74-.13,.76,0,1.34,.4,1.76,.4,.42,.91,.62,1.55,.61,.64,0,1.24-.22,1.77-.64Z"/><path class="cls-1 path" d="M421.12,173l-.65,3.68h-.79l.65-3.68c.18-1.09-.26-1.69-1.33-1.69s-2.03,.67-2.32,2.11l-.58,3.26h-.79l1.06-6h.79l-.14,.84c.54-.66,1.25-.98,2.12-.98,1.45,0,2.23,.97,1.98,2.46Z"/><path class="cls-1 path" d="M422.88,175.96c-.54-.59-.73-1.36-.56-2.33,.17-.97,.61-1.73,1.34-2.27s1.52-.82,2.38-.82,1.5,.3,2.03,.89c.54,.59,.72,1.35,.55,2.3-.11,.67-.36,1.25-.76,1.73-.78,.96-1.79,1.37-2.88,1.37-.85,0-1.55-.29-2.1-.88Zm3.95-.53c.54-.42,.88-1.02,1.01-1.77,.13-.73-.01-1.3-.41-1.72-.4-.42-.9-.62-1.54-.62-.64,.01-1.24,.22-1.77,.64-.54,.42-.88,1-1.01,1.74-.13,.76,0,1.34,.4,1.76,.4,.42,.91,.62,1.55,.61,.64,0,1.24-.22,1.77-.64Z"/><path class="cls-1 path" d="M430.25,175.87c-.5-.65-.67-1.42-.52-2.32,.16-.88,.58-1.59,1.26-2.16s1.48-.85,2.38-.85c1.16,0,2.11,.6,2.45,1.56l-.68,.35c-.25-.71-.92-1.14-1.83-1.14-.68,0-1.28,.23-1.81,.67-.52,.44-.84,1-.96,1.65-.11,.68,.01,1.26,.37,1.73,.36,.47,.88,.7,1.56,.7,.91,0,1.73-.47,2.19-1.2l.64,.42c-.61,.97-1.7,1.55-2.96,1.55-.88,0-1.56-.32-2.08-.96Z"/><path class="cls-1 path" d="M442.05,171.48c.48,.62,.64,1.37,.46,2.23-.02,.14-.06,.26-.1,.37h-5.24c-.05,1.21,.74,1.98,2,1.98,.92,0,1.63-.35,2.12-1.03l.62,.41c-.58,.88-1.72,1.39-2.85,1.39-.92,0-1.64-.31-2.13-.94-.49-.62-.66-1.4-.5-2.33,.16-.88,.56-1.61,1.24-2.17,.68-.56,1.45-.85,2.33-.85s1.6,.31,2.06,.94Zm-.3,1.83c.1-1.31-.65-2-1.81-2-1.26,0-2.28,.79-2.65,2h4.46Zm.05-5.03l-1.39,1.56h-.79l1.2-1.56h.98Z"/><path class="cls-1 path" d="M448.86,171.46l-.64,3.63c-.18,1.04,.44,.95,1.57,.9l-.12,.7c-1.73,.26-2.47-.26-2.24-1.6l.65-3.63h-1.27l.14-.77h1.26l.25-1.44,.83-.24-.3,1.68h1.74l-.14,.77h-1.73Z"/><path class="cls-1 path" d="M451.5,175.96c-.54-.59-.73-1.36-.56-2.33,.17-.97,.61-1.73,1.34-2.27s1.52-.82,2.38-.82,1.5,.3,2.03,.89c.54,.59,.72,1.35,.55,2.3-.11,.67-.36,1.25-.76,1.73-.78,.96-1.79,1.37-2.88,1.37-.85,0-1.55-.29-2.1-.88Zm3.95-.53c.54-.42,.88-1.02,1.01-1.77,.13-.73-.01-1.3-.41-1.72-.4-.42-.9-.62-1.54-.62-.64,.01-1.24,.22-1.77,.64-.54,.42-.88,1-1.01,1.74-.13,.76,0,1.34,.4,1.76,.4,.42,.91,.62,1.55,.61,.64,0,1.24-.22,1.77-.64Z"/><path class="cls-1 path" d="M464.81,168.29h.79l-1.48,8.4h-.79l.18-1.02c-.65,.78-1.51,1.16-2.6,1.16-.84,0-1.51-.32-2.03-.97-.52-.65-.7-1.42-.54-2.29,.17-.96,.58-1.7,1.24-2.23,.66-.53,1.39-.79,2.19-.79,1.04,0,1.97,.5,2.39,1.42l.65-3.67Zm-1.95,7.15c.52-.42,.85-.96,.98-1.6l.02-.19c.11-.73-.05-1.3-.46-1.72-.41-.42-.93-.62-1.57-.62s-1.2,.2-1.73,.61c-.52,.41-.84,.97-.97,1.7-.11,.67,.02,1.25,.4,1.73,.37,.47,.9,.71,1.57,.71s1.24-.2,1.75-.62Z"/><path class="cls-1 path" d="M472.17,170.69h.79l-1.06,6h-.79l.18-1.02c-.65,.78-1.51,1.16-2.6,1.16-.84,0-1.51-.32-2.03-.97-.52-.65-.7-1.42-.54-2.29,.17-.96,.58-1.7,1.24-2.23,.66-.53,1.39-.79,2.19-.79,1.04,0,1.97,.5,2.39,1.42l.23-1.27Zm-1.52,4.75c.52-.42,.84-.96,.97-1.61l.02-.14c.11-.73-.04-1.32-.46-1.74-.41-.42-.94-.64-1.57-.64s-1.2,.2-1.73,.61c-.52,.41-.84,.97-.97,1.7-.11,.67,.02,1.25,.4,1.73,.37,.47,.9,.71,1.57,.71s1.25-.2,1.76-.62Z"/><path class="cls-1 path" d="M476.84,176.69l.62-3.59,.91-5.17h.79l-.91,5.17-.62,3.59h-.79Z"/><path class="cls-1 path" d="M485.67,170.69h.79l-1.06,6h-.79l.18-1.02c-.65,.78-1.51,1.16-2.6,1.16-.84,0-1.51-.32-2.03-.97-.52-.65-.7-1.42-.54-2.29,.17-.96,.58-1.7,1.24-2.23,.66-.53,1.39-.79,2.19-.79,1.04,0,1.97,.5,2.39,1.42l.23-1.27Zm-1.52,4.75c.52-.42,.84-.96,.97-1.61l.02-.14c.11-.73-.04-1.32-.46-1.74-.41-.42-.93-.64-1.57-.64s-1.2,.2-1.73,.61c-.52,.41-.84,.97-.97,1.7-.11,.67,.02,1.25,.4,1.73,.37,.47,.9,.71,1.57,.71s1.25-.2,1.76-.62Z"/><path class="cls-1 path" d="M499.28,171.19c.36,.43,.48,1.02,.35,1.75l-.66,3.74h-.79l.66-3.74c.18-1.04-.29-1.63-1.2-1.63s-1.7,.59-1.98,1.89l-.61,3.48h-.79l.66-3.74c.18-1.06-.25-1.63-1.12-1.63-.96,0-1.8,.62-2.08,1.93l-.6,3.44h-.79l1.06-6h.79l-.13,.78c.54-.61,1.19-.92,1.95-.92s1.4,.4,1.64,1.12c.56-.74,1.27-1.12,2.15-1.12,.64,0,1.13,.22,1.49,.65Z"/><path class="cls-1 path" d="M506.44,171.48c.48,.62,.64,1.37,.46,2.23-.02,.14-.06,.26-.1,.37h-5.24c-.05,1.21,.74,1.98,2,1.98,.92,0,1.63-.35,2.12-1.03l.62,.41c-.58,.88-1.72,1.39-2.85,1.39-.92,0-1.64-.31-2.13-.94-.49-.62-.66-1.4-.5-2.33,.16-.88,.56-1.61,1.24-2.17,.68-.56,1.45-.85,2.33-.85s1.6,.31,2.06,.94Zm-.3,1.83c.1-1.31-.65-2-1.81-2-1.26,0-2.28,.79-2.65,2h4.46Z"/><path class="cls-1 path" d="M509.95,171.46l-.64,3.63c-.18,1.04,.44,.95,1.57,.9l-.12,.7c-1.73,.26-2.47-.26-2.24-1.6l.65-3.63h-1.27l.14-.77h1.26l.25-1.44,.83-.24-.3,1.68h1.74l-.14,.77h-1.73Z"/><path class="cls-1 path" d="M512.59,175.96c-.54-.59-.73-1.36-.56-2.33,.17-.97,.61-1.73,1.34-2.27s1.52-.82,2.38-.82,1.5,.3,2.03,.89c.54,.59,.72,1.35,.55,2.3-.11,.67-.36,1.25-.76,1.73-.78,.96-1.79,1.37-2.88,1.37-.85,0-1.55-.29-2.1-.88Zm3.95-.53c.54-.42,.88-1.02,1.01-1.77,.13-.73-.01-1.3-.41-1.72-.4-.42-.9-.62-1.54-.62-.64,.01-1.24,.22-1.77,.64-.54,.42-.88,1-1.01,1.74-.13,.76,0,1.34,.4,1.76,.4,.42,.91,.62,1.55,.61,.64,0,1.24-.22,1.77-.64Z"/><path class="cls-1 path" d="M525.91,168.29h.79l-1.48,8.4h-.79l.18-1.02c-.65,.78-1.51,1.16-2.6,1.16-.84,0-1.51-.32-2.03-.97-.52-.65-.7-1.42-.54-2.29,.17-.96,.58-1.7,1.24-2.23,.66-.53,1.39-.79,2.19-.79,1.04,0,1.97,.5,2.39,1.42l.65-3.67Zm-1.95,7.15c.52-.42,.85-.96,.98-1.6l.02-.19c.11-.73-.05-1.3-.46-1.72-.41-.42-.93-.62-1.57-.62s-1.2,.2-1.73,.61c-.52,.41-.84,.97-.97,1.7-.11,.67,.02,1.25,.4,1.73,.37,.47,.9,.71,1.57,.71s1.24-.2,1.75-.62Z"/><path class="cls-1 path" d="M527.77,175.96c-.54-.59-.73-1.36-.56-2.33,.17-.97,.61-1.73,1.34-2.27s1.52-.82,2.38-.82,1.5,.3,2.03,.89c.54,.59,.72,1.35,.55,2.3-.11,.67-.36,1.25-.76,1.73-.78,.96-1.79,1.37-2.88,1.37-.85,0-1.55-.29-2.1-.88Zm3.95-.53c.54-.42,.88-1.02,1.01-1.77,.13-.73-.01-1.3-.41-1.72-.4-.42-.9-.62-1.54-.62-.64,.01-1.24,.22-1.77,.64-.54,.42-.88,1-1.01,1.74-.13,.76,0,1.34,.4,1.76,.4,.42,.91,.62,1.55,.61,.64,0,1.24-.22,1.77-.64Z"/><path class="cls-1 path" d="M534.44,176.69l.62-3.59,.91-5.17h.79l-.91,5.17-.62,3.59h-.79Z"/><path class="cls-1 path" d="M537.78,175.96c-.54-.59-.73-1.36-.56-2.33,.17-.97,.61-1.73,1.34-2.27s1.52-.82,2.38-.82,1.5,.3,2.03,.89c.54,.59,.72,1.35,.55,2.3-.11,.67-.36,1.25-.76,1.73-.78,.96-1.79,1.37-2.88,1.37-.85,0-1.55-.29-2.1-.88Zm3.95-.53c.54-.42,.88-1.02,1.01-1.77,.13-.73-.01-1.3-.41-1.72-.4-.42-.9-.62-1.54-.62-.64,.01-1.24,.22-1.77,.64-.54,.42-.88,1-1.01,1.74-.13,.76,0,1.34,.4,1.76,.4,.42,.91,.62,1.55,.61,.64,0,1.24-.22,1.77-.64Z"/><path class="cls-1 path" d="M550.67,170.69h.79l-1.01,5.76c-.16,.89-.55,1.57-1.17,2.05-.62,.49-1.38,.73-2.27,.73-1.26,0-2.21-.54-2.64-1.46l.71-.36c.29,.71,.95,1.05,1.97,1.05,1.45,0,2.39-.73,2.61-2.01l.14-.8c-.66,.79-1.5,1.19-2.53,1.19-.9,0-1.61-.31-2.11-.95-.49-.64-.67-1.4-.54-2.31,.13-.92,.54-1.66,1.21-2.2,.68-.55,1.42-.83,2.22-.83,1.02,0,1.97,.5,2.39,1.42l.23-1.27Zm-.54,3.06v-.06c.13-.73-.02-1.31-.44-1.73-.42-.43-.95-.65-1.57-.65s-1.2,.22-1.74,.64c-.53,.42-.85,.97-.96,1.68-.11,.7,.02,1.27,.4,1.74,.38,.47,.92,.7,1.61,.7,.65,0,1.22-.2,1.74-.62,.52-.42,.84-.98,.97-1.67v-.02Z"/><path class="cls-1 path" d="M552.23,176.69l1.06-6h.79l-1.06,6h-.79Zm1.25-6.84h.77l1.05-1.56h-.96l-.86,1.56Z"/><path class="cls-1 path" d="M561.05,170.69h.79l-1.06,6h-.79l.18-1.02c-.65,.78-1.51,1.16-2.6,1.16-.84,0-1.51-.32-2.03-.97-.52-.65-.7-1.42-.54-2.29,.17-.96,.58-1.7,1.24-2.23,.66-.53,1.39-.79,2.19-.79,1.04,0,1.97,.5,2.39,1.42l.23-1.27Zm-1.52,4.75c.52-.42,.84-.96,.97-1.61l.02-.14c.11-.73-.04-1.32-.46-1.74-.41-.42-.94-.64-1.57-.64s-1.2,.2-1.73,.61c-.52,.41-.84,.97-.97,1.7-.11,.67,.02,1.25,.4,1.73,.37,.47,.9,.71,1.57,.71s1.25-.2,1.76-.62Z"/><path class="cls-1 path" d="M572.37,168.29h.79l-1.48,8.4h-.79l.18-1.02c-.65,.78-1.51,1.16-2.6,1.16-.84,0-1.51-.32-2.03-.97-.52-.65-.7-1.42-.54-2.29,.17-.96,.58-1.7,1.24-2.23,.66-.53,1.39-.79,2.19-.79,1.04,0,1.97,.5,2.39,1.42l.65-3.67Zm-1.95,7.15c.52-.42,.85-.96,.98-1.6l.02-.19c.11-.73-.05-1.3-.46-1.72-.41-.42-.94-.62-1.57-.62s-1.2,.2-1.73,.61c-.52,.41-.84,.97-.97,1.7-.11,.67,.02,1.25,.4,1.73,.37,.47,.9,.71,1.57,.71s1.23-.2,1.75-.62Z"/><path class="cls-1 path" d="M579.31,171.48c.48,.62,.64,1.37,.46,2.23-.02,.14-.06,.26-.1,.37h-5.24c-.05,1.21,.74,1.98,2,1.98,.92,0,1.63-.35,2.12-1.03l.62,.41c-.58,.88-1.72,1.39-2.85,1.39-.92,0-1.64-.31-2.13-.94-.49-.62-.66-1.4-.5-2.33,.16-.88,.56-1.61,1.24-2.17,.68-.56,1.45-.85,2.33-.85s1.6,.31,2.06,.94Zm-.3,1.83c.1-1.31-.65-2-1.81-2-1.26,0-2.28,.79-2.65,2h4.46Z"/><path class="cls-1 path" d="M582.81,171.46l-.64,3.63c-.18,1.04,.44,.95,1.57,.9l-.12,.7c-1.73,.26-2.47-.26-2.24-1.6l.65-3.63h-1.27l.14-.77h1.26l.25-1.44,.83-.24-.3,1.68h1.74l-.14,.77h-1.73Z"/><path class="cls-1 path" d="M586.77,171.53c.54-.68,1.22-1,2.06-.94l-.14,.77c-1.09,0-2,.61-2.24,1.99l-.59,3.33h-.79l1.06-6h.79l-.14,.84Z"/><path class="cls-1 path" d="M594.97,170.69h.79l-1.06,6h-.79l.18-1.02c-.65,.78-1.51,1.16-2.6,1.16-.84,0-1.51-.32-2.03-.97-.52-.65-.7-1.42-.54-2.29,.17-.96,.58-1.7,1.24-2.23,.66-.53,1.39-.79,2.19-.79,1.04,0,1.97,.5,2.39,1.42l.23-1.27Zm-1.52,4.75c.52-.42,.84-.96,.97-1.61l.02-.14c.11-.73-.04-1.32-.46-1.74-.41-.42-.94-.64-1.57-.64s-1.2,.2-1.73,.61c-.52,.41-.84,.97-.97,1.7-.11,.67,.02,1.25,.4,1.73,.37,.47,.9,.71,1.57,.71s1.25-.2,1.76-.62Zm.86-7.15l-1.39,1.56h-.79l1.2-1.56h.98Z"/><path class="cls-1 path" d="M596.49,175.4l.71-.37c.13,.61,.7,1.03,1.51,1.03s1.4-.36,1.51-.95c.26-1.46-3.38-.76-2.97-2.97,.08-.44,.32-.83,.73-1.13,.41-.31,.9-.47,1.46-.47,1,0,1.68,.41,2.03,1.22l-.7,.37c-.18-.56-.72-.83-1.35-.83s-1.27,.31-1.38,.94c-.1,.53,.41,.84,1.04,1.04,.95,.28,2.16,.64,1.93,1.93-.18,1.01-1.07,1.61-2.36,1.61-1.16,0-1.92-.58-2.16-1.43Z"/><path class="cls-1 path" d="M612.1,168.29h.79l-1.48,8.4h-.79l.18-1.02c-.65,.78-1.51,1.16-2.6,1.16-.84,0-1.51-.32-2.03-.97-.52-.65-.7-1.42-.54-2.29,.17-.96,.58-1.7,1.24-2.23,.66-.53,1.39-.79,2.19-.79,1.04,0,1.97,.5,2.39,1.42l.65-3.67Zm-1.95,7.15c.52-.42,.85-.96,.98-1.6l.02-.19c.11-.73-.05-1.3-.46-1.72-.41-.42-.94-.62-1.57-.62s-1.2,.2-1.73,.61c-.52,.41-.84,.97-.97,1.7-.11,.67,.02,1.25,.4,1.73,.37,.47,.9,.71,1.57,.71s1.23-.2,1.75-.62Z"/><path class="cls-1 path" d="M619.04,171.48c.48,.62,.64,1.37,.46,2.23-.02,.14-.06,.26-.1,.37h-5.24c-.05,1.21,.74,1.98,2,1.98,.92,0,1.63-.35,2.12-1.03l.62,.41c-.58,.88-1.72,1.39-2.85,1.39-.92,0-1.64-.31-2.13-.94-.49-.62-.66-1.4-.5-2.33,.16-.88,.56-1.61,1.24-2.17,.68-.56,1.45-.85,2.33-.85s1.6,.31,2.06,.94Zm-.3,1.83c.1-1.31-.65-2-1.81-2-1.26,0-2.28,.79-2.65,2h4.46Z"/><path class="cls-1 path" d="M624.6,175.51c-.71-.89-.95-1.93-.73-3.14,.2-1.21,.79-2.21,1.74-3.01,.96-.8,2.06-1.21,3.31-1.21,2.4-.05,4.09,2.18,3.63,4.52-.22,1.21-.8,2.21-1.75,2.99-.95,.78-2.06,1.17-3.32,1.17s-2.17-.44-2.88-1.32Zm5.7-.48c.77-.66,1.24-1.49,1.42-2.48,.17-1-.02-1.83-.59-2.53-.55-.71-1.33-1.05-2.35-1.05s-1.9,.34-2.66,1.02-1.24,1.51-1.4,2.51c-.18,.98,.01,1.82,.56,2.51,.56,.68,1.34,1.02,2.35,1.02s1.92-.32,2.67-.98Z"/><path class="cls-1 path" d="M634.99,171.53c.54-.68,1.22-1,2.06-.94l-.14,.77c-1.09,0-2,.61-2.24,1.99l-.59,3.33h-.79l1.06-6h.79l-.14,.84Z"/><path class="cls-1 path" d="M637.19,176.69l1.06-6h.79l-1.06,6h-.79Zm1.2-7.84c.05-.32,.34-.58,.67-.58s.54,.25,.48,.58c-.06,.32-.33,.58-.68,.58-.32,0-.52-.25-.47-.58Z"/><path class="cls-1 path" d="M646.02,170.69h.79l-1.01,5.76c-.16,.89-.55,1.57-1.18,2.05-.62,.49-1.38,.73-2.27,.73-1.26,0-2.21-.54-2.64-1.46l.71-.36c.29,.71,.95,1.05,1.97,1.05,1.45,0,2.39-.73,2.61-2.01l.14-.8c-.66,.79-1.5,1.19-2.53,1.19-.9,0-1.61-.31-2.11-.95-.49-.64-.67-1.4-.54-2.31,.13-.92,.54-1.66,1.21-2.2,.68-.55,1.42-.83,2.22-.83,1.02,0,1.97,.5,2.39,1.42l.23-1.27Zm-.54,3.06v-.06c.13-.73-.02-1.31-.44-1.73-.42-.43-.95-.65-1.57-.65s-1.2,.22-1.74,.64c-.53,.42-.85,.97-.96,1.68-.11,.7,.02,1.27,.4,1.74,.38,.47,.92,.7,1.61,.7,.65,0,1.22-.2,1.74-.62,.52-.42,.84-.98,.97-1.67v-.02Z"/><path class="cls-1 path" d="M653.38,171.48c.48,.62,.64,1.37,.46,2.23-.02,.14-.06,.26-.1,.37h-5.24c-.05,1.21,.74,1.98,2,1.98,.92,0,1.63-.35,2.12-1.03l.62,.41c-.58,.88-1.72,1.39-2.85,1.39-.92,0-1.64-.31-2.13-.94-.49-.62-.66-1.4-.5-2.33,.16-.88,.56-1.61,1.24-2.17,.68-.56,1.45-.85,2.33-.85s1.6,.31,2.06,.94Zm-.3,1.83c.1-1.31-.65-2-1.81-2-1.26,0-2.28,.79-2.65,2h4.46Z"/><path class="cls-1 path" d="M660.5,173l-.65,3.68h-.79l.65-3.68c.18-1.09-.26-1.69-1.33-1.69s-2.03,.67-2.32,2.11l-.58,3.26h-.79l1.06-6h.79l-.14,.84c.54-.66,1.25-.98,2.12-.98,1.45,0,2.23,.97,1.98,2.46Z"/><path class="cls-1 path" d="M661.49,174.78l.73-.38c.19,1.01,.95,1.62,2.21,1.62,1.19,0,2.04-.53,2.23-1.39,.13-.6-.16-1.07-.85-1.42-.22-.11-.55-.24-1.01-.4-.68-.24-1.09-.43-1.62-.83-.52-.42-.72-1.01-.56-1.78,.13-.67,.48-1.19,1.02-1.54,.55-.35,1.16-.53,1.82-.53,1.39,0,2.23,.74,2.6,1.79l-.74,.38c-.3-.9-.94-1.35-1.91-1.35-.47,0-.89,.12-1.26,.35-.37,.23-.61,.56-.7,.98-.11,.52,.02,.9,.46,1.19,.43,.29,.71,.41,1.37,.64,.83,.3,1.39,.6,1.71,.9,.47,.44,.62,1.02,.49,1.7s-.49,1.21-1.05,1.57c-.56,.36-1.25,.54-2.03,.54-1.55,0-2.59-.76-2.91-2.05Z"/><path class="cls-1 path" d="M670.83,171.46l-.64,3.63c-.18,1.04,.44,.95,1.57,.9l-.12,.7c-1.73,.26-2.47-.26-2.24-1.6l.65-3.63h-1.27l.14-.77h1.26l.25-1.44,.83-.24-.3,1.68h1.74l-.14,.77h-1.73Z"/><path class="cls-1 path" d="M678.37,170.69h.79l-1.06,6h-.79l.14-.84c-.54,.66-1.25,.98-2.12,.98-1.45,0-2.23-.97-1.98-2.46l.65-3.68h.79l-.65,3.68c-.18,1.09,.26,1.69,1.33,1.69s2.03-.67,2.32-2.11l.58-3.26Z"/><path class="cls-1 path" d="M686.56,168.29h.79l-1.48,8.4h-.79l.18-1.02c-.65,.78-1.51,1.16-2.6,1.16-.84,0-1.51-.32-2.03-.97-.52-.65-.7-1.42-.54-2.29,.17-.96,.58-1.7,1.24-2.23,.66-.53,1.39-.79,2.19-.79,1.04,0,1.97,.5,2.39,1.42l.65-3.67Zm-1.95,7.15c.52-.42,.85-.96,.98-1.6l.02-.19c.11-.73-.05-1.3-.46-1.72-.41-.42-.93-.62-1.57-.62s-1.2,.2-1.73,.61c-.52,.41-.84,.97-.97,1.7-.11,.67,.02,1.25,.4,1.73,.37,.47,.9,.71,1.57,.71s1.24-.2,1.75-.62Z"/><path class="cls-1 path" d="M687.68,176.69l1.06-6h.79l-1.06,6h-.79Zm1.2-7.84c.05-.32,.34-.58,.67-.58s.54,.25,.48,.58c-.06,.32-.33,.58-.68,.58-.32,0-.52-.25-.47-.58Z"/><path class="cls-1 path" d="M691.02,175.96c-.54-.59-.73-1.36-.56-2.33,.17-.97,.61-1.73,1.34-2.27s1.52-.82,2.38-.82,1.5,.3,2.03,.89c.54,.59,.72,1.35,.55,2.3-.11,.67-.36,1.25-.76,1.73-.78,.96-1.79,1.37-2.88,1.37-.85,0-1.55-.29-2.1-.88Zm3.95-.53c.54-.42,.88-1.02,1.01-1.77,.13-.73-.01-1.3-.41-1.72-.4-.42-.9-.62-1.54-.62-.64,.01-1.24,.22-1.77,.64-.54,.42-.88,1-1.01,1.74-.13,.76,0,1.34,.4,1.76,.4,.42,.91,.62,1.55,.61,.64,0,1.24-.22,1.77-.64Z"/><path class="cls-1 path" d="M697.55,175.4l.71-.37c.13,.61,.7,1.03,1.51,1.03s1.4-.36,1.51-.95c.26-1.46-3.38-.76-2.97-2.97,.08-.44,.32-.83,.73-1.13,.41-.31,.9-.47,1.46-.47,1,0,1.68,.41,2.03,1.22l-.7,.37c-.18-.56-.72-.83-1.35-.83s-1.27,.31-1.38,.94c-.1,.53,.41,.84,1.04,1.04,.95,.28,2.16,.64,1.93,1.93-.18,1.01-1.07,1.61-2.36,1.61-1.16,0-1.92-.58-2.16-1.43Z"/><path class="cls-1 path" d="M703.35,176.14c.06-.37,.37-.65,.77-.65,.37,0,.61,.3,.55,.67-.08,.38-.36,.65-.78,.65-.37,0-.6-.3-.54-.67Zm.67-1.73l.47-3.72,.42-2.4h.96l-.42,2.4-.83,3.72h-.6Z"/></g><path class="cls-1 path" d="M111.76,54.26v-1c19.26,0,34.92-15.67,34.92-34.92h1c0,19.81-16.11,35.92-35.92,35.92Z"/><path class="cls-1 path" d="M182.6,54.26c-19.81,0-35.92-16.11-35.92-35.92V0h1V18.34c0,19.26,15.67,34.92,34.92,34.92v1Z"/><path class="cls-1 path" d="M147.68,107.51h-1v-18.34c0-18.84-14.73-34.16-33.54-34.89l.04-1c19.35,.75,34.5,16.52,34.5,35.89v18.34Z"/><path class="cls-1 path" d="M113.14,54.28c-.46-.02-.92-.03-1.38-.03v-1c.48,0,.95,0,1.42,.03l-.04,1Z"/><path class="cls-1 path" d="M177.32,54.65l-.15-.99c1.79-.27,3.61-.41,5.43-.41v1c-1.77,0-3.54,.13-5.28,.4Z"/><path class="cls-1 path" d="M147.68,91.41h-1v-2.24c0-17.61,13.11-32.88,30.49-35.51l.15,.99c-16.9,2.56-29.64,17.4-29.64,34.52v2.24Z"/><g><path class="cls-1 path" d="M739.82,195.07v-1c8.77,0,15.9-7.13,15.9-15.9h1c0,9.32-7.58,16.9-16.9,16.9Z"/><path class="cls-1 path" d="M772.62,195.07c-9.32,0-16.9-7.58-16.9-16.9v-8.49h1v8.49c0,8.77,7.13,15.9,15.9,15.9v1Z"/><path class="cls-1 path" d="M756.72,219.46h-1v-8.49c0-8.58-6.71-15.55-15.27-15.89l.04-1c9.1,.35,16.23,7.77,16.23,16.89v8.49Z"/><path class="cls-1 path" d="M756.72,212.01h-1v-1.04c0-8.29,6.17-15.47,14.35-16.71l.15,.99c-7.69,1.17-13.5,7.92-13.5,15.72v1.04Z"/></g><g><path class="cls-1 path" d="M833.24,124.66v-1c8.77,0,15.9-7.13,15.9-15.9h1c0,9.32-7.58,16.9-16.9,16.9Z"/><path class="cls-1 path" d="M866.04,124.66c-9.32,0-16.9-7.58-16.9-16.9v-8.49h1v8.49c0,8.77,7.13,15.9,15.9,15.9v1Z"/><path class="cls-1 path" d="M850.14,149.05h-1v-8.49c0-8.58-6.71-15.56-15.27-15.89l.04-1c9.1,.35,16.23,7.77,16.23,16.89v8.49Z"/><path class="cls-1 path" d="M850.14,141.6h-1v-1.04c0-8.58,8.7-15.66,16.82-16.89l.15,.99c-7.56,1.15-15.97,7.96-15.97,15.91v1.04Z"/></g></g></g></svg>