<?xml version="1.0" encoding="UTF-8"?><svg id="Capa_1" xmlns="http://www.w3.org/2000/svg" viewBox="0 0 21 21"><defs><style>.cls-1{fill:none;stroke:#fff;stroke-linecap:round;stroke-linejoin:round;stroke-width:1.08px;}</style></defs><path class="cls-1" d="M6.85,3.64h-2.29c-.63,0-1.14,.51-1.14,1.14v12.57c0,.63,.51,1.14,1.14,1.14H15.99c.63,0,1.14-.51,1.14-1.14V4.79c0-.63-.51-1.14-1.14-1.14h-2.28"/><path class="cls-1" d="M7.99,2.5h4.57c.63,0,1.14,.51,1.14,1.14s-.51,1.14-1.14,1.14H7.99c-.63,0-1.14-.51-1.14-1.14s.51-1.14,1.14-1.14Z"/><path class="cls-1" d="M9.13,8.21h5.71"/><path class="cls-1" d="M9.13,11.64h5.71"/><path class="cls-1" d="M9.13,15.07h5.71"/><path class="cls-1" d="M5.7,8.21h1.14"/><path class="cls-1" d="M5.7,11.64h1.14"/><path class="cls-1" d="M5.7,15.07h1.14"/></svg>