<?xml version="1.0" encoding="utf-8"?>
<!-- Generator: Adobe Illustrator 26.4.1, SVG Export Plug-In . SVG Version: 6.00 Build 0)  -->
<svg version="1.1" id="Layer_1" xmlns="http://www.w3.org/2000/svg" xmlns:xlink="http://www.w3.org/1999/xlink" x="0px" y="0px"
	 viewBox="0 0 64 64" style="enable-background:new 0 0 64 64;" xml:space="preserve">
<style type="text/css">
	.st0{fill:none;stroke:#FFFFFF;stroke-width:3;stroke-miterlimit:10;}
	.st1{fill:#FFFFFF;}
</style>
<path class="st0" d="M42.3,6.9C56,6.9,57.1,8,57.1,21.7v20.6C57.1,56,56,57,42.4,57H21.7C8,57.1,6.9,56,6.9,42.3V21.7
	C6.9,8,8,6.9,21.7,6.9H42.3z"/>
<path class="st1" d="M49.6,37.7v0.4c0,0.1,0,0.2,0,0.3c0,0.7-0.1,1.5-0.1,2.2c0,0.1-0.1,0.3-0.2,0.3c-2.5,1.9-5.3,3.3-8.3,4.3
	c-0.1,0-0.2,0-0.3-0.1c-0.4-0.7-0.9-1.4-1.3-2.1c-0.1-0.2-0.3-0.5-0.4-0.8c1-0.4,2-0.9,2.9-1.4c-0.2-0.2-0.4-0.3-0.6-0.4
	c-0.1-0.1-0.3-0.1-0.4-0.1c-1.4,0.7-2.9,1.2-4.4,1.5c-1,0.2-2,0.4-3.1,0.4s-2.2,0-3.3-0.1c-1.1-0.1-2.2-0.3-3.3-0.7
	c-1-0.3-2-0.7-2.9-1.1c-0.1,0-0.2-0.1-0.2,0c-0.2,0.2-0.4,0.3-0.7,0.5c0.9,0.6,1.9,1,2.9,1.4c0,0.1-0.1,0.2-0.1,0.2
	c-0.5,0.9-1.1,1.7-1.6,2.6c-0.1,0.2-0.2,0.2-0.3,0.1c-3-0.9-5.7-2.4-8.2-4.2c-0.2-0.1-0.2-0.3-0.2-0.5c0-0.8-0.1-1.5-0.1-2.3
	c0-0.1,0-0.1,0-0.2c0-0.4,0-0.8,0-1.2c0-0.1,0-0.2,0-0.3c0-0.6,0-1.3,0.1-1.9c0.2-1.2,0.3-2.4,0.6-3.5c0.8-3.6,2.3-7,4.4-10.1
	c0.1-0.1,0.2-0.2,0.3-0.2c2.1-1,4.4-1.7,6.7-2.1c0.2,0,0.3,0,0.3,0.2c0.2,0.5,0.5,1,0.7,1.5c0.1,0.1,0.1,0.2,0.3,0.2
	c0.4,0,0.7-0.1,1.1-0.1c0.9-0.1,1.8-0.2,2.7-0.2c1.2,0,2.5,0.1,3.7,0.3c0.1,0,0.2,0,0.3-0.2c0.2-0.5,0.5-1,0.7-1.5
	c0.1-0.1,0.2-0.2,0.3-0.2c0.3,0.1,0.7,0.1,1,0.2c2,0.4,3.8,1.1,5.7,1.9c0.1,0,0.2,0.1,0.3,0.2c1.4,2.1,2.6,4.4,3.5,6.9
	c1.1,3,1.6,6.1,1.7,9.3C49.6,37.4,49.6,37.6,49.6,37.7L49.6,37.7z M35,33.3c0,0.1,0,0.1,0,0.2c0,1.1,0.4,2,1.2,2.7
	c1,0.9,2.5,1,3.6,0.1c1.7-1.3,1.8-4,0.4-5.5c-0.9-0.9-2.1-1.2-3.2-0.8C35.7,30.5,35,32.1,35,33.3L35,33.3z M29.8,33.4
	c0-0.8-0.2-1.4-0.6-2.1c-1-1.7-3.3-2-4.7-0.6c-1.3,1.3-1.3,3.7-0.1,5.1c1.1,1.2,2.7,1.4,4,0.4C29.4,35.5,29.8,34.5,29.8,33.4
	L29.8,33.4z"/>
</svg>
