<?xml version="1.0" encoding="iso-8859-1"?>
<!-- Generator: Adobe Illustrator 25.0.0, SVG Export Plug-In . SVG Version: 6.00 Build 0)  -->
<svg version="1.1" baseProfile="basic" id="Layer_1"
	 xmlns="http://www.w3.org/2000/svg" xmlns:xlink="http://www.w3.org/1999/xlink" x="0px" y="0px" viewBox="0 0 64 64"
	 xml:space="preserve">
	 <defs><style>.social-icon-color{fill: #666666;}</style></defs>
<path class="social-icon-color" d="M32,12c18.548,0,20,1.452,20,20v0.18C52,50.561,50.562,52,32.18,52h-0.36C13.438,52,12,50.561,12,32.18v-0.36
	C12,13.439,13.438,12,31.82,12H32z M32.024,42c5.522-0.013,9.989-4.502,9.976-10.024c-0.013-5.522-4.502-9.989-10.024-9.976
	c-5.522,0.013-9.989,4.502-9.976,10.024C22.013,37.546,26.502,42.013,32.024,42z M44.005,22c1.105-0.003,1.998-0.9,1.995-2.005
	S45.1,17.997,43.995,18c-1.105,0.003-1.998,0.9-1.995,2.005C42.003,21.11,42.9,22.003,44.005,22z"/>
<path class="social-icon-color" d="M31.986,26c3.313-0.008,6.006,2.672,6.014,5.986c0.008,3.313-2.672,6.006-5.986,6.014c-3.313,0.008-6.006-2.672-6.014-5.985
	C25.992,28.701,28.672,26.008,31.986,26z"/>
</svg>