<!--?xml version="1.0" encoding="UTF-8"?--><svg id="Capa_2" xmlns="http://www.w3.org/2000/svg" viewBox="0 0 1142.25 707.02" width="1142.25" height="100%"><defs><style>/***************************************************
 * Generated by SVG Artista on 3/25/2023, 3:55:21 PM
 * MIT license (https://opensource.org/licenses/MIT)
 * W. https://svgartista.net
 **************************************************/

@-webkit-keyframes animate-svg-fill-1 {
  0% {
    fill: transparent;
  }

  100% {
    fill: rgb(225, 165, 75);
  }
}

@keyframes animate-svg-fill-1 {
  0% {
    fill: transparent;
  }

  100% {
    fill: rgb(225, 165, 75);
  }
}

.OS-SVG--1 {
  -webkit-animation: animate-svg-fill-1 0.7s ease-in 0.8s both;
          animation: animate-svg-fill-1 0.7s ease-in 0.8s both;
}

@-webkit-keyframes animate-svg-fill-2 {
  0% {
    fill: transparent;
  }

  100% {
    fill: rgb(225, 165, 75);
  }
}

@keyframes animate-svg-fill-2 {
  0% {
    fill: transparent;
  }

  100% {
    fill: rgb(225, 165, 75);
  }
}

.OS-SVG--2 {
  -webkit-animation: animate-svg-fill-2 0.7s ease-in 0.9s both;
          animation: animate-svg-fill-2 0.7s ease-in 0.9s both;
}

@-webkit-keyframes animate-svg-fill-3 {
  0% {
    fill: transparent;
  }

  100% {
    fill: rgb(255, 255, 255);
  }
}

@keyframes animate-svg-fill-3 {
  0% {
    fill: transparent;
  }

  100% {
    fill: rgb(255, 255, 255);
  }
}

.OS-SVG--3 {
  -webkit-animation: animate-svg-fill-3 0.7s ease-in 1s both;
          animation: animate-svg-fill-3 0.7s ease-in 1s both;
}

@-webkit-keyframes animate-svg-fill-4 {
  0% {
    fill: transparent;
  }

  100% {
    fill: rgb(39, 174, 96);
  }
}

@keyframes animate-svg-fill-4 {
  0% {
    fill: transparent;
  }

  100% {
    fill: rgb(39, 174, 96);
  }
}

.OS-SVG--4 {
  -webkit-animation: animate-svg-fill-4 0.7s ease-in 1.1s both;
          animation: animate-svg-fill-4 0.7s ease-in 1.1s both;
}

@-webkit-keyframes animate-svg-fill-5 {
  0% {
    fill: transparent;
  }

  100% {
    fill: rgb(225, 165, 75);
  }
}

@keyframes animate-svg-fill-5 {
  0% {
    fill: transparent;
  }

  100% {
    fill: rgb(225, 165, 75);
  }
}

.OS-SVG--5 {
  -webkit-animation: animate-svg-fill-5 0.7s ease-in 1.2000000000000002s both;
          animation: animate-svg-fill-5 0.7s ease-in 1.2000000000000002s both;
}

@-webkit-keyframes animate-svg-fill-6 {
  0% {
    fill: transparent;
  }

  100% {
    fill: rgb(225, 165, 75);
  }
}

@keyframes animate-svg-fill-6 {
  0% {
    fill: transparent;
  }

  100% {
    fill: rgb(225, 165, 75);
  }
}

.OS-SVG--6 {
  -webkit-animation: animate-svg-fill-6 0.7s ease-in 1.3s both;
          animation: animate-svg-fill-6 0.7s ease-in 1.3s both;
}

@-webkit-keyframes animate-svg-fill-7 {
  0% {
    fill: transparent;
  }

  100% {
    fill: rgb(225, 165, 75);
  }
}

@keyframes animate-svg-fill-7 {
  0% {
    fill: transparent;
  }

  100% {
    fill: rgb(225, 165, 75);
  }
}

.OS-SVG--7 {
  -webkit-animation: animate-svg-fill-7 0.7s ease-in 1.4000000000000001s both;
          animation: animate-svg-fill-7 0.7s ease-in 1.4000000000000001s both;
}

@-webkit-keyframes animate-svg-fill-8 {
  0% {
    fill: transparent;
  }

  100% {
    fill: rgb(225, 165, 75);
  }
}

@keyframes animate-svg-fill-8 {
  0% {
    fill: transparent;
  }

  100% {
    fill: rgb(225, 165, 75);
  }
}

.OS-SVG--8 {
  -webkit-animation: animate-svg-fill-8 0.7s ease-in 1.5s both;
          animation: animate-svg-fill-8 0.7s ease-in 1.5s both;
}

@-webkit-keyframes animate-svg-fill-9 {
  0% {
    fill: transparent;
  }

  100% {
    fill: rgb(225, 165, 75);
  }
}

@keyframes animate-svg-fill-9 {
  0% {
    fill: transparent;
  }

  100% {
    fill: rgb(225, 165, 75);
  }
}

.OS-SVG--9 {
  -webkit-animation: animate-svg-fill-9 0.7s ease-in 1.6s both;
          animation: animate-svg-fill-9 0.7s ease-in 1.6s both;
}

@-webkit-keyframes animate-svg-fill-10 {
  0% {
    fill: transparent;
  }

  100% {
    fill: rgb(225, 165, 75);
  }
}

@keyframes animate-svg-fill-10 {
  0% {
    fill: transparent;
  }

  100% {
    fill: rgb(225, 165, 75);
  }
}

.OS-SVG--10 {
  -webkit-animation: animate-svg-fill-10 0.7s ease-in 1.7000000000000002s both;
          animation: animate-svg-fill-10 0.7s ease-in 1.7000000000000002s both;
}

@-webkit-keyframes animate-svg-fill-11 {
  0% {
    fill: transparent;
  }

  100% {
    fill: rgb(225, 165, 75);
  }
}

@keyframes animate-svg-fill-11 {
  0% {
    fill: transparent;
  }

  100% {
    fill: rgb(225, 165, 75);
  }
}

.OS-SVG--11 {
  -webkit-animation: animate-svg-fill-11 0.7s ease-in 1.8s both;
          animation: animate-svg-fill-11 0.7s ease-in 1.8s both;
}

@-webkit-keyframes animate-svg-fill-12 {
  0% {
    fill: transparent;
  }

  100% {
    fill: rgb(225, 165, 75);
  }
}

@keyframes animate-svg-fill-12 {
  0% {
    fill: transparent;
  }

  100% {
    fill: rgb(225, 165, 75);
  }
}

.OS-SVG--12 {
  -webkit-animation: animate-svg-fill-12 0.7s ease-in 1.9000000000000001s both;
          animation: animate-svg-fill-12 0.7s ease-in 1.9000000000000001s both;
}

@-webkit-keyframes animate-svg-fill-13 {
  0% {
    fill: transparent;
  }

  100% {
    fill: rgb(225, 165, 75);
  }
}

@keyframes animate-svg-fill-13 {
  0% {
    fill: transparent;
  }

  100% {
    fill: rgb(225, 165, 75);
  }
}

.OS-SVG--13 {
  -webkit-animation: animate-svg-fill-13 0.7s ease-in 2s both;
          animation: animate-svg-fill-13 0.7s ease-in 2s both;
}

@-webkit-keyframes animate-svg-fill-14 {
  0% {
    fill: transparent;
  }

  100% {
    fill: rgb(225, 165, 75);
  }
}

@keyframes animate-svg-fill-14 {
  0% {
    fill: transparent;
  }

  100% {
    fill: rgb(225, 165, 75);
  }
}

.OS-SVG--14 {
  -webkit-animation: animate-svg-fill-14 0.7s ease-in 2.1s both;
          animation: animate-svg-fill-14 0.7s ease-in 2.1s both;
}

@-webkit-keyframes animate-svg-fill-15 {
  0% {
    fill: transparent;
  }

  100% {
    fill: rgb(225, 165, 75);
  }
}

@keyframes animate-svg-fill-15 {
  0% {
    fill: transparent;
  }

  100% {
    fill: rgb(225, 165, 75);
  }
}

.OS-SVG--15 {
  -webkit-animation: animate-svg-fill-15 0.7s ease-in 2.2s both;
          animation: animate-svg-fill-15 0.7s ease-in 2.2s both;
}

@-webkit-keyframes animate-svg-fill-16 {
  0% {
    fill: transparent;
  }

  100% {
    fill: rgb(225, 165, 75);
  }
}

@keyframes animate-svg-fill-16 {
  0% {
    fill: transparent;
  }

  100% {
    fill: rgb(225, 165, 75);
  }
}

.OS-SVG--16 {
  -webkit-animation: animate-svg-fill-16 0.7s ease-in 2.3s both;
          animation: animate-svg-fill-16 0.7s ease-in 2.3s both;
}

@-webkit-keyframes animate-svg-fill-17 {
  0% {
    fill: transparent;
  }

  100% {
    fill: rgb(225, 165, 75);
  }
}

@keyframes animate-svg-fill-17 {
  0% {
    fill: transparent;
  }

  100% {
    fill: rgb(225, 165, 75);
  }
}

.OS-SVG--17 {
  -webkit-animation: animate-svg-fill-17 0.7s ease-in 2.4000000000000004s both;
          animation: animate-svg-fill-17 0.7s ease-in 2.4000000000000004s both;
}

@-webkit-keyframes animate-svg-fill-18 {
  0% {
    fill: transparent;
  }

  100% {
    fill: rgb(225, 165, 75);
  }
}

@keyframes animate-svg-fill-18 {
  0% {
    fill: transparent;
  }

  100% {
    fill: rgb(225, 165, 75);
  }
}

.OS-SVG--18 {
  -webkit-animation: animate-svg-fill-18 0.7s ease-in 2.5s both;
          animation: animate-svg-fill-18 0.7s ease-in 2.5s both;
}

@-webkit-keyframes animate-svg-fill-19 {
  0% {
    fill: transparent;
  }

  100% {
    fill: rgb(225, 165, 75);
  }
}

@keyframes animate-svg-fill-19 {
  0% {
    fill: transparent;
  }

  100% {
    fill: rgb(225, 165, 75);
  }
}

.OS-SVG--19 {
  -webkit-animation: animate-svg-fill-19 0.7s ease-in 2.6s both;
          animation: animate-svg-fill-19 0.7s ease-in 2.6s both;
}

@-webkit-keyframes animate-svg-fill-20 {
  0% {
    fill: transparent;
  }

  100% {
    fill: rgb(225, 165, 75);
  }
}

@keyframes animate-svg-fill-20 {
  0% {
    fill: transparent;
  }

  100% {
    fill: rgb(225, 165, 75);
  }
}

.OS-SVG--20 {
  -webkit-animation: animate-svg-fill-20 0.7s ease-in 2.7s both;
          animation: animate-svg-fill-20 0.7s ease-in 2.7s both;
}

@-webkit-keyframes animate-svg-fill-21 {
  0% {
    fill: transparent;
  }

  100% {
    fill: rgb(225, 165, 75);
  }
}

@keyframes animate-svg-fill-21 {
  0% {
    fill: transparent;
  }

  100% {
    fill: rgb(225, 165, 75);
  }
}

.OS-SVG--21 {
  -webkit-animation: animate-svg-fill-21 0.7s ease-in 2.8s both;
          animation: animate-svg-fill-21 0.7s ease-in 2.8s both;
}

@-webkit-keyframes animate-svg-fill-22 {
  0% {
    fill: transparent;
  }

  100% {
    fill: rgb(225, 165, 75);
  }
}

@keyframes animate-svg-fill-22 {
  0% {
    fill: transparent;
  }

  100% {
    fill: rgb(225, 165, 75);
  }
}

.OS-SVG--22 {
  -webkit-animation: animate-svg-fill-22 0.7s ease-in 2.9000000000000004s both;
          animation: animate-svg-fill-22 0.7s ease-in 2.9000000000000004s both;
}

@-webkit-keyframes animate-svg-fill-23 {
  0% {
    fill: transparent;
  }

  100% {
    fill: rgb(225, 165, 75);
  }
}

@keyframes animate-svg-fill-23 {
  0% {
    fill: transparent;
  }

  100% {
    fill: rgb(225, 165, 75);
  }
}

.OS-SVG--23 {
  -webkit-animation: animate-svg-fill-23 0.7s ease-in 3s both;
          animation: animate-svg-fill-23 0.7s ease-in 3s both;
}

@-webkit-keyframes animate-svg-fill-24 {
  0% {
    fill: transparent;
  }

  100% {
    fill: rgb(225, 165, 75);
  }
}

@keyframes animate-svg-fill-24 {
  0% {
    fill: transparent;
  }

  100% {
    fill: rgb(225, 165, 75);
  }
}

.OS-SVG--24 {
  -webkit-animation: animate-svg-fill-24 0.7s ease-in 3.1000000000000005s both;
          animation: animate-svg-fill-24 0.7s ease-in 3.1000000000000005s both;
}

@-webkit-keyframes animate-svg-fill-25 {
  0% {
    fill: transparent;
  }

  100% {
    fill: rgb(225, 165, 75);
  }
}

@keyframes animate-svg-fill-25 {
  0% {
    fill: transparent;
  }

  100% {
    fill: rgb(225, 165, 75);
  }
}

.OS-SVG--25 {
  -webkit-animation: animate-svg-fill-25 0.7s ease-in 3.2s both;
          animation: animate-svg-fill-25 0.7s ease-in 3.2s both;
}

@-webkit-keyframes animate-svg-fill-26 {
  0% {
    fill: transparent;
  }

  100% {
    fill: rgb(225, 165, 75);
  }
}

@keyframes animate-svg-fill-26 {
  0% {
    fill: transparent;
  }

  100% {
    fill: rgb(225, 165, 75);
  }
}

.OS-SVG--26 {
  -webkit-animation: animate-svg-fill-26 0.7s ease-in 3.3s both;
          animation: animate-svg-fill-26 0.7s ease-in 3.3s both;
}

@-webkit-keyframes animate-svg-fill-27 {
  0% {
    fill: transparent;
  }

  100% {
    fill: rgb(255, 255, 255);
  }
}

@keyframes animate-svg-fill-27 {
  0% {
    fill: transparent;
  }

  100% {
    fill: rgb(255, 255, 255);
  }
}

.OS-SVG--27 {
  -webkit-animation: animate-svg-fill-27 0.7s ease-in 3.4000000000000004s both;
          animation: animate-svg-fill-27 0.7s ease-in 3.4000000000000004s both;
}

@-webkit-keyframes animate-svg-fill-28 {
  0% {
    fill: transparent;
  }

  100% {
    fill: rgb(255, 255, 255);
  }
}

@keyframes animate-svg-fill-28 {
  0% {
    fill: transparent;
  }

  100% {
    fill: rgb(255, 255, 255);
  }
}

.OS-SVG--28 {
  -webkit-animation: animate-svg-fill-28 0.7s ease-in 3.5s both;
          animation: animate-svg-fill-28 0.7s ease-in 3.5s both;
}

@-webkit-keyframes animate-svg-fill-29 {
  0% {
    fill: transparent;
  }

  100% {
    fill: rgb(255, 255, 255);
  }
}

@keyframes animate-svg-fill-29 {
  0% {
    fill: transparent;
  }

  100% {
    fill: rgb(255, 255, 255);
  }
}

.OS-SVG--29 {
  -webkit-animation: animate-svg-fill-29 0.7s ease-in 3.6000000000000005s both;
          animation: animate-svg-fill-29 0.7s ease-in 3.6000000000000005s both;
}

@-webkit-keyframes animate-svg-fill-30 {
  0% {
    fill: transparent;
  }

  100% {
    fill: rgb(255, 255, 255);
  }
}

@keyframes animate-svg-fill-30 {
  0% {
    fill: transparent;
  }

  100% {
    fill: rgb(255, 255, 255);
  }
}

.OS-SVG--30 {
  -webkit-animation: animate-svg-fill-30 0.7s ease-in 3.7s both;
          animation: animate-svg-fill-30 0.7s ease-in 3.7s both;
}

@-webkit-keyframes animate-svg-fill-31 {
  0% {
    fill: transparent;
  }

  100% {
    fill: rgb(255, 255, 255);
  }
}

@keyframes animate-svg-fill-31 {
  0% {
    fill: transparent;
  }

  100% {
    fill: rgb(255, 255, 255);
  }
}

.OS-SVG--31 {
  -webkit-animation: animate-svg-fill-31 0.7s ease-in 3.8s both;
          animation: animate-svg-fill-31 0.7s ease-in 3.8s both;
}

@-webkit-keyframes animate-svg-fill-32 {
  0% {
    fill: transparent;
  }

  100% {
    fill: rgb(255, 255, 255);
  }
}

@keyframes animate-svg-fill-32 {
  0% {
    fill: transparent;
  }

  100% {
    fill: rgb(255, 255, 255);
  }
}

.OS-SVG--32 {
  -webkit-animation: animate-svg-fill-32 0.7s ease-in 3.9000000000000004s both;
          animation: animate-svg-fill-32 0.7s ease-in 3.9000000000000004s both;
}

@-webkit-keyframes animate-svg-fill-33 {
  0% {
    fill: transparent;
  }

  100% {
    fill: rgb(255, 255, 255);
  }
}

@keyframes animate-svg-fill-33 {
  0% {
    fill: transparent;
  }

  100% {
    fill: rgb(255, 255, 255);
  }
}

.OS-SVG--33 {
  -webkit-animation: animate-svg-fill-33 0.7s ease-in 4s both;
          animation: animate-svg-fill-33 0.7s ease-in 4s both;
}

@-webkit-keyframes animate-svg-fill-34 {
  0% {
    fill: transparent;
  }

  100% {
    fill: rgb(255, 255, 255);
  }
}

@keyframes animate-svg-fill-34 {
  0% {
    fill: transparent;
  }

  100% {
    fill: rgb(255, 255, 255);
  }
}

.OS-SVG--34 {
  -webkit-animation: animate-svg-fill-34 0.7s ease-in 4.1000000000000005s both;
          animation: animate-svg-fill-34 0.7s ease-in 4.1000000000000005s both;
}

@-webkit-keyframes animate-svg-fill-35 {
  0% {
    fill: transparent;
  }

  100% {
    fill: rgb(255, 255, 255);
  }
}

@keyframes animate-svg-fill-35 {
  0% {
    fill: transparent;
  }

  100% {
    fill: rgb(255, 255, 255);
  }
}

.OS-SVG--35 {
  -webkit-animation: animate-svg-fill-35 0.7s ease-in 4.2s both;
          animation: animate-svg-fill-35 0.7s ease-in 4.2s both;
}

@-webkit-keyframes animate-svg-fill-36 {
  0% {
    fill: transparent;
  }

  100% {
    fill: rgb(255, 255, 255);
  }
}

@keyframes animate-svg-fill-36 {
  0% {
    fill: transparent;
  }

  100% {
    fill: rgb(255, 255, 255);
  }
}

.OS-SVG--36 {
  -webkit-animation: animate-svg-fill-36 0.7s ease-in 4.3s both;
          animation: animate-svg-fill-36 0.7s ease-in 4.3s both;
}

@-webkit-keyframes animate-svg-fill-37 {
  0% {
    fill: transparent;
  }

  100% {
    fill: rgb(255, 255, 255);
  }
}

@keyframes animate-svg-fill-37 {
  0% {
    fill: transparent;
  }

  100% {
    fill: rgb(255, 255, 255);
  }
}

.OS-SVG--37 {
  -webkit-animation: animate-svg-fill-37 0.7s ease-in 4.4s both;
          animation: animate-svg-fill-37 0.7s ease-in 4.4s both;
}


</style></defs><g id="Capa_1_copia"><g><path class="cls-2 OS-SVG--1" d="M847.72,662.82H243.23V256.13c0-11.86,9.65-21.51,21.51-21.51H826.21c11.86,0,21.51,9.65,21.51,21.51v22.73h-5v-22.73c0-9.1-7.41-16.51-16.51-16.51H264.73c-9.1,0-16.51,7.41-16.51,16.51v401.68H842.72V379.47h5v283.35Z"></path><path class="cls-2 OS-SVG--2" d="M898.21,707.02H192.74c-11.86,0-21.51-9.65-21.51-21.51v-27.7H919.71v27.7c0,11.86-9.65,21.51-21.51,21.51Zm-721.97-44.2v22.7c0,9.1,7.41,16.51,16.51,16.51H898.21c9.1,0,16.51-7.41,16.51-16.51v-22.7H176.23Z"></path></g><path class="cls-1 OS-SVG--3" d="M845.22,381.97c-29.12,0-52.8-23.69-52.8-52.8s23.69-52.8,52.8-52.8,52.8,23.69,52.8,52.8-23.69,52.8-52.8,52.8Zm0-100.61c-26.36,0-47.8,21.44-47.8,47.8s21.44,47.8,47.8,47.8,47.8-21.44,47.8-47.8-21.44-47.8-47.8-47.8Z"></path><polygon class="cls-3 OS-SVG--4" id="check" points="838.18 349.3 810.61 321.73 814.14 318.19 838.18 342.23 893.76 286.65 897.29 290.19 838.18 349.3"></polygon><g><path class="cls-2 OS-SVG--5" d="M115,494.96H21.25c-11.72,0-21.25-9.53-21.25-21.25v-75c0-11.72,9.53-21.25,21.25-21.25H115c11.72,0,21.25,9.53,21.25,21.25v75c0,11.72-9.53,21.25-21.25,21.25ZM21.25,382.46c-8.96,0-16.25,7.29-16.25,16.25v75c0,8.96,7.29,16.25,16.25,16.25H115c8.96,0,16.25-7.29,16.25-16.25v-75c0-8.96-7.29-16.25-16.25-16.25H21.25Z"></path><path class="cls-2 OS-SVG--6" d="M30.62,494.96c-1.38,0-2.5-1.12-2.5-2.5v-112.5c0-1.38,1.12-2.5,2.5-2.5s2.5,1.12,2.5,2.5v112.5c0,1.38-1.12,2.5-2.5,2.5Z"></path><path class="cls-2 OS-SVG--7" d="M105.62,494.96c-1.38,0-2.5-1.12-2.5-2.5v-112.5c0-1.38,1.12-2.5,2.5-2.5s2.5,1.12,2.5,2.5v112.5c0,1.38-1.12,2.5-2.5,2.5Z"></path><path class="cls-2 OS-SVG--8" d="M133.75,410.59h-28.12c-1.38,0-2.5-1.12-2.5-2.5s1.12-2.5,2.5-2.5h28.12c1.38,0,2.5,1.12,2.5,2.5s-1.12,2.5-2.5,2.5Z"></path><path class="cls-2 OS-SVG--9" d="M133.75,466.84h-28.12c-1.38,0-2.5-1.12-2.5-2.5s1.12-2.5,2.5-2.5h28.12c1.38,0,2.5,1.12,2.5,2.5s-1.12,2.5-2.5,2.5Z"></path><path class="cls-2 OS-SVG--10" d="M30.62,410.59H2.5c-1.38,0-2.5-1.12-2.5-2.5s1.12-2.5,2.5-2.5H30.62c1.38,0,2.5,1.12,2.5,2.5s-1.12,2.5-2.5,2.5Z"></path><path class="cls-2 OS-SVG--11" d="M133.75,438.71H2.5c-1.38,0-2.5-1.12-2.5-2.5s1.12-2.5,2.5-2.5H133.75c1.38,0,2.5,1.12,2.5,2.5s-1.12,2.5-2.5,2.5Z"></path><path class="cls-2 OS-SVG--12" d="M30.62,466.84H2.5c-1.38,0-2.5-1.12-2.5-2.5s1.12-2.5,2.5-2.5H30.62c1.38,0,2.5,1.12,2.5,2.5s-1.12,2.5-2.5,2.5Z"></path></g><g><path class="cls-2 OS-SVG--13" d="M798.2,638.06h-95.84c-11.95,0-21.67-9.72-21.67-21.67v-76.67c0-11.95,9.72-21.67,21.67-21.67h95.84c11.95,0,21.67,9.72,21.67,21.67v76.67c0,11.95-9.72,21.67-21.67,21.67Zm-95.84-115.01c-9.19,0-16.67,7.48-16.67,16.67v76.67c0,9.19,7.48,16.67,16.67,16.67h95.84c9.19,0,16.67-7.48,16.67-16.67v-76.67c0-9.19-7.48-16.67-16.67-16.67h-95.84Z"></path><path class="cls-2 OS-SVG--14" d="M788.62,618.89h-19.17c-6.66,0-12.08-5.42-12.08-12.08v-19.17c0-6.66,5.42-12.08,12.08-12.08h19.17c6.66,0,12.08,5.42,12.08,12.08v19.17c0,6.66-5.42,12.08-12.08,12.08Zm-19.17-38.34c-3.91,0-7.08,3.18-7.08,7.08v19.17c0,3.91,3.18,7.08,7.08,7.08h19.17c3.91,0,7.08-3.18,7.08-7.08v-19.17c0-3.91-3.18-7.08-7.08-7.08h-19.17Z"></path></g><g><path class="cls-2 OS-SVG--15" d="M400.13,358h-103.85c-10.92,0-19.81-8.89-19.81-19.81v-51.62c0-10.89,8.86-19.77,19.75-19.81h0l103.85-.33h.06c10.29,0,18.96,8.01,19.75,18.27l.06,1.44v52.05c0,10.92-8.88,19.81-19.81,19.81Zm-103.9-86.24h0c-8.14,.03-14.76,6.67-14.76,14.81v51.62c0,8.17,6.64,14.81,14.81,14.81h103.85c8.17,0,14.81-6.64,14.81-14.81v-51.95l-.05-1.25c-.58-7.57-7.07-13.56-14.76-13.56h-.05l-103.85,.33Z"></path><path class="cls-2 OS-SVG--16" d="M339.55,332.04c-.4,0-.81-.1-1.18-.3-.81-.44-1.32-1.28-1.32-2.2v-34.62c0-.92,.51-1.77,1.32-2.2,.81-.44,1.8-.39,2.57,.12l25.96,17.31c.7,.46,1.11,1.24,1.11,2.08s-.42,1.62-1.11,2.08l-25.96,17.31c-.42,.28-.9,.42-1.39,.42Zm2.5-32.44v25.27l18.96-12.64-18.96-12.64Z"></path></g><path class="cls-2 OS-SVG--17" d="M195.72,228.06h-19.69c-1.38,0-2.5-1.12-2.5-2.5s1.12-2.5,2.5-2.5h19.69c9.48,0,17.19-7.71,17.19-17.19V127.12c0-9.48-7.71-17.19-17.19-17.19H97.28c-9.48,0-17.19,7.71-17.19,17.19,0,1.38-1.12,2.5-2.5,2.5s-2.5-1.12-2.5-2.5c0-12.23,9.95-22.19,22.19-22.19h98.44c12.23,0,22.19,9.95,22.19,22.19v78.75c0,12.23-9.95,22.19-22.19,22.19Zm-39.38,0c-1.38,0-2.5-1.12-2.5-2.5,0-42.04-34.21-76.25-76.25-76.25-1.38,0-2.5-1.12-2.5-2.5s1.12-2.5,2.5-2.5c44.8,0,81.25,36.45,81.25,81.25,0,1.38-1.12,2.5-2.5,2.5Zm-29.53,0c-1.38,0-2.5-1.12-2.5-2.5,0-25.76-20.96-46.72-46.72-46.72-1.38,0-2.5-1.12-2.5-2.5s1.12-2.5,2.5-2.5c28.52,0,51.72,23.2,51.72,51.72,0,1.38-1.12,2.5-2.5,2.5Zm-29.53,0c-1.38,0-2.5-1.12-2.5-2.5,0-9.48-7.71-17.19-17.19-17.19-1.38,0-2.5-1.12-2.5-2.5s1.12-2.5,2.5-2.5c12.23,0,22.19,9.95,22.19,22.19,0,1.38-1.12,2.5-2.5,2.5Z"></path><g><path class="cls-2 OS-SVG--18" d="M584.9,33.98h-86.54c-1.38,0-2.5-1.12-2.5-2.5s1.12-2.5,2.5-2.5h86.54c1.38,0,2.5,1.12,2.5,2.5s-1.12,2.5-2.5,2.5Z"></path><path class="cls-2 OS-SVG--19" d="M507.97,91.89c-6.05,0-11.19-4.47-12-10.48,0-.06-.01-.11-.02-.17l-.09-1.3c0-.06,0-.11,0-.17v-9.46c0-6.56,5.33-11.99,11.89-12.11l9.62-.18c6.14-.11,11.41,4.39,12.23,10.48,0,.06,.01,.11,.02,.17l.09,1.3c0,.06,0,.11,0,.17v9.46c0,6.56-5.33,11.99-11.89,12.11l-9.62,.18c-.08,0-.15,0-.23,0Zm-7.04-11.07c.52,3.53,3.59,6.15,7.17,6.07l9.62-.18c3.85-.07,6.98-3.26,6.98-7.11v-9.37l-.08-1.13c-.52-3.53-3.55-6.15-7.17-6.07l-9.62,.18h0c-3.85,.07-6.98,3.26-6.98,7.11v9.37l.08,1.13Zm6.86-20.11h0Z"></path><path class="cls-2 OS-SVG--20" d="M613.75,120.53h-125.01c-11.98,0-21.73-9.75-21.73-21.73V21.73c0-11.98,9.75-21.73,21.73-21.73h105.77c11.98,0,21.73,9.75,21.73,21.73V118.03c0,1.38-1.12,2.5-2.5,2.5ZM488.75,5c-9.23,0-16.73,7.51-16.73,16.73V98.8c0,9.23,7.51,16.73,16.73,16.73h122.51V21.73c0-9.23-7.51-16.73-16.73-16.73h-105.77Z"></path><path class="cls-2 OS-SVG--21" d="M584.9,62.83h-38.46c-1.38,0-2.5-1.12-2.5-2.5s1.12-2.5,2.5-2.5h38.46c1.38,0,2.5,1.12,2.5,2.5s-1.12,2.5-2.5,2.5Z"></path><path class="cls-2 OS-SVG--22" d="M584.9,91.68h-38.46c-1.38,0-2.5-1.12-2.5-2.5s1.12-2.5,2.5-2.5h38.46c1.38,0,2.5,1.12,2.5,2.5s-1.12,2.5-2.5,2.5Z"></path><path class="cls-2 OS-SVG--23" d="M608.94,120.53c-1.38,0-2.5-1.12-2.5-2.5s1.12-2.5,2.5-2.5c11.88,0,21.54-9.66,21.54-21.54V33.99h-16.73c-1.38,0-2.5-1.12-2.5-2.5s1.12-2.5,2.5-2.5h19.23c1.38,0,2.5,1.12,2.5,2.5v62.5c0,14.63-11.91,26.54-26.54,26.54Z"></path></g><path class="cls-2 OS-SVG--24" d="M1066.75,482.34h-73c-14.8,0-26.83-12.04-26.83-26.83v-48.67c0-14.8,12.04-26.83,26.83-26.83h73c14.79,0,26.83,12.04,26.83,26.83v7.17l25.2-18.9c3.13-2.35,6.99-3.34,10.87-2.79,3.88,.55,7.31,2.58,9.66,5.72,1.89,2.52,2.93,5.65,2.93,8.8v48.67c0,8.09-6.58,14.67-14.67,14.67-3.15,0-6.28-1.04-8.8-2.93l-25.2-18.9v7.17c0,14.8-12.04,26.83-26.83,26.83Zm-73-97.33c-12.04,0-21.83,9.79-21.83,21.83v48.67c0,12.04,9.79,21.83,21.83,21.83h73c12.04,0,21.83-9.79,21.83-21.83v-48.67c0-12.04-9.79-21.83-21.83-21.83h-73Zm99.83,57.08l28.2,21.15c1.66,1.25,3.72,1.93,5.8,1.93,5.33,0,9.67-4.34,9.67-9.67v-48.67c0-2.08-.69-4.14-1.93-5.8-1.55-2.07-3.81-3.4-6.37-3.77-2.55-.37-5.1,.29-7.17,1.84l-28.2,21.15v21.83Z"></path><g><path class="cls-2 OS-SVG--25" d="M954.05,229.09c-8.81,0-17.62-3.35-24.33-10.06-13.42-13.42-13.42-35.24,0-48.66l11.28-11.28c.98-.98,2.56-.98,3.54,0,.98,.98,.98,2.56,0,3.54l-11.28,11.28c-5.55,5.55-8.61,12.94-8.61,20.79s3.06,15.24,8.61,20.79c5.55,5.55,12.94,8.61,20.79,8.61s15.24-3.06,20.79-8.61l11.28-11.28c.98-.98,2.56-.98,3.54,0,.98,.98,.98,2.56,0,3.54l-11.28,11.28c-6.71,6.71-15.52,10.06-24.33,10.06Zm67.69-54.45c-.64,0-1.28-.24-1.77-.73-.98-.98-.98-2.56,0-3.54l11.28-11.28c5.55-5.55,8.61-12.94,8.61-20.79s-3.06-15.24-8.61-20.79c-5.55-5.55-12.94-8.61-20.79-8.61s-15.24,3.06-20.79,8.61l-11.28,11.28c-.98,.98-2.56,.98-3.54,0-.98-.98-.98-2.56,0-3.54l11.28-11.28c13.42-13.42,35.24-13.42,48.66,0,13.42,13.42,13.42,35.24,0,48.66l-11.28,11.28c-.49,.49-1.13,.73-1.77,.73Z"></path><path class="cls-2 OS-SVG--26" d="M954.05,197.2c-.64,0-1.28-.24-1.77-.73-.98-.98-.98-2.56,0-3.54l56.41-56.41c.98-.98,2.56-.98,3.54,0,.98,.98,.98,2.56,0,3.54l-56.41,56.41c-.49,.49-1.13,.73-1.77,.73Z"></path></g><g><path class="cls-1 OS-SVG--27" d="M644.35,354.7l-3.55-3.52s.01-.01,.02-.02h0c.24-.26,.49-.51,.74-.76l22.51-22.51,3.54,3.53h-.01s-23.24,23.27-23.24,23.27Z"></path><path class="cls-1 OS-SVG--28" d="M466.73,378.95l-3.54-3.54c36.21-36.21,92.06-43.01,135.81-16.53l-2.59,4.28c-41.78-25.28-95.11-18.79-129.69,15.79Z"></path><path class="cls-1 OS-SVG--29" d="M620.08,532.3l-3.54-3.54c33.16-33.16,40.66-83.21,18.69-124.57-.72-1.17-1.38-2.36-1.96-3.54-8.08-16.35-5.07-36.22,7.5-49.44l3.62,3.44c-11.13,11.71-13.8,29.3-6.64,43.78,.52,1.06,1.12,2.13,1.77,3.19l-.25,.15,.07,.14,.26-.14c10.92,20.53,15.13,44.59,11.85,67.74-3.39,23.93-14.25,45.65-31.39,62.79Z"></path><path class="cls-1 OS-SVG--30" d="M582.32,401l-3.33-3.73c27.26-24.4,55.97-47.82,85.35-69.62l2.98,4.02c-29.26,21.71-57.85,45.03-85,69.33Z"></path><path class="cls-1 OS-SVG--31" d="M419.2,579.82l-3.54-3.53,23.25-23.27,3.55,3.52s-.01,.01-.02,.02h0c-.24,.26-.48,.51-.73,.76l-22.51,22.51Z"></path><path class="cls-1 OS-SVG--32" d="M541.62,564.89c-19.7,0-39.54-5.26-57.37-16.05l2.59-4.28c41.78,25.28,95.11,18.79,129.69-15.79l3.54,3.54c-21.45,21.45-49.81,32.59-78.45,32.59Z"></path><path class="cls-1 OS-SVG--33" d="M442.5,556.51l-3.62-3.45c11.13-11.71,13.8-29.3,6.64-43.78-.53-1.07-1.13-2.14-1.77-3.19l.2-.12-.07-.15-.22,.12c-10.92-20.53-15.13-44.59-11.85-67.74,3.39-23.94,14.25-45.65,31.39-62.79l3.54,3.54c-33.16,33.16-40.66,83.21-18.69,124.57,.71,1.16,1.37,2.35,1.96,3.54,8.08,16.35,5.07,36.22-7.5,49.44Z"></path><path class="cls-1 OS-SVG--34" d="M418.93,580.06l-2.98-4.01c29.25-21.71,57.85-45.03,85-69.33l3.33,3.73c-27.26,24.4-55.98,47.82-85.35,69.62Z"></path></g><path class="cls-1 OS-SVG--35" d="M541.63,523.56c-38.44,0-69.7-31.27-69.7-69.7s31.27-69.7,69.7-69.7,69.7,31.27,69.7,69.7-31.27,69.7-69.7,69.7Zm0-134.41c-35.68,0-64.7,29.03-64.7,64.7s29.03,64.7,64.7,64.7,64.7-29.03,64.7-64.7-29.03-64.7-64.7-64.7Z"></path><g><path class="cls-1 OS-SVG--36" d="M500.65,472.55c-4.95-4.95-7.38-10.97-7.38-18.06s2.43-13.11,7.38-17.96c4.95-4.95,11.07-7.38,18.16-7.38s13.01,2.43,17.96,7.38c4.95,4.86,7.48,10.88,7.48,17.96s-2.52,13.11-7.48,18.06c-4.95,4.86-10.88,7.28-17.96,7.28s-13.21-2.43-18.16-7.28Zm18.16,2.62c5.73,0,10.58-2.04,14.57-6.02,3.98-3.98,5.92-8.93,5.92-14.66s-1.94-10.68-5.92-14.66-8.84-6.02-14.57-6.02-10.68,2.04-14.66,6.02-5.92,8.93-5.92,14.66,1.94,10.68,5.92,14.66c3.98,3.98,8.93,6.02,14.66,6.02Z"></path><path class="cls-1 OS-SVG--37" d="M568.62,451.68c8.45,1.84,19.03,3.98,19.03,14.37,0,8.06-6.99,13.79-17.38,13.79-9.32,0-16.02-4.27-18.45-10.78l4.18-2.43c1.84,5.34,6.99,8.55,14.27,8.55s12.53-3.3,12.53-9.13c0-4.76-4.56-7.57-10.39-8.84-8.45-2.04-19.03-4.08-19.03-14.27,0-3.88,1.55-7.19,4.56-9.81,3.11-2.62,7.09-3.98,11.94-3.98,7.77,0,13.79,3.79,16.51,9.71l-4.08,2.33c-1.94-4.76-6.89-7.38-12.43-7.38-6.6,0-11.65,3.59-11.65,9.13,0,4.76,4.56,7.28,10.39,8.74Z"></path></g></g></svg>



