<!--?xml version="1.0" encoding="UTF-8"?--><svg xmlns="http://www.w3.org/2000/svg" viewBox="0 0 1080 1080" width="1080" height="100%"><defs><style>

@-webkit-keyframes animate-svg-stroke-1 {
  0% {
    stroke-dashoffset: 204.26126098632812px;
    stroke-dasharray: 204.26126098632812px;
  }

  100% {
    stroke-dashoffset: 0;
    stroke-dasharray: 204.26126098632812px;
  }
}

@keyframes animate-svg-stroke-1 {
  0% {
    stroke-dashoffset: 204.26126098632812px;
    stroke-dasharray: 204.26126098632812px;
  }

  100% {
    stroke-dashoffset: 0;
    stroke-dasharray: 204.26126098632812px;
  }
}

.OSsymbol-1 {
  -webkit-animation: animate-svg-stroke-1 1s ease-in 0s both,
                       animate-svg-fill-1 0.7s ease-in-out 0.8s both;
          animation: animate-svg-stroke-1 1s ease-in 0s both,
               animate-svg-fill-1 0.7s ease-in-out 0.8s both;
}

@-webkit-keyframes animate-svg-stroke-2 {
  0% {
    stroke-dashoffset: 445.0580139160156px;
    stroke-dasharray: 445.0580139160156px;
  }

  100% {
    stroke-dashoffset: 0;
    stroke-dasharray: 445.0580139160156px;
  }
}

@keyframes animate-svg-stroke-2 {
  0% {
    stroke-dashoffset: 445.0580139160156px;
    stroke-dasharray: 445.0580139160156px;
  }

  100% {
    stroke-dashoffset: 0;
    stroke-dasharray: 445.0580139160156px;
  }
}

.OSsymbol-2 {
  -webkit-animation: animate-svg-stroke-2 1s ease-in 0.12s both,
                       animate-svg-fill-2 0.7s ease-in-out 0.9s both;
          animation: animate-svg-stroke-2 1s ease-in 0.12s both,
               animate-svg-fill-2 0.7s ease-in-out 0.9s both;
}

@-webkit-keyframes animate-svg-stroke-3 {
  0% {
    stroke-dashoffset: 593.088623046875px;
    stroke-dasharray: 593.088623046875px;
  }

  100% {
    stroke-dashoffset: 0;
    stroke-dasharray: 593.088623046875px;
  }
}

@keyframes animate-svg-stroke-3 {
  0% {
    stroke-dashoffset: 593.088623046875px;
    stroke-dasharray: 593.088623046875px;
  }

  100% {
    stroke-dashoffset: 0;
    stroke-dasharray: 593.088623046875px;
  }
}

.OSsymbol-3 {
  -webkit-animation: animate-svg-stroke-3 1s ease-in 0.24s both,
                       animate-svg-fill-3 0.7s ease-in-out 1s both;
          animation: animate-svg-stroke-3 1s ease-in 0.24s both,
               animate-svg-fill-3 0.7s ease-in-out 1s both;
}

@-webkit-keyframes animate-svg-stroke-4 {
  0% {
    stroke-dashoffset: 340.05474853515625px;
    stroke-dasharray: 340.05474853515625px;
  }

  100% {
    stroke-dashoffset: 0;
    stroke-dasharray: 340.05474853515625px;
  }
}

@keyframes animate-svg-stroke-4 {
  0% {
    stroke-dashoffset: 340.05474853515625px;
    stroke-dasharray: 340.05474853515625px;
  }

  100% {
    stroke-dashoffset: 0;
    stroke-dasharray: 340.05474853515625px;
  }
}

.OSsymbol-4 {
  -webkit-animation: animate-svg-stroke-4 1s ease-in 0.36s both,
                       animate-svg-fill-4 0.7s ease-in-out 1.1s both;
          animation: animate-svg-stroke-4 1s ease-in 0.36s both,
               animate-svg-fill-4 0.7s ease-in-out 1.1s both;
}

@-webkit-keyframes animate-svg-stroke-5 {
  0% {
    stroke-dashoffset: 204.26123046875px;
    stroke-dasharray: 204.26123046875px;
  }

  100% {
    stroke-dashoffset: 0;
    stroke-dasharray: 204.26123046875px;
  }
}

@keyframes animate-svg-stroke-5 {
  0% {
    stroke-dashoffset: 204.26123046875px;
    stroke-dasharray: 204.26123046875px;
  }

  100% {
    stroke-dashoffset: 0;
    stroke-dasharray: 204.26123046875px;
  }
}

.OSsymbol-5 {
  -webkit-animation: animate-svg-stroke-5 1s ease-in 0.48s both,
                       animate-svg-fill-5 0.7s ease-in-out 1.2000000000000002s both;
          animation: animate-svg-stroke-5 1s ease-in 0.48s both,
               animate-svg-fill-5 0.7s ease-in-out 1.2000000000000002s both;
}

@-webkit-keyframes animate-svg-stroke-6 {
  0% {
    stroke-dashoffset: 445.0586853027344px;
    stroke-dasharray: 445.0586853027344px;
  }

  100% {
    stroke-dashoffset: 0;
    stroke-dasharray: 445.0586853027344px;
  }
}

@keyframes animate-svg-stroke-6 {
  0% {
    stroke-dashoffset: 445.0586853027344px;
    stroke-dasharray: 445.0586853027344px;
  }

  100% {
    stroke-dashoffset: 0;
    stroke-dasharray: 445.0586853027344px;
  }
}

.OSsymbol-6 {
  -webkit-animation: animate-svg-stroke-6 1s ease-in 0.6s both,
                       animate-svg-fill-6 0.7s ease-in-out 1.3s both;
          animation: animate-svg-stroke-6 1s ease-in 0.6s both,
               animate-svg-fill-6 0.7s ease-in-out 1.3s both;
}

@-webkit-keyframes animate-svg-stroke-7 {
  0% {
    stroke-dashoffset: 593.0883178710938px;
    stroke-dasharray: 593.0883178710938px;
  }

  100% {
    stroke-dashoffset: 0;
    stroke-dasharray: 593.0883178710938px;
  }
}

@keyframes animate-svg-stroke-7 {
  0% {
    stroke-dashoffset: 593.0883178710938px;
    stroke-dasharray: 593.0883178710938px;
  }

  100% {
    stroke-dashoffset: 0;
    stroke-dasharray: 593.0883178710938px;
  }
}

.OSsymbol-7 {
  -webkit-animation: animate-svg-stroke-7 1s ease-in 0.72s both,
                       animate-svg-fill-7 0.7s ease-in-out 1.4000000000000001s both;
          animation: animate-svg-stroke-7 1s ease-in 0.72s both,
               animate-svg-fill-7 0.7s ease-in-out 1.4000000000000001s both;
}

@-webkit-keyframes animate-svg-stroke-8 {
  0% {
    stroke-dashoffset: 340.05474853515625px;
    stroke-dasharray: 340.05474853515625px;
  }

  100% {
    stroke-dashoffset: 0;
    stroke-dasharray: 340.05474853515625px;
  }
}

@keyframes animate-svg-stroke-8 {
  0% {
    stroke-dashoffset: 340.05474853515625px;
    stroke-dasharray: 340.05474853515625px;
  }

  100% {
    stroke-dashoffset: 0;
    stroke-dasharray: 340.05474853515625px;
  }
}

.OSsymbol-8 {
  -webkit-animation: animate-svg-stroke-8 1s ease-in 0.84s both,
                       animate-svg-fill-8 0.7s ease-in-out 1.5s both;
          animation: animate-svg-stroke-8 1s ease-in 0.84s both,
               animate-svg-fill-8 0.7s ease-in-out 1.5s both;
}

@-webkit-keyframes animate-svg-stroke-9 {
  0% {
    stroke-dashoffset: 1300.231748169446px;
    stroke-dasharray: 1300.231748169446px;
  }

  100% {
    stroke-dashoffset: 0;
    stroke-dasharray: 1300.231748169446px;
  }
}

@keyframes animate-svg-stroke-9 {
  0% {
    stroke-dashoffset: 1300.231748169446px;
    stroke-dasharray: 1300.231748169446px;
  }

  100% {
    stroke-dashoffset: 0;
    stroke-dasharray: 1300.231748169446px;
  }
}

.OSsymbol-9 {
  -webkit-animation: animate-svg-stroke-9 1s ease-in 0.96s both,
                       animate-svg-fill-9 0.7s ease-in-out 1.6s both;
          animation: animate-svg-stroke-9 1s ease-in 0.96s both,
               animate-svg-fill-9 0.7s ease-in-out 1.6s both;
}

@-webkit-keyframes animate-svg-stroke-10 {
  0% {
    stroke-dashoffset: 254.46875px;
    stroke-dasharray: 254.46875px;
  }

  100% {
    stroke-dashoffset: 0;
    stroke-dasharray: 254.46875px;
  }
}

@keyframes animate-svg-stroke-10 {
  0% {
    stroke-dashoffset: 254.46875px;
    stroke-dasharray: 254.46875px;
  }

  100% {
    stroke-dashoffset: 0;
    stroke-dasharray: 254.46875px;
  }
}

@-webkit-keyframes animate-svg-fill-10 {
  0% {
    fill: transparent;
  }

  100% {
    fill: rgb(255, 255, 255);
  }
}

@keyframes animate-svg-fill-10 {
  0% {
    fill: transparent;
  }

  100% {
    fill: rgb(255, 255, 255);
  }
}

.OSsymbol-10 {
  -webkit-animation: animate-svg-stroke-10 1s ease-in 1.08s both,
                       animate-svg-fill-10 0.7s ease-in-out 1.7000000000000002s both;
          animation: animate-svg-stroke-10 1s ease-in 1.08s both,
               animate-svg-fill-10 0.7s ease-in-out 1.7000000000000002s both;
}

@-webkit-keyframes animate-svg-stroke-11 {
  0% {
    stroke-dashoffset: 938.2938232421875px;
    stroke-dasharray: 938.2938232421875px;
  }

  100% {
    stroke-dashoffset: 0;
    stroke-dasharray: 938.2938232421875px;
  }
}

@keyframes animate-svg-stroke-11 {
  0% {
    stroke-dashoffset: 938.2938232421875px;
    stroke-dasharray: 938.2938232421875px;
  }

  100% {
    stroke-dashoffset: 0;
    stroke-dasharray: 938.2938232421875px;
  }
}

@-webkit-keyframes animate-svg-fill-11 {
  0% {
    fill: transparent;
  }

  100% {
    fill: rgb(255, 255, 255);
  }
}

@keyframes animate-svg-fill-11 {
  0% {
    fill: transparent;
  }

  100% {
    fill: rgb(255, 255, 255);
  }
}

.OSsymbol-11 {
  -webkit-animation: animate-svg-stroke-11 1s ease-in 1.2s both,
                       animate-svg-fill-11 0.7s ease-in-out 1.8s both;
          animation: animate-svg-stroke-11 1s ease-in 1.2s both,
               animate-svg-fill-11 0.7s ease-in-out 1.8s both;
}

@-webkit-keyframes animate-svg-stroke-12 {
  0% {
    stroke-dashoffset: 1235.8760986328125px;
    stroke-dasharray: 1235.8760986328125px;
  }

  100% {
    stroke-dashoffset: 0;
    stroke-dasharray: 1235.8760986328125px;
  }
}

@keyframes animate-svg-stroke-12 {
  0% {
    stroke-dashoffset: 1235.8760986328125px;
    stroke-dasharray: 1235.8760986328125px;
  }

  100% {
    stroke-dashoffset: 0;
    stroke-dasharray: 1235.8760986328125px;
  }
}

@-webkit-keyframes animate-svg-fill-12 {
  0% {
    fill: transparent;
  }

  100% {
    fill: rgb(255, 255, 255);
  }
}

@keyframes animate-svg-fill-12 {
  0% {
    fill: transparent;
  }

  100% {
    fill: rgb(255, 255, 255);
  }
}

.OSsymbol-12 {
  -webkit-animation: animate-svg-stroke-12 1s ease-in 1.3199999999999998s both,
                       animate-svg-fill-12 0.7s ease-in-out 1.9000000000000001s both;
          animation: animate-svg-stroke-12 1s ease-in 1.3199999999999998s both,
               animate-svg-fill-12 0.7s ease-in-out 1.9000000000000001s both;
}

@-webkit-keyframes animate-svg-stroke-13 {
  0% {
    stroke-dashoffset: 728.1295166015625px;
    stroke-dasharray: 728.1295166015625px;
  }

  100% {
    stroke-dashoffset: 0;
    stroke-dasharray: 728.1295166015625px;
  }
}

@keyframes animate-svg-stroke-13 {
  0% {
    stroke-dashoffset: 728.1295166015625px;
    stroke-dasharray: 728.1295166015625px;
  }

  100% {
    stroke-dashoffset: 0;
    stroke-dasharray: 728.1295166015625px;
  }
}

@-webkit-keyframes animate-svg-fill-13 {
  0% {
    fill: transparent;
  }

  100% {
    fill: rgb(255, 255, 255);
  }
}

@keyframes animate-svg-fill-13 {
  0% {
    fill: transparent;
  }

  100% {
    fill: rgb(255, 255, 255);
  }
}

.OSsymbol-13 {
  -webkit-animation: animate-svg-stroke-13 1s ease-in 1.44s both,
                       animate-svg-fill-13 0.7s ease-in-out 2s both;
          animation: animate-svg-stroke-13 1s ease-in 1.44s both,
               animate-svg-fill-13 0.7s ease-in-out 2s both;
}

@-webkit-keyframes animate-svg-stroke-14 {
  0% {
    stroke-dashoffset: 254.52578735351562px;
    stroke-dasharray: 254.52578735351562px;
  }

  100% {
    stroke-dashoffset: 0;
    stroke-dasharray: 254.52578735351562px;
  }
}

@keyframes animate-svg-stroke-14 {
  0% {
    stroke-dashoffset: 254.52578735351562px;
    stroke-dasharray: 254.52578735351562px;
  }

  100% {
    stroke-dashoffset: 0;
    stroke-dasharray: 254.52578735351562px;
  }
}

@-webkit-keyframes animate-svg-fill-14 {
  0% {
    fill: transparent;
  }

  100% {
    fill: rgb(255, 255, 255);
  }
}

@keyframes animate-svg-fill-14 {
  0% {
    fill: transparent;
  }

  100% {
    fill: rgb(255, 255, 255);
  }
}

.OSsymbol-14 {
  -webkit-animation: animate-svg-stroke-14 1s ease-in 1.56s both,
                       animate-svg-fill-14 0.7s ease-in-out 2.1s both;
          animation: animate-svg-stroke-14 1s ease-in 1.56s both,
               animate-svg-fill-14 0.7s ease-in-out 2.1s both;
}

@-webkit-keyframes animate-svg-stroke-15 {
  0% {
    stroke-dashoffset: 938.2952270507812px;
    stroke-dasharray: 938.2952270507812px;
  }

  100% {
    stroke-dashoffset: 0;
    stroke-dasharray: 938.2952270507812px;
  }
}

@keyframes animate-svg-stroke-15 {
  0% {
    stroke-dashoffset: 938.2952270507812px;
    stroke-dasharray: 938.2952270507812px;
  }

  100% {
    stroke-dashoffset: 0;
    stroke-dasharray: 938.2952270507812px;
  }
}

@-webkit-keyframes animate-svg-fill-15 {
  0% {
    fill: transparent;
  }

  100% {
    fill: rgb(255, 255, 255);
  }
}

@keyframes animate-svg-fill-15 {
  0% {
    fill: transparent;
  }

  100% {
    fill: rgb(255, 255, 255);
  }
}

.OSsymbol-15 {
  -webkit-animation: animate-svg-stroke-15 1s ease-in 1.68s both,
                       animate-svg-fill-15 0.7s ease-in-out 2.2s both;
          animation: animate-svg-stroke-15 1s ease-in 1.68s both,
               animate-svg-fill-15 0.7s ease-in-out 2.2s both;
}

@-webkit-keyframes animate-svg-stroke-16 {
  0% {
    stroke-dashoffset: 1235.940673828125px;
    stroke-dasharray: 1235.940673828125px;
  }

  100% {
    stroke-dashoffset: 0;
    stroke-dasharray: 1235.940673828125px;
  }
}

@keyframes animate-svg-stroke-16 {
  0% {
    stroke-dashoffset: 1235.940673828125px;
    stroke-dasharray: 1235.940673828125px;
  }

  100% {
    stroke-dashoffset: 0;
    stroke-dasharray: 1235.940673828125px;
  }
}

@-webkit-keyframes animate-svg-fill-16 {
  0% {
    fill: transparent;
  }

  100% {
    fill: rgb(255, 255, 255);
  }
}

@keyframes animate-svg-fill-16 {
  0% {
    fill: transparent;
  }

  100% {
    fill: rgb(255, 255, 255);
  }
}

.OSsymbol-16 {
  -webkit-animation: animate-svg-stroke-16 1s ease-in 1.7999999999999998s both,
                       animate-svg-fill-16 0.7s ease-in-out 2.3s both;
          animation: animate-svg-stroke-16 1s ease-in 1.7999999999999998s both,
               animate-svg-fill-16 0.7s ease-in-out 2.3s both;
}

@-webkit-keyframes animate-svg-stroke-17 {
  0% {
    stroke-dashoffset: 728.1293334960938px;
    stroke-dasharray: 728.1293334960938px;
  }

  100% {
    stroke-dashoffset: 0;
    stroke-dasharray: 728.1293334960938px;
  }
}

@keyframes animate-svg-stroke-17 {
  0% {
    stroke-dashoffset: 728.1293334960938px;
    stroke-dasharray: 728.1293334960938px;
  }

  100% {
    stroke-dashoffset: 0;
    stroke-dasharray: 728.1293334960938px;
  }
}

@-webkit-keyframes animate-svg-fill-17 {
  0% {
    fill: transparent;
  }

  100% {
    fill: rgb(255, 255, 255);
  }
}

@keyframes animate-svg-fill-17 {
  0% {
    fill: transparent;
  }

  100% {
    fill: rgb(255, 255, 255);
  }
}

.OSsymbol-17 {
  -webkit-animation: animate-svg-stroke-17 1s ease-in 1.92s both,
                       animate-svg-fill-17 0.7s ease-in-out 2.4000000000000004s both;
          animation: animate-svg-stroke-17 1s ease-in 1.92s both,
               animate-svg-fill-17 0.7s ease-in-out 2.4000000000000004s both;
}

@-webkit-keyframes animate-svg-stroke-18 {
  0% {
    stroke-dashoffset: 2598.744384765625px;
    stroke-dasharray: 2598.744384765625px;
  }

  100% {
    stroke-dashoffset: 0;
    stroke-dasharray: 2598.744384765625px;
  }
}

@keyframes animate-svg-stroke-18 {
  0% {
    stroke-dashoffset: 2598.744384765625px;
    stroke-dasharray: 2598.744384765625px;
  }

  100% {
    stroke-dashoffset: 0;
    stroke-dasharray: 2598.744384765625px;
  }
}

@-webkit-keyframes animate-svg-fill-18 {
  0% {
    fill: transparent;
  }

  100% {
    fill: rgb(255, 255, 255);
  }
}

@keyframes animate-svg-fill-18 {
  0% {
    fill: transparent;
  }

  100% {
    fill: rgb(255, 255, 255);
  }
}

.OSsymbol-18 {
  -webkit-animation: animate-svg-stroke-18 1s ease-in 2.04s both,
                       animate-svg-fill-18 0.7s ease-in-out 2.5s both;
          animation: animate-svg-stroke-18 1s ease-in 2.04s both,
               animate-svg-fill-18 0.7s ease-in-out 2.5s both;
}

@-webkit-keyframes animate-svg-stroke-19 {
  0% {
    stroke-dashoffset: 832.0853881835938px;
    stroke-dasharray: 832.0853881835938px;
  }

  100% {
    stroke-dashoffset: 0;
    stroke-dasharray: 832.0853881835938px;
  }
}

@keyframes animate-svg-stroke-19 {
  0% {
    stroke-dashoffset: 832.0853881835938px;
    stroke-dasharray: 832.0853881835938px;
  }

  100% {
    stroke-dashoffset: 0;
    stroke-dasharray: 832.0853881835938px;
  }
}

@-webkit-keyframes animate-svg-fill-19 {
  0% {
    fill: transparent;
  }

  100% {
    fill: rgb(255, 255, 255);
  }
}

@keyframes animate-svg-fill-19 {
  0% {
    fill: transparent;
  }

  100% {
    fill: rgb(255, 255, 255);
  }
}

.OSsymbol-19 {
  -webkit-animation: animate-svg-stroke-19 1s ease-in 2.16s both,
                       animate-svg-fill-19 0.7s ease-in-out 2.6s both;
          animation: animate-svg-stroke-19 1s ease-in 2.16s both,
               animate-svg-fill-19 0.7s ease-in-out 2.6s both;
}

@-webkit-keyframes animate-svg-stroke-20 {
  0% {
    stroke-dashoffset: 747.7757568359375px;
    stroke-dasharray: 747.7757568359375px;
  }

  100% {
    stroke-dashoffset: 0;
    stroke-dasharray: 747.7757568359375px;
  }
}

@keyframes animate-svg-stroke-20 {
  0% {
    stroke-dashoffset: 747.7757568359375px;
    stroke-dasharray: 747.7757568359375px;
  }

  100% {
    stroke-dashoffset: 0;
    stroke-dasharray: 747.7757568359375px;
  }
}

@-webkit-keyframes animate-svg-fill-20 {
  0% {
    fill: transparent;
  }

  100% {
    fill: rgb(255, 255, 255);
  }
}

@keyframes animate-svg-fill-20 {
  0% {
    fill: transparent;
  }

  100% {
    fill: rgb(255, 255, 255);
  }
}

.OSsymbol-20 {
  -webkit-animation: animate-svg-stroke-20 1s ease-in 2.28s both,
                       animate-svg-fill-20 0.7s ease-in-out 2.7s both;
          animation: animate-svg-stroke-20 1s ease-in 2.28s both,
               animate-svg-fill-20 0.7s ease-in-out 2.7s both;
}

.cls-1{fill:#fff;}.cls-2{letter-spacing:-.01em;}.cls-3{fill:none;stroke:#1d1d1b;stroke-linejoin:bevel;stroke-width:25px;}.cls-4{fill:#1d1d1b;font-family:Gilroy-Medium, Gilroy;font-size:298.54px;}</style></defs><g id="OS-Symbol-Editable-Black"><g><path class="cls-3 OSsymbol-1" d="M850.47,229.61l-.1,.1,.1-.1,71.38-71.44-69.2,69.2c-.74,.74-1.47,1.48-2.18,2.24"></path><path class="cls-3 OSsymbol-2" d="M712.43,254.59c-128.22-77.59-297.44-61.03-408.15,49.68"></path><path class="cls-3 OSsymbol-3" d="M850.37,229.71c-37.42,39.37-44.67,96.91-21.73,143.31,1.75,3.55,3.69,7.03,5.8,10.44,0,0,.02,.02,.02,.04,67.06,126.03,47.49,286.05-58.71,392.25"></path><path class="cls-3 OSsymbol-4" d="M921.85,158.17h0c-90.62,67.24-177.99,138.52-261.87,213.6"></path><path class="cls-3 OSsymbol-5" d="M229.55,850.41l.1-.1-.1,.1-71.38,71.44,69.2-69.2c.74-.74,1.47-1.48,2.18-2.24"></path><path class="cls-3 OSsymbol-6" d="M367.59,825.43c128.22,77.59,297.44,61.03,408.15-49.68"></path><path class="cls-3 OSsymbol-7" d="M229.65,850.31c37.42-39.37,44.67-96.91,21.73-143.31-1.75-3.55-3.69-7.03-5.8-10.44,0,0-.02-.02-.02-.04-67.06-126.03-47.49-286.05,58.71-392.25"></path><path class="cls-3 OSsymbol-8" d="M158.17,921.84h0c90.62-67.24,177.99-138.52,261.87-213.6"></path></g><g id="Capa_6_copia"><circle class="cls-3 OSsymbol-9" cx="540" cy="540" r="206.62"></circle></g><text class="cls-4" transform="translate(378.47 616.6)"><tspan class="cls-2" x="0" y="0">o</tspan><tspan x="176.44" y="0">s</tspan></text></g><g id="OS-Symbol-Editable-White"><g><path class="cls-1 OSsymbol-10" d="M859.23,238.52l-12.61-12.55-5.24-4.95c.8-.84,1.61-1.67,2.44-2.5l69.2-69.2,17.68,17.67-71.46,71.52Z"></path><path class="cls-1 OSsymbol-11" d="M313.12,313.11l-17.68-17.68c28.09-28.09,60.36-50.91,95.92-67.83,34.36-16.35,71.04-26.85,109.01-31.21,75.92-8.71,153.53,8.16,218.54,47.5l-12.94,21.39c-126.55-76.59-288.09-56.92-392.84,47.83Z"></path><path class="cls-1 OSsymbol-12" d="M784.59,784.58l-17.68-17.68c100.4-100.4,123.16-251.94,56.7-377.2-2.25-3.66-4.33-7.41-6.17-11.15-25.74-52.07-16.15-115.35,23.88-157.46l18.12,17.22c-32.83,34.54-40.7,86.45-19.58,129.16,1.55,3.15,3.31,6.31,5.22,9.4l-.58,.36,.3,.76,.71-.38c17.2,32.32,29.08,67.06,35.33,103.27,6.17,35.71,6.71,72.02,1.62,107.92-10.58,74.63-44.42,142.33-97.87,195.77Z"></path><path class="cls-1 OSsymbol-13" d="M668.32,381.08l-16.67-18.63c83.92-75.11,172.32-147.22,262.76-214.32l14.9,20.08c-89.83,66.65-177.64,138.27-260.99,212.88Z"></path><path class="cls-1 OSsymbol-14" d="M167,930.68l-17.68-17.67,71.51-71.56,11.93,11.99,5.88,5.55c-.8,.84-1.61,1.67-2.43,2.5l-69.2,69.2Z"></path><path class="cls-1 OSsymbol-15" d="M540.38,885.86c-62.99,0-125.45-17.17-179.27-49.74l12.94-21.39c126.55,76.59,288.09,56.92,392.84-47.83l17.68,17.68c-28.09,28.09-60.36,50.91-95.92,67.83-34.36,16.35-71.04,26.85-109.01,31.21-13.06,1.5-26.18,2.24-39.27,2.24Z"></path><path class="cls-1 OSsymbol-16" d="M238.71,858.92l-18.12-17.22c32.83-34.54,40.7-86.45,19.58-129.16-1.55-3.14-3.31-6.31-5.22-9.4l.54-.33-.29-.76-.67,.35c-17.2-32.32-29.08-67.06-35.34-103.27-6.17-35.71-6.71-72.02-1.62-107.92,10.58-74.63,44.42-142.33,97.87-195.77l17.68,17.68c-100.4,100.4-123.17,251.94-56.69,377.21,2.25,3.66,4.32,7.41,6.17,11.14,25.74,52.07,16.15,115.35-23.88,157.46Zm-2.48-154.18l-.06,.05,.06-.05Z"></path><path class="cls-1 OSsymbol-17" d="M165.61,931.88l-14.9-20.08c89.83-66.65,177.64-138.28,260.99-212.88l16.67,18.63c-83.92,75.11-172.32,147.22-262.76,214.32Z"></path></g><g id="Capa_6_copia_5"><path class="cls-1 OSsymbol-18" d="M540,759.12c-58.53,0-113.56-22.79-154.94-64.18-41.39-41.39-64.18-96.41-64.18-154.94s22.79-113.56,64.18-154.94c41.39-41.39,96.41-64.18,154.94-64.18s113.56,22.79,154.94,64.18c41.39,41.39,64.18,96.41,64.18,154.94s-22.79,113.56-64.18,154.94c-41.39,41.39-96.41,64.18-154.94,64.18Zm0-413.24c-107.04,0-194.12,87.08-194.12,194.12s87.08,194.12,194.12,194.12,194.12-87.08,194.12-194.12-87.08-194.12-194.12-194.12Z"></path></g><g><path class="cls-1 OSsymbol-19" d="M468.33,620.48c-21.79,0-40.6-7.46-55.83-22.69-15.23-15.23-22.69-33.74-22.69-55.83s7.46-40.6,22.69-55.83c15.23-15.23,34.03-22.69,55.83-22.69s40.6,7.46,55.83,22.69,22.99,33.73,22.99,55.83-7.76,40.6-22.99,55.83c-15.23,15.23-34.03,22.69-55.83,22.69Zm37.62-40.6c10.15-10.15,15.23-22.69,15.23-37.92s-5.08-27.76-15.23-37.91c-10.15-10.15-22.69-15.23-37.62-15.23s-27.17,5.08-37.32,15.23c-10.15,10.15-15.23,22.69-15.23,37.91s5.08,27.76,15.23,37.92c10.15,10.15,22.69,15.22,37.32,15.22s27.47-5.08,37.62-15.22Z"></path><path class="cls-1 OSsymbol-20" d="M626.56,530.02c23.29,5.08,54.33,13.73,54.04,45.68,0,13.43-5.37,24.48-15.82,32.54-10.45,8.06-23.58,12.24-40,12.24-28.96,0-50.75-13.73-59.41-34.93l22.39-12.84c4.78,14.33,18.81,23.29,37.02,23.29,17.02,0,29.55-6.27,29.55-20.3,0-11.64-13.14-18.21-29.55-22.09-23.58-6.27-54.04-14.03-54.04-45.68,0-12.84,5.08-23.58,14.93-31.94,10.15-8.36,22.69-12.54,37.92-12.54,24.18,0,44.18,11.64,53.74,31.05l-21.79,12.24c-5.37-12.84-16.12-19.11-31.94-19.11-14.63,0-26.57,7.17-26.57,20,0,11.64,13.14,17.91,29.56,22.39Z"></path></g></g></svg>