<?xml version="1.0" encoding="utf-8"?>
<!-- Generator: Adobe Illustrator 26.4.1, SVG Export Plug-In . SVG Version: 6.00 Build 0)  -->
<svg version="1.1" id="Trazo_rasterizado" xmlns="http://www.w3.org/2000/svg" xmlns:xlink="http://www.w3.org/1999/xlink" x="0px"
	 y="0px" viewBox="0 0 753 106.7" style="enable-background:new 0 0 753 106.7;" xml:space="preserve">
<style type="text/css">
	.st0{fill:#FFFFFF;}
</style>
<g id="White">
	<g>
		<path class="st0" d="M39.9,81.1c-11.1,0-20.6-3.9-28.4-11.6C3.9,61.8,0,52.3,0,41.1s3.8-20.7,11.6-28.4C19.4,4.9,28.8,1,39.9,1
			s20.6,3.8,28.4,11.7C76.1,20.4,80,29.9,80,41.1s-3.9,20.7-11.7,28.5C60.5,77.3,51,81.1,39.9,81.1z M39.9,66.3c7,0,13-2.3,17.7-7
			s7.1-10.8,7.1-18.2s-2.4-13.4-7.1-18.2S47,15.8,39.9,15.8s-13,2.4-17.7,7.2c-4.7,4.7-7.2,10.8-7.2,18.2s2.4,13.4,7.2,18.2
			S32.9,66.3,39.9,66.3z"/>
		<path class="st0" d="M104.2,34c2.6-7,9.2-10.6,16.7-10.6v15.8c-4.3-0.6-8.2,0.3-11.7,2.6s-5.1,6.1-5.1,11.3v26.3H90v-55h14.2
			C104.2,24.6,104.2,34.1,104.2,34z"/>
		<path class="st0" d="M127.5,9.3c0-4.7,4-8.8,8.7-8.8s8.8,4.1,8.8,8.8s-4,8.7-8.8,8.7S127.5,14,127.5,9.3z M129.1,79.6v-55h14.2v55
			H129.1z"/>
		<path class="st0" d="M198.4,24.6h13.9v52.4c0,8.5-2.9,15-8.5,19.5c-5.6,4.5-12.3,6.7-20.2,6.7c-11.9,0-21.2-4.6-26.1-13.4
			l12.1-6.9c2.8,5.2,7.6,7.7,14.4,7.7c8.9,0,14.4-4.8,14.4-13.5V71c-4.2,5.6-10,8.4-17.6,8.4s-14.3-2.8-19.6-8.1
			c-5.2-5.5-7.8-12.2-7.8-20s2.6-14.4,7.9-19.9s11.8-8.2,19.5-8.2c7.7,0,13.4,2.8,17.6,8.4V24.6z M194,40.5c-2.9-2.9-6.5-4.3-11-4.3
			s-8.1,1.4-11.1,4.3c-2.9,2.8-4.3,6.4-4.3,10.7c0,8.8,6.5,15.1,15.4,15.1c8.9,0,15.4-6.3,15.4-15.1C198.4,46.9,197,43.3,194,40.5z"
			/>
		<path class="st0" d="M237.1,57.9c1.9,6.9,7,10.3,15.5,10.3c5.4,0,9.6-1.9,12.3-5.5l11.4,6.6c-5.4,7.8-13.4,11.8-24,11.8
			c-9.1,0-16.4-2.8-21.9-8.2s-8.2-12.4-8.2-20.8s2.8-15.2,8.1-20.7c5.4-5.6,12.4-8.4,20.9-8.4c8,0,14.7,2.8,19.9,8.4
			c5.3,5.6,7.9,12.4,7.9,20.7c0,1.9-0.2,3.7-0.5,5.8H237.1L237.1,57.9z M265,46.9c-1.6-7.5-7.1-11.1-13.6-11.1
			c-7.6,0-12.8,4.1-14.4,11.1H265L265,46.9z"/>
		<path class="st0" d="M334.5,29.1c4,4.1,5.9,9.6,5.9,16.7v33.8h-14.2v-32c0-7.4-4.3-11.3-10.9-11.3c-7.4,0-12.1,4.5-12.1,13.6v29.7
			h-14.2v-55h14.2v6.2c3.4-5.2,8.9-7.7,16.4-7.7C325.7,23.1,330.6,25,334.5,29.1L334.5,29.1z"/>
		<path class="st0" d="M349.2,62.1l13-7.6c3,7.8,8.9,11.8,17.7,11.8s12.3-3.4,12.3-8.1c0-2.8-1.2-4.8-3.6-6.3
			c-2.4-1.5-6.7-3.2-13-4.9c-6.9-2.1-11.1-3.7-16-7.2c-4.7-3.5-7.3-8.8-7.3-15.8s2.4-12.5,7.4-16.6c5-4.2,11-6.3,17.9-6.3
			c12.4,0,22.2,6.4,27.5,17.3l-12.8,7.4c-3.1-6.6-8-9.9-14.7-9.9c-6.3,0-10.1,3.2-10.1,7.7c0,2.4,1,4.4,3,5.9
			c2.1,1.4,5.9,3.1,11.7,4.8l5.3,1.8c1.2,0.3,2.9,1,5,1.9c2.1,0.8,3.7,1.5,4.8,2.3c2.3,1.4,5.8,4.2,7.3,6.8
			c1.6,2.6,2.9,6.5,2.9,10.9c0,7.1-2.6,12.8-7.8,16.9c-5.2,4.2-11.9,6.3-20.1,6.3C364.2,81.1,353.5,73.9,349.2,62.1L349.2,62.1z"/>
		<path class="st0" d="M446.5,38.2H434v22.9c0,5.9,4.3,6.1,12.4,5.6v12.9c-19.5,2.2-26.6-3.4-26.6-18.5V38.2h-9.6V24.6h9.6V13.5
			L434,9.2v15.4h12.4V38.2z"/>
		<path class="st0" d="M493.7,24.6h14.2v55h-14.2v-6.2c-3.4,5.2-8.9,7.7-16.4,7.7c-6,0-11-2-15-6.1c-3.8-4.1-5.8-9.6-5.8-16.7V24.6
			h14.2v32c0,7.4,4.3,11.3,10.9,11.3c7.4,0,12.1-4.5,12.1-13.6L493.7,24.6L493.7,24.6z"/>
		<path class="st0" d="M562.5,2.6h14.2v77h-14.2v-6.5c-4.2,5.4-10.1,8-17.8,8s-13.8-2.8-19-8.4c-5.2-5.6-7.8-12.5-7.8-20.7
			s2.6-15,7.8-20.6c5.3-5.6,11.7-8.5,19-8.5s13.6,2.6,17.8,8C562.5,31.1,562.5,2.6,562.5,2.6z M547.3,67.6c4.4,0,8-1.4,10.9-4.3
			c2.9-3,4.3-6.7,4.3-11.2s-1.4-8.2-4.3-11.1c-2.9-3-6.5-4.4-10.9-4.4s-8,1.4-11,4.4c-2.9,2.9-4.3,6.6-4.3,11.1
			c0,4.5,1.4,8.2,4.3,11.2C539.3,66.2,542.9,67.6,547.3,67.6z"/>
		<path class="st0" d="M588,9.3c0-4.7,4-8.8,8.7-8.8s8.8,4.1,8.8,8.8s-4,8.7-8.8,8.7S588,14,588,9.3z M589.7,79.6v-55h14.2v55H589.7
			z"/>
		<path class="st0" d="M643,81.1c-8.1,0-15.1-2.8-20.7-8.4S614,60.2,614,52.1s2.8-15,8.4-20.6s12.5-8.5,20.7-8.5s15.1,2.9,20.7,8.5
			s8.5,12.4,8.5,20.6s-2.9,15.1-8.5,20.7C658.1,78.4,651.2,81.1,643,81.1z M643,67.3c4.3,0,7.8-1.4,10.7-4.3s4.3-6.5,4.3-10.9
			s-1.4-8-4.3-10.9s-6.4-4.3-10.7-4.3s-7.8,1.4-10.7,4.3c-2.8,2.9-4.2,6.5-4.2,10.9c0,4.4,1.4,8,4.2,10.9
			C635.2,65.8,638.8,67.3,643,67.3z"/>
		<path class="st0" d="M704.1,46.3c8,1.7,18.5,5.5,18.4,17.3c0,5.6-2.1,10-6.4,13.1c-4.2,3-9.5,4.5-15.7,4.5
			c-11.3,0-19-4.4-23.1-13.1l12.3-6.9c1.7,4.7,5.2,7.1,10.8,7.1c5.1,0,7.6-1.5,7.6-4.7c0-3-4.4-4.6-10-6.1
			c-8.1-2.1-18.4-5.5-18.4-16.9c0-5.4,2-9.7,5.9-12.8c4.1-3.2,9-4.7,15-4.7c8.9,0,16.6,4.2,20.9,11.7l-12.1,6.6
			c-1.8-3.7-4.7-5.6-8.8-5.6c-3.6,0-6.4,1.8-6.4,4.5C694.1,43.2,698.5,44.8,704.1,46.3L704.1,46.3z"/>
	</g>
	<path class="st0" d="M737.8,0c4.2,0,7.8,1.5,10.7,4.4c3,3,4.5,6.5,4.5,10.7s-1.5,7.8-4.5,10.7s-6.5,4.4-10.7,4.4s-7.8-1.5-10.7-4.4
		c-3-3-4.4-6.5-4.4-10.7s1.5-7.8,4.4-10.7C730.1,1.5,733.7,0,737.8,0z M747.4,24.9c2.6-2.7,4-5.9,4-9.7s-1.3-7-4-9.7s-5.9-4-9.6-4
		s-7,1.3-9.6,4s-4,5.9-4,9.7s1.3,7,4,9.7s5.9,4,9.6,4S744.8,27.6,747.4,24.9z M742,17.2l3.2,5.7h-4.8l-2.2-4.6h-1.6v4.6h-4.5V7.4
		h6.2c3.4,0,6,2.1,6,5.2C744.4,14.6,743.6,16.1,742,17.2L742,17.2z M736.6,11.5v3.1h1.4c1.2,0,1.9-0.6,1.9-1.5
		c0-1.1-0.6-1.6-1.9-1.6C738,11.5,736.6,11.5,736.6,11.5z"/>
	<g>
		<path class="st0" d="M405,98l2.9-1.5c0.4,1.6,1.5,2.4,3.4,2.4c1.7,0,2.7-0.7,2.9-1.7c0.3-1.2-0.6-1.7-2.9-2.4
			c-1.5-0.5-2.7-1.2-3.5-1.9c-0.8-0.8-1-1.9-0.8-3.3c0.3-1.5,1-2.6,2.1-3.3c1.1-0.8,2.4-1.1,3.9-1.1c2.7,0,4.6,1.3,5.5,3.6l-2.8,1.5
			c-0.6-1.4-1.5-2-2.9-2s-2.2,0.6-2.4,1.6c-0.3,1.1,0.6,1.7,2.8,2.4c0.6,0.2,0.8,0.3,1.4,0.5c0.7,0.3,1.3,0.6,1.9,1.1
			c0.9,0.8,1.4,1.9,1.1,3.7c-0.5,2.9-3,4.5-6.4,4.5S405.6,100.5,405,98L405,98z"/>
		<path class="st0" d="M420.2,100.1c-1-1.3-1.3-2.8-1-4.6c0.3-1.7,1.1-3,2.4-4.1s2.8-1.7,4.6-1.7s3.2,0.6,4.1,2c1,1.3,1.3,2.8,1,4.5
			c-0.3,1.7-1.1,3-2.4,4.2c-1.3,1.1-2.8,1.7-4.5,1.7C422.6,102,421.2,101.4,420.2,100.1L420.2,100.1z M427.2,98.2
			c0.7-0.6,1.1-1.4,1.3-2.4c0.4-1.9-0.8-3.2-2.5-3.2s-3.3,1.3-3.7,3.2c-0.4,2,0.8,3.2,2.5,3.2C425.7,99.1,426.5,98.8,427.2,98.2
			L427.2,98.2z"/>
		<path class="st0" d="M450.5,91c0.7,0.9,0.9,2.1,0.7,3.5l-1.3,7.2h-3l1.2-7c0.3-1.4-0.3-2.2-1.6-2.2c-1.3,0-2.2,0.8-2.6,2.2l-1.2,7
			h-3l1.2-7c0.3-1.4-0.3-2.2-1.5-2.2c-1.4,0-2.4,0.9-2.7,2.6l-1.2,6.6h-3l2-11.7h3l-0.2,1.2c0.9-1,2-1.5,3.4-1.5
			c1.4,0,2.4,0.6,3,1.8c1-1.2,2.2-1.8,3.7-1.8C448.8,89.7,449.8,90.1,450.5,91L450.5,91z"/>
		<path class="st0" d="M453.9,100.1c-1-1.3-1.3-2.8-1-4.6c0.3-1.7,1.1-3,2.4-4.1s2.8-1.7,4.6-1.7s3.2,0.6,4.2,2c1,1.3,1.3,2.8,1,4.5
			c-0.3,1.7-1.1,3-2.4,4.2c-1.3,1.1-2.8,1.7-4.5,1.7C456.3,102,454.8,101.4,453.9,100.1L453.9,100.1z M460.8,98.2
			c0.7-0.6,1.1-1.4,1.3-2.4c0.4-1.9-0.8-3.2-2.5-3.2s-3.3,1.3-3.7,3.2c-0.3,2,0.8,3.2,2.5,3.2C459.4,99.1,460.1,98.8,460.8,98.2
			L460.8,98.2z"/>
		<path class="st0" d="M465.7,99.2l2.7-1.4c0.3,1,1.1,1.5,2.3,1.5c1,0,1.6-0.3,1.7-0.9c0.1-0.6-0.8-1-2-1.4
			c-1.7-0.4-3.8-1.3-3.3-3.9c0.2-1.1,0.8-1.9,1.7-2.5c0.9-0.6,1.9-0.9,3.1-0.9c2,0,3.6,0.9,4.3,2.5l-2.7,1.4
			c-0.3-0.8-0.9-1.2-1.8-1.2s-1.4,0.3-1.6,1c-0.1,0.7,0.8,1.1,1.9,1.4c1.7,0.4,3.8,1.1,3.3,3.9c-0.4,2.3-2.3,3.4-4.9,3.4
			C468,102,466.5,101,465.7,99.2L465.7,99.2z"/>
		<path class="st0" d="M494.9,97.1h-8.8c0.1,1.5,1.2,2.2,2.8,2.2c1.2,0,2.1-0.4,2.9-1.2l2.1,1.7c-1.3,1.5-3,2.2-5.2,2.2
			c-1.9,0-3.4-0.6-4.4-1.8c-1-1.2-1.3-2.8-1-4.6c0.3-1.7,1-3.1,2.4-4.2c1.3-1.1,2.8-1.7,4.6-1.7s3.1,0.6,4.1,1.8
			c1,1.2,1.3,2.6,1,4.4C495.2,96.2,495.1,96.6,494.9,97.1L494.9,97.1z M492.5,94.7c0-1.6-1-2.3-2.5-2.3c-1.6,0-2.8,0.8-3.5,2.3
			H492.5z"/>
		<path class="st0" d="M496.4,101.7l1.3-7.3l1.7-9.7h3l-1.7,9.8l-1.3,7.2H496.4L496.4,101.7z"/>
		<path class="st0" d="M509.4,100.1c-1-1.3-1.3-2.8-1-4.6c0.3-1.7,1.1-3,2.4-4.1s2.8-1.7,4.6-1.7s3.2,0.6,4.2,2c1,1.3,1.3,2.8,1,4.5
			c-0.3,1.7-1.1,3-2.4,4.2c-1.3,1.1-2.8,1.7-4.5,1.7C511.8,102,510.4,101.4,509.4,100.1L509.4,100.1z M516.4,98.2
			c0.7-0.6,1.1-1.4,1.3-2.4c0.4-1.9-0.8-3.2-2.5-3.2s-3.3,1.3-3.7,3.2c-0.3,2,0.8,3.2,2.5,3.2C514.9,99.1,515.7,98.8,516.4,98.2
			L516.4,98.2z"/>
		<path class="st0" d="M526.5,91.9c0.8-1.4,2.2-2.1,3.9-2.1l-0.6,3.4c-1.5-0.2-3.5,0.5-4.1,2.8l-1,5.7h-3l2-11.7h3L526.5,91.9
			L526.5,91.9z"/>
		<path class="st0" d="M530.1,101.7l2-11.7h3l-2,11.7H530.1z M534.6,84.9c1,0,1.7,0.9,1.6,1.9c-0.2,1-1.1,1.8-2.2,1.8
			s-1.7-0.8-1.5-1.8C532.6,85.8,533.5,84.9,534.6,84.9L534.6,84.9z"/>
		<path class="st0" d="M546.9,90h2.9l-2,11.1c-0.7,3.8-3.3,5.6-6.7,5.6c-2.6,0-4.5-1-5.3-2.8l2.7-1.4c0.5,1.1,1.5,1.6,2.9,1.6
			c2,0,3.3-1,3.6-2.9l0.2-1c-1,1-2.3,1.5-3.9,1.5c-1.8,0-3.1-0.6-4-1.8c-0.9-1.2-1.2-2.7-0.9-4.4c0.3-1.6,1-2.9,2.2-4
			c1.2-1.1,2.6-1.7,4.3-1.7c1.8,0,3,0.7,3.8,2L546.9,90L546.9,90z M545.9,95.8l0-0.2c0.3-1.8-0.9-3-2.8-3c-0.9,0-1.8,0.3-2.5,0.9
			s-1.1,1.3-1.3,2.3c-0.2,0.9,0,1.7,0.5,2.3c0.5,0.6,1.2,0.9,2.2,0.9C543.9,98.8,545.5,97.6,545.9,95.8L545.9,95.8z"/>
		<path class="st0" d="M562.7,97.1h-8.8c0.1,1.5,1.2,2.2,2.8,2.2c1.2,0,2.1-0.4,2.9-1.2l2.1,1.7c-1.3,1.5-3,2.2-5.2,2.2
			c-1.9,0-3.4-0.6-4.4-1.8c-1-1.2-1.3-2.8-1-4.6c0.3-1.7,1-3.1,2.4-4.2c1.3-1.1,2.8-1.7,4.6-1.7s3.1,0.6,4.1,1.8
			c1,1.2,1.3,2.6,1,4.4C563,96.2,562.9,96.6,562.7,97.1L562.7,97.1z M560.2,94.7c0-1.6-1-2.3-2.5-2.3c-1.6,0-2.8,0.8-3.5,2.3H560.2z
			"/>
		<path class="st0" d="M575.5,91c0.7,0.9,0.9,2.1,0.7,3.5l-1.3,7.2h-3l1.2-6.8c0.3-1.6-0.5-2.4-1.9-2.4s-2.6,0.8-3,2.5l-1.2,6.7h-3
			l2-11.7h3l-0.2,1.3c0.9-1.1,2.1-1.6,3.6-1.6C573.8,89.7,574.8,90.2,575.5,91L575.5,91z"/>
		<path class="st0" d="M595.1,85.4h3l-2.9,16.3h-3l0.2-1.1c-1,1-2.3,1.4-3.9,1.4c-1.8,0-3-0.6-3.9-1.9c-0.9-1.3-1.1-2.8-0.8-4.5
			c0.3-1.7,1-3.1,2.2-4.2c1.2-1.1,2.7-1.7,4.3-1.7s2.9,0.6,3.6,1.9L595.1,85.4L595.1,85.4z M593.2,95.9c0.4-2-0.8-3.3-2.7-3.3
			s-3.4,1.2-3.8,3.3c-0.3,2,0.8,3.3,2.7,3.3S592.9,97.8,593.2,95.9z"/>
		<path class="st0" d="M610.1,97.1h-8.8c0.1,1.5,1.2,2.2,2.8,2.2c1.2,0,2.1-0.4,2.9-1.2l2.1,1.7c-1.3,1.5-3,2.2-5.2,2.2
			c-1.9,0-3.4-0.6-4.4-1.8c-1-1.2-1.3-2.8-1-4.6c0.3-1.7,1-3.1,2.4-4.2c1.3-1.1,2.8-1.7,4.6-1.7s3.1,0.6,4.1,1.8
			c1,1.2,1.3,2.6,1,4.4C610.4,96.2,610.3,96.6,610.1,97.1L610.1,97.1z M607.6,94.7c0-1.6-1-2.3-2.5-2.3c-1.6,0-2.8,0.8-3.5,2.3
			H607.6z"/>
		<path class="st0" d="M617.1,99.2l2.7-1.4c0.3,1,1.1,1.5,2.3,1.5c1,0,1.6-0.3,1.7-0.9c0.1-0.6-0.8-1-2-1.4
			c-1.7-0.4-3.8-1.3-3.3-3.9c0.2-1.1,0.8-1.9,1.7-2.5c0.9-0.6,1.9-0.9,3.1-0.9c2,0,3.6,0.9,4.3,2.5l-2.7,1.4
			c-0.3-0.8-0.9-1.2-1.8-1.2s-1.4,0.3-1.6,1c-0.1,0.7,0.8,1.1,1.9,1.4c1.7,0.4,3.8,1.1,3.3,3.9c-0.4,2.3-2.3,3.4-4.9,3.4
			C619.4,102,617.8,101,617.1,99.2L617.1,99.2z"/>
		<path class="st0" d="M637.9,90h3l-2,11.7h-3l0.2-1.3c-0.9,1.1-2.1,1.6-3.6,1.6c-1.3,0-2.3-0.4-3-1.3c-0.7-0.9-0.9-2.1-0.7-3.5
			L630,90h3l-1.2,6.8c-0.3,1.6,0.5,2.4,1.9,2.4s2.6-0.8,3-2.5L637.9,90L637.9,90z"/>
		<path class="st0" d="M665.3,91c0.7,0.9,0.9,2.1,0.7,3.5l-1.3,7.2h-3l1.2-7c0.3-1.4-0.3-2.2-1.6-2.2c-1.3,0-2.2,0.8-2.6,2.2l-1.2,7
			h-3l1.2-7c0.3-1.4-0.3-2.2-1.5-2.2c-1.4,0-2.4,0.9-2.7,2.6l-1.2,6.6h-3l2-11.7h3l-0.2,1.2c0.9-1,2-1.5,3.4-1.5
			c1.4,0,2.4,0.6,3,1.8c1-1.2,2.2-1.8,3.7-1.8C663.7,89.7,664.7,90.1,665.3,91L665.3,91z"/>
		<path class="st0" d="M678.2,90h3l-2,11.7h-3l0.2-1.1c-1,0.9-2.3,1.4-3.9,1.4c-1.8,0-3-0.6-3.9-1.9c-0.9-1.3-1.1-2.8-0.8-4.5
			c0.3-1.7,1-3.1,2.2-4.2c1.2-1.1,2.7-1.7,4.3-1.7s2.8,0.6,3.6,1.9L678.2,90L678.2,90z M677.1,96.1l0-0.4c0.3-1.9-0.9-3.1-2.7-3.1
			s-3.4,1.2-3.7,3.3c-0.3,2,0.8,3.3,2.6,3.3S676.7,97.9,677.1,96.1L677.1,96.1z"/>
		<path class="st0" d="M686.6,91.9c0.8-1.4,2.1-2.1,3.9-2.1l-0.6,3.4c-1.5-0.2-3.5,0.5-4.1,2.8l-1,5.7h-3l2-11.7h3L686.6,91.9
			L686.6,91.9z"/>
		<path class="st0" d="M691.4,100.2c-1-1.2-1.4-2.8-1.1-4.6c0.3-1.7,1-3.1,2.4-4.2c1.3-1.1,2.9-1.7,4.6-1.7c2.4,0,4.2,1.2,4.9,3
			l-2.7,1.4c-0.4-1-1.2-1.5-2.5-1.5c-0.9,0-1.7,0.3-2.4,0.9c-0.7,0.6-1.1,1.3-1.3,2.2c-0.3,1.9,0.8,3.2,2.6,3.2
			c1.2,0,2.2-0.5,2.9-1.6l2.4,1.6c-1.2,1.9-3.3,3-5.6,3C693.8,102,692.4,101.4,691.4,100.2L691.4,100.2z"/>
		<path class="st0" d="M713,90h3l-2,11.7h-3l0.2-1.1c-1,0.9-2.3,1.4-3.9,1.4c-1.8,0-3-0.6-3.9-1.9c-0.9-1.3-1.1-2.8-0.8-4.5
			c0.3-1.7,1-3.1,2.2-4.2c1.2-1.1,2.7-1.7,4.3-1.7s2.8,0.6,3.6,1.9L713,90L713,90z M712,96.1l0-0.4c0.3-1.9-0.9-3.1-2.7-3.1
			s-3.4,1.2-3.7,3.3c-0.3,2,0.8,3.3,2.6,3.3S711.6,97.9,712,96.1L712,96.1z"/>
		<path class="st0" d="M716.8,100c0.2-1.1,1.2-1.9,2.3-1.9s1.8,0.9,1.6,2c-0.2,1.1-1.1,1.9-2.3,1.9C717.3,102,716.7,101.1,716.8,100
			z"/>
	</g>
</g>
</svg>
