<?xml version="1.0" encoding="UTF-8"?><svg id="Capa_1" xmlns="http://www.w3.org/2000/svg" xmlns:xlink="http://www.w3.org/1999/xlink" viewBox="0 0 1000 1000"><defs><style>.cls-1{fill:#fff;}.cls-2{fill:url(#Degradado_sin_nombre_30);}</style><linearGradient id="Degradado_sin_nombre_30" x1="161.61923" y1="172.48766" x2="774.44965" y2="172.48766" gradientUnits="userSpaceOnUse"><stop offset="0" stop-color="#fff"/><stop offset=".02057" stop-color="#fff" stop-opacity=".92221"/><stop offset=".20095" stop-color="#fff" stop-opacity=".78297"/><stop offset=".23532" stop-color="#fff" stop-opacity=".65971"/><stop offset=".28579" stop-color="#fff" stop-opacity=".5056"/><stop offset=".34139" stop-color="#fff" stop-opacity=".36869"/><stop offset=".40174" stop-color="#fff" stop-opacity=".25353"/><stop offset=".4683" stop-color="#fff" stop-opacity=".16013"/><stop offset=".54368" stop-color="#fff" stop-opacity=".08826"/><stop offset=".6331" stop-color="#fff" stop-opacity=".03773"/><stop offset=".75017" stop-color="#fff" stop-opacity=".00844"/><stop offset="1" stop-color="#fff" stop-opacity="0"/></linearGradient></defs><path class="cls-1" d="M736.8579,865.99197c-2.86516,1.32519-6.0737,2.19154-8.54577,4.04192-87.35613,65.38752-207.26249,62.57077-286.817-12.22608-84.34627-79.30222-164.87716-162.67158-246.73325-244.60549-17.03379-17.05006-13.71611-33.28503,7.64165-45.76982,48.28325-28.22425,110.74387-23.41544,155.39683,12.38773,12.32868,9.88528,23.85342,20.77307,37.84779,33.04268,.28126-10.14643,.63915-17.104,.64203-24.06165,.03866-94.3661,.02187-188.73226,.03952-283.09839,.00173-9.1092-.27118-18.24381,.28914-27.32325,2.54982-41.31701,32.38786-70.38341,71.45911-69.91065,38.31036,.46356,68.43673,31.41681,69.18501,72.20021,.62071,33.83104,.25228,67.68299,.10279,101.52478-.07089,16.02876-.65424,32.05538-1.11592,53.12573,36.62859-35.04905,69.8325-31.29563,106.04202-8.53687,44.46644,27.94845,90.68722,53.14699,136.54947,78.82028,29.07086,16.27366,42.51347,40.36101,41.98523,73.41386-.54081,33.8325-.23955,67.68036-.11098,101.52072,.14299,37.64041-6.69994,73.83101-23.79893,107.48482-7.87335,15.49599-17.87242,29.91235-26.90759,44.8183-11.05038,11.05038-22.10077,22.10077-33.15115,33.15115ZM237.88928,608.1583c70.83693,70.85134,141.26943,142.11537,212.73611,212.32655,83.27435,81.81145,204.98969,80.7958,283.51482-2.15699,30.93797-32.6825,48.5696-72.41052,50.4107-117.53705,1.72275-42.22679,.83153-84.56082,1.02036-126.84794,.07326-16.41012-7.08766-27.8765-21.7302-36.2176-50.17413-28.58168-99.80846-58.10882-149.84034-86.94283-20.86487-12.0247-33.5609-9.89597-49.9708,7.97871-9.21897,10.04189-16.65901,21.87915-26.6506,30.98773-5.85963,5.34187-16.68729,11.11509-22.48026,9.00652-5.87704-2.13917-11.62105-13.68747-11.72915-21.19843-.90826-63.10115-.0009-126.22931-.95893-189.32894-.17578-11.57876-3.0276-26.69025-10.62259-33.60199-8.02501-7.30304-24.71093-11.50937-34.82143-8.29088-10.06101,3.20279-17.92899,16.53622-24.23695,26.9539-3.21728,5.31344-1.06397,13.9745-1.06726,21.12241-.05009,108.00927,.04594,216.01874-.24569,324.02735-.02578,9.53935-.75515,19.77125-4.21075,28.46929-8.20466,20.65168-24.44726,23.16031-40.5111,7.9392-18.84103-17.85261-36.4911-37.46384-57.38652-52.52786-30.56174-22.03284-64.88725-23.39528-103.20691-8.06167,5.44401,6.34686,8.46353,10.37588,11.9875,13.90052Z"/><path class="cls-2" d="M212.41776,280.30865c-13.00038,0-25.99952-4.95893-35.91863-14.87742-19.83883-19.83759-19.84007-52.00152-.00248-71.83973l10.29737-10.29799c38.64768-38.64768,83.73386-68.57987,134.0084-88.96688,48.53269-19.68071,99.80125-29.65997,152.3807-29.65997s103.84802,9.97926,152.38194,29.65997c50.27392,20.387,95.3601,50.31919,134.00592,88.96564,19.83821,19.83821,19.83821,52.00152,0,71.83973-19.83821,19.83821-52.00152,19.83821-71.83973,0-118.30253-118.30129-310.79373-118.30129-429.09626,0l-10.29613,10.29675c-9.91849,9.91973-22.92073,14.8799-35.92111,14.8799Z"/></svg>