<?xml version="1.0" encoding="UTF-8"?><svg id="Capa_1" xmlns="http://www.w3.org/2000/svg" viewBox="0 0 21 21"><defs><style>.cls-1{fill:#fff;}.cls-2{fill:#ed293e;}</style></defs><path class="cls-2" d="M15.32876,15.2h-6c-.6,0-1-.4-1-1v-2.3c0-.6,.4-1,1-1h6c.6,0,1,.4,1,1v2.3c0,.5-.4,1-1,1Z"/><path class="cls-1" d="M7.85,14.6v-3.1c0-.6,.4-1,1-1h6.4V4.4c0-.6-.4-1-1-1h-6.2l-3.1,3.2v10c0,.6,.4,1,1,1H14.25c.6,0,1-.4,1-1v-.9h-6.4c-.6-.1-1-.5-1-1.1Z"/><path class="cls-1" d="M10.4806,11.90717c.21881,0,.40492,.07511,.55487,.222,.15022,.14702,.22546,.32981,.22546,.54529,0,.21562-.07524,.3984-.22546,.54529-.14995,.14702-.33606,.22213-.55487,.22213h-.40173v.75094h-.45065v-2.28566h.85237Zm0,1.11345c.19249,0,.33287-.15022,.33287-.34616,0-.19913-.14038-.34603-.33287-.34603h-.40173v.69219h.40173Zm1.98284-1.11345c.31346,0,.57481,.111,.78378,.32981,.21216,.21881,.31665,.48973,.31665,.81302s-.10449,.59435-.31665,.81289c-.20897,.21881-.47032,.32994-.78378,.32994h-.90767v-2.28566h.90767Zm0,1.85469c.1994,0,.35919-.0654,.48335-.19594,.12416-.13386,.18611-.30362,.18611-.51592,0-.21216-.06195-.38205-.18611-.51259-.12416-.13386-.28395-.19927-.48335-.19927h-.45703v1.42372h.45703Zm2.78656-1.42372h-.91432v.5421h.88826v.43097h-.88826v.88162h-.45065v-2.28566h1.36496v.43097Z"/></svg>