<?xml version="1.0" encoding="UTF-8"?><svg id="Capa_1" xmlns="http://www.w3.org/2000/svg" viewBox="0 0 21 21"><defs><style>.cls-1{fill:none;stroke:#fff;stroke-miterlimit:10;stroke-width:.75px;}</style></defs><path class="cls-1" d="M18.61483,10.48712c0,4.48222-3.63261,8.11483-8.11483,8.11483S2.38517,14.96935,2.38517,10.48712,6.01778,2.37229,10.5,2.37229c1.57789,0,3.04307,.45079,4.29151,1.23108-.14737,.19939-.22542,.43349-.22542,.69357,0,.66758,.53752,1.2051,1.2051,1.2051,.32945,0,.62419-.13007,.84094-.34681,1.24844,1.43052,2.0027,3.29453,2.0027,5.33189Z"/><circle class="cls-1" cx="10.5" cy="15.08475" r="3.51583"/><circle class="cls-1" cx="10.5" cy="12.66798" r="5.93261"/><line class="cls-1" x1="3.68431" y1="5.71022" x2="10.5" y2="18.60058"/><line class="cls-1" x1="17.31569" y1="5.93368" x2="10.5" y2="18.82404"/><line class="cls-1" x1="10.5" y1="2.37366" x2="10.5" y2="18.60058"/><path class="cls-1" d="M16.98492,4.29694c0,.33813-.14737,.65023-.37279,.85829-.21674,.21674-.51148,.34681-.84094,.34681-.66758,0-1.2051-.53752-1.2051-1.2051,0-.26008,.07805-.49418,.22542-.69357,.20806-.3121,.57218-.52016,.97968-.52016,.66753,0,1.21373,.5462,1.21373,1.21373Z"/><g><line class="cls-1" x1="15.77452" y1="3.08719" x2="15.77452" y2="1.98237"/><line class="cls-1" x1="15.77452" y1="6.60877" x2="15.77452" y2="5.50396"/></g><g><line class="cls-1" x1="16.98291" y1="4.29557" x2="18.08772" y2="4.29557"/><line class="cls-1" x1="13.46132" y1="4.29557" x2="14.56613" y2="4.29557"/></g><circle class="cls-1" cx="7.1942" cy="5.36874" r=".74805"/><circle class="cls-1" cx="12.46219" cy="9.53192" r=".74805"/></svg>