<?xml version="1.0" encoding="UTF-8"?><svg id="Capa_1" xmlns="http://www.w3.org/2000/svg" viewBox="0 0 21 21"><defs><style>.cls-1{fill:#fff;}.cls-2{fill:none;stroke:#fff;stroke-miterlimit:10;}</style></defs><path class="cls-2" d="M2.6,5.99h13.54c1.25,0,2.26,1.01,2.26,2.26v6.77c0,1.25-1.01,2.26-2.26,2.26H4.86c-1.25,0-2.26-1.01-2.26-2.26V5.99h0Zm1.13-2.26H13.89c.62,0,1.13,.5,1.13,1.13v1.13H2.6v-1.13c0-.62,.51-1.13,1.13-1.13Z"/><path class="cls-1" d="M15.01,12.76c.62,0,1.13-.51,1.13-1.13s-.51-1.13-1.13-1.13-1.13,.51-1.13,1.13,.51,1.13,1.13,1.13h0Z"/></svg>