<?xml version="1.0" encoding="utf-8"?>
<!-- Generator: Adobe Illustrator 26.4.1, SVG Export Plug-In . SVG Version: 6.00 Build 0)  -->
<svg version="1.1" id="Layer_1" xmlns="http://www.w3.org/2000/svg" xmlns:xlink="http://www.w3.org/1999/xlink" x="0px" y="0px"
	 viewBox="0 0 64 64" style="enable-background:new 0 0 64 64;" xml:space="preserve">
<style type="text/css">
	.st0{fill:none;stroke:#FFFFFF;stroke-width:3;stroke-miterlimit:10;}
	.st1{fill:#FFFFFF;}
</style>
<path class="st0" d="M32,6.3c14.2,0,25.7,11.5,25.7,25.7S46.2,57.7,32,57.7c-4.5,0-8.8-1.2-12.5-3.3L6.6,57.3L9.8,45
	c-2.2-3.8-3.5-8.3-3.5-13C6.3,17.8,17.8,6.3,32,6.3z"/>
<path class="st1" d="M44.7,40.9c0.5-1.5,0.5-2.8,0.4-3c-0.2-0.3-0.6-0.4-1.2-0.7s-3.8-1.9-4.4-2.1c-0.6-0.2-1-0.3-1.4,0.3
	c-0.4,0.6-1.6,2.1-2,2.5c-0.4,0.4-0.7,0.5-1.4,0.2c-0.6-0.3-2.7-1-5.1-3.2c-1.9-1.7-3.2-3.8-3.5-4.4c-0.4-0.6,0-1,0.3-1.3
	c0.3-0.3,0.6-0.7,1-1.1c0.3-0.4,0.4-0.6,0.6-1.1c0.2-0.4,0.1-0.8,0-1.1c-0.2-0.3-1.4-3.5-2-4.7c-0.5-1.1-1-1.1-1.4-1.1
	c-0.4,0-0.8,0-1.2,0c-0.4,0-1.1,0.2-1.7,0.8c-0.6,0.6-2.2,2.2-2.2,5.3c0,3.1,2.3,6.2,2.6,6.6c0.3,0.4,4.4,7.1,10.9,9.6
	c5.4,2.1,6.5,1.7,7.6,1.6C41.6,43.8,44.2,42.4,44.7,40.9z"/>
</svg>
