<?xml version="1.0" encoding="UTF-8"?><svg id="Capa_1" xmlns="http://www.w3.org/2000/svg" viewBox="0 0 21 21"><defs><style>.cls-1{fill:#fff;}.cls-2{fill:none;stroke:#fff;stroke-miterlimit:10;}</style></defs><path id="circle" class="cls-1" d="M13.67,12.75c.13-.38,.13-.7,.09-.77-.04-.07-.15-.11-.31-.19s-.96-.47-1.11-.53c-.15-.05-.26-.08-.36,.08-.11,.16-.42,.53-.51,.63-.09,.11-.19,.12-.35,.04-.16-.08-.68-.25-1.3-.8-.48-.43-.81-.96-.9-1.12-.09-.16-.01-.25,.07-.33,.07-.07,.16-.19,.24-.28,.08-.1,.11-.16,.16-.27,.06-.11,.03-.2-.01-.28s-.35-.88-.5-1.2c-.12-.27-.25-.28-.36-.28-.09,0-.2,0-.31,0s-.28,.04-.43,.2c-.15,.16-.56,.55-.56,1.35s.58,1.56,.66,1.67c.08,.11,1.12,1.79,2.76,2.44,1.36,.54,1.64,.43,1.94,.4,.3-.03,.96-.39,1.09-.77Z"/><path class="cls-2" d="M10.5,3.97c3.61,0,6.53,2.92,6.53,6.53s-2.92,6.53-6.53,6.53c-1.16,0-2.24-.3-3.18-.83l-3.28,.73,.84-3.13c-.57-.97-.9-2.1-.9-3.31,0-3.61,2.92-6.53,6.53-6.53Z"/></svg>