<?xml version="1.0" encoding="UTF-8"?><svg id="Capa_1" xmlns="http://www.w3.org/2000/svg" viewBox="0 0 200 200"><defs><style>.cls-1{fill:#fff;}</style></defs><path class="cls-1" d="M100,10.33154C50.47705,10.33154,10.33147,50.47699,10.33147,100s40.14558,89.66846,89.66853,89.66846c11.35127,0,22.20115-2.11234,32.19736-5.95302-3.92592-5.88895-6.21954-12.96215-6.21954-20.55809,0-20.50483,16.67469-37.19033,37.17946-37.19033,7.5854,0,14.66914,2.29375,20.55816,6.21974,3.84075-9.98567,5.95309-20.84616,5.95309-32.18675,0-49.52301-40.14545-89.66846-89.66853-89.66846Zm50.97215,87.75584c-1.58829,2.08173-3.36958,4.0275-5.26521,5.83738-1.55235,1.48085-3.18335,2.87575-4.95032,4.10623-2.09606,1.46646-4.35673,2.64687-6.80323,3.42656-2.83993,.90855-5.69419,1.78845-8.43424,2.99028-.65792,.28612-1.25177,.66528-1.74535,1.18751-.48654,.52222-1.11607,.80124-1.77413,1.02296-.34342,.11447-.62237,.26469-.77982,.61521-.13583,.31477-.42911,.48648-.72968,.61521-.40059,.17887-.8155,.34342-1.21609,.52222-1.00876,.4364-1.80265,1.13743-2.1962,2.16039-.47208,1.21616-1.40206,2.03166-2.23905,2.94737-1.15189,1.259-2.5253,2.23195-3.92736,3.16909-1.9601,1.31624-3.81288,2.76844-5.68013,4.21347-2.22472,1.71689-4.70704,3.04745-7.33249,4.02034-3.39081,1.2519-6.86744,2.28919-10.38717,3.13334-3.27633,.79408-6.60268,1.35921-9.92199,1.95293-3.07617,.55081-6.18086,.8799-9.2569,1.42361-1.53815,.27186-3.11915,.33619-4.68569,.36484-2.89723,.05717-5.78731,.02859-8.67738,.01426-1.78845-.0071-3.55555-.20029-5.29373-.64379-1.18744-.3076-2.01024-.91571-2.53246-2.09599-.76536-1.73838-1.01567-3.52677-.86564-5.37962,.09311-1.21609,.86564-2.08167,1.85292-2.7041,.65818-.40769,1.04445-.95856,1.3807-1.61668,.92997-1.80988,2.43921-3.02603,4.17779-3.99175,1.53802-.85132,3.0974-1.68108,4.64271-2.53239,.52222-.28618,1.0085-.6367,1.43071-1.05161,1.53802-1.49511,3.09037-2.97589,4.57108-4.5283,.77982-.8155,1.59532-1.59526,2.325-2.45367,.76549-.89423,1.35205-1.94577,2.0174-2.92582,.3076-.46505,.60805-.93004,.92281-1.38786,.46492-.68677,.83686-1.40929,.97282-2.24621,.17164-1.05167,.68683-1.88144,1.71696-2.2677,1.13014-.4293,1.35205-1.45226,1.28042-2.43947-.09298-1.47362,.25043-2.73269,1.47369-3.6555,1.08013-.80118,1.22338-1.97442,1.28042-3.18342,.00729-.12157-.06433-.26469-.13583-.36484-.52209-.72245-.3076-2.11741,.42208-2.6397,.18597-.12873,.38626-.25037,.58656-.35768,.42924-.21462,.53655-.53655,.55087-1.02296,.04298-1.39496,.15016-2.79709,1.18744-3.90587,.23611-.25043,.27192-.40059-.15732-.45782-.43627-.0573-.67954-.37207-.67251-.80124,.00729-.59379,.02162-1.19467,.3076-1.73831,.20029-.38633,.18597-.75117,.09311-1.16608-.16448-.72968-.5652-1.43071-.30044-2.23912,.11434-.35051,.27895-.60805,.63657-.74401,.27192-.10724,.54371-.25037,.52222-.60805-.10718-1.57377,.90849-2.23195,2.18188-2.68261,.21462-.07866,.42208-.18597,.63657-.27186,.45802-.16448,.72265-.49357,.77982-.97289,.2576-2.26054,1.83156-3.29066,3.74855-3.97027,.6225-.22178,1.28772-.40775,1.9459-.48641,1.67398-.20036,3.13321,.34335,4.39944,1.43071,.3149,.27895,.65102,.55797,.89416,.89423,.52222,.74394,1.23771,.87984,2.09619,.887,2.68248,.01433,5.34374,.372,8.01919,.59372,.76549,.0644,1.52369,.12886,2.28906,.20752,.53655,.05007,.84415-.17171,1.05161-.67961,.5652-1.37347,.58669-2.79709,.41504-4.23496-.17894-1.581-.24327-3.15483,.01433-4.75009,.2503-1.51653,1.10162-2.58247,2.32487-3.39797,1.69534-1.12311,3.53393-2.00301,5.27928-3.03313,.35774-.21462,.65115-.44356,.8728-.80124,.93714-1.50227,2.33216-1.60958,3.59123-.372,1.53802,1.50943,2.79709,3.24065,4.13481,4.91457,1.21609,1.5166,2.59679,2.86865,4.07048,4.12772,.36478,.3076,.62953,.6867,.77253,1.12311,.21462,.67244,.69387,1.0802,1.2519,1.43071,.92997,.58662,1.93145,1.01586,2.9044,1.50227,.83699,.42208,1.65979,.71536,2.60396,.75117,.46492,.02142,.92984,.15738,1.35205,.39349l.62953,.40769c1.14459,.53655,2.23189,1.16608,3.14767,2.05308,.24301,.23611,.18597,.47938-.02865,.70826-.16461,.17887-.34329,.35768-.5079,.54365-.49357,.55087-.52222,.70109-.00716,1.25907,.76536,.84415,1.76697,1.33773,2.81857,1.70973,.73684,.26469,1.49504,.5008,2.25338,.67961,1.78116,.41491,3.2262,1.37347,4.48526,2.65403,.8228,.83699,1.6383,1.66675,2.38217,2.56814,.57952,.70819,.87997,1.47369,.77279,2.38217-.05027,.4364,.10002,.79408,.3933,1.10168,.37194,.38633,.41491,.85841,.42924,1.37347,.07163,2.84723-1.13743,5.21507-2.78979,7.38263Z"/><path class="cls-1" d="M163.15691,136.63952c-14.62113,0-26.50911,11.8967-26.50911,26.51788,0,14.61241,11.88798,26.50911,26.50911,26.50911s26.50911-11.8967,26.50911-26.50911c0-14.62118-11.88798-26.51788-26.50911-26.51788Zm12.20366,30.2285h-8.49053v8.48866h-7.4282v-8.48866h-8.4886v-7.4282h8.4886v-8.49047h7.4282v8.49047h8.49053v7.4282Z"/></svg>