<?xml version="1.0" encoding="UTF-8"?><svg id="Capa_1" xmlns="http://www.w3.org/2000/svg" viewBox="0 0 200 200"><defs><style>.cls-1{fill:#fff;}</style></defs><path class="cls-1" d="M187.6178,166.8861c-2.52771-1.73181-2.52771-5.46191,0-7.19373,3.54883-2.4314,1.79932-7.95703-2.44788-7.95703-.04529,0-.09106,.00073-.13696,.00195-.04224,.00122-.08398,.00171-.12585,.00171-2.99646,0-5.11536-2.97461-4.10242-5.82153,1.10327-3.10083-1.36694-5.84387-4.12744-5.84387-.88611,0-1.80249,.28284-2.63965,.92725-.80566,.62012-1.73413,.90747-2.64746,.90747-1.83923,0-3.61548-1.16638-4.19409-3.13037-.61438-2.08533-2.39832-3.12793-4.18225-3.12793-1.78406,0-3.56799,1.0426-4.18237,3.12793-.57861,1.96411-2.35474,3.13037-4.19409,3.13037-.91309,0-1.84204-.28748-2.64746-.90747-.8374-.64453-1.75342-.92725-2.63965-.92725-2.76025,0-5.23059,2.74329-4.12744,5.84387,1.01306,2.84705-1.10559,5.82153-4.10242,5.82153-.04175,0-.08386-.00049-.12585-.00171h-.00012c-.04614-.00122-.09143-.00195-.13696-.00195-4.2467,0-5.99646,5.52588-2.44775,7.95703,2.52771,1.73181,2.52771,5.46191,0,7.19373-3.54895,2.43127-1.79944,7.95703,2.44775,7.95703,.04529,0,.09106-.00061,.13696-.00195h.00012c.04224-.0011,.08398-.00171,.12585-.00171,2.99646,.00024,5.11536,2.97461,4.10242,5.82153-1.10327,3.10095,1.36682,5.84387,4.12732,5.84387,.88611,0,1.80261-.28296,2.63977-.92725,.80554-.62012,1.73413-.90747,2.64746-.90747,1.83923,.00012,3.61548,1.16638,4.19409,3.13037,.61438,2.08521,2.39832,3.12793,4.18237,3.12793,1.78394,0,3.56787-1.04272,4.18225-3.12793,.57861-1.96411,2.35474-3.13049,4.19409-3.13037,.91309,0,1.84204,.28748,2.64746,.90747,.8374,.64453,1.75342,.92725,2.63965,.92725,2.76025,0,5.23059-2.74329,4.12744-5.84387-1.01294-2.84705,1.10559-5.82166,4.10242-5.82153,.04175,0,.08374,.00061,.12585,.00171,.04614,.00134,.09143,.00195,.13696,.00195,4.2467,0,5.99646-5.52588,2.44788-7.95703Zm-12.19739-8.13855l-13.4198,13.41992c-.62183,.62183-1.44434,.9126-2.25891,.8877-.81458,.0249-1.63708-.26587-2.25891-.8877l-6.87573-6.87573c-1.19556-1.19556-1.19556-3.13379,0-4.32935,1.19543-1.19543,3.13367-1.19543,4.32922,0l4.80542,4.80554,11.34949-11.34949c1.19556-1.19543,3.13379-1.19543,4.32922,0s1.19543,3.13367,0,4.3291Z"/><g><path class="cls-1" d="M134.81409,61.11865c-2.21167,.3407-4.62927,1.06714-6.96973,1.99951-.76514,.30859-1.53027,.63647-2.28247,.97095,.97729,.71997,1.92236,1.48511,2.83545,2.28247,.49512,.43066,.98376,.87451,1.45312,1.32446-7.65771,10.37744-17.09644,19.94458-26.21997,29.19678-1.16382,1.17664-2.32764,2.35327-3.43335,3.48486-1.17017,1.14453-2.33398,2.28894-3.50415,3.4397-9.27783,9.11731-18.87732,18.54956-29.26758,26.22644-.43066-.45007-.84863-.91296-1.26013-1.38232-.79724-.91296-1.56873-1.85828-2.28894-2.83545-.32788,.75232-.65588,1.50452-.96448,2.26965-.91931,2.34033-1.64587,4.75793-1.98669,6.96326-.12231,.83582-.17993,1.66516-.13501,2.32104,.00635-.00647,.01929-.00647,.01929-.01282l.14771-.05786c2.797-.86804,5.71606-2.80334,8.21704-4.55859,.18652-.13501,.37305-.28296,.56592-.42432,11.70825-8.71863,22.19507-19.36597,32.70093-29.64697,10.30017-10.48657,20.97339-20.95398,29.69189-32.66235,.14148-.19922,.28931-.38574,.43726-.58508,1.89014-2.6875,3.67114-5.40723,4.55859-8.2428l.05774-.14771c.00647-.01294,.01941-.03857,.03223-.05786-.16711-.01294-.34082-.01929-.52722-.01929-.5658,0-1.22168,.05774-1.87744,.1543Z"/><path class="cls-1" d="M99.85608,9.33154C49.70593,9.33154,9.04602,49.98168,9.04602,100.13159c0,50.16003,40.65991,90.81006,90.81006,90.81006,12.09985,0,23.6499-2.37012,34.20996-6.67004-3.68994-1.80994-6.58008-5.09998-7.87012-9.25-1.23999-4.02002-.77991-8.20996,1.09009-11.72998-1.87-3.52002-2.33008-7.72009-1.09009-11.73999,1.29004-4.16003,4.19006-7.44006,7.89014-9.26001,.32996-2.34998,1.21997-4.63,2.65991-6.66003,2.90002-4.10999,7.61011-6.56006,12.6001-6.56006,.88989,0,1.77002,.08008,2.61987,.2301,2.82007-2.92004,6.75-4.65002,11.05005-4.65002s8.22998,1.72998,11.04004,4.65002c.85999-.15002,1.73999-.2301,2.62-.2301,3.0199,0,5.93005,.89014,8.40002,2.51001,3.61987-9.79993,5.58997-20.38989,5.58997-31.44995,0-50.1499-40.66003-90.80005-90.80994-90.80005Zm-.42407,134.47168c-2.37256,0-4.6936-.19287-6.96338-.54663-1.5752-.25073-3.12463-.59143-4.63574-1.00293,1.44031-.823,2.91272-1.69739,4.42371-2.62976,17.96423-11.29675,38.09534-30.8877,49.74573-51.62317,.42432,1.54309,.76514,3.11829,1.02234,4.71924,.35364,2.26318,.54651,4.57788,.54651,6.94409,0,24.38098-19.76465,44.13916-44.13916,44.13916Zm47.72046-76.74365c-1.35669,5.57434-3.61353,11.21313-6.51318,16.78125-11.10388,21.31396-31.87158,41.60596-50.09302,53.05688-1.83228,1.13818-4.21143,2.55273-6.89258,3.99292-6.46167,3.45898-14.67871,7.03394-21.28198,7.03394-2.37256,0-4.53271-.45654-6.33301-1.54956-3.00903-1.78735-4.34009-5.34302-3.88989-8.71204,.54651-4.49426,4.01196-10.36462,8.71204-16.53699-.57874-1.03516-1.1123-2.09595-1.6073-3.18262-.5144-1.11877-.98389-2.26318-1.39526-3.427-1.65894-4.64209-2.57178-9.64429-2.57178-14.85229,0-24.3811,19.76453-44.14563,44.14551-44.14563,5.21436,0,10.22314,.91296,14.87158,2.57825,1.16382,.41797,2.30835,.88721,3.42065,1.39526,1.09302,.50146,2.1604,1.03516,3.2019,1.62012,6.73169-5.10498,13.10999-8.76343,17.7135-8.76343,.10925,0,.21863,0,.328,.00635h.0127c4.03784,0,7.44556,2.86768,8.30066,6.81543,.64294,2.54614,.3407,5.62585-.12854,7.88916Z"/></g></svg>