<?xml version="1.0" encoding="UTF-8"?><svg id="Capa_1" xmlns="http://www.w3.org/2000/svg" viewBox="0 0 200 200"><defs><style>.cls-1{fill:#fff;}</style></defs><path class="cls-1" d="M116.35677,129.45607h64.77417c1.39331,0,2.75256,.14404,4.06543,.41522,3.30078-9.34412,5.10278-19.39594,5.10278-29.87012,0-49.52185-40.14551-89.6673-89.66736-89.6673S10.96444,50.47932,10.96444,100.00117c0,49.40393,39.95532,89.47217,89.31445,89.66284-2.45374-3.32074-3.92212-7.41376-3.92212-11.85962v-28.34833c0-11.04565,8.95422-20,20-20Zm38.39331-28.39703c-.87524,1.48547-2.78528,1.99536-4.36255,1.13031-.96216-.52777-1.89429-1.11072-2.84033-1.66809-.88501-.52136-1.78125-1.0249-2.65161-1.56976-1.58911-.99457-2.05969-2.8891-1.12451-4.42847,.90735-1.49377,2.77271-1.97412,4.36218-1.06763,1.84583,1.05273,3.67908,2.12988,5.48877,3.24335,1.53198,.94263,2.0033,2.87524,1.12805,4.36029Zm.58484-24.45587c1.85803-.45807,3.5321,.52423,3.98511,2.26318,.44397,1.7041-.48279,3.37903-2.28296,3.87634-2.94238,.81281-5.901,1.5722-8.87122,2.27692-1.36182,.32312-2.5271-.14935-3.33057-1.33752-.75378-1.11462-.69104-2.26318,.09631-3.78729,.42175-.25092,1.08191-.84442,1.84924-1.06439,2.83154-.81189,5.69312-1.52197,8.55408-2.22723Zm-18.33789-8.33972c.52014-.92615,1.07654-1.83191,1.61682-2.74664,.54041-.91479,1.06104-1.84192,1.625-2.74188,.93884-1.49829,2.76428-1.98541,4.26074-1.16559,1.47839,.80994,2.13367,2.68433,1.30981,4.22064-1.07007,1.99573-2.22937,3.9491-3.45068,5.85645-.94226,1.47144-2.88477,1.83331-4.31885,.95032-1.48914-.91681-1.94141-2.77356-1.04285-4.37329Zm-18.64246-16.18665c2.03149-1.73053,4.96875-1.94421,7.52271-.45624,1.37524,.85236,2.35645,2.29413,2.82764,4.1413,1.80835,7.08911,3.64478,14.17102,5.47058,21.25568,3.11084,12.07147,6.21558,24.14453,9.33679,36.21332,.67932,2.62683,.23169,4.94434-1.82007,6.802-3.31604,3.00214-8.59326,1.72516-10.20825-2.44629-.17896-.46185-.30444-.94629-.42847-1.427-4.896-18.98364-9.78076-37.97015-14.69116-56.94995-.72363-2.79645-.25903-5.21667,1.99023-7.13281Zm-7.98169,10.13763c4.66687,18.11737,9.31396,36.15845,13.99353,54.32483-11.47607-4.20087-23.27954-4.8501-35.17371-2.8736-2.71387-10.56146-5.42163-21.09949-8.15686-31.74469,11.31995-4.00275,21.28186-10.47662,29.33704-19.70654Zm-61.24731,50.76373c-.97766-3.78107-1.96094-7.56067-2.9231-11.34564-1.4519-5.71039,1.47351-10.6925,7.15979-12.16943,6.80383-1.76709,13.61438-3.50879,20.42249-5.25958,.271-.0697,.54712-.11981,.6853-.14972,2.65479,10.30371,5.30029,20.57141,7.96118,30.8988-.23389,.06842-.56506,.17535-.90137,.26215-6.63501,1.71143-13.26929,3.42566-19.90649,5.12848-6.05298,1.55292-10.93738-1.32959-12.4978-7.36505Zm42.48193,22.14417c-2.06958,.6073-4.20361,.99536-6.32446,1.48621,.37915,1.52197,.61865,2.80951,1.02148,4.0437,1.83276,5.61639-3.3291,10.08807-8.14099,8.37061-.06213-.02222-.14038,.00049-.21106,.00226-.61182-.36121-1.22375-.72235-1.83557-1.0835-1.39075-1.37433-1.97791-3.12628-2.46948-4.96686-1.58423-5.93207-3.23596-11.84607-4.83923-17.68524,4.11841-1.05823,8.2002-2.10706,12.37354-3.17938,.75757,2.73279,1.54907,5.58838,2.32898,8.40155,2.19263-.52954,4.35571-.9472,6.44897-1.59149,1.59875-.49207,2.31433-2.08124,1.8927-3.79938-.41394-1.68707-.91492-3.35284-1.43518-5.23578,2.26685-.26733,4.35596-.51379,6.65845-.78534,.44421,2.37604,1.14294,4.65424,1.24109,6.95789,.17883,4.19513-2.64966,7.87354-6.70923,9.06476Z"/><path class="cls-1" d="M68.46444,98.78804c-2.00122,.48663-4.00903,.96216-5.97644,1.56494-.76672,.23499-1.43127,.80389-2.14221,1.22076-.55652,1.33618-.52783,2.69238,.23877,3.71985,.85217,1.14215,2.01416,1.5564,3.3833,1.22888,2.07214-.49561,4.13867-1.02014,6.18994-1.59552,1.77783-.49872,2.73315-2.17474,2.29504-3.87463-.44446-1.72437-2.14587-2.71228-3.9884-2.26428Z"/><path class="cls-1" d="M178.87484,139.25331h-61.64258c-6.30945,0-11.42432,5.11481-11.42432,11.42419v27.56677c0,6.30939,5.11487,11.42419,11.42432,11.42419h61.64258c6.30945,0,11.42432-5.11481,11.42432-11.42419v-27.56677c0-6.30939-5.11487-11.42419-11.42432-11.42419Zm-46.87891,37.54224l-1.18457-3.72461h-8.80371l-1.18457,3.72461h-5.92578l8.05859-23.70117h6.90723l8.05859,23.70117h-5.92578Zm25.62891-3.38574c-2.20117,2.26855-4.90918,3.38574-8.19434,3.38574h-9.48047v-23.70117h9.48047c3.28516,0,5.99316,1.15137,8.19434,3.41992s3.31836,5.07812,3.31836,8.43066c0,3.35156-1.11719,6.19629-3.31836,8.46484Zm20.17773,1.92969c-1.625,1.28711-3.75781,1.92969-6.36523,1.92969-4.8418,0-8.12598-2.23438-9.48047-5.85742l4.67285-2.70898c.94727,2.20117,2.60645,3.28516,4.97656,3.28516,2.13379,0,3.2168-.64355,3.2168-1.93066,0-.71094-.33887-1.25293-1.0498-1.625-.67676-.40625-1.96387-.87988-3.85938-1.3877-1.99805-.54199-3.35254-1.15137-4.80859-2.23535-1.3877-1.11719-2.16699-2.81055-2.16699-4.97754,0-2.2002,.7793-3.92773,2.33691-5.24805,1.59082-1.32031,3.45312-1.96387,5.62012-1.96387,3.89355,0,6.94141,1.8623,8.66797,5.34961l-4.57129,2.67578c-.8457-1.79492-2.03125-2.74316-4.09668-2.74316-1.625,0-2.53906,.8125-2.53906,1.79492,0,.5752,.27051,1.08301,.8125,1.52344,.5752,.44043,1.72656,.91406,3.45312,1.42188l2.20117,.71094c.50781,.16992,1.18555,.47461,1.96387,.91406,.8125,.40625,1.42188,.84668,1.82812,1.32129,.84668,.91406,1.62598,2.47168,1.62598,4.40137,0,2.26855-.81348,4.0293-2.43848,5.34961Z"/><path class="cls-1" d="M149.4305,158.30824h-4.0625v13.27344h4.0625c1.8623,0,3.38672-.61035,4.53711-1.79492,1.18555-1.21875,1.76074-2.84473,1.76074-4.8418,0-1.99805-.5752-3.62305-1.76074-4.80859-1.15039-1.21875-2.6748-1.82812-4.53711-1.82812Z"/><polygon class="cls-1" points="123.63265 167.99184 129.18636 167.99184 126.40902 159.29066 123.63265 167.99184"/></svg>