<?xml version="1.0" encoding="UTF-8"?><svg id="Capa_1" xmlns="http://www.w3.org/2000/svg" viewBox="0 0 500 300"><defs><style>.cls-1{fill:#fff;}</style></defs><path class="cls-1" d="M282.92868,171.0126h-5.47266v9.36133h5.47266c3.0957,.07227,4.96777-1.65625,4.96777-4.6084s-1.87207-4.75293-4.96777-4.75293Z"/><path class="cls-1" d="M144.186,170.79678c-3.52832,0-6.48096,1.15234-8.85693,3.52832-2.3042,2.30469-3.45654,5.18457-3.45654,8.71289s1.15234,6.4082,3.45654,8.78516c2.37598,2.30371,5.32861,3.45605,8.85693,3.45605s6.48047-1.15234,8.78467-3.45605c2.37598-2.37695,3.52832-5.25684,3.52832-8.78516s-1.15234-6.4082-3.52832-8.71289c-2.3042-2.37598-5.25635-3.52832-8.78467-3.52832Z"/><polygon class="cls-1" points="366.16013 190.23819 374.51266 190.23819 370.33688 174.75772 366.16013 190.23819"/><path class="cls-1" d="M450.05869,124.87442H112.19614c-3.68976,0-7.30756,1.02069-10.45319,2.94922l-62.25488,38.16608c-12.729,7.80371-12.729,26.29791,0,34.10162l62.25488,38.16614c3.14563,1.92847,6.76343,2.94916,10.45319,2.94916H450.05869c11.04565,0,20-8.95428,20-20v-76.33221c0-11.04565-8.95435-20-20-20ZM70.96506,196.42111c-7.38995,0-13.38062-5.99066-13.38062-13.38055s5.99066-13.38062,13.38062-13.38062,13.38055,5.99072,13.38055,13.38062-5.99066,13.38055-13.38055,13.38055Zm92.15845,5.41083c-5.1123,5.04004-11.44922,7.56055-18.9375,7.56055-7.48877,0-13.8252-2.52051-19.00977-7.56055-5.1123-5.1123-7.70459-11.37695-7.70459-18.79395s2.59229-13.68164,7.70459-18.72168c5.18457-5.1123,11.521-7.63281,19.00977-7.63281,7.48828,0,13.8252,2.52051,18.9375,7.63281,5.18457,5.04004,7.77686,11.30469,7.77686,18.72168s-2.59229,13.68164-7.77686,18.79395Zm48.09424-30.02734h-16.92139v6.55273h16.56152v13.96973h-16.56152v15.91309h-14.40137v-50.4043h31.32275v13.96875Zm42.48047,36.43555h-33.12305v-50.4043h32.76367v13.10547h-18.3623v5.47168h16.56152v12.96191h-16.56152v5.61621h18.72168v13.24902Zm35.35059-.07227l-7.99219-15.84082h-3.60059v15.84082h-14.40137v-50.4043h20.16211c5.54395,0,10.08008,1.65625,13.68066,4.89648s5.40039,7.48926,5.40039,12.81738c0,5.97656-2.87988,10.94434-7.77637,13.89746l9.93652,18.79297h-15.40918Zm44.92773,.07227h-14.40137v-36.43555h-11.88086v-13.96875h38.16309v13.96875h-11.88086v36.43555Zm45.36035,0l-1.72754-6.48047h-14.5459l-1.72754,6.48047h-15.48145l16.05762-50.4043h16.84961l16.05664,50.4043h-15.48145Zm39.02246,1.15234c-10.94531,0-18.50586-4.89648-21.02539-12.67285l12.3125-7.12891c1.65625,4.24805,4.68066,6.4082,9.07324,6.4082,3.24023,0,4.89648-.86426,4.89648-2.5918,0-.93652-.36035-1.72852-1.72852-2.30469-.64844-.28809-1.2959-.50391-1.7998-.64746-.50391-.2168-1.36816-.43262-2.59277-.79199l-2.80762-.79297c-10.00879-3.02344-15.0498-8.42383-15.0498-16.20117,0-4.6084,1.65625-8.4248,4.96875-11.44922,3.38379-3.02344,7.77637-4.53613,13.17676-4.53613,8.56934,0,15.76953,4.17676,18.9375,11.7373l-11.95312,6.98438c-1.36816-3.52832-3.67188-5.32812-6.91211-5.32812-2.52051,0-3.81641,1.15234-3.81641,2.66406,0,1.08008,.57617,1.87207,1.65625,2.44824,1.15234,.57617,3.3125,1.2959,6.55273,2.23242,4.82422,1.43945,7.34473,2.44824,10.72852,4.82422,3.38477,2.30371,5.04102,6.04883,5.04102,11.0166,0,10.29688-7.56152,16.12988-19.6582,16.12988Z"/><polygon class="cls-1" points="190.01266 85.79581 201.24557 104.66153 202.54196 104.66153 213.77487 85.79581 213.77487 110.35001 228.17624 110.35001 228.17624 59.94571 213.77487 59.94571 201.89401 80.46719 190.01266 59.94571 175.6113 59.94571 175.6113 110.35001 190.01266 110.35001 190.01266 85.79581"/><polygon class="cls-1" points="272.09274 97.10098 253.37106 97.10098 253.37106 91.48428 269.93259 91.48428 269.93259 78.52335 253.37106 78.52335 253.37106 73.05069 271.73337 73.05069 271.73337 59.94571 238.97018 59.94571 238.97018 110.35001 272.09274 110.35001 272.09274 97.10098"/><path class="cls-1" d="M306.07712,111.50235c7.56055,0,13.60938-2.37646,18.2168-7.05664,4.68066-4.68066,6.98535-10.65723,6.98535-17.85791v-5.97656h-25.63477v12.24121h10.72949c-1.65625,3.52832-5.04102,5.32861-10.00879,5.32861-4.32031,0-7.48926-1.29639-9.57715-3.81641-2.08789-2.59229-3.09668-5.6167-3.09668-9.07275,0-3.67236,1.08008-6.62451,3.3125-8.92871s5.18457-3.45654,8.78516-3.45654c4.39258,0,7.63281,1.51221,9.64844,4.6084l12.24121-6.98438c-4.53613-7.20068-12.74512-11.7373-22.17773-11.7373-7.48828,0-13.75293,2.52051-18.72168,7.63281-4.96875,5.04053-7.48828,11.30518-7.48828,18.79346,0,7.48877,2.51953,13.75342,7.48828,18.79395,4.96875,4.96826,11.44922,7.48877,19.29785,7.48877Z"/><path class="cls-1" d="M351.36325,103.86954h14.5459l1.72754,6.48047h15.48145l-16.05762-50.4043h-16.84961l-16.05664,50.4043h15.48145l1.72754-6.48047Zm7.27246-27.00244l4.17676,15.48145h-8.35254l4.17578-15.48145Z"/></svg>