<?xml version="1.0" standalone="no"?>
<!DOCTYPE svg PUBLIC "-//W3C//DTD SVG 20010904//EN"
 "http://www.w3.org/TR/2001/REC-SVG-20010904/DTD/svg10.dtd">
<svg version="1.0" xmlns="http://www.w3.org/2000/svg"
 width="700.000000pt" height="700.000000pt" viewBox="0 0 700.000000 700.000000"
 preserveAspectRatio="xMidYMid meet">
<metadata>
Created by potrace 1.14, written by Peter Selinger 2001-2017
</metadata>
<g transform="translate(0.000000,700.000000) scale(0.100000,-0.100000)"
fill="#000000" stroke="none">
<path d="M3090 6993 c-633 -27 -1049 -83 -1406 -188 -636 -187 -1043 -504
-1304 -1016 -277 -543 -394 -1312 -377 -2459 11 -682 56 -1114 158 -1523 273
-1087 906 -1588 2214 -1752 364 -45 676 -58 1257 -52 599 6 845 24 1226 88
1254 209 1841 806 2046 2079 57 351 76 618 83 1171 6 458 -4 784 -33 1087
-105 1110 -424 1753 -1057 2130 -515 307 -1293 447 -2442 440 -165 -1 -329 -3
-365 -5z m744 -1297 c363 -57 692 -196 996 -420 122 -89 357 -324 446 -446
210 -285 338 -575 403 -910 124 -639 -39 -1295 -449 -1810 -91 -114 -283 -300
-400 -386 -825 -611 -1933 -590 -2726 52 -176 142 -373 365 -492 556 -441 709
-441 1627 0 2337 167 268 451 552 719 718 273 170 611 286 944 323 113 12 441
4 559 -14z"/>
<path d="M3295 5540 c-44 -5 -119 -16 -168 -25 -825 -150 -1489 -812 -1641
-1636 -149 -811 190 -1618 874 -2081 609 -412 1404 -460 2062 -126 204 103
337 198 502 358 357 345 565 779 616 1279 46 460 -77 945 -338 1330 -89 132
-163 220 -283 336 -162 157 -292 249 -497 353 -195 100 -381 160 -602 197
-114 19 -414 27 -525 15z m-740 -1788 c51 -26 79 -56 104 -113 45 -101 36
-230 -22 -316 -77 -115 -250 -137 -357 -46 -69 59 -85 101 -85 223 0 90 3 111
22 147 26 48 86 101 134 120 48 18 155 11 204 -15z m1359 0 c44 -20 46 -23 46
-62 l0 -41 -37 25 c-107 73 -261 52 -317 -43 -24 -42 -33 -159 -16 -220 24
-90 110 -140 219 -127 86 10 91 16 91 96 l0 70 -60 0 -60 0 0 30 0 30 95 0 96
0 -3 -117 -3 -118 -46 -23 c-100 -50 -253 -37 -330 27 -61 50 -83 110 -84 221
0 80 4 103 23 143 29 57 81 103 142 122 61 20 183 13 244 -13z m-844 -4 c58
-30 83 -75 77 -141 -4 -51 -30 -95 -64 -112 -20 -10 -20 -11 2 -27 13 -10 48
-67 79 -128 l57 -110 -40 0 -41 0 -50 101 c-57 113 -83 133 -168 127 l-47 -3
-3 -112 -3 -113 -34 0 -35 0 0 270 0 270 113 0 c97 0 119 -3 157 -22z m320
-248 l0 -270 -40 0 -40 0 0 270 0 270 40 0 40 0 0 -270z m1060 240 l0 -30
-135 0 -135 0 0 -80 0 -80 125 0 125 0 0 -30 0 -30 -125 0 -125 0 0 -100 0
-100 135 0 135 0 0 -30 0 -30 -175 0 -175 0 0 270 0 270 175 0 175 0 0 -30z
m339 -193 l116 -219 3 221 2 221 35 0 35 0 0 -271 0 -270 -51 3 -51 3 -117
220 -116 220 -3 -222 -2 -223 -35 0 -35 0 0 271 0 270 52 -3 52 -3 115 -218z
m-1564 -428 c7 -7 -2 -9 -25 -8 -69 5 -83 -31 -20 -50 51 -15 67 -43 45 -77
-14 -21 -23 -25 -57 -22 -23 2 -43 8 -45 15 -3 8 6 10 29 7 71 -10 77 37 8 60
-29 9 -36 16 -38 44 -3 26 1 34 20 42 25 10 67 4 83 -11z m373 -66 l-3 -86
-42 -4 c-34 -3 -44 0 -57 19 -34 48 -6 113 45 106 26 -4 29 -2 29 24 0 19 5
28 15 28 13 0 15 -14 13 -87z m62 72 c0 -8 -4 -15 -10 -15 -5 0 -10 7 -10 15
0 8 5 15 10 15 6 0 10 -7 10 -15z m-380 -21 c0 -8 9 -14 20 -14 11 0 20 -4 20
-10 0 -5 -9 -10 -20 -10 -17 0 -20 -7 -20 -45 0 -38 3 -45 20 -45 11 0 20 -4
20 -10 0 -12 -30 -13 -49 -1 -18 11 -31 108 -20 139 9 24 29 22 29 -4z m80
-46 c0 -52 11 -78 31 -78 24 0 39 29 39 74 0 20 5 36 10 36 6 0 10 -28 10 -63
l0 -63 -45 -2 c-35 -1 -47 3 -55 18 -13 24 -13 110 0 110 6 0 10 -15 10 -32z
m300 -33 c0 -37 -4 -65 -10 -65 -6 0 -10 28 -10 65 0 37 4 65 10 65 6 0 10
-28 10 -65z m111 49 c34 -41 6 -114 -45 -114 -49 0 -76 78 -40 114 20 21 68
20 85 0z m124 6 c4 -6 -8 -10 -29 -10 -46 0 -48 -22 -3 -35 61 -19 41 -80 -24
-73 -46 4 -49 26 -3 24 45 -1 57 21 17 30 -64 15 -63 74 2 74 18 0 37 -4 40
-10z"/>
<path d="M2375 3706 c-70 -32 -105 -101 -105 -208 1 -148 85 -236 204 -214 45
9 82 39 109 89 33 63 32 195 -3 256 -14 24 -37 53 -52 64 -34 25 -113 32 -153
13z"/>
<path d="M2870 3616 l0 -96 65 0 c35 0 75 5 88 11 50 23 62 100 23 146 -21 25
-31 28 -100 31 l-76 4 0 -96z"/>
<path d="M3514 3057 c-3 -9 -4 -28 -2 -44 2 -22 8 -28 28 -28 23 0 25 4 25 40
0 34 -3 40 -23 43 -13 2 -24 -3 -28 -11z"/>
<path d="M3694 3047 c-8 -35 12 -69 39 -65 18 2 22 10 22 43 0 36 -3 40 -27
43 -22 3 -29 -2 -34 -21z"/>
</g>
</svg>
