<?xml version="1.0" standalone="no"?>
<!DOCTYPE svg PUBLIC "-//W3C//DTD SVG 20010904//EN"
 "http://www.w3.org/TR/2001/REC-SVG-20010904/DTD/svg10.dtd">
<svg version="1.0" xmlns="http://www.w3.org/2000/svg"
 width="700.000000pt" height="700.000000pt" viewBox="0 0 700.000000 700.000000"
 preserveAspectRatio="xMidYMid meet">
<metadata>
Created by potrace 1.14, written by Peter Selinger 2001-2017
</metadata>
<g transform="translate(0.000000,700.000000) scale(0.100000,-0.100000)"
fill="#000000" stroke="none">
<path d="M3147 6923 c-1 0 -105 -4 -232 -7 -126 -4 -264 -9 -305 -11 -130 -7
-263 -16 -310 -20 -25 -3 -65 -7 -90 -9 -128 -12 -187 -19 -205 -22 -11 -2
-42 -6 -70 -9 -66 -8 -148 -21 -270 -46 -735 -150 -1136 -463 -1351 -1057 -49
-134 -77 -237 -119 -433 -5 -22 -13 -72 -35 -219 -18 -117 -22 -148 -35 -297
-3 -32 -7 -74 -10 -93 -2 -19 -7 -84 -10 -145 -3 -60 -8 -133 -10 -162 -23
-276 -22 -1453 0 -1793 26 -387 43 -569 70 -735 67 -411 164 -706 308 -940
157 -254 374 -437 672 -565 109 -47 273 -103 350 -120 143 -32 327 -69 365
-74 25 -3 54 -8 65 -10 11 -2 49 -7 85 -11 36 -4 79 -9 95 -11 17 -2 59 -6 95
-9 36 -3 83 -7 105 -9 37 -4 157 -12 310 -21 462 -27 1555 -21 1945 10 41 3
102 8 135 11 33 2 80 6 105 9 25 3 72 7 105 10 51 5 131 16 305 42 69 10 267
53 335 74 227 66 375 127 515 212 345 209 575 545 694 1017 35 135 45 178 51
215 19 110 45 278 50 320 3 28 8 64 10 80 3 27 11 104 20 210 4 42 15 223 20
315 27 490 22 1488 -10 1935 -3 44 -8 105 -10 135 -2 30 -6 80 -9 110 -4 30
-9 78 -11 105 -3 28 -7 61 -10 75 -2 14 -7 48 -10 75 -8 77 -43 270 -65 365
-11 47 -22 96 -25 109 -13 55 -69 217 -104 303 -198 476 -534 756 -1093 914
-95 26 -290 68 -368 79 -25 3 -52 8 -60 10 -8 2 -35 7 -60 10 -25 3 -61 7 -80
10 -19 3 -60 7 -90 10 -70 7 -156 16 -195 20 -16 2 -84 6 -150 10 -66 4 -140
8 -165 10 -134 11 -1234 27 -1243 18z"/>
</g>
</svg>
