<?xml version="1.0" encoding="UTF-8"?>
<svg id="Capa_2" data-name="Capa 2" xmlns="http://www.w3.org/2000/svg" viewBox="0 0 627.95 1027.71">
  <defs>
    <style>
      .cls-1 {
        font-size: 40.52px;
      }

      .cls-1, .cls-2, .cls-3 {
        fill: #fff;
      }

      .cls-1, .cls-3 {
        font-family: Astonia, Astonia;
      }

      .cls-4, .cls-5 {
        opacity: .5;
      }

      .cls-3 {
        font-size: 198.6px;
      }

      .cls-6 {
        opacity: .1;
      }

      .cls-6, .cls-5, .cls-7, .cls-8 {
        fill: none;
        font-family: Gilroy-Heavy, Gilroy;
        font-size: 173px;
        stroke: #fff;
        stroke-miterlimit: 10;
      }

      .cls-9, .cls-8 {
        opacity: .2;
      }

      .cls-10 {
        letter-spacing: 0em;
      }

      .cls-11 {
        letter-spacing: .03em;
      }

      .cls-12 {
        letter-spacing: .05em;
      }
    </style>
  </defs>
  <g id="Capa_2-2" data-name="Capa 2">
    <g>
      <g>
        <g>
          <text class="cls-5" transform="translate(.5 421.49)"><tspan x="0" y="0">P</tspan><tspan class="cls-10" x="102.93" y="0">R</tspan><tspan x="209.33" y="0">OMO</tspan></text>
          <text class="cls-8" transform="translate(.5 284.42)"><tspan x="0" y="0">P</tspan><tspan class="cls-10" x="102.93" y="0">R</tspan><tspan x="209.33" y="0">OMO</tspan></text>
          <text class="cls-6" transform="translate(.5 147.46)"><tspan x="0" y="0">P</tspan><tspan class="cls-10" x="102.93" y="0">R</tspan><tspan x="209.33" y="0">OMO</tspan></text>
          <text class="cls-6" transform="translate(.5 978.08)"><tspan x="0" y="0">P</tspan><tspan class="cls-10" x="102.93" y="0">R</tspan><tspan x="209.33" y="0">OMO</tspan></text>
          <g class="cls-9">
            <text class="cls-7" transform="translate(.5 841.01)"><tspan x="0" y="0">P</tspan><tspan class="cls-10" x="102.93" y="0">R</tspan><tspan x="209.33" y="0">OMO</tspan></text>
          </g>
          <g class="cls-4">
            <text class="cls-7" transform="translate(.5 704.05)"><tspan x="0" y="0">P</tspan><tspan class="cls-10" x="102.93" y="0">R</tspan><tspan x="209.33" y="0">OMO</tspan></text>
          </g>
        </g>
        <g>
          <text class="cls-3" transform="translate(22.56 571.16)"><tspan x="0" y="0">ÉXITO</tspan></text>
          <text class="cls-1" transform="translate(36.94 560.85) rotate(-90)"><tspan class="cls-11" x="0" y="0">Ca</tspan><tspan class="cls-12" x="52.6" y="0">so</tspan><tspan class="cls-11" x="97.58" y="0">s</tspan></text>
          <text class="cls-1" transform="translate(135.35 513.97)"><tspan x="0" y="0">de</tspan></text>
        </g>
      </g>
      <g id="White">
        <g>
          <path class="cls-2" d="M176.09,905.33c-4.24,0-7.85-1.47-10.83-4.41-2.94-2.98-4.41-6.59-4.41-10.87s1.47-7.89,4.41-10.83c2.98-2.98,6.59-4.45,10.83-4.45s7.85,1.47,10.83,4.45c2.98,2.94,4.45,6.55,4.45,10.83s-1.47,7.89-4.45,10.87c-2.98,2.94-6.59,4.41-10.83,4.41Zm0-5.67c2.69,0,4.95-.88,6.76-2.69s2.73-4.11,2.73-6.93-.92-5.12-2.73-6.93-4.07-2.73-6.76-2.73-4.95,.92-6.76,2.73c-1.8,1.8-2.73,4.11-2.73,6.93s.92,5.12,2.73,6.93,4.07,2.69,6.76,2.69Z"/>
          <path class="cls-2" d="M200.6,887.36c1.01-2.69,3.53-4.03,6.38-4.03v6.04c-1.64-.21-3.15,.13-4.45,1.01s-1.93,2.31-1.93,4.32v10.03h-5.41v-20.99h5.41s0,3.61,0,3.61Z"/>
          <path class="cls-2" d="M209.49,877.92c0-1.8,1.51-3.36,3.32-3.36s3.36,1.55,3.36,3.36-1.51,3.32-3.36,3.32-3.32-1.51-3.32-3.32Zm.63,26.82v-20.99h5.41v20.99h-5.41Z"/>
          <path class="cls-2" d="M236.56,883.76h5.29v19.98c0,3.23-1.09,5.71-3.23,7.43-2.14,1.72-4.7,2.56-7.72,2.56-4.53,0-8.1-1.76-9.95-5.12l4.62-2.64c1.05,1.97,2.9,2.94,5.5,2.94,3.4,0,5.5-1.85,5.5-5.16v-2.27c-1.59,2.14-3.82,3.19-6.72,3.19s-5.46-1.05-7.47-3.11c-1.97-2.1-2.98-4.66-2.98-7.64s1.01-5.5,3.02-7.6,4.49-3.15,7.43-3.15,5.12,1.05,6.72,3.19v-2.6Zm-1.68,6.09c-1.09-1.09-2.48-1.64-4.2-1.64s-3.11,.55-4.24,1.64c-1.09,1.05-1.64,2.43-1.64,4.07,0,3.36,2.48,5.75,5.88,5.75s5.88-2.39,5.88-5.75c0-1.64-.55-3.02-1.68-4.07Z"/>
          <path class="cls-2" d="M251.34,896.47c.71,2.64,2.69,3.95,5.92,3.95,2.06,0,3.65-.71,4.7-2.1l4.37,2.52c-2.06,2.98-5.12,4.49-9.15,4.49-3.48,0-6.25-1.05-8.35-3.15s-3.15-4.74-3.15-7.93,1.05-5.79,3.11-7.89c2.06-2.14,4.74-3.19,7.97-3.19,3.06,0,5.62,1.05,7.6,3.19,2.01,2.14,3.02,4.74,3.02,7.89,0,.71-.08,1.43-.21,2.22h-15.82Zm10.62-4.2c-.63-2.85-2.73-4.24-5.2-4.24-2.9,0-4.87,1.55-5.5,4.24h10.7Z"/>
          <path class="cls-2" d="M288.48,885.48c1.51,1.55,2.27,3.65,2.27,6.38v12.89h-5.41v-12.21c0-2.81-1.64-4.32-4.16-4.32-2.81,0-4.62,1.72-4.62,5.2v11.33h-5.41v-20.99h5.41v2.35c1.3-1.97,3.4-2.94,6.25-2.94,2.31,0,4.2,.76,5.67,2.31h0Z"/>
          <path class="cls-2" d="M294.11,898.07l4.95-2.9c1.13,2.98,3.4,4.49,6.76,4.49s4.7-1.3,4.7-3.11c0-1.05-.46-1.85-1.39-2.39-.92-.59-2.56-1.22-4.95-1.89-2.64-.8-4.24-1.43-6.09-2.73-1.8-1.34-2.77-3.36-2.77-6.04s.92-4.78,2.81-6.34c1.89-1.59,4.2-2.39,6.84-2.39,4.74,0,8.48,2.43,10.49,6.59l-4.87,2.81c-1.18-2.52-3.06-3.78-5.62-3.78-2.39,0-3.86,1.22-3.86,2.94,0,.92,.38,1.68,1.13,2.27,.8,.55,2.27,1.18,4.45,1.85l2.01,.67c.46,.13,1.09,.38,1.89,.71,.8,.29,1.43,.59,1.85,.88,.88,.55,2.22,1.59,2.77,2.6,.63,1.01,1.09,2.48,1.09,4.16,0,2.73-1.01,4.87-2.98,6.46-1.97,1.59-4.53,2.39-7.68,2.39-5.83,0-9.91-2.77-11.54-7.26h0Z"/>
          <path class="cls-2" d="M331.21,888.96h-4.74v8.73c0,2.27,1.64,2.31,4.74,2.14v4.91c-7.43,.84-10.16-1.3-10.16-7.05v-8.73h-3.65v-5.2h3.65v-4.24l5.41-1.64v5.88h4.74v5.2Z"/>
          <path class="cls-2" d="M349.22,883.76h5.41v20.99h-5.41v-2.35c-1.3,1.97-3.4,2.94-6.25,2.94-2.31,0-4.2-.76-5.71-2.31-1.47-1.55-2.22-3.65-2.22-6.38v-12.89h5.41v12.21c0,2.81,1.64,4.32,4.16,4.32,2.81,0,4.62-1.72,4.62-5.2v-11.33h0Z"/>
          <path class="cls-2" d="M375.49,875.36h5.41v29.38h-5.41v-2.48c-1.59,2.06-3.86,3.06-6.8,3.06s-5.25-1.05-7.26-3.19c-1.97-2.14-2.98-4.78-2.98-7.89s1.01-5.71,2.98-7.85c2.01-2.14,4.45-3.23,7.26-3.23s5.2,1.01,6.8,3.06v-10.87Zm-5.79,24.81c1.68,0,3.06-.55,4.16-1.64,1.09-1.13,1.64-2.56,1.64-4.28s-.55-3.15-1.64-4.24c-1.09-1.13-2.48-1.68-4.16-1.68s-3.06,.55-4.2,1.68c-1.09,1.09-1.64,2.52-1.64,4.24s.55,3.15,1.64,4.28c1.13,1.09,2.52,1.64,4.2,1.64Z"/>
          <path class="cls-2" d="M385.23,877.92c0-1.8,1.51-3.36,3.32-3.36s3.36,1.55,3.36,3.36-1.51,3.32-3.36,3.32-3.32-1.51-3.32-3.32Zm.63,26.82v-20.99h5.41v20.99h-5.41Z"/>
          <path class="cls-2" d="M406.22,905.33c-3.11,0-5.75-1.05-7.89-3.19s-3.19-4.78-3.19-7.89,1.05-5.71,3.19-7.85,4.78-3.23,7.89-3.23,5.75,1.09,7.89,3.23,3.23,4.74,3.23,7.85-1.09,5.75-3.23,7.89c-2.14,2.14-4.78,3.19-7.89,3.19Zm0-5.29c1.64,0,2.98-.55,4.07-1.64s1.64-2.48,1.64-4.16-.55-3.06-1.64-4.16-2.43-1.64-4.07-1.64-2.98,.55-4.07,1.64c-1.05,1.09-1.59,2.48-1.59,4.16s.55,3.06,1.59,4.16c1.09,1.09,2.43,1.64,4.07,1.64Z"/>
          <path class="cls-2" d="M429.51,892.02c3.06,.63,7.05,2.1,7.01,6.59,0,2.14-.8,3.82-2.43,4.99-1.59,1.13-3.61,1.72-6,1.72-4.32,0-7.26-1.68-8.81-4.99l4.7-2.64c.63,1.8,1.97,2.73,4.11,2.73,1.93,0,2.9-.59,2.9-1.8,0-1.13-1.68-1.76-3.82-2.31-3.11-.8-7.01-2.1-7.01-6.46,0-2.06,.76-3.69,2.27-4.87,1.55-1.22,3.44-1.8,5.71-1.8,3.4,0,6.34,1.59,7.97,4.45l-4.62,2.52c-.67-1.43-1.8-2.14-3.36-2.14-1.39,0-2.43,.67-2.43,1.72,0,1.13,1.68,1.76,3.82,2.31h0Z"/>
        </g>
        <path class="cls-2" d="M442.38,874.37c1.6,0,2.96,.56,4.09,1.69,1.14,1.14,1.7,2.5,1.7,4.09s-.56,2.96-1.7,4.09-2.5,1.69-4.09,1.69-2.96-.56-4.09-1.69c-1.14-1.14-1.69-2.5-1.69-4.09s.56-2.96,1.69-4.09c1.14-1.14,2.5-1.69,4.09-1.69Zm3.66,9.5c1.01-1.02,1.52-2.26,1.52-3.71s-.51-2.69-1.52-3.71-2.24-1.54-3.66-1.54-2.67,.51-3.68,1.54-1.52,2.26-1.52,3.71,.51,2.69,1.52,3.71,2.24,1.54,3.68,1.54,2.66-.51,3.66-1.54Zm-2.06-2.93l1.22,2.17h-1.84l-.85-1.76h-.61v1.76h-1.71v-5.92h2.38c1.3,0,2.29,.82,2.29,1.97,0,.77-.29,1.36-.88,1.77h0Zm-2.08-2.19v1.17h.53c.45,0,.72-.24,.72-.58,0-.4-.24-.59-.72-.59,0,0-.53,0-.53,0Z"/>
        <g>
          <path class="cls-2" d="M315.37,911.76l1.11-.57c.15,.61,.59,.92,1.3,.92,.65,0,1.03-.26,1.1-.65,.1-.45-.24-.64-1.1-.92-.58-.19-1.02-.45-1.32-.74-.29-.3-.39-.73-.29-1.27,.1-.56,.37-.99,.79-1.27,.43-.29,.92-.43,1.48-.43,1.02,0,1.77,.51,2.09,1.39l-1.08,.57c-.22-.52-.59-.77-1.11-.77s-.84,.23-.92,.6c-.1,.43,.24,.64,1.06,.93,.21,.08,.32,.11,.53,.21,.27,.11,.5,.24,.72,.43,.33,.29,.53,.72,.41,1.4-.21,1.11-1.15,1.72-2.45,1.72s-2.09-.59-2.31-1.54h0Z"/>
          <path class="cls-2" d="M321.19,912.56c-.37-.5-.5-1.08-.37-1.75,.13-.63,.43-1.16,.92-1.58s1.08-.63,1.76-.63,1.22,.25,1.58,.75c.37,.49,.5,1.07,.38,1.72-.11,.63-.41,1.16-.92,1.59-.5,.43-1.07,.64-1.71,.64-.74,0-1.29-.25-1.66-.74h0Zm2.65-.72c.27-.22,.43-.53,.5-.9,.14-.74-.29-1.22-.97-1.22s-1.26,.48-1.4,1.23c-.13,.75,.29,1.23,.96,1.23,.34,0,.64-.11,.91-.34h0Z"/>
          <path class="cls-2" d="M332.75,909.11c.27,.34,.35,.78,.26,1.32l-.49,2.74h-1.15l.46-2.66c.1-.53-.13-.84-.6-.84-.5,0-.83,.29-.98,.84l-.46,2.66h-1.15l.46-2.66c.1-.53-.13-.84-.59-.84-.53,0-.91,.34-1.01,.98l-.45,2.53h-1.15l.78-4.45h1.15l-.08,.45c.35-.38,.77-.57,1.29-.57,.54,0,.92,.22,1.13,.67,.37-.45,.84-.67,1.42-.67,.51,0,.89,.17,1.15,.51h0Z"/>
          <path class="cls-2" d="M334.04,912.56c-.37-.5-.5-1.08-.37-1.75,.13-.63,.43-1.16,.92-1.58s1.08-.63,1.76-.63,1.22,.25,1.58,.75c.37,.49,.5,1.07,.38,1.72-.11,.63-.41,1.16-.92,1.59-.5,.43-1.07,.64-1.71,.64-.74,0-1.29-.25-1.66-.74h0Zm2.65-.72c.27-.22,.43-.53,.5-.9,.14-.74-.29-1.22-.97-1.22s-1.26,.48-1.4,1.23c-.13,.75,.29,1.23,.96,1.23,.34,0,.64-.11,.91-.34h0Z"/>
          <path class="cls-2" d="M338.54,912.2l1.03-.52c.11,.38,.41,.57,.87,.57,.38,0,.61-.11,.65-.35,.03-.25-.31-.38-.75-.52-.63-.16-1.44-.49-1.26-1.48,.08-.42,.29-.74,.63-.96,.35-.23,.74-.35,1.18-.35,.77,0,1.38,.35,1.66,.94l-1.03,.52c-.11-.29-.34-.45-.68-.45s-.54,.13-.6,.38c-.05,.27,.29,.41,.73,.53,.65,.15,1.47,.43,1.27,1.48-.15,.86-.89,1.3-1.88,1.3-.91,0-1.51-.37-1.8-1.1h0Z"/>
          <path class="cls-2" d="M349.69,911.42h-3.36c.05,.57,.47,.84,1.07,.84,.45,0,.81-.15,1.1-.45l.81,.65c-.5,.56-1.16,.85-1.99,.85-.74,0-1.3-.23-1.68-.7-.38-.47-.52-1.05-.4-1.74,.1-.65,.4-1.18,.91-1.61,.51-.43,1.08-.65,1.74-.65s1.18,.23,1.56,.68c.38,.45,.51,1,.38,1.66,0,.13-.05,.29-.13,.47h0Zm-.94-.9c0-.61-.4-.89-.94-.89-.6,0-1.07,.32-1.32,.89h2.26Z"/>
          <path class="cls-2" d="M350.25,913.17l.49-2.79,.65-3.7h1.15l-.66,3.75-.48,2.75h-1.14Z"/>
          <path class="cls-2" d="M355.22,912.56c-.37-.5-.5-1.08-.37-1.75,.13-.63,.43-1.16,.92-1.58s1.08-.63,1.76-.63,1.22,.25,1.58,.75c.37,.49,.5,1.07,.38,1.72-.11,.63-.41,1.16-.92,1.59-.5,.43-1.07,.64-1.71,.64-.74,0-1.29-.25-1.66-.74h0Zm2.65-.72c.27-.22,.43-.53,.5-.9,.14-.74-.29-1.22-.97-1.22s-1.26,.48-1.4,1.23c-.13,.75,.29,1.23,.96,1.23,.34,0,.64-.11,.91-.34h0Z"/>
          <path class="cls-2" d="M361.76,909.44c.32-.54,.82-.81,1.5-.8l-.22,1.28c-.57-.09-1.34,.19-1.55,1.08l-.38,2.17h-1.15l.78-4.45h1.15l-.13,.71h0Z"/>
          <path class="cls-2" d="M363.13,913.17l.78-4.45h1.15l-.78,4.45h-1.15Zm1.69-6.4c.39,0,.66,.33,.6,.71-.07,.39-.43,.7-.83,.7s-.65-.32-.59-.7c.06-.39,.43-.71,.82-.71h0Z"/>
          <path class="cls-2" d="M369.53,908.72h1.12l-.75,4.24c-.25,1.45-1.24,2.12-2.57,2.12-.99,0-1.72-.37-2.04-1.08l1.02-.53c.19,.4,.55,.6,1.1,.6,.75,0,1.26-.38,1.37-1.1l.07-.39c-.39,.39-.88,.59-1.48,.59-.69,0-1.19-.23-1.52-.7-.33-.47-.45-1.02-.34-1.67,.1-.61,.37-1.12,.83-1.54,.45-.43,1-.64,1.63-.64,.69,0,1.16,.26,1.44,.76l.11-.64h0Zm-.39,2.2l.02-.09c.11-.7-.35-1.16-1.06-1.16-.35,0-.67,.11-.94,.33s-.43,.51-.5,.86c-.06,.35,0,.64,.21,.87,.19,.22,.47,.34,.84,.34,.7,0,1.3-.47,1.44-1.16h0Z"/>
          <path class="cls-2" d="M375.56,911.42h-3.36c.05,.57,.47,.84,1.07,.84,.45,0,.81-.15,1.1-.45l.81,.65c-.5,.56-1.16,.85-1.99,.85-.74,0-1.3-.23-1.68-.7-.38-.47-.52-1.05-.4-1.74,.1-.65,.4-1.18,.91-1.61,.51-.43,1.08-.65,1.74-.65s1.18,.23,1.56,.68c.38,.45,.51,1,.38,1.66,0,.13-.05,.29-.13,.47h0Zm-.94-.9c0-.61-.4-.89-.94-.89-.6,0-1.07,.32-1.32,.89h2.26Z"/>
          <path class="cls-2" d="M380.44,909.1c.27,.33,.35,.78,.26,1.34l-.48,2.73h-1.15l.45-2.59c.11-.61-.19-.92-.72-.92s-.98,.32-1.15,.96l-.45,2.55h-1.15l.78-4.45h1.15l-.09,.48c.35-.4,.81-.6,1.38-.6,.5,0,.88,.17,1.16,.5h0Z"/>
          <path class="cls-2" d="M387.9,906.95h1.15l-1.1,6.23h-1.15l.07-.43c-.38,.37-.88,.55-1.5,.55-.67,0-1.16-.25-1.5-.74-.33-.49-.43-1.07-.3-1.72,.11-.63,.4-1.16,.85-1.59,.46-.43,1.01-.65,1.66-.65s1.1,.25,1.39,.74l.42-2.39h0Zm-.71,4.01c.14-.77-.3-1.26-1.01-1.26s-1.31,.47-1.44,1.24c-.13,.75,.3,1.26,1.01,1.26s1.32-.51,1.44-1.24Z"/>
          <path class="cls-2" d="M393.64,911.42h-3.36c.05,.57,.47,.84,1.07,.84,.45,0,.81-.15,1.1-.45l.81,.65c-.5,.56-1.16,.85-1.99,.85-.74,0-1.3-.23-1.68-.7-.38-.47-.52-1.05-.4-1.74,.1-.65,.4-1.18,.91-1.61,.51-.43,1.08-.65,1.74-.65s1.18,.23,1.56,.68c.38,.45,.51,1,.38,1.66,0,.13-.05,.29-.13,.47h0Zm-.94-.9c0-.61-.4-.89-.94-.89-.6,0-1.07,.32-1.32,.89h2.26Z"/>
          <path class="cls-2" d="M396.3,912.2l1.03-.52c.11,.38,.41,.57,.87,.57,.38,0,.61-.11,.65-.35,.03-.25-.31-.38-.75-.52-.63-.16-1.44-.49-1.26-1.48,.08-.42,.29-.74,.63-.96,.35-.23,.74-.35,1.18-.35,.77,0,1.38,.35,1.66,.94l-1.03,.52c-.11-.29-.34-.45-.68-.45s-.54,.13-.6,.38c-.05,.27,.29,.41,.73,.53,.65,.15,1.47,.43,1.27,1.48-.15,.86-.89,1.3-1.88,1.3-.91,0-1.51-.37-1.8-1.1h0Z"/>
          <path class="cls-2" d="M404.25,908.72h1.15l-.78,4.45h-1.15l.09-.48c-.35,.4-.81,.61-1.38,.61-.5,0-.88-.17-1.16-.5-.27-.33-.35-.78-.26-1.34l.48-2.73h1.15l-.45,2.59c-.11,.61,.19,.92,.72,.92s.98-.32,1.15-.96l.45-2.55h0Z"/>
          <path class="cls-2" d="M414.72,909.11c.27,.34,.35,.78,.26,1.32l-.49,2.74h-1.15l.46-2.66c.1-.53-.13-.84-.6-.84-.5,0-.83,.29-.98,.84l-.46,2.66h-1.15l.46-2.66c.1-.53-.13-.84-.59-.84-.53,0-.91,.34-1.01,.98l-.45,2.53h-1.15l.78-4.45h1.15l-.08,.45c.35-.38,.77-.57,1.29-.57,.54,0,.92,.22,1.13,.67,.37-.45,.84-.67,1.42-.67,.51,0,.89,.17,1.15,.51h0Z"/>
          <path class="cls-2" d="M419.62,908.72h1.15l-.78,4.45h-1.15l.07-.41c-.38,.35-.88,.53-1.48,.53-.67,0-1.16-.25-1.5-.74-.33-.49-.43-1.07-.3-1.72,.11-.63,.4-1.16,.85-1.59,.46-.43,1.01-.65,1.66-.65s1.08,.24,1.37,.72l.11-.6h0Zm-.4,2.29l.02-.14c.1-.72-.35-1.18-1.03-1.18s-1.29,.47-1.42,1.24c-.13,.75,.29,1.26,1,1.26s1.28-.47,1.43-1.18h0Z"/>
          <path class="cls-2" d="M422.84,909.44c.32-.54,.82-.81,1.5-.8l-.22,1.28c-.57-.09-1.34,.19-1.55,1.08l-.38,2.17h-1.15l.78-4.45h1.15l-.13,.71h0Z"/>
          <path class="cls-2" d="M424.65,912.59c-.38-.47-.53-1.05-.41-1.74,.1-.65,.4-1.19,.9-1.62,.51-.43,1.1-.64,1.76-.64,.92,0,1.59,.45,1.88,1.16l-1.04,.55c-.16-.38-.47-.58-.93-.58-.35,0-.65,.11-.92,.34-.27,.22-.43,.51-.49,.85-.11,.71,.29,1.24,.98,1.24,.46,0,.83-.19,1.1-.6l.92,.6c-.45,.74-1.24,1.14-2.13,1.14-.68,0-1.23-.23-1.62-.7h0Z"/>
          <path class="cls-2" d="M432.93,908.72h1.15l-.78,4.45h-1.15l.07-.41c-.38,.35-.88,.53-1.48,.53-.67,0-1.16-.25-1.5-.74-.33-.49-.43-1.07-.3-1.72,.11-.63,.4-1.16,.85-1.59,.46-.43,1.01-.65,1.66-.65s1.08,.24,1.37,.72l.11-.6h0Zm-.4,2.29l.02-.14c.1-.72-.35-1.18-1.03-1.18s-1.29,.47-1.42,1.24c-.13,.75,.29,1.26,1,1.26s1.28-.47,1.43-1.18h0Z"/>
          <path class="cls-2" d="M434.37,912.51c.07-.43,.45-.74,.88-.74s.7,.35,.62,.77c-.07,.42-.43,.74-.89,.74-.42,0-.68-.35-.61-.77Z"/>
        </g>
      </g>
    </g>
  </g>
</svg>