<?xml version="1.0" encoding="UTF-8"?>
<svg id="Capa_2" data-name="Capa 2" xmlns="http://www.w3.org/2000/svg" viewBox="0 0 615.45 958.25">
  <defs>
    <style>
      .cls-1 {
        fill: #fff;
      }

      .cls-2 {
        opacity: .5;
      }

      .cls-3 {
        fill: none;
        stroke: #fff;
        stroke-miterlimit: 10;
      }

      .cls-4 {
        opacity: .2;
      }

      .cls-5 {
        opacity: .1;
      }
    </style>
  </defs>
  <g id="Capa_2-2" data-name="Capa 2">
    <g>
      <g>
        <g>
          <g class="cls-2">
            <path class="cls-3" d="M49.42,277.29c12.63,0,23.01,3.98,31.49,11.94,8.48,7.79,12.63,18.34,12.63,31.49s-4.15,23.7-12.63,31.66c-8.48,7.79-18.86,11.76-31.49,11.76h-13.84v34.25H.98v-121.1H49.42Zm0,53.29c5.36,0,9.52-3.81,9.52-9.86s-4.15-9.86-9.52-9.86h-13.84v19.72h13.84Z"/>
            <path class="cls-3" d="M166.36,398.22l-19.2-38.06h-8.65v38.06h-34.6v-121.1h48.44c13.32,0,24.22,3.98,32.87,11.76,8.65,7.79,12.98,17.99,12.98,30.79,0,14.36-6.92,26.3-18.68,33.39l23.87,45.15h-37.02Zm-27.85-89.27v22.49h13.15c7.44,.17,11.94-3.98,11.94-11.07s-4.5-11.42-11.94-11.42h-13.15Z"/>
            <path class="cls-3" d="M270.16,401.16c-17.99,0-33.22-6.06-45.67-18.17-12.28-12.28-18.51-27.33-18.51-45.15s6.23-32.87,18.51-44.98c12.46-12.28,27.68-18.34,45.67-18.34s33.22,6.06,45.5,18.34c12.46,12.11,18.68,27.16,18.68,44.98s-6.23,32.87-18.68,45.15c-12.28,12.11-27.51,18.17-45.5,18.17Zm0-33.91c8.48,0,15.57-2.77,21.11-8.3,5.71-5.71,8.48-12.63,8.48-21.11s-2.77-15.4-8.48-20.93c-5.54-5.71-12.63-8.48-21.11-8.48s-15.57,2.77-21.28,8.48-8.3,12.46-8.3,20.93,2.77,15.4,8.3,21.11c5.71,5.54,12.8,8.3,21.28,8.3Z"/>
            <path class="cls-3" d="M473.61,277.29v121.1h-34.6v-58.99l-26.99,45.33h-3.11l-26.99-45.33v58.99h-34.6v-121.1h34.6l28.55,49.31,28.55-49.31h34.6Z"/>
            <path class="cls-3" d="M550.77,401.16c-17.99,0-33.22-6.06-45.67-18.17-12.28-12.28-18.51-27.33-18.51-45.15s6.23-32.87,18.51-44.98c12.46-12.28,27.68-18.34,45.67-18.34s33.22,6.06,45.5,18.34c12.46,12.11,18.68,27.16,18.68,44.98s-6.23,32.87-18.68,45.15c-12.28,12.11-27.51,18.17-45.5,18.17Zm0-33.91c8.48,0,15.57-2.77,21.11-8.3,5.71-5.71,8.48-12.63,8.48-21.11s-2.77-15.4-8.48-20.93c-5.54-5.71-12.63-8.48-21.11-8.48s-15.57,2.77-21.28,8.48-8.3,12.46-8.3,20.93,2.77,15.4,8.3,21.11c5.71,5.54,12.8,8.3,21.28,8.3Z"/>
          </g>
          <g class="cls-4">
            <path class="cls-3" d="M49.42,140.22c12.63,0,23.01,3.98,31.49,11.94,8.48,7.79,12.63,18.34,12.63,31.49s-4.15,23.7-12.63,31.66c-8.48,7.79-18.86,11.76-31.49,11.76h-13.84v34.25H.98v-121.1H49.42Zm0,53.29c5.36,0,9.52-3.81,9.52-9.86s-4.15-9.86-9.52-9.86h-13.84v19.72h13.84Z"/>
            <path class="cls-3" d="M166.36,261.15l-19.2-38.06h-8.65v38.06h-34.6v-121.1h48.44c13.32,0,24.22,3.98,32.87,11.76,8.65,7.79,12.98,17.99,12.98,30.79,0,14.36-6.92,26.3-18.68,33.39l23.87,45.15h-37.02Zm-27.85-89.27v22.49h13.15c7.44,.17,11.94-3.98,11.94-11.07s-4.5-11.42-11.94-11.42h-13.15Z"/>
            <path class="cls-3" d="M270.16,264.1c-17.99,0-33.22-6.06-45.67-18.17-12.28-12.28-18.51-27.33-18.51-45.15s6.23-32.87,18.51-44.98c12.46-12.28,27.68-18.34,45.67-18.34s33.22,6.06,45.5,18.34c12.46,12.11,18.68,27.16,18.68,44.98s-6.23,32.87-18.68,45.15c-12.28,12.11-27.51,18.17-45.5,18.17Zm0-33.91c8.48,0,15.57-2.77,21.11-8.3,5.71-5.71,8.48-12.63,8.48-21.11s-2.77-15.4-8.48-20.93c-5.54-5.71-12.63-8.48-21.11-8.48s-15.57,2.77-21.28,8.48-8.3,12.46-8.3,20.93,2.77,15.4,8.3,21.11c5.71,5.54,12.8,8.3,21.28,8.3Z"/>
            <path class="cls-3" d="M473.61,140.22v121.1h-34.6v-58.99l-26.99,45.33h-3.11l-26.99-45.33v58.99h-34.6v-121.1h34.6l28.55,49.31,28.55-49.31h34.6Z"/>
            <path class="cls-3" d="M550.77,264.1c-17.99,0-33.22-6.06-45.67-18.17-12.28-12.28-18.51-27.33-18.51-45.15s6.23-32.87,18.51-44.98c12.46-12.28,27.68-18.34,45.67-18.34s33.22,6.06,45.5,18.34c12.46,12.11,18.68,27.16,18.68,44.98s-6.23,32.87-18.68,45.15c-12.28,12.11-27.51,18.17-45.5,18.17Zm0-33.91c8.48,0,15.57-2.77,21.11-8.3,5.71-5.71,8.48-12.63,8.48-21.11s-2.77-15.4-8.48-20.93c-5.54-5.71-12.63-8.48-21.11-8.48s-15.57,2.77-21.28,8.48-8.3,12.46-8.3,20.93,2.77,15.4,8.3,21.11c5.71,5.54,12.8,8.3,21.28,8.3Z"/>
          </g>
          <g class="cls-5">
            <path class="cls-3" d="M49.42,3.27c12.63,0,23.01,3.98,31.49,11.94,8.48,7.79,12.63,18.34,12.63,31.49s-4.15,23.7-12.63,31.66c-8.48,7.79-18.86,11.76-31.49,11.76h-13.84v34.25H.98V3.27H49.42Zm0,53.29c5.36,0,9.52-3.81,9.52-9.86s-4.15-9.86-9.52-9.86h-13.84v19.72h13.84Z"/>
            <path class="cls-3" d="M166.36,124.2l-19.2-38.06h-8.65v38.06h-34.6V3.1h48.44c13.32,0,24.22,3.98,32.87,11.76,8.65,7.79,12.98,17.99,12.98,30.79,0,14.36-6.92,26.3-18.68,33.39l23.87,45.15h-37.02Zm-27.85-89.27v22.49h13.15c7.44,.17,11.94-3.98,11.94-11.07s-4.5-11.42-11.94-11.42h-13.15Z"/>
            <path class="cls-3" d="M270.16,127.14c-17.99,0-33.22-6.06-45.67-18.17-12.28-12.28-18.51-27.33-18.51-45.15s6.23-32.87,18.51-44.98C236.95,6.56,252.17,.5,270.16,.5s33.22,6.06,45.5,18.34c12.46,12.11,18.68,27.16,18.68,44.98s-6.23,32.87-18.68,45.15c-12.28,12.11-27.51,18.17-45.5,18.17Zm0-33.91c8.48,0,15.57-2.77,21.11-8.3,5.71-5.71,8.48-12.63,8.48-21.11s-2.77-15.4-8.48-20.93c-5.54-5.71-12.63-8.48-21.11-8.48s-15.57,2.77-21.28,8.48-8.3,12.46-8.3,20.93,2.77,15.4,8.3,21.11c5.71,5.54,12.8,8.3,21.28,8.3Z"/>
            <path class="cls-3" d="M473.61,3.27V124.37h-34.6v-58.99l-26.99,45.33h-3.11l-26.99-45.33v58.99h-34.6V3.27h34.6l28.55,49.31L439.01,3.27h34.6Z"/>
            <path class="cls-3" d="M550.77,127.14c-17.99,0-33.22-6.06-45.67-18.17-12.28-12.28-18.51-27.33-18.51-45.15s6.23-32.87,18.51-44.98c12.46-12.28,27.68-18.34,45.67-18.34s33.22,6.06,45.5,18.34c12.46,12.11,18.68,27.16,18.68,44.98s-6.23,32.87-18.68,45.15c-12.28,12.11-27.51,18.17-45.5,18.17Zm0-33.91c8.48,0,15.57-2.77,21.11-8.3,5.71-5.71,8.48-12.63,8.48-21.11s-2.77-15.4-8.48-20.93c-5.54-5.71-12.63-8.48-21.11-8.48s-15.57,2.77-21.28,8.48-8.3,12.46-8.3,20.93,2.77,15.4,8.3,21.11c5.71,5.54,12.8,8.3,21.28,8.3Z"/>
          </g>
          <g class="cls-5">
            <path class="cls-3" d="M49.42,833.88c12.63,0,23.01,3.98,31.49,11.94,8.48,7.79,12.63,18.34,12.63,31.49s-4.15,23.7-12.63,31.66c-8.48,7.79-18.86,11.76-31.49,11.76h-13.84v34.25H.98v-121.1H49.42Zm0,53.29c5.36,0,9.52-3.81,9.52-9.86s-4.15-9.86-9.52-9.86h-13.84v19.72h13.84Z"/>
            <path class="cls-3" d="M166.36,954.81l-19.2-38.06h-8.65v38.06h-34.6v-121.1h48.44c13.32,0,24.22,3.98,32.87,11.76,8.65,7.79,12.98,17.99,12.98,30.79,0,14.36-6.92,26.3-18.68,33.39l23.87,45.15h-37.02Zm-27.85-89.27v22.49h13.15c7.44,.17,11.94-3.98,11.94-11.07s-4.5-11.42-11.94-11.42h-13.15Z"/>
            <path class="cls-3" d="M270.16,957.75c-17.99,0-33.22-6.06-45.67-18.17-12.28-12.28-18.51-27.33-18.51-45.15s6.23-32.87,18.51-44.98c12.46-12.28,27.68-18.34,45.67-18.34s33.22,6.06,45.5,18.34c12.46,12.11,18.68,27.16,18.68,44.98s-6.23,32.87-18.68,45.15c-12.28,12.11-27.51,18.17-45.5,18.17Zm0-33.91c8.48,0,15.57-2.77,21.11-8.3,5.71-5.71,8.48-12.63,8.48-21.11s-2.77-15.4-8.48-20.93c-5.54-5.71-12.63-8.48-21.11-8.48s-15.57,2.77-21.28,8.48c-5.54,5.54-8.3,12.46-8.3,20.93s2.77,15.4,8.3,21.11c5.71,5.54,12.8,8.3,21.28,8.3Z"/>
            <path class="cls-3" d="M473.61,833.88v121.1h-34.6v-58.99l-26.99,45.33h-3.11l-26.99-45.33v58.99h-34.6v-121.1h34.6l28.55,49.31,28.55-49.31h34.6Z"/>
            <path class="cls-3" d="M550.77,957.75c-17.99,0-33.22-6.06-45.67-18.17-12.28-12.28-18.51-27.33-18.51-45.15s6.23-32.87,18.51-44.98c12.46-12.28,27.68-18.34,45.67-18.34s33.22,6.06,45.5,18.34c12.46,12.11,18.68,27.16,18.68,44.98s-6.23,32.87-18.68,45.15c-12.28,12.11-27.51,18.17-45.5,18.17Zm0-33.91c8.48,0,15.57-2.77,21.11-8.3,5.71-5.71,8.48-12.63,8.48-21.11s-2.77-15.4-8.48-20.93c-5.54-5.71-12.63-8.48-21.11-8.48s-15.57,2.77-21.28,8.48c-5.54,5.54-8.3,12.46-8.3,20.93s2.77,15.4,8.3,21.11c5.71,5.54,12.8,8.3,21.28,8.3Z"/>
          </g>
          <g class="cls-4">
            <g>
              <path class="cls-3" d="M49.42,696.81c12.63,0,23.01,3.98,31.49,11.94,8.48,7.79,12.63,18.34,12.63,31.49s-4.15,23.7-12.63,31.66c-8.48,7.79-18.86,11.76-31.49,11.76h-13.84v34.25H.98v-121.1H49.42Zm0,53.29c5.36,0,9.52-3.81,9.52-9.86s-4.15-9.86-9.52-9.86h-13.84v19.72h13.84Z"/>
              <path class="cls-3" d="M166.36,817.75l-19.2-38.06h-8.65v38.06h-34.6v-121.1h48.44c13.32,0,24.22,3.98,32.87,11.76,8.65,7.79,12.98,17.99,12.98,30.79,0,14.36-6.92,26.3-18.68,33.39l23.87,45.15h-37.02Zm-27.85-89.27v22.49h13.15c7.44,.17,11.94-3.98,11.94-11.07s-4.5-11.42-11.94-11.42h-13.15Z"/>
              <path class="cls-3" d="M270.16,820.69c-17.99,0-33.22-6.05-45.67-18.17-12.28-12.28-18.51-27.33-18.51-45.15s6.23-32.87,18.51-44.98c12.46-12.28,27.68-18.34,45.67-18.34s33.22,6.05,45.5,18.34c12.46,12.11,18.68,27.16,18.68,44.98s-6.23,32.87-18.68,45.15c-12.28,12.11-27.51,18.17-45.5,18.17Zm0-33.91c8.48,0,15.57-2.77,21.11-8.3s8.48-12.63,8.48-21.11-2.77-15.4-8.48-20.93c-5.54-5.71-12.63-8.48-21.11-8.48s-15.57,2.77-21.28,8.48c-5.54,5.54-8.3,12.46-8.3,20.93s2.77,15.4,8.3,21.11c5.71,5.54,12.8,8.3,21.28,8.3Z"/>
              <path class="cls-3" d="M473.61,696.81v121.1h-34.6v-59l-26.99,45.33h-3.11l-26.99-45.33v59h-34.6v-121.1h34.6l28.55,49.31,28.55-49.31h34.6Z"/>
              <path class="cls-3" d="M550.77,820.69c-17.99,0-33.22-6.05-45.67-18.17-12.28-12.28-18.51-27.33-18.51-45.15s6.23-32.87,18.51-44.98c12.46-12.28,27.68-18.34,45.67-18.34s33.22,6.05,45.5,18.34c12.46,12.11,18.68,27.16,18.68,44.98s-6.23,32.87-18.68,45.15c-12.28,12.11-27.51,18.17-45.5,18.17Zm0-33.91c8.48,0,15.57-2.77,21.11-8.3s8.48-12.63,8.48-21.11-2.77-15.4-8.48-20.93c-5.54-5.71-12.63-8.48-21.11-8.48s-15.57,2.77-21.28,8.48c-5.54,5.54-8.3,12.46-8.3,20.93s2.77,15.4,8.3,21.11c5.71,5.54,12.8,8.3,21.28,8.3Z"/>
            </g>
          </g>
          <g class="cls-2">
            <g>
              <path class="cls-3" d="M49.42,559.86c12.63,0,23.01,3.98,31.49,11.94,8.48,7.79,12.63,18.34,12.63,31.49s-4.15,23.7-12.63,31.66c-8.48,7.79-18.86,11.76-31.49,11.76h-13.84v34.25H.98v-121.1H49.42Zm0,53.29c5.36,0,9.52-3.81,9.52-9.86s-4.15-9.86-9.52-9.86h-13.84v19.72h13.84Z"/>
              <path class="cls-3" d="M166.36,680.79l-19.2-38.06h-8.65v38.06h-34.6v-121.1h48.44c13.32,0,24.22,3.98,32.87,11.76,8.65,7.79,12.98,17.99,12.98,30.79,0,14.36-6.92,26.3-18.68,33.39l23.87,45.15h-37.02Zm-27.85-89.27v22.49h13.15c7.44,.17,11.94-3.98,11.94-11.07s-4.5-11.42-11.94-11.42h-13.15Z"/>
              <path class="cls-3" d="M270.16,683.73c-17.99,0-33.22-6.06-45.67-18.17-12.28-12.28-18.51-27.33-18.51-45.15s6.23-32.87,18.51-44.98c12.46-12.28,27.68-18.34,45.67-18.34s33.22,6.06,45.5,18.34c12.46,12.11,18.68,27.16,18.68,44.98s-6.23,32.87-18.68,45.15c-12.28,12.11-27.51,18.17-45.5,18.17Zm0-33.91c8.48,0,15.57-2.77,21.11-8.3,5.71-5.71,8.48-12.63,8.48-21.11s-2.77-15.4-8.48-20.93c-5.54-5.71-12.63-8.48-21.11-8.48s-15.57,2.77-21.28,8.48c-5.54,5.54-8.3,12.46-8.3,20.93s2.77,15.4,8.3,21.11c5.71,5.54,12.8,8.3,21.28,8.3Z"/>
              <path class="cls-3" d="M473.61,559.86v121.1h-34.6v-58.99l-26.99,45.33h-3.11l-26.99-45.33v58.99h-34.6v-121.1h34.6l28.55,49.31,28.55-49.31h34.6Z"/>
              <path class="cls-3" d="M550.77,683.73c-17.99,0-33.22-6.06-45.67-18.17-12.28-12.28-18.51-27.33-18.51-45.15s6.23-32.87,18.51-44.98c12.46-12.28,27.68-18.34,45.67-18.34s33.22,6.06,45.5,18.34c12.46,12.11,18.68,27.16,18.68,44.98s-6.23,32.87-18.68,45.15c-12.28,12.11-27.51,18.17-45.5,18.17Zm0-33.91c8.48,0,15.57-2.77,21.11-8.3,5.71-5.71,8.48-12.63,8.48-21.11s-2.77-15.4-8.48-20.93c-5.54-5.71-12.63-8.48-21.11-8.48s-15.57,2.77-21.28,8.48c-5.54,5.54-8.3,12.46-8.3,20.93s2.77,15.4,8.3,21.11c5.71,5.54,12.8,8.3,21.28,8.3Z"/>
            </g>
          </g>
        </g>
        <g>
          <g>
            <path class="cls-1" d="M18.36,548.07v-.99l9.53-.99c2.38-.26,4.27-.63,5.66-1.09,1.39-.46,2.45-1.16,3.18-2.09,.73-.92,1.16-2.05,1.29-3.38,.13-1.32,.2-2.91,.2-4.77v-112.41c0-1.85-.07-3.44-.2-4.77-.13-1.32-.56-2.45-1.29-3.38-.73-.92-1.79-1.62-3.18-2.09-1.39-.46-3.28-.83-5.66-1.09l-9.53-.99v-.99h112.01v42.1h-.4c-2.25-12.84-6.62-22.74-13.11-29.69-6.49-6.95-15.03-10.43-25.62-10.43h-26.22v65.94h14.1c5.29,0,9.86-.7,13.7-2.09,3.84-1.39,7.12-3.54,9.83-6.45,2.71-2.91,4.96-6.65,6.75-11.22s3.28-10.03,4.47-16.38h.4v74.28h-.4c-1.19-6.36-2.68-11.82-4.47-16.38s-4.04-8.31-6.75-11.22c-2.72-2.91-5.99-5.06-9.83-6.45-3.84-1.39-8.41-2.09-13.7-2.09h-14.1v67.13h28.2c10.59,0,19.13-3.48,25.62-10.43,6.49-6.95,10.85-16.85,13.11-29.69h.4v42.1H18.36Zm77.46-179.34l-39.92,29.79h-.99l16.09-29.79h24.83Z"/>
            <path class="cls-1" d="M199.88,548.07v-.99c9.8,0,16.32-1.92,19.56-5.76,3.24-3.84,2.35-10.39-2.68-19.66l-21.65-38.33-26.41,42.9c-1.86,3.05-2.68,5.79-2.48,8.24,.2,2.45,1.06,4.57,2.58,6.36,1.52,1.79,3.51,3.21,5.96,4.27,2.45,1.06,4.93,1.72,7.45,1.99v.99h-39.92v-.99c3.18-.66,5.89-1.55,8.14-2.68,2.25-1.12,4.24-2.51,5.96-4.17,1.72-1.65,3.34-3.67,4.87-6.06,1.52-2.38,3.28-5.1,5.26-8.14l27.61-44.49-20.65-36.74c-2.65-4.63-5.4-9.04-8.24-13.21-2.85-4.17-5.66-7.84-8.44-11.02-2.78-3.18-5.43-5.73-7.94-7.65-2.52-1.92-4.7-2.88-6.55-2.88v-.99h73.48v.99c-4.9,0-9.01,.47-12.31,1.39-3.31,.93-5.73,2.38-7.25,4.37-1.52,1.99-2.09,4.6-1.69,7.85,.4,3.25,1.85,7.18,4.37,11.82l21.45,37.93,26.22-42.5c1.85-3.04,2.68-5.79,2.48-8.24-.2-2.45-1.06-4.57-2.58-6.36-1.52-1.79-3.51-3.21-5.96-4.27-2.45-1.06-4.93-1.72-7.45-1.99v-.99h39.92v.99c-3.18,.66-5.89,1.56-8.14,2.68-2.25,1.13-4.24,2.52-5.96,4.17-1.72,1.66-3.35,3.67-4.87,6.06-1.52,2.38-3.28,5.1-5.26,8.14l-27.41,44.29,20.85,36.94c2.65,4.5,5.39,8.87,8.24,13.11,2.85,4.24,5.66,7.94,8.44,11.12s5.43,5.73,7.94,7.65c2.51,1.92,4.7,2.88,6.55,2.88v.99h-73.48Z"/>
            <path class="cls-1" d="M327.98,534.76c0,1.86,.07,3.44,.2,4.77,.13,1.33,.56,2.45,1.29,3.38,.73,.93,1.79,1.62,3.18,2.09,1.39,.46,3.28,.83,5.66,1.09l9.53,.99v.99h-66.53v-.99l9.53-.99c2.38-.26,4.27-.63,5.66-1.09,1.39-.46,2.45-1.16,3.18-2.09,.73-.92,1.16-2.05,1.29-3.38,.13-1.32,.2-2.91,.2-4.77v-112.41c0-1.85-.07-3.44-.2-4.77-.13-1.32-.56-2.45-1.29-3.38-.73-.92-1.79-1.62-3.18-2.09-1.39-.46-3.28-.83-5.66-1.09l-9.53-.99v-.99h66.53v.99l-9.53,.99c-2.38,.27-4.27,.63-5.66,1.09-1.39,.47-2.45,1.16-3.18,2.09-.73,.93-1.16,2.05-1.29,3.38-.13,1.33-.2,2.91-.2,4.77v112.41Z"/>
            <path class="cls-1" d="M355.79,451.15v-42.1h117.77v42.1h-.4c-2.25-12.84-6.62-22.74-13.11-29.69-6.49-6.95-15.03-10.43-25.62-10.43h-6.36v121.74c0,1.86,.07,3.57,.2,5.16,.13,1.59,.56,2.95,1.29,4.07,.73,1.13,1.79,2.02,3.18,2.68,1.39,.66,3.28,1.13,5.66,1.39l13.5,.99v.99h-74.48v-.99l13.5-.99c2.38-.26,4.27-.73,5.66-1.39,1.39-.66,2.45-1.55,3.18-2.68,.73-1.12,1.16-2.48,1.29-4.07,.13-1.59,.2-3.31,.2-5.16v-121.74h-6.36c-10.59,0-19.13,3.48-25.62,10.43-6.49,6.95-10.86,16.85-13.11,29.69h-.4Z"/>
            <path class="cls-1" d="M545.85,407.06c10.99,0,20.62,2.05,28.9,6.16,8.27,4.11,15.16,9.5,20.65,16.19,5.49,6.69,9.63,14.3,12.41,22.84s4.2,17.28,4.27,26.22c.06,8.94-1.29,17.71-4.07,26.32-2.78,8.61-6.92,16.25-12.41,22.94-5.5,6.69-12.38,12.08-20.65,16.19-8.28,4.11-17.97,6.16-29.1,6.16s-20.82-2.05-29.1-6.16c-8.28-4.1-15.16-9.5-20.65-16.19-5.5-6.68-9.63-14.33-12.41-22.94-2.78-8.61-4.14-17.38-4.07-26.32,.06-8.94,1.49-17.68,4.27-26.22,2.78-8.54,6.92-16.15,12.41-22.84,5.49-6.68,12.38-12.08,20.65-16.19,8.27-4.1,17.91-6.16,28.9-6.16Zm0,141.01c6.49,0,12.11-1.99,16.88-5.96,4.77-3.97,8.74-9.24,11.92-15.79s5.56-13.97,7.15-22.24c1.59-8.27,2.38-16.78,2.38-25.52s-.79-17.24-2.38-25.52c-1.59-8.27-4.01-15.69-7.25-22.24-3.25-6.55-7.25-11.82-12.02-15.79-4.77-3.97-10.33-5.96-16.68-5.96s-11.92,1.99-16.68,5.96c-4.77,3.97-8.77,9.23-12.02,15.79-3.25,6.55-5.66,13.97-7.25,22.24-1.59,8.28-2.38,16.78-2.38,25.52s.79,17.25,2.38,25.52c1.59,8.28,3.97,15.69,7.15,22.24s7.15,11.82,11.92,15.79,10.39,5.96,16.88,5.96Z"/>
          </g>
          <g>
            <path class="cls-1" d="M13.49,510.69c2.11,0,4.11,.2,6.02,.61,1.9,.4,3.57,1.09,5,2.05,1.43,.96,2.57,2.24,3.4,3.83,.84,1.59,1.26,3.59,1.26,6,0,2.27-.42,4.27-1.26,6-.84,1.73-1.94,3.18-3.3,4.36-1.36,1.17-2.92,2.09-4.68,2.74-1.76,.65-3.55,1.01-5.37,1.07-1.82,.07-3.61-.14-5.35-.63s-3.3-1.27-4.66-2.35c-1.36-1.08-2.46-2.44-3.3-4.09-.84-1.65-1.26-3.61-1.26-5.88,0-1.54,.12-2.82,.36-3.83,.24-1.01,.51-1.92,.81-2.74,.3-.81,.57-1.58,.81-2.31s.36-1.58,.36-2.55H13.17v.12c-1.19,.51-2.53,1.07-4.01,1.68-1.49,.61-2.88,1.34-4.17,2.21-1.3,.87-2.38,1.89-3.26,3.08s-1.32,2.63-1.32,4.34c0,1.59,.33,2.97,.99,4.13,.66,1.16,1.53,2.11,2.61,2.84s2.32,1.25,3.71,1.56c1.39,.31,2.82,.41,4.28,.3,1.46-.11,2.89-.44,4.3-.99,1.4-.55,2.66-1.32,3.77-2.31,1.11-.99,2.01-2.19,2.71-3.61,.7-1.42,1.08-3.06,1.13-4.92,.03-1.46-.18-2.84-.61-4.13-.43-1.3-1.09-2.42-1.99-3.36-.89-.95-1.99-1.69-3.3-2.25-1.31-.55-2.82-.83-4.52-.83v-.12Z"/>
            <path class="cls-1" d="M15.76,489.98h10.29c.38,0,.7-.01,.95-.04,.26-.03,.47-.12,.65-.26,.18-.15,.32-.37,.43-.65,.11-.28,.2-.67,.28-1.16l.2-1.13h.2v8.71h-3.89c.59,.41,1.15,.81,1.66,1.22s.97,.87,1.36,1.4c.39,.53,.7,1.13,.93,1.82,.23,.69,.34,1.52,.34,2.49,0,1.03-.15,1.93-.45,2.71-.3,.78-.7,1.45-1.2,1.99-.5,.54-1.07,.95-1.7,1.22-.63,.27-1.29,.41-1.97,.41-1.03,0-1.9-.22-2.61-.65-.72-.43-1.32-1.01-1.82-1.72-.5-.72-.9-1.53-1.22-2.45-.31-.92-.58-1.87-.81-2.86-.23-.99-.43-1.96-.61-2.92-.18-.96-.37-1.84-.59-2.65h-.81c-1.05,0-1.94,.14-2.65,.41-.72,.27-1.28,.63-1.7,1.07-.42,.45-.72,.97-.91,1.56-.19,.59-.28,1.2-.28,1.82s.07,1.2,.22,1.82,.34,1.2,.57,1.72c.23,.53,.49,1,.77,1.42,.28,.42,.57,.74,.87,.95h-.28c-1.27-.84-2.24-1.93-2.9-3.28-.66-1.35-.99-3.04-.99-5.07,0-1.27,.19-2.4,.57-3.38s.9-1.81,1.56-2.47c.66-.66,1.47-1.17,2.41-1.52,.95-.35,1.99-.53,3.12-.53Zm.77,5.47c.3,.84,.61,1.7,.95,2.57,.34,.88,.76,1.68,1.26,2.41,.5,.73,1.09,1.33,1.78,1.8,.69,.47,1.53,.7,2.53,.67,1.16-.03,2.01-.36,2.53-.99s.8-1.38,.83-2.25c.03-.76-.13-1.51-.47-2.27-.34-.76-.82-1.4-1.44-1.95h-7.98Z"/>
            <path class="cls-1" d="M19.86,484.71v-.12c1.13-.49,2.24-1,3.3-1.54,1.07-.54,2.01-1.17,2.84-1.9,.82-.73,1.49-1.6,2.01-2.61,.51-1.01,.77-2.22,.77-3.63,0-1.11-.28-2.05-.83-2.82-.55-.77-1.3-1.16-2.25-1.16-1.03,0-1.82,.34-2.37,1.01-.55,.68-1,1.52-1.34,2.53-.34,1.01-.65,2.11-.95,3.3-.3,1.19-.7,2.29-1.2,3.3-.5,1.01-1.19,1.86-2.07,2.55-.88,.69-2.07,1.05-3.59,1.07-.81,0-1.59-.18-2.33-.55-.74-.36-1.39-.93-1.94-1.7-.55-.77-.99-1.73-1.32-2.88-.32-1.15-.49-2.5-.49-4.07,0-1.08,.05-1.96,.14-2.65,.1-.69,.19-1.3,.28-1.82,.1-.53,.19-1.03,.28-1.52,.1-.49,.14-1.07,.14-1.74h7.25v.12c-.84,.27-1.71,.61-2.61,1.01-.9,.41-1.74,.91-2.49,1.5-.76,.59-1.38,1.3-1.86,2.11-.49,.81-.73,1.77-.73,2.88,0,1.38,.34,2.39,1.03,3.04s1.47,.97,2.33,.97c1.08,0,1.91-.32,2.49-.97,.58-.65,1.05-1.46,1.42-2.43,.36-.97,.69-2.02,.97-3.14,.28-1.12,.67-2.17,1.15-3.14,.49-.97,1.15-1.78,1.99-2.43,.84-.65,2-.97,3.48-.97,1.78,0,3.2,.76,4.23,2.27,1.04,1.51,1.56,3.82,1.56,6.93,0,.92-.05,1.78-.14,2.59s-.19,1.59-.28,2.33c-.09,.74-.19,1.47-.28,2.17s-.14,1.41-.14,2.11h-8.47Z"/>
            <path class="cls-1" d="M29.18,453.02c0,2.32-.52,4.26-1.56,5.81-1.04,1.55-2.34,2.72-3.91,3.51-1.57,.78-3.25,1.17-5.07,1.17s-3.5-.39-5.07-1.17c-1.57-.78-2.87-1.95-3.91-3.51-1.04-1.55-1.56-3.49-1.56-5.81s.52-4.25,1.56-5.79c1.04-1.54,2.34-2.7,3.91-3.46,1.57-.77,3.26-1.16,5.07-1.16s3.5,.39,5.07,1.16c1.57,.77,2.87,1.92,3.91,3.46,1.04,1.54,1.56,3.47,1.56,5.79Zm-20.67,0c0,1.05,.5,1.95,1.5,2.67,1,.73,2.25,1.28,3.75,1.64s3.13,.55,4.88,.55,3.38-.17,4.88-.53c1.5-.35,2.75-.89,3.75-1.62,1-.73,1.5-1.63,1.5-2.71s-.5-2.02-1.5-2.74c-1-.72-2.25-1.25-3.75-1.6-1.5-.35-3.13-.53-4.88-.53s-3.38,.18-4.88,.55c-1.5,.37-2.75,.91-3.75,1.64-1,.73-1.5,1.62-1.5,2.67Z"/>
            <path class="cls-1" d="M19.86,439.73v-.12c1.13-.49,2.24-1,3.3-1.54,1.07-.54,2.01-1.17,2.84-1.9,.82-.73,1.49-1.6,2.01-2.61,.51-1.01,.77-2.22,.77-3.63,0-1.11-.28-2.05-.83-2.82-.55-.77-1.3-1.15-2.25-1.15-1.03,0-1.82,.34-2.37,1.01-.55,.68-1,1.52-1.34,2.53-.34,1.01-.65,2.11-.95,3.3-.3,1.19-.7,2.29-1.2,3.3-.5,1.01-1.19,1.86-2.07,2.55-.88,.69-2.07,1.05-3.59,1.07-.81,0-1.59-.18-2.33-.55-.74-.36-1.39-.93-1.94-1.7s-.99-1.73-1.32-2.88c-.32-1.15-.49-2.51-.49-4.07,0-1.08,.05-1.97,.14-2.65,.1-.69,.19-1.3,.28-1.82,.1-.53,.19-1.03,.28-1.52,.1-.49,.14-1.07,.14-1.74h7.25v.12c-.84,.27-1.71,.61-2.61,1.01-.9,.41-1.74,.91-2.49,1.5-.76,.59-1.38,1.3-1.86,2.11-.49,.81-.73,1.77-.73,2.88,0,1.38,.34,2.39,1.03,3.04,.69,.65,1.47,.97,2.33,.97,1.08,0,1.91-.32,2.49-.97,.58-.65,1.05-1.46,1.42-2.43,.36-.97,.69-2.02,.97-3.14,.28-1.12,.67-2.17,1.15-3.14,.49-.97,1.15-1.78,1.99-2.43,.84-.65,2-.97,3.48-.97,1.78,0,3.2,.76,4.23,2.27,1.04,1.51,1.56,3.82,1.56,6.93,0,.92-.05,1.78-.14,2.59-.09,.81-.19,1.59-.28,2.33-.09,.74-.19,1.47-.28,2.17-.09,.7-.14,1.4-.14,2.11h-8.47Z"/>
          </g>
          <g>
            <path class="cls-1" d="M142.86,464.42c0-.38-.01-.7-.04-.95-.03-.26-.12-.47-.26-.65-.15-.18-.36-.32-.65-.43-.28-.11-.67-.2-1.15-.28l-1.13-.2v-.2c1.19-.05,2.11-.1,2.78-.14,.66-.04,1.26-.1,1.8-.18,.54-.08,1.11-.19,1.7-.32,.59-.13,1.4-.32,2.43-.57v27.68c0,.38,.01,.7,.04,.97,.03,.27,.11,.49,.26,.67,.15,.18,.36,.32,.65,.43,.28,.11,.67,.19,1.16,.24l1.54,.2v.2h-9.12v-1.01c-.78,.51-1.59,.89-2.43,1.11-.84,.23-1.69,.33-2.55,.3-2.22-.03-4.08-.57-5.59-1.62-1.51-1.05-2.66-2.36-3.44-3.91-.78-1.55-1.2-3.23-1.24-5.02-.04-1.8,.3-3.47,1.03-5.02,.73-1.55,1.86-2.86,3.4-3.91,1.54-1.05,3.48-1.59,5.84-1.62,.86-.03,1.71,.07,2.55,.3,.84,.23,1.65,.6,2.43,1.11v-7.17Zm-3.97,6.2c-1.32,0-2.42,.51-3.28,1.52-.86,1.01-1.5,2.26-1.9,3.75-.41,1.49-.59,3.1-.57,4.84,.03,1.74,.26,3.36,.71,4.84,.45,1.49,1.09,2.74,1.95,3.75,.85,1.01,1.88,1.52,3.1,1.52,.62,0,1.26-.09,1.92-.26,.66-.18,1.34-.49,2.05-.95v-17.79c-.7-.46-1.38-.78-2.05-.95-.66-.18-1.3-.26-1.92-.26Z"/>
            <path class="cls-1" d="M172.89,480.18c-.3,1.49-.68,2.9-1.13,4.25-.46,1.35-1.07,2.53-1.82,3.55-.76,1.01-1.7,1.82-2.84,2.41-1.13,.59-2.55,.89-4.25,.89-2.13,0-3.93-.52-5.39-1.56-1.46-1.04-2.58-2.34-3.36-3.91-.78-1.57-1.21-3.25-1.28-5.07-.07-1.81,.22-3.5,.87-5.07,.65-1.57,1.66-2.87,3.04-3.91,1.38-1.04,3.13-1.56,5.27-1.56,2.89,0,5.1,.68,6.63,2.03,1.53,1.35,2.44,3.5,2.74,6.44h-14.55c.11,.89,.34,1.77,.69,2.63,.35,.87,.83,1.63,1.44,2.31s1.34,1.22,2.21,1.64c.86,.42,1.85,.64,2.96,.67,1.05,.03,2.02-.03,2.9-.18,.88-.15,1.67-.43,2.39-.85,.72-.42,1.36-1.01,1.92-1.78s1.05-1.75,1.46-2.94h.12Zm-16.13-1.9h4.82c1.11,0,2.03-.19,2.76-.57,.73-.38,1.27-.85,1.62-1.42,.35-.57,.53-1.18,.55-1.84,.01-.66-.14-1.28-.47-1.84s-.8-1.04-1.44-1.42c-.64-.38-1.41-.57-2.33-.57-.97,0-1.82,.22-2.55,.65-.73,.43-1.33,1.01-1.8,1.72s-.8,1.53-.99,2.45c-.19,.92-.24,1.86-.16,2.84Z"/>
          </g>
        </g>
      </g>
      <g id="White">
        <g>
          <path class="cls-1" d="M167.91,882.24c-4.24,0-7.85-1.47-10.83-4.41-2.94-2.98-4.41-6.59-4.41-10.87s1.47-7.89,4.41-10.83c2.98-2.98,6.59-4.45,10.83-4.45s7.85,1.47,10.83,4.45c2.98,2.94,4.45,6.55,4.45,10.83s-1.47,7.89-4.45,10.87c-2.98,2.94-6.59,4.41-10.83,4.41Zm0-5.67c2.69,0,4.95-.88,6.76-2.69s2.73-4.11,2.73-6.93-.92-5.12-2.73-6.93-4.07-2.73-6.76-2.73-4.95,.92-6.76,2.73c-1.8,1.8-2.73,4.11-2.73,6.93s.92,5.12,2.73,6.93,4.07,2.69,6.76,2.69Z"/>
          <path class="cls-1" d="M192.42,864.27c1.01-2.69,3.53-4.03,6.38-4.03v6.04c-1.64-.21-3.15,.13-4.45,1.01s-1.93,2.31-1.93,4.32v10.03h-5.41v-20.99h5.41s0,3.61,0,3.61Z"/>
          <path class="cls-1" d="M201.32,854.83c0-1.8,1.51-3.36,3.32-3.36s3.36,1.55,3.36,3.36-1.51,3.32-3.36,3.32-3.32-1.51-3.32-3.32Zm.63,26.82v-20.99h5.41v20.99h-5.41Z"/>
          <path class="cls-1" d="M228.39,860.66h5.29v19.98c0,3.23-1.09,5.71-3.23,7.43-2.14,1.72-4.7,2.56-7.72,2.56-4.53,0-8.1-1.76-9.95-5.12l4.62-2.64c1.05,1.97,2.9,2.94,5.5,2.94,3.4,0,5.5-1.85,5.5-5.16v-2.27c-1.59,2.14-3.82,3.19-6.72,3.19s-5.46-1.05-7.47-3.11c-1.97-2.1-2.98-4.66-2.98-7.64s1.01-5.5,3.02-7.6,4.49-3.15,7.43-3.15,5.12,1.05,6.72,3.19v-2.6Zm-1.68,6.09c-1.09-1.09-2.48-1.64-4.2-1.64s-3.11,.55-4.24,1.64c-1.09,1.05-1.64,2.43-1.64,4.07,0,3.36,2.48,5.75,5.88,5.75s5.88-2.39,5.88-5.75c0-1.64-.55-3.02-1.68-4.07Z"/>
          <path class="cls-1" d="M243.16,873.38c.71,2.64,2.69,3.95,5.92,3.95,2.06,0,3.65-.71,4.7-2.1l4.37,2.52c-2.06,2.98-5.12,4.49-9.15,4.49-3.48,0-6.25-1.05-8.35-3.15s-3.15-4.74-3.15-7.93,1.05-5.79,3.11-7.89c2.06-2.14,4.74-3.19,7.97-3.19,3.06,0,5.62,1.05,7.6,3.19,2.01,2.14,3.02,4.74,3.02,7.89,0,.71-.08,1.43-.21,2.22h-15.82Zm10.62-4.2c-.63-2.85-2.73-4.24-5.2-4.24-2.9,0-4.87,1.55-5.5,4.24h10.7Z"/>
          <path class="cls-1" d="M280.31,862.38c1.51,1.55,2.27,3.65,2.27,6.38v12.89h-5.41v-12.21c0-2.81-1.64-4.32-4.16-4.32-2.81,0-4.62,1.72-4.62,5.2v11.33h-5.41v-20.99h5.41v2.35c1.3-1.97,3.4-2.94,6.25-2.94,2.31,0,4.2,.76,5.67,2.31h0Z"/>
          <path class="cls-1" d="M285.93,874.97l4.95-2.9c1.13,2.98,3.4,4.49,6.76,4.49s4.7-1.3,4.7-3.11c0-1.05-.46-1.85-1.39-2.39-.92-.59-2.56-1.22-4.95-1.89-2.64-.8-4.24-1.43-6.09-2.73-1.8-1.34-2.77-3.36-2.77-6.04s.92-4.78,2.81-6.34c1.89-1.59,4.2-2.39,6.84-2.39,4.74,0,8.48,2.43,10.49,6.59l-4.87,2.81c-1.18-2.52-3.06-3.78-5.62-3.78-2.39,0-3.86,1.22-3.86,2.94,0,.92,.38,1.68,1.13,2.27,.8,.55,2.27,1.18,4.45,1.85l2.01,.67c.46,.13,1.09,.38,1.89,.71,.8,.29,1.43,.59,1.85,.88,.88,.55,2.22,1.59,2.77,2.6,.63,1.01,1.09,2.48,1.09,4.16,0,2.73-1.01,4.87-2.98,6.46-1.97,1.59-4.53,2.39-7.68,2.39-5.83,0-9.91-2.77-11.54-7.26h0Z"/>
          <path class="cls-1" d="M323.04,865.87h-4.74v8.73c0,2.27,1.64,2.31,4.74,2.14v4.91c-7.43,.84-10.16-1.3-10.16-7.05v-8.73h-3.65v-5.2h3.65v-4.24l5.41-1.64v5.88h4.74v5.2Z"/>
          <path class="cls-1" d="M341.04,860.66h5.41v20.99h-5.41v-2.35c-1.3,1.97-3.4,2.94-6.25,2.94-2.31,0-4.2-.76-5.71-2.31-1.47-1.55-2.22-3.65-2.22-6.38v-12.89h5.41v12.21c0,2.81,1.64,4.32,4.16,4.32,2.81,0,4.62-1.72,4.62-5.2v-11.33h0Z"/>
          <path class="cls-1" d="M367.32,852.27h5.41v29.38h-5.41v-2.48c-1.59,2.06-3.86,3.06-6.8,3.06s-5.25-1.05-7.26-3.19c-1.97-2.14-2.98-4.78-2.98-7.89s1.01-5.71,2.98-7.85c2.01-2.14,4.45-3.23,7.26-3.23s5.2,1.01,6.8,3.06v-10.87Zm-5.79,24.81c1.68,0,3.06-.55,4.16-1.64,1.09-1.13,1.64-2.56,1.64-4.28s-.55-3.15-1.64-4.24c-1.09-1.13-2.48-1.68-4.16-1.68s-3.06,.55-4.2,1.68c-1.09,1.09-1.64,2.52-1.64,4.24s.55,3.15,1.64,4.28c1.13,1.09,2.52,1.64,4.2,1.64Z"/>
          <path class="cls-1" d="M377.06,854.83c0-1.8,1.51-3.36,3.32-3.36s3.36,1.55,3.36,3.36-1.51,3.32-3.36,3.32-3.32-1.51-3.32-3.32Zm.63,26.82v-20.99h5.41v20.99h-5.41Z"/>
          <path class="cls-1" d="M398.04,882.24c-3.11,0-5.75-1.05-7.89-3.19s-3.19-4.78-3.19-7.89,1.05-5.71,3.19-7.85,4.78-3.23,7.89-3.23,5.75,1.09,7.89,3.23,3.23,4.74,3.23,7.85-1.09,5.75-3.23,7.89c-2.14,2.14-4.78,3.19-7.89,3.19Zm0-5.29c1.64,0,2.98-.55,4.07-1.64s1.64-2.48,1.64-4.16-.55-3.06-1.64-4.16-2.43-1.64-4.07-1.64-2.98,.55-4.07,1.64c-1.05,1.09-1.59,2.48-1.59,4.16s.55,3.06,1.59,4.16c1.09,1.09,2.43,1.64,4.07,1.64Z"/>
          <path class="cls-1" d="M421.34,868.93c3.06,.63,7.05,2.1,7.01,6.59,0,2.14-.8,3.82-2.43,4.99-1.59,1.13-3.61,1.72-6,1.72-4.32,0-7.26-1.68-8.81-4.99l4.7-2.64c.63,1.8,1.97,2.73,4.11,2.73,1.93,0,2.9-.59,2.9-1.8,0-1.13-1.68-1.76-3.82-2.31-3.11-.8-7.01-2.1-7.01-6.46,0-2.06,.76-3.69,2.27-4.87,1.55-1.22,3.44-1.8,5.71-1.8,3.4,0,6.34,1.59,7.97,4.45l-4.62,2.52c-.67-1.43-1.8-2.14-3.36-2.14-1.39,0-2.43,.67-2.43,1.72,0,1.13,1.68,1.76,3.82,2.31h0Z"/>
        </g>
        <path class="cls-1" d="M434.21,851.28c1.6,0,2.96,.56,4.09,1.69,1.14,1.14,1.7,2.5,1.7,4.09s-.56,2.96-1.7,4.09-2.5,1.69-4.09,1.69-2.96-.56-4.09-1.69c-1.14-1.14-1.69-2.5-1.69-4.09s.56-2.96,1.69-4.09c1.14-1.14,2.5-1.69,4.09-1.69Zm3.66,9.5c1.01-1.02,1.52-2.26,1.52-3.71s-.51-2.69-1.52-3.71-2.24-1.54-3.66-1.54-2.67,.51-3.68,1.54-1.52,2.26-1.52,3.71,.51,2.69,1.52,3.71,2.24,1.54,3.68,1.54,2.66-.51,3.66-1.54Zm-2.06-2.93l1.22,2.17h-1.84l-.85-1.76h-.61v1.76h-1.71v-5.92h2.38c1.3,0,2.29,.82,2.29,1.97,0,.77-.29,1.36-.88,1.77h0Zm-2.08-2.19v1.17h.53c.45,0,.72-.24,.72-.58,0-.4-.24-.59-.72-.59h-.53Z"/>
        <g>
          <path class="cls-1" d="M307.2,888.67l1.11-.57c.15,.61,.59,.92,1.3,.92,.65,0,1.03-.26,1.1-.65,.1-.45-.24-.64-1.1-.92-.58-.19-1.02-.45-1.32-.74-.29-.3-.39-.73-.29-1.27,.1-.56,.37-.99,.79-1.27,.43-.29,.92-.43,1.48-.43,1.02,0,1.77,.51,2.09,1.39l-1.08,.57c-.22-.52-.59-.77-1.11-.77s-.84,.23-.92,.6c-.1,.43,.24,.64,1.06,.93,.21,.08,.32,.11,.53,.21,.27,.11,.5,.24,.72,.43,.33,.29,.53,.72,.41,1.4-.21,1.11-1.15,1.72-2.45,1.72s-2.09-.59-2.31-1.54h0Z"/>
          <path class="cls-1" d="M313.01,889.47c-.37-.5-.5-1.08-.37-1.75,.13-.63,.43-1.16,.92-1.58s1.08-.63,1.76-.63,1.22,.25,1.58,.75c.37,.49,.5,1.07,.38,1.72-.11,.63-.41,1.16-.92,1.59-.5,.43-1.07,.64-1.71,.64-.74,0-1.29-.25-1.66-.74h0Zm2.65-.72c.27-.22,.43-.53,.5-.9,.14-.74-.29-1.22-.97-1.22s-1.26,.48-1.4,1.23c-.13,.75,.29,1.23,.96,1.23,.34,0,.64-.11,.91-.34h0Z"/>
          <path class="cls-1" d="M324.58,886.01c.27,.34,.35,.78,.26,1.32l-.49,2.74h-1.15l.46-2.66c.1-.53-.13-.84-.6-.84-.5,0-.83,.29-.98,.84l-.46,2.66h-1.15l.46-2.66c.1-.53-.13-.84-.59-.84-.53,0-.91,.34-1.01,.98l-.45,2.53h-1.15l.78-4.45h1.15l-.08,.45c.35-.38,.77-.57,1.29-.57,.54,0,.92,.22,1.13,.67,.37-.45,.84-.67,1.42-.67,.51,0,.89,.17,1.15,.51h0Z"/>
          <path class="cls-1" d="M325.86,889.47c-.37-.5-.5-1.08-.37-1.75,.13-.63,.43-1.16,.92-1.58s1.08-.63,1.76-.63,1.22,.25,1.58,.75c.37,.49,.5,1.07,.38,1.72-.11,.63-.41,1.16-.92,1.59-.5,.43-1.07,.64-1.71,.64-.74,0-1.29-.25-1.66-.74h0Zm2.65-.72c.27-.22,.43-.53,.5-.9,.14-.74-.29-1.22-.97-1.22s-1.26,.48-1.4,1.23c-.13,.75,.29,1.23,.96,1.23,.34,0,.64-.11,.91-.34h0Z"/>
          <path class="cls-1" d="M330.36,889.11l1.03-.52c.11,.38,.41,.57,.87,.57,.38,0,.61-.11,.65-.35,.03-.25-.31-.38-.75-.52-.63-.16-1.44-.49-1.26-1.48,.08-.42,.29-.74,.63-.96,.35-.23,.74-.35,1.18-.35,.77,0,1.38,.35,1.66,.94l-1.03,.52c-.11-.29-.34-.45-.68-.45s-.54,.13-.6,.38c-.05,.27,.29,.41,.73,.53,.65,.15,1.47,.43,1.27,1.48-.15,.86-.89,1.3-1.88,1.3-.91,0-1.51-.37-1.8-1.1h0Z"/>
          <path class="cls-1" d="M341.52,888.33h-3.36c.05,.57,.47,.84,1.07,.84,.45,0,.81-.15,1.1-.45l.81,.65c-.5,.56-1.16,.85-1.99,.85-.74,0-1.3-.23-1.68-.7-.38-.47-.52-1.05-.4-1.74,.1-.65,.4-1.18,.91-1.61,.51-.43,1.08-.65,1.74-.65s1.18,.23,1.56,.68c.38,.45,.51,1,.38,1.66,0,.13-.05,.29-.13,.47h0Zm-.94-.9c0-.61-.4-.89-.94-.89-.6,0-1.07,.32-1.32,.89h2.26Z"/>
          <path class="cls-1" d="M342.07,890.08l.49-2.79,.65-3.7h1.15l-.66,3.75-.48,2.75h-1.14Z"/>
          <path class="cls-1" d="M347.05,889.47c-.37-.5-.5-1.08-.37-1.75,.13-.63,.43-1.16,.92-1.58s1.08-.63,1.76-.63,1.22,.25,1.58,.75c.37,.49,.5,1.07,.38,1.72-.11,.63-.41,1.16-.92,1.59-.5,.43-1.07,.64-1.71,.64-.74,0-1.29-.25-1.66-.74h0Zm2.65-.72c.27-.22,.43-.53,.5-.9,.14-.74-.29-1.22-.97-1.22s-1.26,.48-1.4,1.23c-.13,.75,.29,1.23,.96,1.23,.34,0,.64-.11,.91-.34h0Z"/>
          <path class="cls-1" d="M353.59,886.35c.32-.54,.82-.81,1.5-.8l-.22,1.28c-.57-.09-1.34,.19-1.55,1.08l-.38,2.17h-1.15l.78-4.45h1.15l-.13,.71h0Z"/>
          <path class="cls-1" d="M354.96,890.08l.78-4.45h1.15l-.78,4.45h-1.15Zm1.69-6.4c.39,0,.66,.33,.6,.71-.07,.39-.43,.7-.83,.7s-.65-.32-.59-.7c.06-.39,.43-.71,.82-.71h0Z"/>
          <path class="cls-1" d="M361.35,885.63h1.12l-.75,4.24c-.25,1.45-1.24,2.12-2.57,2.12-.99,0-1.72-.37-2.04-1.08l1.02-.53c.19,.4,.55,.6,1.1,.6,.75,0,1.26-.38,1.37-1.1l.07-.39c-.39,.39-.88,.59-1.48,.59-.69,0-1.19-.23-1.52-.7-.33-.47-.45-1.02-.34-1.67,.1-.61,.37-1.12,.83-1.54,.45-.43,1-.64,1.63-.64,.69,0,1.16,.26,1.44,.76l.11-.64h0Zm-.39,2.2l.02-.09c.11-.7-.35-1.16-1.06-1.16-.35,0-.67,.11-.94,.33s-.43,.51-.5,.86c-.06,.35,0,.64,.21,.87,.19,.22,.47,.34,.84,.34,.7,0,1.3-.47,1.44-1.16h0Z"/>
          <path class="cls-1" d="M367.39,888.33h-3.36c.05,.57,.47,.84,1.07,.84,.45,0,.81-.15,1.1-.45l.81,.65c-.5,.56-1.16,.85-1.99,.85-.74,0-1.3-.23-1.68-.7-.38-.47-.52-1.05-.4-1.74,.1-.65,.4-1.18,.91-1.61,.51-.43,1.08-.65,1.74-.65s1.18,.23,1.56,.68c.38,.45,.51,1,.38,1.66,0,.13-.05,.29-.13,.47h0Zm-.94-.9c0-.61-.4-.89-.94-.89-.6,0-1.07,.32-1.32,.89h2.26Z"/>
          <path class="cls-1" d="M372.27,886.01c.27,.33,.35,.78,.26,1.34l-.48,2.73h-1.15l.45-2.59c.11-.61-.19-.92-.72-.92s-.98,.32-1.15,.96l-.45,2.55h-1.15l.78-4.45h1.15l-.09,.48c.35-.4,.81-.6,1.38-.6,.5,0,.88,.17,1.16,.5h0Z"/>
          <path class="cls-1" d="M379.73,883.85h1.15l-1.1,6.23h-1.15l.07-.43c-.38,.37-.88,.55-1.5,.55-.67,0-1.16-.25-1.5-.74-.33-.49-.43-1.07-.3-1.72,.11-.63,.4-1.16,.85-1.59,.46-.43,1.01-.65,1.66-.65s1.1,.25,1.39,.74l.42-2.39h0Zm-.71,4.01c.14-.77-.3-1.26-1.01-1.26s-1.31,.47-1.44,1.24c-.13,.75,.3,1.26,1.01,1.26s1.32-.51,1.44-1.24Z"/>
          <path class="cls-1" d="M385.47,888.33h-3.36c.05,.57,.47,.84,1.07,.84,.45,0,.81-.15,1.1-.45l.81,.65c-.5,.56-1.16,.85-1.99,.85-.74,0-1.3-.23-1.68-.7-.38-.47-.52-1.05-.4-1.74,.1-.65,.4-1.18,.91-1.61,.51-.43,1.08-.65,1.74-.65s1.18,.23,1.56,.68c.38,.45,.51,1,.38,1.66,0,.13-.05,.29-.13,.47h0Zm-.94-.9c0-.61-.4-.89-.94-.89-.6,0-1.07,.32-1.32,.89h2.26Z"/>
          <path class="cls-1" d="M388.13,889.11l1.03-.52c.11,.38,.41,.57,.87,.57,.38,0,.61-.11,.65-.35,.03-.25-.31-.38-.75-.52-.63-.16-1.44-.49-1.26-1.48,.08-.42,.29-.74,.63-.96,.35-.23,.74-.35,1.18-.35,.77,0,1.38,.35,1.66,.94l-1.03,.52c-.11-.29-.34-.45-.68-.45s-.54,.13-.6,.38c-.05,.27,.29,.41,.73,.53,.65,.15,1.47,.43,1.27,1.48-.15,.86-.89,1.3-1.88,1.3-.91,0-1.51-.37-1.8-1.1h0Z"/>
          <path class="cls-1" d="M396.07,885.63h1.15l-.78,4.45h-1.15l.09-.48c-.35,.4-.81,.61-1.38,.61-.5,0-.88-.17-1.16-.5-.27-.33-.35-.78-.26-1.34l.48-2.73h1.15l-.45,2.59c-.11,.61,.19,.92,.72,.92s.98-.32,1.15-.96l.45-2.55h0Z"/>
          <path class="cls-1" d="M406.55,886.01c.27,.34,.35,.78,.26,1.32l-.49,2.74h-1.15l.46-2.66c.1-.53-.13-.84-.6-.84-.5,0-.83,.29-.98,.84l-.46,2.66h-1.15l.46-2.66c.1-.53-.13-.84-.59-.84-.53,0-.91,.34-1.01,.98l-.45,2.53h-1.15l.78-4.45h1.15l-.08,.45c.35-.38,.77-.57,1.29-.57,.54,0,.92,.22,1.13,.67,.37-.45,.84-.67,1.42-.67,.51,0,.89,.17,1.15,.51h0Z"/>
          <path class="cls-1" d="M411.44,885.63h1.15l-.78,4.45h-1.15l.07-.41c-.38,.35-.88,.53-1.48,.53-.67,0-1.16-.25-1.5-.74-.33-.49-.43-1.07-.3-1.72,.11-.63,.4-1.16,.85-1.59,.46-.43,1.01-.65,1.66-.65s1.08,.24,1.37,.72l.11-.6h0Zm-.4,2.29l.02-.14c.1-.72-.35-1.18-1.03-1.18s-1.29,.47-1.42,1.24c-.13,.75,.29,1.26,1,1.26s1.28-.47,1.43-1.18h0Z"/>
          <path class="cls-1" d="M414.66,886.35c.32-.54,.82-.81,1.5-.8l-.22,1.28c-.57-.09-1.34,.19-1.55,1.08l-.38,2.17h-1.15l.78-4.45h1.15l-.13,.71h0Z"/>
          <path class="cls-1" d="M416.48,889.5c-.38-.47-.53-1.05-.41-1.74,.1-.65,.4-1.19,.9-1.62,.51-.43,1.1-.64,1.76-.64,.92,0,1.59,.45,1.88,1.16l-1.04,.55c-.16-.38-.47-.58-.93-.58-.35,0-.65,.11-.92,.34-.27,.22-.43,.51-.49,.85-.11,.71,.29,1.24,.98,1.24,.46,0,.83-.19,1.1-.6l.92,.6c-.45,.74-1.24,1.14-2.13,1.14-.68,0-1.23-.23-1.62-.7h0Z"/>
          <path class="cls-1" d="M424.75,885.63h1.15l-.78,4.45h-1.15l.07-.41c-.38,.35-.88,.53-1.48,.53-.67,0-1.16-.25-1.5-.74-.33-.49-.43-1.07-.3-1.72,.11-.63,.4-1.16,.85-1.59,.46-.43,1.01-.65,1.66-.65s1.08,.24,1.37,.72l.11-.6h0Zm-.4,2.29l.02-.14c.1-.72-.35-1.18-1.03-1.18s-1.29,.47-1.42,1.24c-.13,.75,.29,1.26,1,1.26s1.28-.47,1.43-1.18h0Z"/>
          <path class="cls-1" d="M426.19,889.42c.07-.43,.45-.74,.88-.74s.7,.35,.62,.77c-.07,.42-.43,.74-.89,.74-.42,0-.68-.35-.61-.77Z"/>
        </g>
      </g>
    </g>
  </g>
</svg>