<?xml version="1.0" encoding="UTF-8"?>
<svg id="Black_Trazos" data-name="Black Trazos" xmlns="http://www.w3.org/2000/svg" viewBox="0 0 414.5 414.5">
  <defs>
    <style>
      .cls-1 {
        fill: #fff;
      }

      .cls-2 {
        fill: #121212;
      }
    </style>
  </defs>
  <g id="Logo_Origen_Studios" data-name="Logo Origen Studios">
    <g id="Circulos">
      <path class="cls-2" d="M207.25,286.53c-43.72,0-79.28-35.56-79.28-79.28s35.56-79.28,79.28-79.28,79.28,35.56,79.28,79.28-35.56,79.28-79.28,79.28Zm0-157.56c-43.16,0-78.28,35.12-78.28,78.28s35.12,78.28,78.28,78.28h0c43.16,0,78.28-35.12,78.28-78.28s-35.12-78.28-78.28-78.28Z"/>
      <path class="cls-1" d="M207.25,335.36c-70.64,0-128.11-57.47-128.11-128.11S136.61,79.14,207.25,79.14h0c70.64,0,128.11,57.47,128.11,128.11s-57.47,128.11-128.11,128.11h0Zm0-254.22c-69.54,0-126.11,56.57-126.11,126.11s56.57,126.11,126.11,126.11,126.11-56.57,126.11-126.11-56.57-126.11-126.11-126.11h0Z"/>
    </g>
    <g id="Texto">
      <g>
        <path class="cls-1" d="M144.47,223.77c-4.42,0-8.17-1.53-11.28-4.59-3.06-3.1-4.59-6.86-4.59-11.32s1.53-8.22,4.59-11.28,6.86-4.63,11.28-4.63,8.18,1.53,11.28,4.63c3.1,3.06,4.63,6.82,4.63,11.28s-1.53,8.22-4.63,11.32c-3.1,3.06-6.86,4.59-11.28,4.59h0Zm0-5.9c2.8,0,5.16-.92,7.04-2.8s2.84-4.28,2.84-7.21-.96-5.33-2.84-7.21c-1.88-1.88-4.24-2.84-7.04-2.84s-5.16,.96-7.04,2.84-2.84,4.28-2.84,7.21,.96,5.33,2.84,7.21,4.24,2.8,7.04,2.8Z"/>
        <path class="cls-1" d="M181.41,223.15l-6.16-10.62h-4.59v10.62h-6.03v-30.6h12.24c2.84,0,5.25,1.01,7.21,2.97s2.97,4.37,2.97,7.17c0,3.8-2.36,7.3-5.9,8.92l6.78,11.54h-6.52Zm-10.75-24.96v9.05h6.21c2.27,0,4.15-2.05,4.15-4.55s-1.88-4.5-4.15-4.5h-6.21Z"/>
        <path class="cls-1" d="M191.47,192.55h6.03v30.6h-6.03v-30.6Z"/>
        <path class="cls-1" d="M233.22,206.72v2.36c0,4.37-1.4,7.91-4.2,10.62-2.8,2.71-6.43,4.07-10.84,4.07-4.72,0-8.66-1.53-11.76-4.59-3.1-3.1-4.63-6.86-4.63-11.28s1.53-8.22,4.59-11.32c3.1-3.1,6.91-4.63,11.45-4.63,5.73,0,10.71,2.8,13.33,7.13l-5.16,2.97c-1.44-2.49-4.59-4.24-8.22-4.24-2.93,0-5.33,.96-7.21,2.89-1.88,1.88-2.8,4.28-2.8,7.21s.96,5.29,2.84,7.17c1.92,1.88,4.46,2.8,7.61,2.8,4.68,0,7.83-2.19,8.92-5.81h-9.27v-5.33h15.34v-.02Z"/>
        <path class="cls-1" d="M243.53,217.38h12.9v5.77h-18.93v-30.6h18.71v5.77h-12.68v6.51h11.58v5.68h-11.58v6.86h0Z"/>
        <path class="cls-1" d="M278.38,192.55h6.03v30.6h-4.59l-13.12-18.71v18.71h-6.03v-30.6h4.59l13.12,18.67v-18.67h0Z"/>
      </g>
      <g id="Texto-2">
        <g>
          <path class="cls-1" d="M184,236.84l1.62-.95c.37,.97,1.11,1.47,2.21,1.47s1.53-.42,1.53-1.01c0-.34-.15-.6-.45-.78-.3-.19-.84-.4-1.62-.62-.86-.26-1.38-.47-1.99-.89-.59-.44-.9-1.1-.9-1.97s.3-1.56,.92-2.07c.62-.52,1.37-.78,2.23-.78,1.55,0,2.77,.79,3.43,2.15l-1.59,.92c-.38-.82-1-1.23-1.84-1.23-.78,0-1.26,.4-1.26,.96,0,.3,.12,.55,.37,.74,.26,.18,.74,.38,1.45,.6l.66,.22c.15,.04,.36,.12,.62,.23,.26,.1,.47,.19,.6,.29,.29,.18,.73,.52,.9,.85,.21,.33,.36,.81,.36,1.36,0,.89-.33,1.59-.97,2.11s-1.48,.78-2.51,.78c-1.91,0-3.23-.9-3.77-2.37h0Z"/>
          <path class="cls-1" d="M196.11,233.87h-1.55v2.85c0,.74,.53,.75,1.55,.7v1.6c-2.43,.27-3.32-.42-3.32-2.3v-2.85h-1.19v-1.7h1.19v-1.38l1.77-.53v1.92h1.55v1.7h0Z"/>
          <path class="cls-1" d="M201.99,232.17h1.77v6.85h-1.77v-.77c-.42,.64-1.11,.96-2.04,.96-.75,0-1.37-.25-1.86-.75-.48-.51-.73-1.19-.73-2.08v-4.21h1.77v3.99c0,.92,.53,1.41,1.36,1.41,.92,0,1.51-.56,1.51-1.7v-3.7h-.01Z"/>
          <path class="cls-1" d="M210.57,229.43h1.77v9.59h-1.77v-.81c-.52,.67-1.26,1-2.22,1s-1.71-.34-2.37-1.04c-.64-.7-.97-1.56-.97-2.58s.33-1.86,.97-2.56c.66-.7,1.45-1.05,2.37-1.05s1.7,.33,2.22,1v-3.55Zm-1.89,8.1c.55,0,1-.18,1.36-.54,.36-.37,.54-.84,.54-1.4s-.18-1.03-.54-1.38c-.36-.37-.81-.55-1.36-.55s-1,.18-1.37,.55-.53,.82-.53,1.38,.18,1.03,.53,1.4c.37,.36,.82,.54,1.37,.54Z"/>
          <path class="cls-1" d="M213.75,230.26c0-.59,.49-1.1,1.08-1.1s1.1,.51,1.1,1.1-.49,1.08-1.1,1.08-1.08-.49-1.08-1.08Zm.21,8.76v-6.85h1.77v6.85h-1.77Z"/>
          <path class="cls-1" d="M220.6,239.21c-1.01,0-1.88-.34-2.58-1.04s-1.04-1.56-1.04-2.58,.34-1.86,1.04-2.56,1.56-1.05,2.58-1.05,1.88,.36,2.58,1.05,1.06,1.55,1.06,2.56-.36,1.88-1.06,2.58-1.56,1.04-2.58,1.04Zm0-1.73c.54,0,.97-.18,1.33-.53s.54-.81,.54-1.36-.18-1-.54-1.36-.79-.53-1.33-.53-.97,.18-1.33,.53c-.34,.36-.52,.81-.52,1.36s.18,1,.52,1.36c.36,.36,.79,.53,1.33,.53Z"/>
          <path class="cls-1" d="M228.21,234.87c1,.21,2.3,.68,2.29,2.15,0,.7-.26,1.25-.79,1.63-.52,.37-1.18,.56-1.96,.56-1.41,0-2.37-.55-2.88-1.63l1.53-.86c.21,.59,.64,.89,1.34,.89,.63,0,.95-.19,.95-.59,0-.37-.55-.58-1.25-.75-1.01-.26-2.29-.69-2.29-2.11,0-.67,.25-1.21,.74-1.59,.51-.4,1.12-.59,1.86-.59,1.11,0,2.07,.52,2.6,1.45l-1.51,.82c-.22-.47-.59-.7-1.1-.7-.45,0-.79,.22-.79,.56,0,.37,.55,.58,1.25,.75h0Z"/>
        </g>
      </g>
    </g>
  </g>
</svg>