<?xml version="1.0" encoding="UTF-8"?><svg id="Capa_1" xmlns="http://www.w3.org/2000/svg" viewBox="0 0 500 250"><defs><style>.cls-1{fill:#fe5a01;}.cls-2{fill:#fe5b02;}</style></defs><g id="Alibaba"><path class="cls-2" d="M90.29512,96.3395c1.49217,.49968,3.0774,.49972,4.59868,.8607,3.77312,.89531,7.38049,2.17626,10.10681,5.05269,3.9118,4.12719,4.35274,8.98018,2.53087,14.148-1.7628,5.00027-4.68537,9.37453-7.70973,13.67422-2.25742,3.20936-4.60257,6.35749-6.90786,9.53345-.14797,.20386-.30308,.40442-.43118,.62045-1.40756,2.37359-.52234,4.26874,2.19887,4.718,2.72971,.45066,5.39512-.05266,8.05224-.57015,3.75644-.73158,7.40813-1.85373,11.04587-3.02259,.31761-.10205,.73046-.36241,.94027,.09979,.15821,.34854-.24719,.48013-.46959,.62014-6.82728,4.29828-13.92209,8.01814-21.86867,9.83854-2.11884,.48538-4.27183,.72913-6.43255,.18683-2.35692-.59156-3.67052-2.18557-3.89776-4.58142-.24261-2.55792,.32713-4.91452,1.52425-7.16701,1.95521-3.67893,4.6021-6.87242,7.11212-10.16239,3.34188-4.38033,6.70803-8.74362,9.44556-13.54106,.85643-1.50087,1.61786-3.03667,1.97593-4.75605,.3687-1.77039-.0916-3.26771-1.2768-4.58143-1.39102-1.54187-3.21344-2.41669-5.09029-3.17943-3.07533-1.24981-6.28814-2.07857-9.46963-3.00306-1.01506-.29496-1.44645,.6216-2.33273,.9152,1.32578,1.02149,2.53769,1.95525,3.87533,2.98589-3.52352,.72684-6.86292,1.38424-10.18782,2.1077-8.67966,1.88857-17.10614,4.61921-25.44656,7.63516-.59479,.21508-.73888,.4551-.35983,.96404,.04229,.05678,.06731,.12696,.09659,.19259,.49451,1.10823,1.61411,2.21074,1.38765,3.28764-.21264,1.0112-1.43445,1.81513-2.22134,2.70224-.73819,.8322-1.4883,1.6539-2.31752,2.57379,1.43093,.64521,2.88746,.80252,4.31944,.93346,5.78484,.52897,11.12048-.66453,15.78553-4.27637,1.05664-.81808,1.06832-.85936,.10239-1.728-.42254-.37998-.88308-.71802-1.38202-1.11993,2.81151,.1577,5.261,2.35269,5.60965,4.96868,.04618,.34648,.3108,.91304-.37069,.8657-.50327-.03496-1.28218,.48958-1.47543-.53028-.08527-.45002-.26443-.88239-.43875-1.44463-3.52628,3.06402-7.52478,4.91014-12.05636,5.60154-4.51438,.68878-8.89983,.11882-13.33005-1.42244,.23379,2.16575,.41968,4.20081,.68953,6.22477,.09987,.74908-.05956,1.10275-.80299,1.4344-2.99593,1.33647-5.70636,3.10313-7.70883,5.76275-2.24372,2.98005-1.52165,5.79346,1.86975,7.35408,2.74754,1.26433,5.69154,1.53853,8.6639,1.5792,6.65179,.09102,13.13865-1.08887,19.59066-2.548,.48355-.10936,1.23515-.71465,1.49916,.04269,.21154,.60678-.67555,.69937-1.11618,.92541-7.94872,4.07763-16.39853,6.32389-25.33276,6.53744-3.84914,.09201-7.62156-.59436-11.07741-2.46481-3.18897-1.726-5.25299-4.31315-6.05861-7.86565-.05909-.26056,.05317-.5974-.27722-.76499,0-1.36781,0-2.73562,0-4.10342,.39681-1.3602,.68265-2.7647,1.20905-4.07316,2.73181-6.79038,6.77505-12.75449,11.95647-17.90037,10.57878-10.50621,23.58625-16.33739,38.04896-19.28896,1.70965-.34891,3.47013-.37304,5.15605-.85156h8.45558Z"/><path class="cls-1" d="M127.34948,151.58631c.19031-.41422,.34129-.77035,.51433-1.11552,8.29511-16.54684,16.64446-33.06715,24.82406-49.67044,1.04582-2.12284,2.12922-2.86107,4.48332-2.76398,5.12141,.21121,10.25782,.08168,15.38777,.04636,.71933-.00495,1.0852,.20489,1.39383,.85234,8.2227,17.25077,16.46234,34.49355,24.71544,51.72992,.35925,.75027,.39145,1.02398-.60462,1.0173-5.81639-.03902-11.63321-.031-17.44973-.00328-.68505,.00327-.99372-.2042-1.24545-.84779-1.03325-2.64156-2.1593-5.247-3.20314-7.88461-.25802-.65201-.55322-.94137-1.31645-.93848-8.30937,.03154-16.61893,.02784-24.92835,.00464-.67881-.00189-1.02016,.20518-1.28616,.83176-1.13666,2.67755-2.33117,5.33068-3.49534,7.99672-.20773,.47574-.3822,.84364-1.05615,.83965-5.41905-.03216-10.83836-.01805-16.2576-.02144-.13098-.00008-.26194-.0391-.47577-.07315Zm26.87158-21.47781c.34214,.25648,.63737,.16764,.91092,.16797,4.98142,.00622,9.9631-.02059,14.94408,.02562,1.00302,.0093,.94979-.2935,.63131-1.02679-1.80092-4.14683-3.56998-8.30739-5.34855-12.46384-.81641-1.9079-1.62976-3.81709-2.50085-5.85772-2.92955,6.49708-5.78655,12.83329-8.63691,19.15477Z"/><path class="cls-1" d="M275.70295,145.33441c0,1.80142-.03099,3.62242,.01564,5.44146,.018,.70149-.18439,.90753-.89876,.9031-4.87639-.03026-9.75326-.03939-14.62941,.00608-.86936,.00811-.98255-.30324-.98115-1.05502,.02162-11.51447,.01506-23.029,.01506-34.54351,0-5.61333,.01585-11.22674-.01749-16.83987-.00484-.81701,.16991-1.11094,1.05758-1.103,4.87618,.04361,9.75315,.04097,14.62941,.00112,.81968-.0067,1.01413,.21628,1.0101,1.0202-.03419,6.83591-.01956,13.67206-.01956,20.58858,.48938-.12323,.70921-.50824,.99205-.78531,6.89837-6.75694,18.03752-7.5039,25.44465-1.67777,3.97713,3.12821,6.0409,7.39124,6.84335,12.23768,.86602,5.23048,.49298,10.38142-2.5201,14.95974-3.8403,5.83528-9.48635,8.27442-16.3596,8.06725-5.70187-.17187-10.34623-2.56063-14.01114-6.88737-.11431-.13493-.2541-.24892-.38699-.36712-.01487-.01321-.06246,.01005-.18365,.03377Zm16.88948-12.64814c.06955-1.82983-.29952-3.58137-.91784-5.28109-1.24353-3.41821-4.22512-5.39479-7.85864-5.24543-3.70569,.15233-6.44951,2.285-7.42851,5.80678-.79366,2.85513-.88963,5.75333-.21199,8.62833,.74399,3.15647,2.52441,5.39578,5.86048,6.22644,3.20961,.79918,5.81025-.14092,8.01397-2.46535,2.05019-2.16253,2.45517-4.86565,2.54254-7.66969Z"/><path class="cls-1" d="M388.22707,145.31658c0,1.88441-.02072,3.72,.01194,5.55466,.01053,.5907-.13561,.80848-.77395,.80532-4.98562-.02461-9.9715-.02978-14.95701,.00452-.72475,.00498-.80743-.26784-.80528-.87711,.02819-8.09701,.03909-16.1941,.04433-24.29117,.00582-8.99712,.01866-17.99434-.02194-26.99128-.00468-1.03836,.17407-1.40718,1.33008-1.38894,4.8039,.0758,9.60981,.0486,14.41467,.01471,.76265-.00538,.95884,.21133,.95558,.96158-.02909,6.65775-.01689,13.31568-.01689,19.97355,0,.20725,.00003,.4145,.00003,.82393,.4613-.43533,.79115-.73784,1.11136-1.05014,7.77601-7.58284,20.60571-7.30379,27.68616,.73039,3.07212,3.48592,4.50497,7.75593,4.77606,12.35745,.22848,3.87754-.19101,7.67072-2.02346,11.2125-3.10732,6.00584-10.23637,9.88882-17.01472,9.45963-5.76719-.36517-10.50082-2.59224-14.2004-7.00859-.09065-.10821-.20559-.19689-.31426-.28874-.01895-.01602-.06325-.00228-.20231-.00228Zm16.89255-12.64014c.02501-1.93432-.33363-3.78965-1.06457-5.5736-1.33823-3.26595-4.17764-5.07885-7.73086-4.94307-3.59464,.13736-6.25157,2.1097-7.31079,5.51064-.96143,3.08702-.96998,6.20201-.21501,9.34858,1.49949,6.24942,9.15253,7.91119,13.25969,3.88725,2.35574-2.30804,2.96533-5.14777,3.06154-8.2298Z"/><path class="cls-1" d="M346.44505,146.24189c-4.5872,5.27264-10.46771,6.19065-16.63676,6.22509-2.83724,.01584-5.57247-.5875-8.21376-1.68154-8.15492-3.37786-7.48938-13.29689-2.5906-17.51111,3.12312-2.6867,6.87492-3.86167,10.83112-4.52875,5.06843-.85461,10.19278-1.04373,15.32023-1.10427,.88158-.01041,.99952-.28672,.87322-1.07324-.76646-4.77323-5.66016-7.23189-10.02075-5.00997-1.0846,.55267-1.81999,1.41901-2.2227,2.53668-.21213,.58869-.49259,.80962-1.14696,.80502-4.55277-.03198-9.10606-.03927-13.65867,.00287-.86009,.00796-.94248-.29296-.78956-1.00226,.91345-4.23662,3.41613-7.12621,7.42504-8.74189,3.49973-1.41048,7.18701-1.82798,10.91652-1.94199,4.84905-.14823,9.67905,.01857,14.40316,1.27423,2.67545,.71113,5.18049,1.77501,7.26733,3.66416,2.43757,2.20663,3.68484,5.01131,3.72512,8.21868,.10266,8.16935,.0469,16.34062,.07974,24.51101,.00259,.64865-.24243,.7561-.81587,.75379-4.66133-.01878-9.32282-.02288-13.98407,.00368-.64704,.00368-.78559-.22992-.77241-.81125,.03245-1.42649,.01061-2.85421,.01061-4.58897Zm-3.99838-11.63996c-.00016,.01927-.00034,.03853-.00053,.0578-1.04266,.0518-2.09066,.0544-3.1268,.16608-1.90481,.20531-3.79311,.5295-5.39063,1.69469-1.2818,.93489-1.74512,2.21797-1.48173,3.7788,.24963,1.47921,1.17374,2.31505,2.54939,2.75851,1.3314,.42919,2.70046,.44934,4.06402,.31565,5.06502-.4966,6.98666-3.49473,7.07744-8.09701,.00995-.50579-.13815-.70254-.66816-.68445-1.00658,.03436-2.0152,.00995-3.023,.00995Z"/><path class="cls-1" d="M459.05288,146.40831c-.60642,.55532-1.14884,1.05868-1.69838,1.55417-2.87482,2.59179-6.37355,3.71714-10.12063,4.21524-4.20116,.55846-8.34963,.45126-12.3671-1.10949-3.60306-1.39975-6.1899-3.71466-6.75826-7.70274-.63566-4.46012,.7876-8.16623,4.4532-10.89371,2.90642-2.16264,6.29772-3.13572,9.81395-3.72338,5.10448-.8531,10.26199-1.04554,15.42416-1.10925,.75703-.00934,.90088-.24159,.82238-.93072-.55536-4.87452-6.03605-7.55096-10.31048-5.01319-1.0019,.59483-1.67739,1.47163-2.0399,2.56523-.16337,.49278-.42968,.63579-.93944,.63367-4.62409-.01925-9.2485-.03299-13.8723,.00834-.85104,.00761-.85313-.3421-.71972-.96443,.9261-4.31963,3.48134-7.23403,7.59623-8.84254,3.48147-1.36092,7.12942-1.77938,10.81926-1.88188,5.31996-.14779,10.61727,.04028,15.74313,1.69988,2.79434,.90472,5.30424,2.28018,7.15559,4.62784,1.69039,2.14353,2.44763,4.62976,2.45504,7.32738,.02176,7.95295,.00032,15.90601,.02133,23.85896,.00175,.6712-.12868,.92418-.87481,.9183-4.58775-.03612-9.17604-.03098-13.76392-.00357-.6521,.0039-.88119-.14356-.85581-.82908,.05402-1.45756,.01646-2.91848,.01646-4.40505Zm-4.13563-11.80668c-.00016,.01963-.00029,.03926-.00045,.05889-1.04419,.05422-2.09381,.05938-3.13135,.17352-1.79773,.19776-3.56656,.53017-5.11787,1.55456-1.46966,.97045-1.93808,2.36973-1.6486,4.02841,.27493,1.57542,1.40048,2.36423,2.85616,2.74683,1.23567,.32477,2.50451,.33478,3.76442,.20974,4.62023-.45854,7.10269-3.29195,7.03012-7.92818-.00995-.63748-.13731-.90216-.83347-.85893-.96953,.06021-1.94565,.01516-2.91896,.01516Z"/><path class="cls-2" d="M220.99747,124.95964c0,8.52727-.01358,17.05458,.02045,25.58171,.00351,.87752-.19491,1.15248-1.1138,1.14405-4.98412-.04575-9.96901-.0374-14.95334-.00504-.75813,.00492-.96704-.20839-.96616-.96174,.02014-17.19841,.02007-34.39685,.00053-51.59525-.00089-.77243,.15931-1.05059,1.00695-1.04333,4.98419,.04265,9.96912,.04318,14.95329-.00005,.86979-.00754,1.07375,.24247,1.07078,1.08207-.03053,8.59911-.0187,17.19836-.0187,25.79758Z"/><path class="cls-1" d="M248.56635,133.14655c0,5.82635-.01898,11.65282,.02088,17.47889,.00582,.85298-.22528,1.06441-1.0682,1.05758-4.98216-.04033-9.96492-.03529-14.9472-.00319-.74231,.00478-.97175-.16836-.97009-.94175,.02547-11.76053,.02461-23.52115,.00155-35.28169-.00148-.7559,.20916-.96281,.96519-.95792,5.01838,.03243,10.03719,.03315,15.05554-.00074,.7587-.00512,.96373,.19696,.95971,.95407-.03144,5.89811-.01739,11.79646-.01739,17.69474Z"/><path class="cls-2" d="M240.1073,108.83193c-2.52796,0-5.05622-.02207-7.58364,.01444-.69197,.00999-.93191-.16231-.92184-.8927,.04111-2.98525,.03879-5.97166,.0012-8.957-.00887-.7049,.18432-.91536,.90306-.91119,5.05574,.02936,10.11178,.02848,15.16755,.00063,.69936-.00385,.91983,.17351,.91006,.8932-.04039,2.98527-.03771,5.97165-.0014,8.95702,.00842,.69312-.16247,.92536-.89143,.91263-2.52719-.04414-5.05561-.01703-7.58356-.01703Z"/></g></svg>