<?xml version="1.0" encoding="UTF-8"?><svg id="Capa_1" xmlns="http://www.w3.org/2000/svg" viewBox="0 0 500 250"><defs><style>.cls-1{fill:#e53427;}.cls-2{fill:#f7981e;}</style></defs><g id="AliExpress"><path class="cls-1" d="M247.10733,143.52218c0,4.62182-.00001,9.15874-.00001,13.69565-.00001,6.07619,.00001,12.15237-.00001,18.22856,0,.27618-.02623,.55533,.00486,.82795,.06642,.5822-.19259,.73941-.74691,.7338-2.32858-.02358-4.65756-.00986-6.98638-.00984-.03948,0-.07922-.00344-.11838-.00004-.44579,.03874-.66712-.14405-.63211-.61124,.01763-.23536,.00136-.47321,.00136-.70994-.00006-16.53195-.1717-33.06632,.06296-49.59495,.14578-10.26921,4.73723-18.32489,13.70861-23.61674,3.28003-1.93475,6.91152-2.8327,10.72496-2.93564,5.20828-.14061,10.22147,.72377,14.89569,3.0972,6.7357,3.42019,11.02986,8.83501,12.67963,16.19892,1.66667,7.43937,.93068,14.65667-3.14155,21.21218-5.2382,8.43259-12.99176,12.54887-22.91997,12.24771-4.80767-.14582-9.30825-1.57232-13.28162-4.4053-1.49406-1.06525-2.75018-2.36158-3.74743-3.90513-.10095-.15626-.16575-.34957-.50369-.45316Zm17.17825-34.98025c-.43419,0-.86928-.01822-1.30246,.00273-6.39658,.30931-10.94874,3.33915-13.57285,9.20729-.84521,1.8901-1.31228,3.88844-1.52836,5.92974-.24501,2.31458-.44601,4.67059,.07705,6.95397,1.25265,5.46851,4.52578,9.40024,9.60752,11.71859,4.34085,1.98036,8.88431,1.97583,13.42485,.76153,5.13781-1.374,8.64719-4.61964,10.37492-9.64473,1.46774-4.26888,1.68868-8.6517,.6047-13.0532-1.32287-5.37143-4.68732-8.89907-9.88853-10.70114-2.52273-.87406-5.13495-1.20386-7.79684-1.17478Z"/><path class="cls-1" d="M137.50355,115.93023c0-10.97063,.00026-21.94125-.00027-32.91189-.00008-1.59296-.06359-1.41047,1.39652-1.41078,12.71213-.00272,25.42427-.00158,38.13639-.0015,.23687,0,.47437,.01222,.71047-.00097,.4372-.02442,.64644,.14074,.64423,.60955-.01179,2.48609-.01252,4.9723,.00016,7.45838,.00237,.46538-.19306,.63483-.63484,.61174-.31488-.01643-.63138-.0013-.94716-.00131-9.78767-.00009-19.57533-.00029-29.363-.00058-.23683,0-.47646,.022-.70995-.00627-.64783-.07841-.78172,.23926-.78028,.8257,.01598,6.47149,.00751,12.94302,.01283,19.41455,.00074,.88673,.01881,.89734,1.05305,.89769,8.84323,.00292,17.68644-.00249,26.52967,.00524,1.76136,.00154,1.52396-.23058,1.53459,1.47332,.01255,2.01238,.00639,4.0249,.00278,6.03735-.00205,1.15266-.00703,1.15913-1.16112,1.15938-8.76426,.00189-17.52853,.00101-26.29278,.00106q-1.6691,.00001-1.6692,1.7089c-.00004,6.0378,0,12.07558,0,18.11338,0,.19731-.00113,.39464,.00019,.59194,.00769,1.14198,.0079,1.14802,1.17091,1.14824,9.15904,.00173,18.3181,.00095,27.47714,.00098,1.73706,.00001,3.47418-.00812,5.21116,.00367,.84123,.00571,.85955,.02261,.86312,.8526,.01002,2.32826-.00899,4.6567,.01244,6.9848,.00503,.54563-.14614,.82564-.73141,.76734-.23452-.02336-.47335-.00317-.71023-.00315-13.46222,.00003-26.92444,.00004-40.38666,.00003-.19739,0-.39766-.02189-.59166,.00371-.65594,.0865-.79721-.24768-.78581-.82944,.0278-1.42012,.00875-2.84114,.00874-4.2618-.00003-9.74728-.00002-19.49457-.00002-29.24185Z"/><path class="cls-2" d="M25.46903,150.47577c.61875-1.59103,1.15838-2.98052,1.69939-4.36946,8.23904-21.15211,16.47766-42.30438,24.71908-63.45556,.4386-1.12563,.28472-1.05525,1.50749-1.05548,2.52657-.00048,5.05314-.00291,7.57971,.00124,1.0142,.00166,1.02433,.00467,1.37196,.90327,4.6493,12.01813,9.29498,24.03767,13.94275,36.0564,3.90889,10.10807,7.82048,20.21508,11.72549,30.32465,.18232,.47201,.4382,.92375,.47807,1.46027-.26978,.22647-.59371,.12793-.88891,.1293-2.13175,.00997-4.26357,.00753-6.39536,.00444-1.05026-.00153-1.05201-.00526-1.41709-.97217-1.80973-4.79287-3.61836-9.58616-5.42759-14.37922-.39493-1.04628-.39532-1.0523-1.5031-1.0525-10.42182-.00178-20.84364-.00205-31.26546-.00036-1.04268,.00017-1.04802,.00549-1.41787,.98612-1.80786,4.79336-3.61242,9.58797-5.41867,14.38194q-.38901,1.03246-1.5111,1.03644c-2.52297,.0022-5.04594,.00069-7.77878,.00069Zm31.49931-58.63832c-.08298,.00512-.16597,.01023-.24895,.01535-4.13462,11.20853-8.26924,22.41705-12.41808,33.66413,2.80669,.22654,25.0707,.1269,26.05915-.12194-4.46655-11.19214-8.92933-22.37485-13.39211-33.55754Z"/><path class="cls-1" d="M366.91494,138.6718c1.66363,1.72182,3.35456,3.48898,5.06921,5.23284,.3656,.37183,.21266,.58993-.08503,.86355-1.57383,1.44653-3.26447,2.73802-5.09836,3.83696-4.50962,2.70234-9.40082,4.08176-14.65319,3.93218-13.13061-.37388-22.45201-8.87173-24.76431-20.69037-1.41568-7.23593-.61503-14.17818,3.26152-20.53843,4.69551-7.70393,11.6378-11.65782,20.69855-11.78424,4.03041-.05625,7.95272,.54608,11.65,2.21155,5.47218,2.46497,8.91501,6.7481,10.85985,12.33129,1.24533,3.57511,1.70114,7.28454,1.82461,11.04343,.04928,1.49835-.00541,2.99998,.03268,4.49895,.01478,.58197-.20159,.78723-.75553,.73654-.27409-.02509-.55241-.00369-.82882-.00369-12.20152,.00006-24.40304-.00003-36.60456,.00016-1.55477,.00003-1.57669,.00468-1.29051,1.57634,.84606,4.64635,3.38927,8.09555,7.50179,10.36322,3.339,1.84115,6.92882,2.47197,10.7376,2.15482,4.64368-.38666,8.58654-2.1927,11.88144-5.46017,.13871-.13753,.26782-.29325,.56306-.30495Zm-30.83095-16.20944c.30429,.02608,.4579,.05074,.6115,.05078,9.74022,.00226,19.48044,.00409,29.22066,.00019,.86463-.00035,.89826-.02071,.83313-.94715-.30091-4.27904-2.07574-7.80459-5.50293-10.4227-2.78844-2.13018-6.01855-2.98113-9.48351-3.16373-4.5467-.2396-8.34915,1.33104-11.43063,4.62275-2.56259,2.73742-3.99065,5.99927-4.24823,9.85986Z"/><path class="cls-1" d="M233.45259,150.47332h-5.74782c-.98713,0-1.97762-.05038-2.96032,.01551-.8284,.05552-1.35665-.2071-1.87475-.89082-4.14628-5.4717-8.33852-10.90863-12.52224-16.35195-.23718-.30859-.41497-.67572-.86029-.93294-.85624,1.10384-1.72387,2.21251-2.58107,3.32917-3.60384,4.69472-7.21212,9.38609-10.79567,14.09624-.39301,.51654-.78606,.75985-1.45857,.75109-2.92041-.03803-5.84162-.01632-8.8217-.01632,.03474-.51544,.40936-.78301,.6574-1.09981,5.78923-7.39491,11.58841-14.78199,17.38554-22.17071q.92672-1.18116,.01773-2.30819c-6.16177-7.70453-12.32179-15.41047-18.48059-23.11738-.218-.2728-.4927-.50844-.60387-.8628,.18079-.32792,.49191-.17831,.73634-.17924,3.07977-.01165,6.15992,.01605,9.23919-.02523,.72298-.00969,1.13749,.25792,1.54476,.81889,4.00998,5.52316,8.04472,11.02835,12.07332,16.53798,.34766,.47545,.70164,.94627,1.08039,1.45656,.53157-.33107,.77662-.83658,1.09342-1.26271,4.07222-5.47773,8.14798-10.95301,12.17833-16.46147,.56912-.77783,1.1437-1.12184,2.12985-1.09646,2.76211,.07109,5.52725,.02475,8.29119,.02475h1.33753c-.87533,1.17402-1.61422,2.18092-2.36944,3.17542-5.36918,7.07029-10.7458,14.13491-16.10868,21.20997-.79222,1.04514-.83621,.70819,.01748,1.85903,5.57114,7.51028,11.14706,15.017,16.72014,22.52586,.18558,.25003,.35751,.51015,.6824,.97555Z"/><path class="cls-1" d="M423.52167,143.51824c1.99294-1.78841,3.90078-3.49329,5.79805-5.20993,.32413-.29334,.5263-.17475,.78237,.09097,.71172,.73843,1.43951,1.46171,2.17222,2.1795,1.93738,1.89801,4.19845,3.14343,6.90892,3.59728,3.32095,.55606,6.59688,.61795,9.7939-.59571,2.16456-.82175,3.80158-2.21328,4.56113-4.48127,.914-2.72939,.20364-5.28792-2.00132-7.14417-1.43914-1.21153-3.10508-1.99986-4.88257-2.57807-2.55012-.82953-5.1694-1.40545-7.74913-2.1262-2.24199-.62643-4.44909-1.35551-6.5115-2.44912-3.14305-1.66667-5.62237-3.97589-6.63155-7.49686-1.52298-5.31358-.0741-11.18671,5.28873-14.71457,2.41636-1.58957,5.08133-2.52603,7.90829-2.97107,4.64293-.73093,9.2029-.38037,13.61087,1.34302,1.81151,.70824,3.48546,1.63691,4.88318,3.03672,1.24868,1.2505,2.61774,2.37986,3.87513,3.7304-1.96798,1.5652-3.88436,3.08075-5.78816,4.61197-.32144,.25857-.53836,.22643-.78552-.08171-.24633-.30709-.52283-.59041-.79108-.87952-1.94056-2.09139-4.29531-3.439-7.12187-3.90818-2.58622-.42927-5.17414-.59633-7.74297,.12905-1.30236,.36776-2.5022,.92896-3.55988,1.79715-2.08207,1.70916-2.83691,5.54031,.19378,7.7859,1.44839,1.07321,3.08694,1.72667,4.78673,2.25472,2.52311,.78382,5.1289,1.23595,7.68201,1.89991,2.32788,.60538,4.61678,1.31421,6.79181,2.36794,4.73365,2.2933,7.11635,6.19238,7.66653,11.28968,.31398,2.90885-.09368,5.74976-1.33302,8.42886-1.71416,3.70545-4.7528,5.89673-8.46487,7.28374-2.26992,.84815-4.63037,1.28974-7.04766,1.39815-2.92487,.13121-5.82931,.03281-8.69925-.66877-3.70573-.90594-7.01946-2.57074-9.9661-4.97194-1.18439-.96517-2.29219-2.0226-3.62718-2.94785Z"/><path class="cls-1" d="M417.77658,107.72674c-2.07004,1.65093-4.09401,3.26514-6.16073,4.91343-.52566-.55311-1.00438-1.06945-1.49663-1.57255-2.15461-2.20196-4.77987-3.3951-7.83428-3.75254-2.45578-.28739-4.87751-.32959-7.25934,.45061-1.05849,.34673-2.03001,.84569-2.91069,1.53435-2.18805,1.71095-3.05493,5.58423,.13463,7.93229,1.22132,.89911,2.59044,1.48538,4.01138,1.97437,2.42807,.83557,4.95621,1.2777,7.43952,1.89577,2.75558,.68581,5.47435,1.46134,8.02786,2.75067,4.48183,2.26296,6.77961,6.01555,7.34845,10.86981,.39314,3.35507-.06941,6.61921-1.76011,9.61613-1.79534,3.18244-4.61646,5.1061-7.96105,6.35882-3.22823,1.20916-6.58872,1.51768-10.00465,1.45638-6.46039-.11597-12.10032-2.31707-16.86677-6.67896-.75565-.69152-1.69828-1.14215-2.43828-1.98353,.47398-.44036,.91952-.86473,1.3762-1.2767,1.37704-1.24215,2.76981-2.46714,4.13144-3.72583,.43965-.40636,.72328-.44646,1.14471,.05009,.58533,.6896,1.26309,1.302,1.91334,1.93509,1.96633,1.91439,4.22575,3.23434,6.98701,3.69708,2.83714,.47549,5.6449,.5674,8.45021-.13375,1.15469-.2886,2.24517-.73995,3.23743-1.40408,3.19786-2.14041,4.06474-6.49847,1.87681-9.45739-.6902-.93342-1.59427-1.6298-2.57595-2.23564-1.79953-1.11064-3.79646-1.71273-5.81257-2.26191-2.84837-.7759-5.73766-1.40826-8.52251-2.40647-2.08621-.74778-4.06807-1.69292-5.85763-3.02841-6.6162-4.9375-6.27795-15.55929,.68259-20.36632,2.55027-1.76125,5.37972-2.79531,8.41252-3.27317,4.19562-.66107,8.34262-.39734,12.38856,.93595,2.38052,.78447,4.57562,1.90146,6.35026,3.74845,1.11645,1.16192,2.39764,2.16097,3.54828,3.43799Z"/><path class="cls-1" d="M307.40414,105.71344c.35244-.32004,.71574-.65583,1.0853-.98454,2.76336-2.45807,6.05676-3.78315,9.63992-4.46404,1.82386-.34658,3.66822-.53776,5.5287-.52616,.83961,.00524,.85789,.00971,.8611,.84928,.00952,2.48577-.00367,4.97163,.00905,7.45737,.00249,.48413-.10664,.70442-.667,.67155-5.49616-.32229-9.73895,2.08225-13.19086,6.14454-1.20449,1.41751-2.1713,2.99701-3.02543,4.65099-.33706,.65262-.48607,1.30163-.48491,2.03466,.01466,9.23296,.00972,18.46597,.00952,27.69896q-.00003,1.44767-1.44209,1.44802c-2.09208,.00016-4.18434-.01557-6.2761,.01028-.54842,.00678-.8224-.13169-.7481-.72205,.02933-.23303,.00425-.47287,.00425-.70962-.00003-15.70398-.00231-31.40796,.00333-47.11193,.00061-1.67345-.20405-1.41748,1.44556-1.42962,2.05249-.01511,4.10521-.00971,6.15778-.00056,.82926,.0037,.84236,.01872,.85187,.85145,.01307,1.14412-.00069,2.28852,.0079,3.43272,.00165,.21911-.07028,.46902,.23022,.69872Z"/><path class="cls-2" d="M102.84271,116.03424c0,11.01082,.00229,22.02164-.00257,33.03245-.0007,1.58551,.17615,1.39974-1.3669,1.40665-2.13194,.00957-4.264,.00942-6.39593-.0015-.83878-.00431-.83994-.02262-.8662-.84849-.00627-.19714-.0013-.39463-.0013-.59196-.00002-21.98218-.00046-43.96436,.00083-65.94655,.00009-1.63857-.13212-1.48538,1.43681-1.48866,2.05302-.0043,4.10607-.00597,6.15907,.00111,1.02157,.00352,1.03368,.01347,1.0342,1.0493,.00367,7.34054,.00198,14.6811,.00199,22.02164,0,3.78867,0,7.57734,0,11.36601Z"/><path class="cls-2" d="M115.85214,126.0604c0-7.57206-.00001-15.14412,.00001-22.71618,0-.27607,.02432-.55463-.00426-.82769-.06671-.63755,.23893-.80471,.83027-.79919,2.36702,.02211,4.73457,.02573,7.10147-.00175,.63522-.00738,.85432,.24066,.79115,.83602-.02069,.19499-.00304,.39403-.00304,.59122,0,15.30187,.00189,30.60376-.00277,45.90564-.00048,1.60873,.19833,1.41726-1.47319,1.42504-2.05155,.00954-4.1032,.00597-6.15478,.00071-1.07537-.00276-1.08325-.00986-1.08358-1.10605-.00239-7.76926-.00127-15.5385-.00128-23.30776Z"/><path class="cls-2" d="M119.95467,72.99889c.40174-.03633,.64125,.05348,.68796,.55044,.14094,1.49929,.48311,2.9583,1.1564,4.31599,2.06851,4.17122,5.44682,6.52899,10.03447,7.19353,.1946,.02819,.39397,.02201,.59074,.03681,.2262,.01702,.36142,.1356,.37337,.36786,.01351,.26237-.0678,.48941-.36123,.51071-.67034,.04867-1.33053,.14701-1.98827,.28526-4.99406,1.04971-9.00159,5.36143-9.68506,10.42755-.03689,.27338-.11891,.54396-.12633,.81729-.01254,.46126-.23546,.5912-.6727,.593-.47141,.00194-.58539-.20922-.62979-.63641-.23229-2.23512-.92337-4.3119-2.25582-6.1443-2.22862-3.06485-5.20326-4.87055-8.9932-5.2849-.11761-.01285-.23613-.0191-.3544-.02401-.31277-.01302-.5363-.1312-.55355-.47946-.01931-.39018,.24658-.42163,.54483-.44609,.78677-.06452,1.56832-.17939,2.32373-.4126,5.15567-1.59171,8.24814-5.01462,9.17306-10.35365,.04713-.27204,.12196-.54521,.12266-.81802,.00114-.44179,.24727-.52949,.61313-.49901Z"/><path class="cls-1" d="M468.9416,96.59112c0,1.29783,.00165,2.43317-.00119,3.56849-.00069,.27874,.01229,.56812-.40112,.57427-.33923,.00504-.62885-.00156-.62637-.46992,.00952-1.81346,.00576-3.62699,.0039-5.4405-.00038-.34898,.17052-.45631,.51024-.48462,.98462-.08206,1.08481-.01739,1.48116,.90038,.43007,.99583,.68282,2.06922,1.32498,3.17373,.62353-1.20538,.97577-2.35403,1.39642-3.46953,.16408-.43507,.38481-.60546,.85881-.60828,1.02766-.00609,1.03402-.03409,1.03888,1.02704,.00636,1.37983,.00275,2.7597,.0013,4.13956q-.00136,1.25822-1.37192,1.17301c-.23632-1.22773,.0964-2.521-.18993-3.7668-.41373,.05713-.43389,.37401-.52731,.61127-.30287,.76908-.57272,1.55132-.88293,2.31729-.12544,.30982-.09377,.81735-.51166,.84546-.45463,.03058-.42689-.48408-.54978-.78962-.32306-.80312-.61957-1.61688-.93349-2.42374-.09591-.24645-.13952-.52562-.62-.87748Z"/><path class="cls-1" d="M463.80443,98.12234c0-.66873-.02027-1.33827,.00668-2.00591,.0203-.50306-.17706-.73095-.68172-.70989-.2747,.01147-.5516,.00772-.82573-.01301-.40693-.03077-.3497-.34975-.35323-.61808-.00362-.27673,.11317-.43238,.41914-.43054,1.37698,.00827,2.75405,.00474,4.13109,.01081,.29324,.00129,.40112,.18334,.412,.45717,.01215,.30655-.04512,.5368-.4137,.5851-.45309,.05937-1.05404-.20769-1.32909,.19152-.30591,.44401-.10322,1.06849-.11317,1.61345-.01799,.98311-.02354,1.9672,.00098,2.94999,.01215,.48674-.21796,.58372-.6434,.59369-.46365,.01085-.62813-.16722-.61292-.6183,.02253-.66797,.00581-1.33726,.00581-2.00599h-.00275Z"/></g></svg>