<?xml version="1.0" encoding="UTF-8"?><svg id="Capa_1" xmlns="http://www.w3.org/2000/svg" viewBox="0 0 500 250"><defs><style>.cls-1{fill:#221f1f;}.cls-2{fill:#f90;}</style></defs><g id="Amazon"><path id="path8" class="cls-2" d="M297.14336,179.1542c-23.35256,17.21269-57.20066,26.39627-86.34324,26.39627-40.86261,0-77.64944-15.11357-105.4801-40.25037-2.18657-1.97667-.22741-4.67051,2.39648-3.13118,30.0347,17.47507,67.17141,27.9881,105.53259,27.9881,25.87147,0,54.33186-5.35273,80.50072-16.4605,3.95332-1.67929,7.25942,2.5889,3.39355,5.45768"/><path id="path10" class="cls-2" d="M306.85176,168.04644c-2.97374-3.81338-19.7316-1.80173-27.25341-.90961-2.29153,.27988-2.64137-1.71427-.57727-3.14867,13.34682-9.3935,35.24751-6.68215,37.80143-3.53349,2.5539,3.16616-.66472,25.11932-13.20689,35.59735-1.92418,1.60932-3.7609,.75219-2.90376-1.38192,2.81628-7.03201,9.1311-22.79279,6.13989-26.62366"/><path id="path12" class="cls-1" d="M280.12312,97.67389v-9.13111c0-1.38191,1.04954-2.30901,2.30902-2.30901h40.88008c1.31195,0,2.3615,.9446,2.3615,2.30901v7.81917c-.01749,1.31194-1.11953,3.02621-3.07869,5.73756l-21.18348,30.24463c7.87165-.19241,16.18061,.97958,23.31757,5.00287,1.60932,.90961,2.04664,2.23904,2.16907,3.55099v9.74335c0,1.32943-1.46937,2.88626-3.00873,2.08161-12.57715-6.5947-29.28253-7.31189-43.18912,.06997-1.4169,.76967-2.90376-.76967-2.90376-2.0991v-9.25356c0-1.48687,.01749-4.0233,1.50435-6.27983l24.54205-35.19502h-21.35841c-1.31193,0-2.3615-.9271-2.3615-2.29153"/><path id="path14" class="cls-1" d="M130.9991,154.64714h-12.4372c-1.18948-.08746-2.13409-.97958-2.22155-2.1166v-63.83031c0-1.27696,1.06705-2.29153,2.39648-2.29153h11.59756c1.207,.05244,2.16908,.97958,2.25655,2.13409v8.34396h.2274c3.02621-8.06408,8.71128-11.82498,16.37303-11.82498,7.78418,0,12.64711,3.7609,16.14562,11.82498,3.00872-8.06408,9.84831-11.82498,17.17769-11.82498,5.21278,0,10.91536,2.15158,14.39637,6.97953,3.93582,5.37021,3.13116,13.17189,3.13116,20.01149l-.01748,40.28535c0,1.27696-1.06705,2.30901-2.39648,2.30901h-12.41972c-1.24196-.08746-2.23904-1.08453-2.23904-2.30901v-33.83061c0-2.69385,.24488-9.41099-.34985-11.96491-.92711-4.28567-3.70842-5.49266-7.31189-5.49266-3.00873,0-6.15738,2.01165-7.43434,5.23028-1.27696,3.21863-1.15451,8.60632-1.15451,12.22729v33.8306c0,1.27696-1.06705,2.30901-2.39648,2.30901h-12.41971c-1.25946-.08746-2.23905-1.08453-2.23905-2.30901l-.0175-33.8306c0-7.11947,1.17199-17.59751-7.66174-17.59751-8.9387,0-8.58885,10.21565-8.58885,17.59751v33.8306c0,1.27696-1.06705,2.30901-2.39648,2.30901"/><path id="path16" class="cls-1" d="M360.86876,85.06176c18.45465,0,28.4429,15.84825,28.4429,35.99968,0,19.46921-11.03781,34.91513-28.44288,34.91513-18.1223,0-27.98809-15.84825-27.98809-35.59734,0-19.87154,9.98825-35.31747,27.98809-35.31747m.10495,13.03196c-9.16609,0-9.74335,12.48967-9.74335,20.27387,0,7.80168-.12246,24.45458,9.63841,24.45458,9.63839,0,10.09319-13.43427,10.09319-21.6208,0-5.38769-.2274-11.82496-1.85421-16.93279-1.39941-4.4431-4.18071-6.17486-8.13403-6.17486"/><path id="path18" class="cls-1" d="M413.24146,154.64714h-12.38473c-1.24197-.08746-2.23906-1.08453-2.23906-2.30901l-.01747-63.84783c.10495-1.172,1.13702-2.08161,2.3965-2.08161h11.5276c1.08453,.05244,1.97663,.78717,2.22155,1.78424v9.76084h.2274c3.48103-8.72878,8.36146-12.89201,16.95028-12.89201,5.58012,0,11.0203,2.01165,14.51884,7.5218,3.25362,5.10783,3.25362,13.69668,3.25362,19.87154v40.18041c-.13993,1.11951-1.172,2.01163-2.39646,2.01163h-12.4722c-1.13702-.08746-2.08162-.9271-2.20408-2.01163v-34.67024c0-6.97953,.80467-17.19519-7.78419-17.19519-3.02622,0-5.80752,2.02915-7.18946,5.10783-1.74923,3.90085-1.97663,7.78419-1.97663,12.08736v34.37287c-.01747,1.27696-1.10204,2.30901-2.43148,2.30901"/><g id="use28"><path id="path30" class="cls-1" d="M247.53449,124.15762v-2.69385c-8.99118,0-18.48963,1.92418-18.48963,12.52466,0,5.37021,2.78131,9.00867,7.55678,9.00867,3.49851,0,6.62968-2.15158,8.60635-5.6501,2.44895-4.30317,2.32651-8.34395,2.32651-13.18939m12.54216,30.31459c-.82215,.73469-2.01165,.78717-2.93876,.29738-4.12823-3.42854-4.86293-5.02036-7.13696-8.29147-6.8221,6.96204-11.65003,9.04364-20.50127,9.04364-10.46055,0-18.61207-6.45475-18.61207-19.38173,0-10.09321,5.47517-16.96779,13.25935-20.32635,6.75212-2.97374,16.18061-3.49851,23.38755-4.32066v-1.60931c0-2.95625,.2274-6.45476-1.50436-9.00866-1.52186-2.29153-4.42562-3.23613-6.97953-3.23613-4.74047,0-8.97368,2.43146-10.00574,7.46932-.20992,1.11953-1.03207,2.22156-2.15158,2.27404l-12.06986-1.29445c-1.01457-.22739-2.13409-1.04955-1.85421-2.60638,2.78132-14.62377,15.98819-19.03191,27.81317-19.03191,6.05241,0,13.95905,1.60932,18.73451,6.19236,6.05243,5.65009,5.47517,13.18939,5.47517,21.3934v19.38174c0,5.82503,2.41398,8.37893,4.68802,11.5276,.80465,1.11951,.97958,2.46644-.03499,3.30608-2.53642,2.11661-7.0495,6.05243-9.53345,8.25649l-.03498-.03503"/></g><path id="path30-2" class="cls-1" d="M84.48641,124.15762v-2.69385c-8.99118,0-18.48963,1.92418-18.48963,12.52466,0,5.37021,2.78131,9.00867,7.55678,9.00867,3.49851,0,6.62968-2.15158,8.60635-5.6501,2.44895-4.30317,2.32651-8.34395,2.32651-13.18939m12.54216,30.31459c-.82215,.73469-2.01165,.78717-2.93876,.29738-4.12823-3.42854-4.86293-5.02036-7.13696-8.29147-6.8221,6.96204-11.65003,9.04364-20.50127,9.04364-10.46055,0-18.61207-6.45475-18.61207-19.38173,0-10.09321,5.47517-16.96779,13.25935-20.32635,6.75212-2.97374,16.18061-3.49851,23.38755-4.32066v-1.60931c0-2.95625,.2274-6.45476-1.50436-9.00866-1.52186-2.29153-4.42562-3.23613-6.97953-3.23613-4.74047,0-8.97368,2.43146-10.00574,7.46932-.20992,1.11953-1.03207,2.22156-2.15158,2.27404l-12.06986-1.29445c-1.01457-.22739-2.13409-1.04955-1.85421-2.60638,2.78132-14.62377,15.98819-19.03191,27.81317-19.03191,6.05241,0,13.95905,1.60932,18.73451,6.19236,6.05243,5.65009,5.47517,13.18939,5.47517,21.3934v19.38174c0,5.82503,2.41398,8.37893,4.68802,11.5276,.80465,1.11951,.97958,2.46644-.03499,3.30608-2.53642,2.11661-7.0495,6.05243-9.53345,8.25649l-.03498-.03503"/></g></svg>