<?xml version="1.0" encoding="UTF-8"?><svg id="Capa_1" xmlns="http://www.w3.org/2000/svg" viewBox="0 0 500 250"><defs><style>.cls-1{fill:#0064d1;}.cls-2{fill:#f4af03;}.cls-3{fill:#e43238;}.cls-4{fill:#86b717;}.cls-5{fill:#fefefe;}</style></defs><g id="ebay"><path class="cls-5" d="M185.89049,73.4866c.00048-.03242,.00084-.06485,.00107-.09727h13.11216c-.00001,.03354,0,.06709,.00004,.10063-4.37109-.00112-8.74218-.00224-13.11328-.00336Z"/><path class="cls-1" d="M185.89049,73.4866c4.37109,.00112,8.74218,.00224,13.11328,.00336,.00401,.20137,.01152,.40273,.01154,.6041,.00057,10.34652,.0005,20.69303,.0005,31.03955v.51845c.08456,.0688,.12688,.0262,.15309-.00998,2.32983-3.21645,5.50177-5.33078,9.10237-6.84209,5.09592-2.13895,10.45132-2.76264,15.93021-2.56336,4.16884,.15163,8.20253,.95917,12.01193,2.68317,7.97177,3.60775,13.05754,9.73497,15.5245,18.06205,1.44239,4.86873,1.66473,9.83919,.94958,14.85789-.01645,.11547-.01114,.23402-.01597,.35098-.45498,1.38695-.79767,2.7989-.94272,4.25458-.081,.10383-.08954,.22366-.077,.34815l.00582-.00656c-.30751,.5769-.43693,1.2193-.6719,1.82364-3.61721,9.3034-10.31733,15.13552-19.94837,17.61675-4.6293,1.19263-9.33095,1.27491-14.05583,.63876-4.22247-.56852-8.20887-1.8276-11.86953-4.03792-2.36228-1.42636-4.45471-3.16638-6.27931-5.36697,0,.70858,.01109,1.41736-.00222,2.12568-.03186,1.69675-.21333,3.38398-.32863,5.07548-.03037,.44552-.19173,.5417-.6143,.53992-3.91608-.01649-7.83232-.01937-11.74835,.00254-.48412,.00271-.57616-.14319-.55173-.58903,.44122-8.05564,.24314-16.11921,.28518-24.17989,.0007-.13379-.01457-.26764-.02238-.40147-.00086-2.70887-.00172-5.41775-.00259-8.12663,.00868-.4197,.02491-.83939,.02495-1.25909,.00129-15.5027,.00102-31.00541,.00179-46.50812,.00001-.21799,.01048-.43597,.01609-.65396Zm33.51851,74.87127c.80067-.01454,1.7939-.05062,2.77278-.20661,6.86763-1.09435,11.92304-4.74669,14.91733-10.9978,2.97535-6.21161,3.11874-12.68161,.89391-19.14959-1.74848-5.08315-5.07705-8.88003-10.0259-11.12358-3.8711-1.75495-7.95171-2.14184-12.12518-1.54382-6.44438,.92342-11.23618,4.29001-14.1724,10.07791-3.13283,6.17546-3.45012,12.64386-1.38464,19.21578,1.30918,4.16554,3.68342,7.62708,7.27246,10.18388,3.48478,2.48251,7.4294,3.49406,11.85164,3.54385Z"/><path class="cls-2" d="M251.72879,136.4453c.14505-1.45568,.48774-2.86763,.94272-4.25458,.69076-1.59247,1.53088-3.09145,2.69712-4.39494,2.25154-2.51652,5.08237-4.14045,8.19706-5.32349,3.42571-1.30118,6.99108-1.99368,10.61789-2.43264,3.62714-.43901,7.26879-.54281,10.91591-.54846,4.80701-.00745,9.61406-.00802,14.42103,.00851,.4403,.00151,.56761-.10207,.55525-.55181-.04287-1.55884,.07503-3.12513-.24765-4.6687-.66183-3.16587-2.48195-5.48639-5.22629-7.12644-2.16988-1.29675-4.55024-1.97295-7.03477-2.28432-3.32885-.4172-6.64057-.31603-9.89478,.57322-2.2396,.61199-4.25847,1.63293-5.86293,3.3621-1.11945,1.20645-1.90369,2.59208-2.22389,4.21775-.05314,.26977-.14058,.38454-.45108,.38362-4.28594-.01267-8.57197-.01511-12.85789,.00139-.43762,.00169-.40016-.22196-.37555-.49962,.19765-2.22964,.91702-4.28814,2.07077-6.19577,2.14053-3.53916,5.29083-5.88302,9.01182-7.53494,3.32683-1.47693,6.83451-2.26582,10.43197-2.71542,3.39378-.42414,6.8002-.52388,10.21213-.38583,4.4686,.1808,8.85477,.82683,13.03557,2.51187,3.21639,1.29633,6.02474,3.16645,8.23237,5.8768,.06207,.07621,.08604,.23822,.25286,.17671,.00002,0-.00416-.01001-.00416-.01001-.09553,.13619,.015,.16904,.10624,.21157l-.00851-.01006c.01039,.09604,.06213,.13395,.15686,.1114,.02418,.0797,.03376,.16793,.07469,.23784,.85858,1.46677,1.63936,2.97488,2.39918,4.49422,.00517,.08269-.06111,.20049,.10132,.2059l-.00829-.01165c-.04313,.43432,.19344,.8003,.30143,1.19638,.60807,2.23034,.93067,4.49927,.93251,6.81009,.00724,9.05161,.0128,18.10321,.00747,27.15481-.00191,3.24299,.15347,6.47736,.45887,9.70481,.03185,.33661-.02073,.46937-.40365,.46796-3.74747-.0138-7.49502-.01295-11.24251-.00058-.34561,.00114-.45184-.09653-.47533-.44123-.17463-2.5632-.29062-5.12806-.2806-7.69092-.08624-.05052-.13371-.01021-.1753,.04729-2.37926,3.29083-5.58709,5.52826-9.22973,7.19206-3.845,1.75623-7.91375,2.62368-12.11268,2.94586-3.27782,.25151-6.54738,.20955-9.79744-.31458-4.58042-.73865-8.84975-2.23711-12.42048-5.31883-3.51503-3.03362-5.38359-6.91025-5.79242-11.51931-.09817-1.10651-.0412-2.21145-.07828-3.3165,0,.00004-.00582,.0066-.00584,.00659,.12696-.09367,.06892-.22822,.07701-.34815Zm40.59252-8.50398c-2.18445,.05337-4.36842,.09048-6.55074,.18494-3.57489,.15474-7.1443,.38134-10.65897,1.10609-2.19406,.45242-4.33285,1.07395-6.2408,2.30551-1.51591,.97849-2.67414,2.26816-3.17842,4.02126-.83894,2.91658-.4618,5.69778,1.23446,8.22928,1.63088,2.43396,4.07397,3.68082,6.83387,4.37991,2.66689,.67553,5.38026,.72071,8.10781,.52072,2.74629-.20137,5.42584-.7093,7.95868-1.81665,5.71761-2.49974,9.03533-6.86892,10.05664-13.00381,.29998-1.80185,.13103-3.6191,.18826-5.42896,.01221-.38667-.08342-.51176-.49289-.50831-2.41916,.02034-4.83857,.01002-7.2579,.01002Z"/><path class="cls-3" d="M185.84767,121.90777c.00086,2.70888,.00172,5.41776,.00259,8.12663-.21831,.00426-.43662,.01226-.65493,.01227-16.74064,.00058-33.48128,.00283-50.2219-.01074-.49494-.0004-.63706,.09508-.62735,.62014,.14679,7.93336,5.23542,14.66286,12.89992,16.94398,5.08214,1.51255,10.16008,1.43526,15.12631-.45531,3.93373-1.49751,6.86317-4.14897,8.49592-8.10224,.10367-.25102,.24528-.30435,.49082-.304,4.23558,.006,8.47117,.00653,12.70674-.00028,.30405-.00049,.40546,.0488,.34194,.39471-.48747,2.6549-1.58155,5.04816-3.12805,7.2385-3.05588,4.32808-7.30143,6.99261-12.24713,8.65253-3.42819,1.15058-6.96738,1.71215-10.56797,1.92861-3.37858,.20311-6.75293,.14555-10.11844-.21297-5.35943-.57093-10.51065-1.84501-15.17044-4.6734-5.70296-3.46158-9.2117-8.54538-10.92323-14.92794-1.13321-4.22591-1.38033-8.53371-1.14841-12.88385,.19219-3.60498,.78713-7.13027,2.03297-10.53147,2.67638-7.30667,7.76503-12.21823,14.96364-15.01985,3.94599-1.53573,8.06453-2.26703,12.27486-2.54274,3.04034-.19909,6.07947-.20588,9.112,.11372,6.21097,.65457,11.99398,2.45569,16.91251,6.46949,4.62307,3.7727,7.42935,8.66808,8.77747,14.43704,.36334,1.55486,.57059,3.13391,.67016,4.72718Zm-32.38318-.53762c6.10095,0,12.2019-.00418,18.30281,.00939,.40666,.0009,.51757-.10982,.48255-.50495-.07699-.86871-.11212-1.73983-.26497-2.60222-.92443-5.21572-3.73577-9.05076-8.45854-11.4448-3.66917-1.85995-7.60035-2.35881-11.6574-2.01419-3.75087,.31861-7.22859,1.46657-10.32374,3.6345-4.28466,3.00109-6.6484,7.09115-6.89345,12.35822-.02137,.45935,.09648,.57639,.5604,.57512,6.08408-.01665,12.16822-.01107,18.25234-.01108Z"/><path class="cls-4" d="M311.87272,109.67528c-.75982-1.51933-1.54061-3.02745-2.39918-4.49422-.04093-.06991-.05051-.15814-.07476-.23784-.04698-.04463-.06583-.12866-.15679-.1114,0,0,.00851,.01006,.00852,.01006,.03042-.10355,.0178-.1855-.10626-.21156,0,0,.00419,.01001,.00416,.01001,.03704-.20599-.11189-.34349-.19502-.50048-1.00322-1.89496-2.01221-3.78688-3.05094-5.7383,.20906-.011,.36651-.02649,.52396-.02653,4.75685-.00128,9.51373,.00445,14.27053-.01117,.3934-.00129,.58335,.11712,.7584,.46814,7.148,14.33297,14.30731,28.6603,21.46539,42.98826,.08222,.16453,.16654,.32802,.25516,.50247,.22468-.12095,.26001-.35213,.35162-.53586,7.13319-14.30257,14.26411-28.60631,21.38087-42.91705,.19547-.3931,.41057-.50797,.83581-.50625,4.23572,.01717,8.47151,.01041,12.70731,.01041,.16732,0,.33463,0,.50308,0,.07402,.20669-.0707,.332-.13994,.46785-13.13134,25.7614-26.26769,51.52026-39.39302,77.28471-.18685,.36683-.39276,.48551-.79767,.48414-4.47106-.01521-8.94219-.00956-13.41331-.00956h-.50599c-.036-.26524,.1318-.4309,.22854-.61445,3.5896-6.81119,7.18048-13.62173,10.78612-20.42445,.23283-.43931,.26395-.77195,.01569-1.23635-7.85309-14.68982-15.68819-29.38927-23.52762-44.0864-.06905-.12945-.10202-.2854-.24164-.36991,0,0,.00829,.01165,.00829,.01165,.0051-.08773-.01758-.16182-.10132-.20591Z"/><path class="cls-5" d="M251.72879,136.4453c-.00809,.11993,.04995,.25447-.07701,.34815-.01252-.12448-.00399-.24432,.07701-.34815Z"/><path class="cls-5" d="M309.14425,104.63031c.12406,.02607,.13668,.10802,.10626,.21156-.09126-.04252-.20179-.07537-.10626-.21156Z"/><path class="cls-5" d="M311.87272,109.67528c.08374,.04409,.10642,.11817,.10132,.20591-.16242-.00542-.09615-.12322-.10132-.20591Z"/><path class="cls-5" d="M309.24199,104.83182c.09095-.01727,.1098,.06677,.15679,.1114-.09466,.02255-.14639-.01536-.15679-.1114Z"/></g></svg>