<?xml version="1.0" encoding="UTF-8"?><svg id="Capa_1" xmlns="http://www.w3.org/2000/svg" viewBox="0 0 500 250"><defs><style>.cls-1{fill:#fff;}.cls-2{fill:#ffe800;}.cls-3{fill:#002e6d;}</style></defs><path class="cls-3" d="M181.96103,123.09404c0-28.19001-35.0254-51.17483-78.23991-51.17483S25.48121,94.87543,25.48121,123.09404v2.99346c0,29.91554,30.61147,54.13968,78.23991,54.13968,47.91443,0,78.24944-24.22415,78.24944-54.13016l-.00953-3.00299Z"/><path class="cls-2" d="M178.96757,123.03684c0,26.57888-33.69073,48.13371-75.23691,48.13371S28.50327,149.61572,28.50327,123.03684s33.69073-48.12417,75.22738-48.12417,75.23692,21.54529,75.23692,48.12417Z"/><path class="cls-1" d="M78.75337,107.84073c0,.07627-.79127,.84846-.30507,1.47767,1.19166,1.51579,4.85245,2.38333,8.57998,1.55393,2.21173-.49573,5.04312-2.75513,7.77919-4.92872,2.9744-2.35473,5.92019-4.76666,8.88505-5.66279,2.08166-.76186,4.35595-.8188,6.47312-.16206,1.4586,.429,3.1746,1.39186,5.90112,3.44153,5.14799,3.87052,25.85434,21.92662,29.42934,25.06308,10.64931-4.62151,21.72595-8.18813,33.07107-10.64871-1.50627-9.27591-7.14999-17.76056-15.7109-24.71035-11.91664,5.01453-26.49307,7.62665-40.74539,.66733-.06673,0-7.77919-3.67986-15.38677-3.50826-11.30651,.26693-16.20663,5.15752-21.39276,10.34364l-6.57799,7.07372Z"/><path class="cls-1" d="M144.62857,130.60629c-.23833-.21926-24.33855-21.30696-29.79161-25.40628-3.15552-2.36427-4.91919-2.9744-6.75912-3.21273-1.08424-.08624-2.17518,.02027-3.22226,.3146-2.53587,.6864-5.85345,2.85999-8.79925,5.24332s-5.92972,4.76666-8.57998,5.31959c-3.40339,.76267-7.56945-.13347-9.47612-1.42046-.68329-.4032-1.23854-.9915-1.6016-1.69694-.39012-1.11608-.07042-2.35726,.81033-3.146l6.67332-7.19765c.7722-.7722,1.55393-1.5444,2.34519-2.29753-2.04898,.30323-4.07248,.75891-6.05365,1.36326-2.28723,.7577-4.66701,1.2003-7.07372,1.31559-2.42393-.24586-4.83296-.62138-7.21672-1.12493-6.60043-1.70208-13.0257-4.02258-19.19056-6.93072-9.44751,7.03558-15.7681,15.83484-17.5985,25.52069,1.36326,.36226,3.54639,1.01053,4.47112,1.22026,21.39276,4.76666,28.05655,9.65725,29.25774,10.67731,2.59677-2.9258,7.0737-3.19253,9.9995-.59576,.41656,.3697,.78806,.78727,1.10681,1.24402,1.44152-1.16295,3.23866-1.79564,5.09079-1.79227,1.04239,.00944,2.07618,.18979,3.06019,.53386,1.92731,.61922,3.49636,2.03555,4.30905,3.88959,.93563-.41829,1.94953-.63277,2.9744-.6292,1.22601,.01718,2.43575,.28314,3.55593,.78174,3.94679,1.69693,4.56646,5.56745,4.20419,8.49419,.28141-.03514,.56489-.05106,.84846-.04767,4.68376,.00525,8.47939,3.80087,8.48465,8.48464-.00049,1.39888-.35117,2.77539-1.02006,4.00399,1.27746,.715,4.51879,2.33566,7.36925,1.9734,2.26893-.29553,3.13646-1.06773,3.44153-1.50627,.21927-.29553,.43853-.64826,.2288-.95333l-6.03459-6.67332s-.95333-.95333-.66733-1.30606,.95333,.16206,1.39186,.52434c3.06973,2.57399,6.81632,6.44452,6.81632,6.44452,0,0,.3146,.52434,1.70646,.7722,1.6732,.29633,3.39485-.10309,4.76666-1.10587,.38712-.32049,.7387-.68166,1.04866-1.07727l-.06673,.0572c.86905-1.20535,.79808-2.8494-.1716-3.97539l-7.04512-7.91265s-1.01053-.95333-.66733-1.30606,.95333,.16206,1.39186,.53386c2.24033,1.90666,5.38632,5.03359,8.40838,7.98892,.59107,.429,3.25086,2.06873,6.75912-.23833,1.60008-.88197,2.56912-2.58793,2.50727-4.41393-.15411-1.11732-.67763-2.15093-1.48719-2.93626l-9.62865-9.67631s-1.02006-.87706-.6578-1.31559,.95333,.16206,1.38233,.52433c3.06973,2.57399,11.37324,10.18159,11.37324,10.18159,1.9993,1.29496,4.58561,1.24211,6.53033-.13347,1.2417-.72485,2.0447-2.01677,2.145-3.45106,.05337-1.48785-.54969-2.924-1.64929-3.92771Z"/><path class="cls-1" d="M97.94393,142.86614c-1.48719,0-3.12693,.87706-3.33666,.7436s.0858-.67687,.2288-1.02007,2.10686-6.26339-2.67886-8.31305c-3.67032-1.57299-5.91065,.20021-6.67332,.95333-.2002,.21926-.286,.20021-.3146-.06674-.05232-2.26659-1.55044-4.24488-3.71799-4.90965-3.05343-.96228-6.37583,.20213-8.16051,2.85999-.36857-2.87226-2.99577-4.9019-5.86803-4.53333s-4.9019,2.99577-4.53333,5.86803c.33644,2.62185,2.5719,4.5833,5.21524,4.57595,1.33972,.02854,2.6383-.46356,3.62266-1.37278v.17159c-.21927,1.29653-.61967,6.01552,4.31859,7.94125,1.7067,.65496,3.63258,.35756,5.06219-.78174,.41947-.29553,.4862-.17159,.41947,.21926-.1716,1.21073,0,3.81333,3.6894,5.29099,1.85541,.90559,4.0848,.49145,5.49119-1.02007,.46713-.429,.59107-.36227,.61967,.29553,.16322,3.64506,3.25045,6.46766,6.89551,6.30443,3.64506-.16321,6.46765-3.25044,6.30443-6.89551-.15813-3.53138-3.06797-6.31261-6.60289-6.31105l.01906,.00003Z"/><path class="cls-3" d="M145.56283,128.07996c-7.41692-6.48266-24.57688-21.39276-29.21961-24.88195-2.65026-1.99246-4.46159-3.05066-6.05365-3.5178-.9618-.30666-1.96489-.4642-2.9744-.46713-1.29641,.01535-2.58268,.2308-3.81333,.63873-3.003,.95333-5.99646,3.32712-8.88505,5.62466l-.15254,.1144c-2.69793,2.145-5.48166,4.36626-7.62665,4.83339-.93827,.21329-1.8978,.31884-2.85999,.3146-2.35473,0-4.48065-.6864-5.27192-1.69693-.13347-.1716,0-.43853,.2574-.8294v-.0572l6.6924-6.98792c5.13846-5.15753,9.90511-9.99092,21.06862-10.24831h.55293c6.92119,0,13.84237,3.09833,14.61457,3.46059,6.19113,3.08756,13.00649,4.71803,19.92463,4.76666,7.01652,0,14.2523-1.73506,21.86942-5.24332-.84846-.715-1.73507-1.41093-2.64073-2.0878-6.03513,2.75881-12.57482,4.242-19.20962,4.35672-6.4691-.05022-12.84098-1.5796-18.6281-4.47112-.3146-.15254-7.96032-3.75613-15.9111-3.76566h-.61967c-9.34265,.21927-14.60504,3.53686-18.1133,6.44452-3.07421,.15733-6.11514,.71169-9.04711,1.64927-2.06234,.68803-4.20712,1.09839-6.37779,1.22026-.81987,0-2.29753-.07627-2.42146-.07627-2.288-.07627-13.78517-2.85999-22.93715-6.35872-.95333,.66733-1.83039,1.3442-2.70746,2.04013,9.53331,3.91819,21.19256,6.94979,24.86288,7.18812,1.02006,.06673,2.10686,.18114,3.19366,.18114,2.44168-.11586,4.85646-.56162,7.17859-1.32514,1.38233-.39087,2.91719-.81033,4.51879-1.1154l-1.27746,1.27746-6.67332,7.17858c-1.04806,.90333-1.42766,2.36101-.95333,3.66079,.39022,.78727,.995,1.44822,1.7446,1.90666,2.14745,1.21268,4.57923,1.83132,7.04512,1.79226,.94217,.00257,1.88188-.0965,2.8028-.29553,2.78373-.6292,5.71999-2.94579,8.78972-5.40539,2.46912-1.90666,5.96786-4.44253,8.63718-5.16705,.78658-.21304,1.59706-.32516,2.41193-.33366,.20628-.01511,.41339-.01511,.61967,0,1.7732,.21927,3.47966,.81987,6.53985,3.11739,5.44352,4.08979,29.55327,25.16794,29.77254,25.37768,.96888,.91987,1.49653,2.21124,1.44907,3.54639-.08814,1.27828-.80167,2.43062-1.90666,3.07926-.94244,.61329-2.04068,.94409-3.16507,.95333-.98829-.0054-1.95553-.286-2.79325-.81034-.0858-.07627-8.34165-7.62665-11.38278-10.19111-.38047-.402-.88327-.66681-1.43-.75313-.24473-.0068-.47817,.10285-.6292,.29553-.47667,.58153,.0572,1.40139,.6864,1.90667l9.64771,9.69538c.72121,.69938,1.19053,1.6179,1.33466,2.61213,.05062,1.65864-.83331,3.20552-2.28799,4.00399-1.00679,.70054-2.19638,1.09154-3.42246,1.12492-.97626-.00436-1.93019-.29252-2.74559-.82939l-1.39186-1.36326c-2.52633-2.49772-5.13846-5.06219-7.04512-6.67332-.3885-.39472-.89279-.65521-1.43953-.7436-.2303-.00263-.45131,.09061-.61013,.2574-.21927,.24786-.36226,.67687,.18114,1.4014,.1472,.19391,.30979,.37564,.4862,.54341l7.03558,7.90311c.83601,.94996,.89943,2.35329,.15254,3.37479l-.23833,.3146c-.20706,.22214-.42668,.43221-.6578,.6292-.9948,.73515-2.20481,1.1206-3.44153,1.09633-.31981,.00246-.6391-.02627-.95333-.0858-.51201-.03733-.99762-.24162-1.38233-.58153l-.0858-.0858c-.38133-.4004-3.93726-4.02306-6.87352-6.47311-.3614-.38786-.84051-.64584-1.36326-.73407-.24468-.00356-.47843,.10111-.63873,.286-.58153,.63873,.29553,1.58253,.66733,1.90666l5.99646,6.61612c-.04461,.15204-.1228,.29214-.2288,.40993-.20973,.29553-.95333,1.02007-3.11739,1.29653-.26227,.03487-.52671,.0508-.79127,.04767-2.04477-.0843-4.04478-.62501-5.85347-1.58253,.56582-1.19156,.85892-2.49425,.858-3.81333-.00524-4.9433-4.00849-8.95081-8.95178-8.96131h-.32413c.16206-2.25939-.15254-6.53033-4.53786-8.40838-1.1782-.53219-2.45386-.81459-3.74659-.82939-.9379-.00499-1.86866,.16307-2.74559,.49574-.9101-1.77246-2.48785-3.11011-4.38532-3.71799-1.03137-.36792-2.11771-.55811-3.21273-.56246-1.79578-.00925-3.54819,.55152-5.00499,1.60159-1.42758-1.79864-3.59529-2.85092-5.89159-2.85999-2.00408,.00593-3.9253,.80044-5.34819,2.21174-1.90666-1.42046-9.27591-6.12992-29.11474-10.63918-.95333-.20973-3.16506-.84846-4.50926-1.23933-.22948,1.07366-.40133,2.15883-.5148,3.25086,0,0,3.66079,.87706,4.38532,1.03913,20.25829,4.49973,26.96021,9.18059,28.08514,10.06718-1.59323,3.89914,.27608,8.35159,4.17521,9.94481,1.34008,.54757,2.80834,.70243,4.23317,.4465,.60472,3.0585,2.77951,5.57038,5.71999,6.60658,.86177,.3425,1.78013,.52035,2.70746,.52434,.58192,.00672,1.16216-.0638,1.72553-.20973,.89412,2.07645,2.62615,3.67685,4.76666,4.40439,.94465,.39936,1.95837,.60987,2.98392,.61966,.79095-.00143,1.57535-.14346,2.3166-.41947,1.85455,4.57156,7.06393,6.77413,11.63548,4.91957,1.15052-.46673,2.19111-1.16817,3.05536-2.05958,2.32526,1.35149,4.94046,2.12624,7.62665,2.25939,.38258-.00071,.7647-.02618,1.14399-.07627,3.06973-.38133,4.49019-1.58253,5.14799-2.50727,.11594-.16458,.22103-.33654,.3146-.51479,.78878,.239,1.60692,.36735,2.431,.38133,1.78041-.03768,3.50028-.65335,4.90012-1.75413,1.46277-.97717,2.48834-2.48476,2.85999-4.20419-.00392-.02207-.00392-.04467,0-.06674,.53903,.11463,1.08864,.17215,1.63973,.17159,1.79521-.02262,3.54346-.57663,5.02405-1.59206,2.29907-1.33306,3.68527-3.8165,3.61312-6.47311,.54563,.11362,1.10146,.17113,1.6588,.17159,1.67979-.01802,3.31856-.52125,4.71899-1.44907,1.88442-1.1523,3.10352-3.13688,3.27946-5.33866,.11285-1.50666-.25065-3.0107-1.03913-4.29952,10.1252-4.13918,20.58239-7.41443,31.25974-9.79072-.0858-1.0868-.24786-2.16406-.43854-3.24133-11.31642,2.48995-22.36359,6.07551-32.98527,10.70594Zm-47.6189,27.52269c-3.27234,.02367-5.97685-2.54605-6.12039-5.81533,0-.286,0-1.0296-.66733-1.0296-.28847,.03128-.55427,.171-.7436,.39087-.78034,.83376-1.8615,1.32113-3.003,1.35373-.68303-.00877-1.35735-.15465-1.98293-.429-3.49872-1.41093-3.54639-3.81333-3.40339-4.76666,.07111-.25089,.0256-.52044-.12393-.73407l-.20973-.19066h-.21927c-.22412,.01753-.43728,.10413-.61013,.24786-.85355,.65367-1.89033,1.02371-2.96486,1.0582-.56782-.00836-1.12959-.11813-1.65879-.32413-3.0108-1.12357-4.72329-4.3039-4.00399-7.43599,.04381-.22435-.03199-.45535-.2002-.61013l-.30507-.30506-.30507,.286c-.8845,.85747-2.06663,1.33921-3.29853,1.3442-2.63253,.00925-4.77412-2.11734-4.78337-4.74988-.00925-2.63253,2.11735-4.77412,4.74988-4.78337,2.39937-.00842,4.43102,1.76792,4.74295,4.14694l.16206,1.287,.70546-1.0868c1.63976-2.52047,4.76264-3.633,7.62665-2.717,1.97347,.62103,3.33118,2.4313,3.37479,4.49973,.0572,.61966,.49573,.64826,.58153,.64826,.2166-.01235,.41769-.11636,.55293-.286,.91406-.96436,2.18917-1.50343,3.5178-1.48719,.90852,.02128,1.80342,.22556,2.6312,.6006,4.49019,1.90666,2.4596,7.62665,2.431,7.69338-.39087,.95333-.4004,1.36326,0,1.61113l.18114,.07627h.12393c.30199-.03286,.5975-.10996,.87706-.2288,.76492-.30005,1.57255-.47703,2.39286-.52434h0c3.38546,0,6.12992,2.74446,6.12992,6.12993s-2.74446,6.12991-6.12992,6.12991h-.04768Z"/><path class="cls-3" d="M213.44956,94.85636v23.01342h-9.20918v-21.18302c0-10.27691,5.16705-15.38677,15.45349-15.38677,4.63319,0,8.17006,1.02006,10.75358,3.06019,2.59306-1.9734,6.12991-2.92673,10.76311-2.92673,10.28644,0,15.38677,5.10986,15.32003,15.3963v21.17349h-4.69992c-2.99346-.20973-4.4902-1.6302-4.4902-4.49019v-18.52324c-.20021-3.74659-2.24986-5.58652-6.26339-5.58652s-6.06319,1.83993-6.12991,5.58652v22.87995h-9.12337v-23.01342c-.20973-3.74659-2.24986-5.58652-6.26339-5.58652s-6.0441,1.83993-6.11083,5.58652Z"/><path class="cls-3" d="M300.95586,99.41329c.26693-11.64018,6.02506-18.1133,18.1133-18.1133h2.73606v9.38078l-4.21374,.0858c-5.03359,0-7.40737,3.25086-7.40737,8.49419v18.72343h-9.19013l-.03811-18.57089Z"/><path class="cls-3" d="M372.47477,92.58743h-8.43699c.32413-6.95932,3.81333-11.59251,14.10929-11.59251,9.94324,0,14.98637,3.26039,15.18656,9.93371v12.25984c0,9.94325-5.98692,14.3667-15.72997,15.0531-8.64672,.67686-14.64316-3.33666-14.64316-11.30651,.20973-8.64672,6.47313-10.96331,15.59649-11.84991,3.88007-.47667,5.85347-1.6302,5.85347-3.60359-.20019-2.04966-2.10685-3.02206-5.85347-3.06973-4.24231-.0572-5.57697,2.4882-6.08223,4.1756Zm12.07872,10.18158v-2.93626c-2.34751,.82168-4.76683,1.42171-7.22624,1.79226-3.60359,.67686-5.44351,2.38333-5.44351,5.03359,.20019,2.85999,1.70647,4.22326,4.56647,4.22326,5.03356,0,8.10329-2.99345,8.10329-8.10331v-.00954Z"/><path class="cls-3" d="M432.17238,69.80281v32.47047c0,10.80442-5.62782,16.18438-16.88349,16.1399-11.1635-.20973-16.75004-6.26339-16.75004-18.24676,0-12.25984,4.76666-18.52323,14.36671-18.86643,4.19448-.18888,8.1508,1.95244,10.28645,5.56745v-12.46004c3.0125-4.49019,8.98037-4.60459,8.98037-4.60459Zm-24.30041,29.95367c-.06674,7.28345,2.38333,10.96331,7.55991,10.96331s7.76013-3.67986,7.76013-10.96331c-.20973-6.94979-2.72651-10.35318-7.62665-10.35318s-7.42646,3.4034-7.69339,10.35318Z"/><path class="cls-3" d="M270.90683,123.49443h2.37379v47.66657h-9.05665v-41.84171c.00003-1.35373,2.81234-5.82486,6.68286-5.82486Z"/><path class="cls-3" d="M320.24173,134.08595c-4.16754-.17124-8.0872,1.97943-10.18157,5.58652v-16.20663h-1.02959c-3.2904-.12387-6.37951,1.5821-8.02706,4.43299v27.13182c0,10.82032,5.65325,16.20663,16.89303,16.13989,11.1635-.20973,16.75004-6.27292,16.75004-18.25629-.0286-12.2217-4.79526-18.4851-14.40485-18.8283Zm-2.65026,29.41028c-5.17658,0-7.62665-3.67033-7.55991-10.95378,.27647-6.94978,2.79325-10.38178,7.65525-10.38178s7.42646,3.4034,7.62665,10.35318c0,7.31205-2.54541,10.98238-7.72199,10.98238Z"/><path class="cls-3" d="M272.6991,108.79407c1.44905,1.41093,3.52734,2.10686,6.24431,2.10686,1.78569,.04866,3.54203-.46125,5.02405-1.4586,1.1859-.70756,2.0967-1.79649,2.58352-3.08879h8.48464c-1.36011,4.21373-3.44151,7.22307-6.24431,9.02805-3.05748,1.88641-6.59992,2.83747-10.19109,2.73606-2.54989,.03774-5.08348-.41203-7.46457-1.32513-2.13924-.8345-4.0644-2.1375-5.63419-3.81333-1.57186-1.6865-2.78488-3.67465-3.56545-5.84392-.8586-2.39368-1.28156-4.92178-1.24886-7.46459-.02095-2.50169,.41522-4.98616,1.287-7.33112,1.61713-4.41319,4.99879-7.95375,9.33312-9.77165,2.30673-.97234,4.78993-1.45601,7.29295-1.42046,2.70487-.06406,5.38463,.53145,7.80779,1.73506,2.16251,1.10185,4.03668,2.69521,5.47211,4.65225,1.44888,2.00527,2.49764,4.27105,3.08878,6.67332,.63586,2.55063,.86431,5.18578,.67686,7.80779h-25.32045c.13345,3.13328,.92473,5.39268,2.37379,6.77819Zm10.89657-18.46603c-1.15352-1.2584-2.90765-1.90666-5.26238-1.90666-1.31505-.04489-2.62201,.22303-3.81333,.78173-.94376,.45285-1.77926,1.10306-2.45007,1.90666-.5844,.72156-1.02167,1.55071-1.287,2.44053-.2299,.75073-.37693,1.52435-.43852,2.30706h15.68231c-.29259-2.0241-1.13324-3.92961-2.43101-5.51025v-.01907Z"/><path class="cls-3" d="M342.1493,88.33558c-1.38106-.04912-2.74438,.3233-3.90866,1.06773-1.0501,.70709-1.92677,1.64242-2.56446,2.73606-.67572,1.14791-1.15274,2.40169-1.41094,3.70846-.27214,1.32052-.40949,2.66526-.40993,4.01352,.00198,1.31351,.13936,2.62332,.40993,3.90866,.25335,1.26069,.70377,2.47358,1.33466,3.59406,.61329,1.06753,1.47294,1.97294,2.50727,2.64072,1.14322,.70838,2.46892,1.06632,3.81333,1.0296,1.97966,.14146,3.92854-.54963,5.3768-1.90666,1.32721-1.45187,2.15849-3.28807,2.37379-5.24332h9.39032c-.63557,4.70946-2.46278,8.29715-5.48166,10.76311-3.0189,2.46595-6.87354,3.69257-11.56391,3.67986-2.49825,.02893-4.97834-.42759-7.30252-1.3442-2.13022-.82661-4.05809-2.10102-5.65325-3.73706-1.58742-1.64142-2.82619-3.58714-3.64173-5.71999-.88723-2.33438-1.32706-4.81493-1.29652-7.31205-.02432-2.59041,.3783-5.16713,1.19166-7.62665,.73979-2.2593,1.94096-4.34024,3.52734-6.11086,1.59187-1.7358,3.54415-3.10239,5.71999-4.00399,2.43607-.99963,5.05113-1.48954,7.68385-1.43953,2.04934-.00967,4.09,.26628,6.06317,.81987,1.8739,.51327,3.64025,1.3593,5.21472,2.49773,1.52353,1.11959,2.7964,2.54507,3.73707,4.18512,1.0009,1.82191,1.5624,3.85243,1.63973,5.92972h-9.53331c-.6578-4.08979-3.07927-6.12992-7.21673-6.12992Z"/><path class="cls-3" d="M439.15077,92.0059c1.59312-4.44637,5.04671-7.97652,9.45706-9.66678,2.40526-.92254,4.96504-1.37559,7.54085-1.33467,2.58812-.03994,5.1602,.41301,7.579,1.33467,2.18128,.84443,4.15735,2.14447,5.79624,3.81333,1.63508,1.68438,2.8956,3.69538,3.69893,5.90112,.89715,2.47095,1.33963,5.08388,1.30606,7.71245,.03625,2.61945-.40638,5.22348-1.30606,7.68385-.80603,2.19316-2.06656,4.19116-3.69893,5.86299-1.63988,1.64922-3.61721,2.92407-5.79624,3.73706-2.42484,.89554-4.99434,1.33509-7.579,1.29653-2.57226,.03892-5.12931-.40073-7.54085-1.29653-2.15055-.82505-4.10056-2.09904-5.71999-3.73706-1.63237-1.67183-2.8929-3.66983-3.69893-5.86299-.93142-2.47048-1.40003-5.09134-1.38234-7.73151-.02135-2.6309,.43407-5.2439,1.3442-7.71245Zm8.83737,11.85944c.24994,1.28817,.72774,2.52141,1.41094,3.64173,.653,1.06135,1.56068,1.94283,2.64072,2.56446,1.25916,.68102,2.67848,1.01033,4.10886,.95333,1.44533,.05442,2.87934-.27448,4.15651-.95333,1.09246-.61515,2.0109-1.49752,2.66932-2.56446,.6832-1.12032,1.161-2.35355,1.41094-3.64173,.27226-1.36556,.40955-2.75457,.40993-4.14699-.00224-1.40495-.13953-2.80644-.40993-4.18512-.245-1.28661-.72317-2.51758-1.41094-3.63219-.66929-1.0581-1.58524-1.93808-2.66932-2.56446-1.27388-.68762-2.71031-1.01708-4.15651-.95333-2.73012-.12418-5.31326,1.24037-6.74957,3.56546-.68777,1.11461-1.16595,2.34558-1.41094,3.63219-.27039,1.37868-.40769,2.78017-.40993,4.18512,.00349,1.37649,.14078,2.7494,.40993,4.09933Z"/><path class="cls-3" d="M339.93757,152.50432c.27647-11.64018,6.02506-18.1133,18.1133-18.1133h2.72651v9.39032l-4.20419,.09534c-5.04313,0-7.40737,3.25086-7.40737,8.49419v18.72343h-9.19964l-.0286-18.58998Z"/><path class="cls-3" d="M375.08689,161.90416c1.43954,1.4014,3.52734,2.10687,6.24431,2.10687,1.78569,.04866,3.54203-.46125,5.02405-1.4586,1.18587-.70509,2.09432-1.79524,2.57401-3.0888h8.48464c-1.35374,4.20102-3.43517,7.21035-6.24431,9.02805-3.05547,1.88103-6.59515,2.82561-10.18157,2.717-2.54971,.03564-5.08293-.41406-7.46457-1.32513-2.13729-.83821-4.0617-2.14068-5.63419-3.81333-1.57529-1.68389-2.78874-3.6728-3.56545-5.84393-.86186-2.39309-1.28805-4.92122-1.2584-7.46459-.02182-2.50175,.41438-4.98638,1.287-7.33112,1.62527-4.41131,5.00868-7.95008,9.34264-9.77165,2.30603-.97562,4.78929-1.46254,7.29298-1.43,2.70464-.06177,5.38387,.53363,7.80779,1.73507,2.15724,1.10153,4.02771,2.69125,5.4626,4.64272,1.45286,2.00295,2.50197,4.26952,3.08878,6.67332,.64099,2.54977,.86948,5.18575,.67686,7.80779h-25.32048c.13348,3.14598,.92793,5.41809,2.38333,6.81631Zm10.88706-18.46602c-1.15035-1.27112-2.90448-1.90666-5.26238-1.90666-1.31496-.0438-2.62166,.22408-3.81333,.78174-.94289,.44989-1.77586,1.10066-2.44053,1.90666-.58629,.72031-1.02377,1.54986-1.287,2.44053-.23342,.75029-.38368,1.52395-.44807,2.30706h15.68231c-.28494-2.03203-1.12629-3.94567-2.43101-5.52934h0Z"/><rect class="cls-3" x="282.99507" y="123.49443" width="9.05665" height="8.24631"/><rect class="cls-3" x="282.99507" y="135.88774" width="9.05665" height="35.31139"/></svg>