<?xml version="1.0" encoding="UTF-8"?><svg id="Capa_1" xmlns="http://www.w3.org/2000/svg" viewBox="0 0 500 250"><defs><style>.cls-1{fill:#030303;}.cls-2{fill:#050505;}</style></defs><g id="SHEIN"><path class="cls-1" d="M375.12804,125.42968v17.16256c0,4.11403-.0593,8.22934,.02986,12.34146,.03444,1.58966-.28712,2.29829-2.11059,2.20096-3.09548-.16526-6.21444-.18046-9.30786,.00295-1.9936,.1182-2.39341-.5377-2.38675-2.42149,.07159-20.22708,.04455-40.4545,.04451-60.68183v-3.16354c12.29978,11.34016,24.18933,22.30208,36.05954,33.24617,.94581-.54056,.53317-1.30839,.53525-1.90507,.0315-9.08505,.07526-18.17081-.02265-27.25492-.0199-1.84519,.54476-2.31832,2.32034-2.2376,3.09795,.14084,6.21636,.18452,9.30824-.01131,2.10127-.13309,2.10667,.89334,2.10304,2.4413-.03858,16.45604-.02392,32.91221-.02392,49.36834v14.61158c-12.26734-11.31095-24.12475-22.24393-36.54901-33.69957Z"/><path class="cls-1" d="M163.43631,124.95252c0-9.9445,.03906-19.88928-.03685-29.83321-.0133-1.74277,.38943-2.41816,2.26794-2.32752,3.18386,.15362,6.38519,.14309,9.57025,.00223,1.75286-.07752,2.17695,.51384,2.15665,2.18002-.08564,7.0287,.03377,14.06016-.08206,21.088-.03158,1.91609,.46496,2.44824,2.42942,2.41743,7.84709-.12307,15.69809-.11109,23.54572-.00682,1.8659,.02479,2.50501-.34749,2.46489-2.35378-.13877-6.94122,.03982-13.88886-.10942-20.82965-.0458-2.1299,.66167-2.59349,2.62572-2.4961,3.0974,.15359,6.2105,.11131,9.3123,.01038,1.49722-.04872,2.11009,.24485,2.10509,1.93537-.05958,20.23173-.06066,40.46376,.00126,60.69548,.00528,1.72542-.67357,1.95291-2.12948,1.91336-3.18898-.08663-6.38612-.12344-9.57174,.01109-1.78064,.0752-2.35518-.41352-2.33133-2.25976,.10297-7.97143-.00552-15.94546,.08232-23.91725,.01959-1.77822-.21769-2.53189-2.32146-2.49328-7.93259,.14558-15.87023,.11519-23.80426,.01558-1.82025-.02285-2.31443,.49035-2.29372,2.28185,.09317,8.05741-.00044,16.11686,.07493,24.17463,.01532,1.63836-.35816,2.28227-2.13884,2.20113-3.18468-.14511-6.38584-.14749-9.57032-.00033-1.85596,.08576-2.29907-.55301-2.28519-2.3185,.07879-10.02961,.03816-20.06015,.03815-30.09037Z"/><path class="cls-2" d="M247.30562,125.12201c0-9.94465,.04112-19.88962-.03775-29.83366-.01425-1.79741,.27589-2.52361,2.35034-2.50923,14.31757,.09924,28.63635,.08918,42.95416,.00806,1.89302-.01072,2.38488,.6139,2.22208,2.33888-.24659,2.61266,1.11131,6.11993-.55674,7.60685-1.45168,1.29408-4.91075,.40227-7.48294,.40878-7.84912,.01987-15.6991,.06655-23.54689-.0367-1.85251-.02437-2.32754,.54249-2.26469,2.30914,.13097,3.68178,.13381,7.37479-.0018,11.05623-.06338,1.72052,.49006,2.12685,2.1588,2.11345,9.57364-.07688,19.14887,.02156,28.72192-.08521,2.01461-.02247,2.78539,.46519,2.56895,2.53108-.17768,1.6962-.15977,3.43664-.00378,5.1371,.1803,1.96534-.40059,2.60906-2.5114,2.58075-9.40004-.12608-18.8047,.04853-28.20318-.12554-2.43267-.04506-2.82474,.74179-2.73748,2.87353,.16466,4.02264,.17048,8.06188-.00204,12.08387-.09241,2.15439,.33767,2.90466,2.7471,2.86244,9.57129-.16769,19.148-.00893,28.72099-.11829,1.97553-.02257,2.60803,.52478,2.39713,2.44003-.30581,2.7768,1.21119,6.51644-.60294,8.09555-1.58573,1.38032-5.25016,.4517-7.99639,.45623-12.16186,.02005-24.32409-.03532-36.48532,.05412-1.92708,.01418-2.47527-.4661-2.45527-2.41398,.10206-9.94361,.04714-19.88883,.04714-29.83348Z"/><path class="cls-1" d="M114.93454,91.55056c7.53721,.00512,14.61461,1.69306,20.89554,6.16509,1.38844,.98857,1.62061,1.58624,.18757,2.76395-2.38883,1.96319-4.67073,4.06526-6.88596,6.22216-1.02217,.99527-1.68024,.90778-2.77837,.08384-3.87521-2.90759-8.3586-3.92192-13.14727-3.74008-2.10789,.08004-4.07204,.687-5.82631,1.87142-4.02403,2.7169-4.10736,7.13059-.17229,9.96474,2.3275,1.67633,5.00068,2.65823,7.6736,3.62741,5.2491,1.90328,10.69124,3.32941,15.50023,6.3115,4.08938,2.53586,7.24725,5.79337,8.42825,10.59091,1.75907,7.14575-.33878,13.02237-6.06962,17.60148-4.00965,3.20384-8.67818,4.95186-13.76656,5.33364-10.60004,.7953-20.59486-.96868-29.47207-7.26302-1.40844-.99865-1.69944-1.52883-.22705-2.72888,2.32972-1.8988,4.55726-3.93655,6.69039-6.05258,1.17898-1.16954,2.00031-1.31056,3.43306-.28473,4.69559,3.36199,10.05211,4.76801,15.81472,4.71297,2.47285-.02362,4.79244-.60298,6.81285-2.05546,3.60289-2.59014,3.64902-6.84553,.09809-9.48874-2.16214-1.60944-4.68677-2.5131-7.19396-3.42954-4.52243-1.65306-9.20294-2.90774-13.50741-5.11172-5.66071-2.89841-10.21797-6.82353-11.25572-13.47759-1.22465-7.8525,2.39832-14.57619,9.72945-18.4695,4.68409-2.48756,9.71775-3.38457,15.03884-3.1473Z"/><path class="cls-1" d="M333.69191,125.41077c0,9.84582-.05431,19.6922,.04639,29.537,.01984,1.93943-.51541,2.5152-2.45387,2.41672-3.17889-.16148-6.37313-.08991-9.55883-.02161-1.33673,.02866-2.02382-.18591-2.02004-1.7839,.04799-20.29085,.04453-40.58187,.00449-60.87275-.00289-1.4644,.45065-1.92592,1.91841-1.88253,3.27043,.09668,6.55061,.13651,9.81716-.01102,1.85208-.08364,2.2974,.54846,2.28393,2.31036-.07734,10.10209-.03764,20.20506-.03764,30.30773Z"/></g></svg>